<?xml version="1.0" encoding="utf-8"?>
<!-- Generator: Adobe Illustrator 26.4.1, SVG Export Plug-In . SVG Version: 6.00 Build 0)  -->
<svg version="1.1" id="Capa_1" xmlns="http://www.w3.org/2000/svg" xmlns:xlink="http://www.w3.org/1999/xlink" x="0px" y="0px"
	 viewBox="0 0 400.6 550.5" style="enable-background:new 0 0 400.6 550.5;" xml:space="preserve">
<path d="M261.7,11.3c-0.4,1-0.7,2.5-0.7,3.5c0,2.1-3.8,5.8-6.5,6.3c-2.7,0.5-2.5,3.2,0.2,3.6c2.8,0.4,6.3,4.7,6.3,7.8
	c0,2.9,1.8,4.1,2.6,1.7c1.9-6,3.5-8.3,6.5-9.1c4.2-1,4.7-2.8,1.2-3.7c-3.7-0.9-6.3-3.3-6.3-6c0-1.1-0.6-2.9-1.3-3.9
	C262.4,9.7,262.3,9.7,261.7,11.3z M265,21.1c1.8,2.2,1.8,2.4-0.3,4.6c-2,2.2-2.1,2.2-3.9,0.2c-2.2-2.4-2.2-2.9-0.1-5.2
	C262.7,18.4,262.8,18.4,265,21.1z"/>
<path d="M382.6,178.4c-0.4-1.1-2.1-1.5-6.6-1.5c-3.3,0-6.9-0.5-8-1.2c-1.6-1-2.4-0.9-5,1c-3.1,2.3-5,2.2-5-0.4
	c0-4.5-9.3,1.8-13.7,9.3c-2.5,4.4-2.7,4.5-3.5,2.2c-0.6-1.4-0.5-4.2,0.2-7c1-4.1,0.8-5.9-1.5-14.6c-3.2-12.1-5.5-17.1-10.4-22.1
	c-4.7-4.8-11-7.9-19-9.4c-6.1-1.2-6.1-1.2-6.1-11.2c0-5.9,0.7-13,1.7-17.1c0.9-3.9,1.8-9.7,1.9-12.9c0.3-7.3,1.9-9.6,11-15.8
	c8.8-6,11.4-9.7,11.4-16.1c0-8.4-4.4-13.2-11.8-13c-6.1,0.2-7.9-0.5-9.2-3.7c-0.7-1.7-2.2-3.7-3.4-4.5c-3-2.2-11.2-1.9-15.1,0.5
	c-5.1,3.1-6.5,7.3-6.4,18.2c0.2,10.6-0.7,13-5.1,14.8c-2.3,0.9-3.9,2.9-6.2,7.4c-1.6,3.4-3.9,7.1-5,8.3c-2,2.1-2,2.1-6.6-0.3
	c-3.2-1.7-6-2.4-8.6-2.2c-3.9,0.2-3.9,0.2-5.2-4.7c-0.7-2.9-1-7.4-0.7-10.5c0.7-6.8-0.8-10.7-6.6-17.4c-2.3-2.6-5.4-7.6-7-11
	c-4.6-10.1-13.8-16.6-24.6-17.3c-3.6-0.2-7.4,0.2-9.5,1c-23.3,9.1-24.8,10.2-36.5,26.3c-4.3,6-5,7.5-5,11.9c-0.1,2.7-0.7,6-1.3,7.2
	c-0.7,1.2-1.7,4.4-2.2,7.1c-1.1,4.9-1.1,4.9-7.5,5.4c-10.5,0.9-19.1,7.5-22.7,17.4c-0.7,1.9-1.8,3.4-2.4,3.4c-0.7,0-3.4-2.6-6.1-5.8
	c-5.9-7-6.1-7.2-9.5-7.2c-3.8,0-6.7-6-8-15.9c-1.4-11.7-5.5-16.9-14-17.8c-3.7-0.4-4.9-0.1-7.5,2.1c-1.7,1.4-3.4,3.8-3.8,5.3
	c-1,4.1-2.4,5.3-6.1,5.3c-4.9,0-7.9,1.7-10.3,6c-5.3,9.5-0.1,19.8,11.8,23.6c7.1,2.2,13,6.1,13.6,8.8c0.2,1.2,0.6,3.6,0.9,5.3
	c0.3,1.8,1.7,5,3.1,7.1c1.3,2.1,2.9,6,3.4,8.7c0.9,4.4,0.8,5.3-1,7.5c-4.9,6.2-10,14.7-11.1,18.4c-0.6,2.3-1.2,7.8-1.4,12.3
	c-0.2,10-0.7,10.9-4.2,8.3c-4.3-3-6.6-3-7,0.2c-0.2,1.6-0.5,2.8-0.7,2.8c-0.1,0-2.2-0.9-4.6-2c-5.2-2.3-13.7-2.7-14.5-0.6
	c-0.8,2.2,2.1,7,6.2,10.3c3.4,2.7,3.5,3.1,2.3,5.1c-1.9,3,0.5,5.3,6.5,5.9c2.5,0.3,4.6,0.7,4.6,1c0,0.2-1.2,1.5-2.7,2.8
	c-2.3,1.9-2.6,2.7-1.7,4.1c0.6,1,2.5,2.2,4.2,2.6c1.9,0.5,3.2,1.5,3.2,2.4c0,1.6,1.1,1.6,6.8-0.1c2.1-0.7,2.2-0.4,2.2,3.9
	c0,5.6,2,10.7,5.9,15.1c1.6,1.9,3.2,4.2,3.5,5.2c0.6,2.1,9.1,60.1,13.2,90.2c2.7,19.9,2.7,20.4,0.9,21.7c-5.1,3.8-8.4-1.3-7.7-11.7
	c0.4-7-0.8-10.6-6.2-17.8c-3.1-4.2-3.4-9.4-0.9-18.7c1.6-5.9,1.6-6.6,0-9.8c-1.2-2.7-2.6-3.8-5.7-4.7c-10.9-3.3-20.6,7-18.4,19.8
	c0.4,2.6,0.8,5.2,0.9,5.7c0,0.5-2,1.5-4.5,2.1c-12,3.1-17.5,8.7-16.5,16.5c0.6,4.2,1.2,10.8,1.4,15.6c0.1,1.2,1.4,4.1,3.1,6.5
	c1.6,2.4,3,5.2,3,6.1c0,3.3,4.8,7.6,9.8,8.7c2.6,0.5,6.1,1.7,7.7,2.5c1.7,0.9,5.1,1.6,7.6,1.6c2.6,0,6.3,0.7,8.2,1.5
	c4.7,1.9,12.4,1.9,18.3-0.1c2.5-0.8,4.8-1.3,5.1-1.1c0.2,0.3,1.1,4.8,1.9,10.2c1.5,10.3,2.8,13.8,6.6,17.1c7.7,7,19.8,12.8,37,17.8
	c8.3,2.4,8.3,2.4,8.4,17.7c0,8.5,0.6,16.9,1.2,18.7c0.9,2.9,0.8,3.7-1.4,6.9c-1.3,2-2.4,4.5-2.4,5.7c0,2.4-6.5,8.6-9.1,8.6
	c-0.9,0-2.2,0.7-2.9,1.5s-2.7,1.5-4.4,1.5c-7.6,0.1-15.5,6.4-17.7,14.3c-0.7,2.3-1.5,4.5-1.9,4.9c-0.3,0.4-4,1.7-8.2,2.7
	c-12.9,3.3-16.8,6.3-13.3,10.1c3.8,4.2,19.8,7.8,48,10.7c23.9,2.6,108.2,2.5,131.5,0c32.6-3.6,48.8-8.5,46.7-14.1
	c-0.9-2.4-8-5.5-17.7-7.7c-7.7-1.8-9.2-2.5-10.4-4.7c-0.8-1.5-3.6-4.8-6.2-7.3c-8.8-8.4-14.1-15.2-14.8-19.1c-0.5-2.7-1.8-4.7-4.6-7
	c-3.8-2.9-4-3.5-4-8.4c0-2.9-0.7-10.5-1.5-16.9c-2.1-15.6-1.9-15.9,11.1-20.1c10.7-3.4,11.4-3.3,11.4,2.2c0,3.9,3.7,9.4,7.5,11.3
	c3.8,1.8,5.3,2.7,9,5.1c2,1.4,4.8,2.1,8.5,2.1c3,0.1,8.2,0.2,11.5,0.3c7.3,0.1,11.8-2.5,14.6-8.8c2.5-5.6,2.4-9.6-0.6-14
	c-2.7-4-3.3-9.5-1.6-15.4c0.6-1.9,0.6-4.5,0.1-6.3c-0.9-2.9-0.5-3.5,4.5-8.6c8.5-8.6,11.9-18,10.1-27.6
	c-1.6-8.6-11.8-18.1-23.8-22.2c-4.5-1.5-5.8-2.4-5.8-4c0-1.1,2.9-22.4,6.4-47.3c6.3-44.2,6.5-45.3,9.4-49c4.9-6.2,6.2-9.7,6.2-16.2
	c0-3.4,0.4-6,1-6c0.6,0,3.8,1.1,7.2,2.5c7.3,3,9.5,3.1,10.2,0.7c0.3-0.9,2.4-2.5,4.6-3.4c4.8-2,5.2-4.3,1.3-7.4
	c-2.7-2.1-2.7-2.1,1-2.8c4.3-0.8,6.5-3.7,4.2-5.6c-2.1-1.8-1.9-2.3,1.5-4.4C378.8,187.3,383.4,180.5,382.6,178.4z M332.8,186.1
	c4.1,1.2,4.2,1.3,4.3,5.8c0.6,19.5-6.8,29.5-25.6,34.4c-4.7,1.2-6.7,2.4-9.5,5.5c-3.4,3.9-3.9,4.1-17.3,7.1c-7.6,1.6-15.8,3-18.2,3
	c-4.5,0-4.5,0-4.5-4.5c0-3.3-0.4-4.5-1.5-4.5c-0.8,0-1.5,0.6-1.5,1.4c0,0.7-0.7,2-1.7,2.7c-1.5,1.3-1.6,1.1-0.9-1.6
	c2-8.8,1.8-17-0.7-26.5c-1.9-7.3-2.5-12.1-2.5-21c-0.1-13.3,1.3-17.6,7.1-22.7c3-2.6,4.2-3.1,7-2.6c2.2,0.3,4.5-0.1,6.3-1.1
	c3.5-1.9,5.6-2,7.2-0.4c1.8,1.8,1.5,5.1-1.4,12.5c-4.3,11.4-3.2,19.6,3.1,22.5c5.7,2.6,12-2.4,16.4-13.1c1.4-3.5,3.4-6.9,4.3-7.5
	c4.4-2.7,5.6,5.5,2.3,15.4c-4.7,13.9,0.1,23.9,9.4,20c3.8-1.5,5.7-5.2,7.5-14.8c1.8-9.2,3.2-12.6,4.9-11.8
	C328,184.6,330.4,185.4,332.8,186.1z M284.4,144.9c3-1.2,3.6-1.2,3.6,0.4c0,1.4-5.7,4.3-6.6,3.3C280.5,147.7,282,145.8,284.4,144.9z
	 M292,153.9c0-0.6,0.5-1,1-1c0.6,0,1,0.4,1,1c0,0.5-0.4,1-1,1C292.5,154.9,292,154.4,292,153.9z M316.2,161.1
	c1.6-1.6,2.8-1.5,2.8,0.1c0,1.4-2,3.7-3.2,3.7C314.6,164.9,314.8,162.5,316.2,161.1z M309.8,141c1.2-0.1,3.7,0.5,5.5,1.2
	c1.8,0.8,4.7,2.6,6.5,4.2c3.5,2.9,8,10.5,6.2,10.5c-0.5,0-1-0.4-1-0.9s-2-3.2-4.5-5.9c-3.1-3.5-6.2-5.7-9.8-7.1
	C309.3,141.7,308.3,141,309.8,141z M307.4,148.8c1.1,1.2,1.4,2.1,0.7,2.5c-1.5,1-5.1-1.2-5.1-2.9C303,146.3,305.4,146.5,307.4,148.8
	z M287.8,71.8c0.2-1.3,0.4-6.7,0.5-11.9c0.1-5.5,0.7-10.4,1.5-11.7c2-3.5,5.4-5.4,9.1-5.1c2.8,0.2,4,1.1,6.6,4.8
	c3.1,4.4,3.3,4.5,9.7,5c8.2,0.6,10.8,2.6,10.8,8.1c0,4.6-3.8,9.4-10.4,13.3c-2.4,1.4-5.8,4.2-7.5,6.2c-3,3.4-3.4,3.5-6.1,2.4
	c-2.2-0.9-3.7-0.9-6.1-0.1c-1.8,0.6-3.3,1.1-3.4,1.1c-0.2,0-0.6-1.5-0.9-3.4c-0.5-2.5-0.1-4.3,1.4-6.8c2.2-3.6,2.7-8.2,0.8-7.6
	c-0.6,0.2-1.8,2.3-2.6,4.7C289.7,75.2,287.3,75.9,287.8,71.8z M252.6,109.4c12.3-8.3,17.4-13.5,22.5-23.6c2.6-5.2,6-8.9,8.1-8.9
	c0.5,0,1.7,0.9,2.8,2c1.1,1.1,2,3.1,2,4.4c0,3.1,2.7,5.9,4.9,5c0.9-0.4,3-0.9,4.8-1.2c2.9-0.4,3.4,0,5,3.2c1.5,3.2,1.5,4.2,0.4,8.4
	c-2.4,8.4-3,12.6-3.1,19.9c0,5.7-0.4,7.7-1.7,8.9c-3.3,2.9-12.3,8.4-17.5,10.8c-6,2.7-18.8,14.6-18.8,17.4c0,0.9-2.4,4.2-5.3,7.2
	c-5.2,5.5-7.7,10.8-7.7,16.4c0,3.3-2.3,3.4-5.1,0.3c-6.4-7.3-9.1-10.8-8.5-11.4c0.4-0.4,2.1-1.2,3.9-1.8c2.5-0.8,3.1-1.5,2.9-3.4
	c-0.1-1.4,0.7-3.4,2-4.8c2.2-2.3,2.2-2.3,0-3.9c-2.1-1.5-2.1-1.5-0.1-5.3c2.4-4.6,1.7-7.1-2.1-7.1c-3.7,0-9.3,2-10.6,3.9
	c-1,1.3-1.2,1.2-1.8-0.7c-0.4-1.3-1.6-2.2-2.7-2.2c-1.4,0-1.9-0.7-1.9-2.8C225.1,131.9,234.5,121.4,252.6,109.4z M247.7,228.5
	c1.6,1.1,2.8,13.3,1.5,15.3c-0.5,0.7-2.9,1.7-5.3,2.2c-7.3,1.5-47.5,2.2-58.4,1c-9.1-0.9-10.2-1.3-12.2-3.8
	c-3.3-4.1-2.9-4.4,2.3-2.1c6,2.6,10.7,1.9,15-2.3c4.8-4.6,9.9-4.9,19.6-1c8.3,3.4,10.8,3.8,10.8,1.8c0-0.6-4-2.8-8.8-4.7
	c-11.5-4.6-15.5-4.5-22.7,0.5c-4.6,3.1-6.1,3.7-9,3.2c-5-0.8-8.5-3.7-12.5-10.2c-1.9-3.1-5.1-7.6-7.1-9.8c-2-2.3-4.4-5.6-5.3-7.4
	c-1.8-3.6-2.1-10.8-0.6-14.9c1.1-2.7,1.1-2.7,3.4-0.5c1.3,1.2,2.8,3.9,3.5,6c3.5,12,14,13.3,19.2,2.4c5.4-11.6,9.1-11.1,15.3,2
	c3.4,7,7.5,9.6,12.7,8.1c5.4-1.6,7.3-5.2,7.4-14.5c0.1-6.7,0.4-8.4,2-9.5c2.7-2,3.7-1.8,8.6,2c5.8,4.6,8.3,5.2,12.6,2.6
	c1.9-1.1,3.6-2,3.8-2s2,2.6,3.9,5.7c4,6.5,4.5,10.5,2.1,17.4C246.7,223.9,246.1,227.5,247.7,228.5z M184.9,146.9
	c0.5,0,1.1,0.7,1.5,1.5c0.3,0.9,0,1.5-0.9,1.5c-0.8,0-1.5-0.7-1.5-1.5S184.4,146.9,184.9,146.9z M184,139.1c0-3.7,0-3.7,2.4-0.7
	c1.7,2.1,2.1,3.2,1.3,3.7C185.1,143.8,184,142.8,184,139.1z M201.1,157.3c5.4,1.2,14.1,5.5,15.4,7.6c0.3,0.5-2.5-0.5-6.2-2.3
	c-6.3-3-7.5-3.2-17.3-3.2c-5.8,0-12.1,0.4-14,0.8c-3.5,0.8-3.5,0.8-0.7-0.8C184,156.1,192.7,155.3,201.1,157.3z M191.5,129.4
	c-2.9-9.6-1.4-11.2,3.7-3.9c2.6,3.6,3.7,4.4,5.4,4c1.9-0.5,2.3-0.1,2.9,3.4c0.9,5.3,2.2,5.9,5.1,2.4c2.3-2.9,2.3-2.9,2.5-0.4
	c0.4,4.9-0.3,15.5-1,16.3c-0.4,0.4-3.4-3.5-6.6-8.7c-5.3-8.6-8.5-12.2-8.5-9.6c0,1.1,5.1,9.9,8.2,14c1.2,1.6,1.9,3.2,1.7,3.5
	c-1,0.9-12.8-1.7-14-3.1c-0.9-1.2-0.4-1.4,3-1.4c2.2,0,4.1-0.4,4.1-0.9s-2.1-2.8-4.7-5.1c-2.7-2.3-4-3.9-3-3.6
	C192.9,137.1,193.2,135,191.5,129.4z M202,207.4c-0.6-0.3-1-1-1-1.6c0-1.4,0.7-1.1,1.4,0.7C202.7,207.3,202.6,207.7,202,207.4z
	 M199,197.9c0.5,0.8,1,1.9,1,2.5c0,0.5-0.5,0.3-1-0.5s-1-2-1-2.5C198,196.8,198.5,197.1,199,197.9z M197.4,171.7
	c-2.7,4.4-6.4,6.7-6.4,4c0-1.7,6.1-7.8,7.2-7.2C198.7,168.8,198.4,170.3,197.4,171.7z M178.9,172.3c-1.9-1.7-2.6-5.4-1-5.4
	c0.5,0,1.6,1.1,2.5,2.5C182.5,172.7,181.5,174.7,178.9,172.3z M237,155.9c2,0,0.9,1.8-1.5,2.4c-2.6,0.7-3.2,2-1.5,3.1
	c0.6,0.3,1,1,1,1.6c0,1.2-6.7,1.2-7.5-0.1c-0.3-0.5,1.1-3.2,3.1-6c4.3-6,3.3-6.5-2.1-1c-2.1,2.1-4.2,3.7-4.7,3.4
	c-1.1-0.7-1-4.7,0.3-8.1c1.1-2.8,1.1-2.8,2-0.6c1,2.8,3.5,3,4.8,0.4c1.7-3,10.1-6.5,10.1-4.2c0,0.5-1.1,2.3-2.5,3.9
	C235.9,153.8,235.3,155.9,237,155.9z M231.8,179.4c-0.9,0.9-7.8-1.4-7.8-2.6c0-1.4,4.4-1.1,6.6,0.5
	C231.6,178.1,232.2,179,231.8,179.4z M223.5,48.1c2-1.1,3.5-0.7,3.5,0.8c0,1.6-5,4.4-6,3.4C219.9,51.2,220.8,49.6,223.5,48.1z
	 M209.1,33.3c3.9,0.2,6.6,0.9,8.8,2.5c4.3,3.1,3.2,3.9-1.4,1.1c-1.9-1.2-5.6-2.6-8.3-3C203.5,33,203.5,33,209.1,33.3z M189.5,44.9
	c0.9-1.4,4.9,1.1,5.3,3.4c0.2,0.9-0.3,1.6-1.1,1.6C191.7,49.9,188.7,46.3,189.5,44.9z M177.7,45.1c1.8-1.7,3.6-3.2,4-3.2
	s0.3,0.3-0.2,0.8c-0.6,0.4-2.4,1.8-4,3.2C174.6,48.3,174.6,48.2,177.7,45.1z M165,70.8c1.8-0.4,4.4-1.9,5.8-3.3c3.2-3.1,5.2-2,5.2,3
	c0,4.8,1.6,8.3,4.5,9.6c4.2,1.9,7.5,0,11.6-6.7c5.8-9.6,9.9-8.3,9.9,3.2c0,11.4,4.6,17.5,11.7,15.7c5.6-1.4,7.6-5,8.2-14.8
	c0.4-4.7,1.1-9,1.8-9.7c2-2,5.7,0,8.8,4.8c2.1,3.2,4.1,5,6.4,5.8c6.8,2.2,6.5,9.2-0.9,24.4c-2.7,5.6-7,13.1-9.5,16.7
	c-4.5,6.7-6.8,12.8-8,21.6c-0.3,2.6-1,5-1.6,5.3c-0.5,0.4-0.9,2.4-0.9,4.6c0,2.7-0.4,3.9-1.2,3.7c-3-1-3.2-11.8-0.2-11.8
	c1.7,0,1.9-1.7,0.2-2.2c-0.9-0.3-0.9-1.1,0-3.4c1.7-4.3,1.9-10.6,0.5-11.1c-0.9-0.3-1.3,0.6-1.3,2.9c-0.1,3.1-0.1,3.2-1.5,1.3
	c-3.3-4.6-3.6-4.7-5.4-3.1c-2.3,2.1-3.1,2-3.1-0.3c0-1-0.9-2.9-2-4.2c-1.9-2.3-2.1-2.3-3.4-0.5c-1.4,1.7-1.7,1.6-5.4-2.3
	c-2.1-2.3-4.6-4.1-5.5-4.1c-3.4,0-4.2,4.7-2.1,12.2c0.4,1.2,0,1.8-1,1.8c-0.8,0-2,0.8-2.6,1.7c-1,1.5-1.2,1.6-1.7,0.3
	c-0.3-0.8-2.7-3.6-5.3-6.1c-4.2-4.1-4.8-5.2-5.4-10.2c-0.6-4.4-1.9-7.4-5.8-13.4c-2.8-4.2-5.7-9.5-6.4-11.6
	C156.2,81.5,158.9,72,165,70.8z M155.9,122.5c0.6-2.5,1.1-5.8,1.1-7.3c0-5.5,4.1-7,7.9-2.9c1.3,1.3,2.7,4.3,3.2,6.7
	c0.7,2.8,2.6,5.9,5.8,9.5c5.4,5.9,7.6,12.2,6.6,18.6c-0.5,2.9-1.3,4.2-3.2,4.9c-1.3,0.5-2.6,0.9-2.9,0.9c-0.2,0-1.8-2.8-3.5-6.2
	c-1.8-3.5-6.1-9.3-9.7-13C154.7,127,154.7,127,155.9,122.5z M140.2,102.8c1,1.3,1.8,2.7,1.8,3.2c0,1.6-1.9,0.9-3.4-1.3
	C136.5,101.7,137.9,100,140.2,102.8z M131.5,100.2c2-3.1,5.5-6.3,7-6.2c0.6,0,0.3,0.4-0.6,0.9c-0.9,0.5-2.8,2.7-4.4,5
	C130.4,104.4,128.7,104.6,131.5,100.2z M80.8,103c-2.4-1.7-7-4-10.2-5.1c-6.9-2.4-9.3-4.2-11.3-8.9c-2.9-6.7,1.4-13.1,8.8-13.1
	c4.3,0,7.3-2.5,8.4-6.8c1-4.1,2.4-5.2,6.7-5.2c2.8,0,4.6,0.7,6.3,2.4C92,68.8,94,74.5,94,79.2c0,1.6,1.2,5.8,2.6,9.3
	c2.5,6.4,2.8,9.4,0.9,10.1c-0.5,0.1-3.7-3.5-7-8.2s-6.3-8.5-6.7-8.5c-2.4,0,1.2,7.6,6.8,14.3c2.6,3.1,3,4.7,1.2,4.7
	c-0.7,0-2.4,1.2-3.9,2.6C85.1,106.1,85.1,106.1,80.8,103z M145.9,126.3c3.9,2.6,7.5,5.6,8,6.9c1.8,4.5,3.8,15.8,3,16.3
	c-1.7,1-0.9,3.4,1.2,3.4c2.1,0,2.2-0.3,1.5-7.7c-0.6-7.6-0.6-7.6,1.4-5.8c2.1,1.9,8,13,8,15c0,0.6-1.6,2.7-3.6,4.6
	c-2,1.8-4.3,4.7-5.1,6.3c-1.5,2.9-1.6,2.9-3,1c-0.8-1-3.2-4.9-5.4-8.7c-2.2-3.7-5.3-7.7-6.9-8.8c-1.6-1.2-3.1-3.2-3.4-4.5
	c-0.8-3.1-5.5-6.5-14.1-10.2c-5.3-2.3-9.7-3.3-18-4.2c-18.1-1.9-16.6-1.2-20.4-9c-2.4-4.9-3.2-7.6-2.7-9.5c0.8-3.2,6-6.5,10.3-6.5
	c2.8,0,3.6-0.6,5.3-4c2.4-4.7,4.2-5,7.2-1.3c5.5,6.7,12.8,13.1,18.8,16.3c2.6,1.4,4.2,2.2,4.9,2.8 M119,139.9c0-1.7,3.6-1.1,6.1,0.9
	c1.3,1.1,2.1,2.2,1.8,2.5C126.1,144.2,119,141.1,119,139.9z M119.6,167.9c-2.6,0-4-1.2-2.9-2.4c0.8-0.8,1.7-0.8,3.7,0
	C122.8,166.4,122.3,167.9,119.6,167.9z M111.4,151c-0.9,2.2-2.1,3.9-2.6,3.9c-1.6,0-0.8-4.5,1.4-8c1.8-2.9,2.3-3.2,2.6-1.6
	C113,146.3,112.4,148.9,111.4,151z M86,153.1c3.7-8.3,9.7-14.2,14-14.2c1,0.1,0.9,0.4-0.5,1.2c-4.5,2.5-9,7.7-12.1,14.3
	C83.9,161.8,82.6,160.5,86,153.1z M96,158.8c0,0.6-0.4,1.3-1,1.6c-0.5,0.3-1-0.1-1-0.9c0-0.9,0.5-1.6,1-1.6
	C95.6,157.9,96,158.3,96,158.8z M91.7,191.1c-0.3,0.8-0.6,0.5-0.6-0.6c-0.1-1.1,0.2-1.7,0.5-1.3C91.9,189.5,92,190.4,91.7,191.1z
	 M75.1,207.9c-2.6,1-3.4,1-4.7-0.1c-0.9-0.8-2.7-1.2-4-1.1c-3.9,0.5-2.7-1.7,2.1-4c6.6-3.2,5.7-5.2-2.5-5.6
	c-8.9-0.4-10.1-0.9-7.1-3.1c2.8-2.1,2.2-3.5-2.2-5.7c-3.6-1.8-7.7-5.3-7.7-6.6c0-1.8,7.2-0.6,12.5,2.2c3.1,1.6,6,2.8,6.5,2.5
	c0.4-0.2,0.5-1.6,0.2-3c-0.6-3.3,1.1-3.2,3.7,0.1c1.3,1.7,2.1,4.1,2.1,6.5c0,3.9,0,3.9-3.7,1.5c-4.4-2.9-10-4.6-8.9-2.7
	c0.4,0.6,3.4,2.5,6.7,4.1c6.2,3.2,8.5,5.7,9.5,10.6C78.1,206.2,77.8,206.7,75.1,207.9z M82.1,174.9c2.7,0,3.9,3.1,3.9,9.8
	c0,13.4,6.7,21,14.8,16.8c3.7-1.9,4.2-3.2,4.2-11.5c0-7.3,1.6-10.9,4.4-9.8c2.2,0.9,3.4,4.2,4.5,13.7c1.2,9.4,3,13.4,7.4,16.1
	c6.4,4,13-0.1,14.3-8.7c0.5-3.4,0.1-6.7-1.6-12.8c-4-14.4-3.9-15.4,2.6-18.1c5-2.1,5.8-4.5,3.8-11.5c-0.9-3.3-1.4-6.7-1-7.6
	c0.6-1.5,0.9-1.4,3.2,0.7c1.4,1.3,3.7,4.6,5.1,7.4c1.4,2.7,3.7,6.6,5,8.7c2.4,3.5,2.5,4.3,1.9,11.9c-0.9,10-4.3,18.1-6.8,16.5
	c-2.2-1.4-2.6-0.8-2.9,4.1c-0.2,3.1-0.8,4.3-2.1,4.6c-2.2,0.6-2.5,4.7-0.3,4.7c0.9,0,1.8-0.8,2.1-1.8c0.4-0.9,1.3-3.3,2.2-5.2
	c1.6-3.5,1.6-3.5,2.3,1.5c0.6,4.9,2.8,10.4,5.4,13.5c0.7,0.8,1.5,4.7,1.7,8.5c0.3,4.1,1.4,9.1,2.7,11.9c1.2,2.7,2,5.1,1.8,5.3
	c-0.7,0.7-15.4-1.8-27.7-4.7c-10.9-2.5-12.8-3.3-14.5-5.7c-4.3-6-8.4-9.1-13.7-10.3c-7.5-1.8-10-3.3-14.5-8.7
	c-6.1-7.3-9.2-12.7-10.8-19C76.8,185.1,78.1,174.9,82.1,174.9z M71.3,290.4c4-1.8,4-1.8,7.1-0.4c3.7,1.7,3.9,3.3,1.5,11.7
	c-1.2,4.4-1.9,8.9-1.6,10.9c0.7,3.8,0.8,3.7-3.5,1.9c-1.8-0.8-4.5-1.7-5.9-2c-3-0.7-3.9-2.8-3.9-9.9C65,296.5,67.3,292.1,71.3,290.4
	z M63.7,362.9c-7.7,0-11.7-2.4-11.7-7c0-1.5-0.7-3.3-1.6-4.1c-3.1-2.6-4.6-7-4-11.8c0.4-3.2,0.1-5.2-0.9-6.5
	c-3.4-4.4-1.5-9.4,5-13.1c7.4-4.4,18-5.2,23.3-1.7c2.3,1.5,3.6,4.8,3,7.9c-0.3,1.4-1.6,1.9-6.8,2.4c-7.9,0.7-15,2.8-15.7,4.6
	c-0.9,2.3,0.3,2.5,5.8,0.9c2.9-0.9,7.6-1.6,10.4-1.6c6.3,0,8.8,2.1,8.3,7.1c-0.3,3.4-0.3,3.4-10.3,5.9c-7.1,1.8-10,2.9-10,4
	c0,1.8,1.6,1.7,11.4-0.4c6.9-1.6,7.5-1.6,9.2,0c4,3.6,1.4,9.1-5.7,12C71.6,362.3,67.2,362.9,63.7,362.9z M75,366.8
	c-2.3,0-2.2-0.2,1.1-1.9c7.8-4.1,11.4-12.6,7.3-17.1c-1.3-1.5-1.4-2.3-0.4-5.4s0.9-4.1-0.8-7.6c-1.5-3.1-1.8-4.8-1.1-7.1
	c0.4-1.7,0.8-3.3,0.7-3.7c-0.4-3.6,2.4-0.9,4.8,4.6c1.8,4.2,1.8,9-0.1,14.3c-1.9,5.3-1.9,4.8,0.8,5.2c3.1,0.4,3.3,5.2,0.4,10.3
	C85.3,362.7,79,366.9,75,366.8z M165.2,464.4c2.6,2.2,3.9,2.6,7,2.2c4.9-0.7,8.8-3.2,8.8-5.7c0-2.6,2.2-2.6,4.5,0
	c2.8,3.1,1.3,6.8-3.8,9c-5.5,2.5-10.3,2.5-16.6-0.1c-4-1.7-5.1-2.6-5.1-4.5C160,461.8,161.7,461.5,165.2,464.4z M162.4,433.4
	c0.5-1.5,0.9-1.4,3.5,0.7c1.6,1.2,4.3,3.1,6,4c2.6,1.4,3.1,2.3,3.1,5.4c0,2,0.5,6.6,1.2,10.2c1.1,5.9,1,6.5-0.7,7.8
	c-2.6,1.9-5.9,1.8-7.7-0.4C164.5,457.5,160.7,437.8,162.4,433.4z M174.3,478.9c-1.3-3.5-0.9-4,3.1-4c1.7-0.1,4.5-0.7,6.1-1.4
	c3.6-1.6,3.9-1.4,5.9,4.7c2,6.1,1.4,7.3-6.3,12.5c-6.8,4.5-20.7,10-22.1,8.6c-1.5-1.6-1.6-7.9-0.1-7.6c2.7,0.6,5.3-1.1,6.3-3.9
	c0.7-2.2,1.5-2.8,2.7-2.4c1.1,0.3,2.5-0.3,3.6-1.5C175.1,482.1,175.2,481.3,174.3,478.9z M165.8,474.6c4.2,2.7,5.7,4.7,4.6,6.4
	c-0.9,1.5-2.1,1.1-5.6-1.9c-1.8-1.5-4.5-3.3-6-4c-1.6-0.6-2.8-1.6-2.8-2.2C156,471,161.6,471.9,165.8,474.6z M156.7,479
	c5.1,2.5,8.2,6.4,6.5,8.1c-0.8,0.8-2.5,0-6.4-2.9c-2.9-2.2-6.1-4.3-7-4.6c-1-0.4-1.8-1.1-1.8-1.7C148,476.2,152.1,476.8,156.7,479z
	 M133,483.1c5.2-2.6,7.8-2.7,12.7-0.7c2.1,0.9,4.6,2.3,5.7,3.3c2.5,2.2,5.6,9,5.6,12.4c0,2.5-0.4,2.7-5.2,3.3
	c-9.6,1.2-23.6-2.4-26.1-6.6C124,492,127.9,485.7,133,483.1z M162.3,507.4c-14.2,3.4-33.3,1-36.7-4.7c-1.7-2.8-0.2-3,5-0.6
	c4.3,2,6.5,2.3,17.4,2.2c10.8,0,13.6-0.4,20.7-2.7c4.6-1.6,11-4.7,14.5-7.1c7-4.9,7.8-5.2,7.8-3.2
	C191,495.5,175.4,504.3,162.3,507.4z M240.7,482.9c-1.4,6.5-1.4,6.5-23.2,6.5c-21.9,0-21.9,0-23.1-6.5c-0.7-3.6-1.9-8.3-2.8-10.5
	c-1-2.3-1.4-5.1-1.1-6.6c0.9-3.8-1.5-7.8-6.1-10.4c-2.2-1.2-4.1-31.6-4.5-33h0c21,3.6,42.3,3.7,63.4,0.5l3-0.5
	c0.3,0,0.8,25.5,1.2,29.1c0.7,6.5,0.7,6.6-3,10.6c-3.2,3.6-3.5,4.4-2.9,7.7C242.4,474.5,242.3,475.2,240.7,482.9z M291.4,510.8
	c-6,4.7-24.9,5.5-33,1.3c-4.4-2.2-10.4-8.3-12.8-13.1c-2.7-5-1.8-4.8,3.5,1.2c2.8,3.2,6.8,6.6,8.9,7.7c8.3,4.3,22,4.3,31.4,0.2
	C294.7,505.7,295.9,507.3,291.4,510.8z M245.7,478.6c0.8-3,4.7-1.8,5.1,1.6c0.2,1.5,1.4,3.4,2.7,4.3c3.1,2,3.9,6.6,1.8,10.9
	c-0.9,1.9-2,3.5-2.5,3.5s-2.6-2.8-4.9-6.2C243.9,486.4,243.7,485.4,245.7,478.6z M294,498.6c0,5.2-12,9.9-23.1,9
	c-3.6-0.3-8.3-1.2-10.3-2.1c-4.7-1.9-4.8-5.2-0.4-10.2c6.5-7.4,18.6-10.5,26.5-6.7C290.5,490.4,294,495.1,294,498.6z M278.4,480.5
	c2.7,1,1.8,2.4-1.6,2.4c-2.9,0.1-9.3,2-15,4.5c-1.3,0.5-1.8,0.3-1.8-0.9C260,483.2,273.7,478.7,278.4,480.5z M274,475.4
	c0,1-1,1.5-3.2,1.5c-1.8,0-5.7,1.2-8.7,2.5c-5.6,2.7-8.5,2.7-7.5,0.1C256.2,475.2,274,471.5,274,475.4z M264.7,464.9
	c1.2,0,2.3-0.5,2.3-1c0-1.8,2.9-1,4,1.1c1.8,3.2,0.5,4.9-3.6,4.9c-2,0-6.3,1.2-9.5,2.6c-5.8,2.6-5.8,2.6-9.1,0.7
	c-3.8-2.2-4.7-5.3-2.3-7.7c2-1.9,3.5-1.3,3.5,1.6c0,1.5,0.4,1.8,1.8,1.3C255.8,466.7,262.5,464.9,264.7,464.9z M254.7,447
	c2.2-1.1,4.5-2.7,5.2-3.5c2.3-2.8,3.1-0.7,3.1,8.4c0,8.9,0,8.9-4.1,10c-5.5,1.5-6.9,0.8-6.9-3.3c0-1.9-0.3-4.8-0.6-6.5
	C250.8,449.3,251.1,448.9,254.7,447z M336.5,421.7c-2.6,10.2-14.2,13.1-20.9,5.1c-1.4-1.6-2.9-2.9-3.5-2.9c-1.4,0-1.4,2.7-0.1,3.5
	c1.5,0.9,1.2,3.5-0.5,3.5c-3.4,0-6.8-2.7-9.1-7.2c-2.3-4.6-5.2-5.8-3.9-1.7c0.9,2.9-2,2.4-4.4-0.7c-4.4-5.5-2-20.6,4.2-27.2
	c2.7-2.9,10.9-7.2,13.8-7.2c1.2,0,1.9-0.5,1.6-1.3c-0.2-0.6-1.3-1.2-2.5-1.2c-2.9,0-3-1.7-0.1-3.2c3.2-1.7,8.2-1.6,12.2,0.1
	c4,1.6,9.7,8,9.7,10.7c0,2-0.1,2-3.1-0.5c-1.7-1.4-3.4-2.6-3.9-2.6c-2,0-1.8,1.9,0.6,4.1c1.4,1.3,3.2,3.6,4,5.1
	c2.7,5.2,1.1,15.3-2.9,18.7c-2.4,1.9-2.2,4.4,0.2,3.6c1.1-0.3,2.2-0.1,2.6,0.5c1.1,1.8,2.7,1.1,2.2-1.1c-0.7-2.7,0.1-4.9,1.8-4.9
	C336.3,414.9,337.3,418.4,336.5,421.7z M318.5,352.1c0.4-1,1.2-0.9,4.2,0.3c2,0.9,4.5,2.3,5.5,3.2c1,0.9,1.8,3,1.8,4.8
	c0,6.5-11.9,18.7-14.4,14.7C315.1,374.3,317.6,354.6,318.5,352.1z M340.5,345c10.5,9.7,9.6,22.7-2.3,34.2c-4.2,4.1-4.1,4.2-13.1-2
	c-0.2-0.1,1.3-2.1,3.4-4.4c13-14.4,4.6-26.1-19.9-27.6c-7.6-0.5-9-1.9-11.3-2.9c-3.2-1.4-3-6.3-1.1-8.2c1.9-1.9,15.5-1.5,24.1,0.7
	C329.7,337.3,335,339.9,340.5,345z M306.3,378.8c-9.2,4.6-13.4,16.7-17.6,25.3c-0.7,1.4-1.9,2.2-3.2,2.4
	c-19.2,4-41.4,15.3-76.5,14.1c-35-1.2-54.3-8.1-54.3-8.1c-6.2-1.1-11-2.3-19.9-6.1c-8.4-3.5-19-10.5-21.3-13.9
	c-0.8-1.3-2.1-7.1-3-13c-0.6-3.9-0.9-6.3-1-8.2c-0.9-2.6-1.5-5.4-2.2-8c-5.3,4-9.3,5.6-15.3,6.1c-6.9,0.8-8.7-0.6-4.8-3.7
	c1.3-1.1,3.3-3.8,4.3-6c1.4-3.2,7.3-6.9,11-8.4l2.3-9c0-0.3-3.1-22.8-7-49.9c-3.8-27.1-7-50-7-50.9c0-1.3,1.7-0.8,9,2.8
	c5,2.4,14.1,6,20.3,8.1c0,0,18.3,6.5,33.6,7.9c40.1,3.7,87.6,5.7,126.8-3.1c0,0,42.3-11.4,48.4-17.4c0.4-0.4,0.9,0.3,0.9,0.7
	c-0.2,4-12.7,88.4-13.2,88.8c-15-0.9-21.5,2-21.5,2c-3.5,1.9-4.1,5-4,7.2c0.1,1.3,0.5,2.5,1.2,3.6c0,0,0,0,0,0c0.7,1.1,1.8,2,3,2.4
	l16.9,5.4c0.9,0,1.5,0.9,1.4,2.2c0,1.3-0.8,7.2-1.7,13.3c-1.4,9.2-1.6,11.8-3.2,12.1 M248.5,258.5c-17,2.2-57.1,2.4-74.5,0.5
	c-54.1-6-94-23.8-94-41.9c0-1.7,0.3-3.8,0.7-4.8c0.7-2,0.6-2.1,6.6,7.1c7.6,11.8,26.6,20.3,60.2,27c20.9,4.2,31.3,5,62.5,5
	c34.1,0,46.9-1.3,72.6-7.5c19-4.6,32.8-9.7,40.4-14.9c5.1-3.5,13.2-12.2,14.2-15.2c0.7-2.2,2.8,0.1,2.8,3.3
	C340,234.9,303.1,251.6,248.5,258.5z M370.4,188.4c-5.3,3.4-5.5,3.7-4,5.4c2.2,2.4,1.1,3.1-4.5,3.1c-5.4,0-9.6,2.6-8.6,5.3
	c0.5,1.2,1.9,1.7,5.1,1.7c2.4,0,5.1,0.3,6,0.6c2.8,1.1,1.7,2.4-1.9,2.4c-2.1,0-3.7,0.6-4.3,1.6c-0.8,1.5-1.4,1.5-6.8-0.1
	c-10.7-3.1-10.5-2.5-2.8-8.7c3.8-3,9.7-7.2,13.2-9.2c3.4-2.1,6.2-4.2,6.2-4.7c0-2.3-16.6,6.9-21.4,12c-5.5,5.7-6.2,3.1-1.7-5.8
	c1.7-3.2,4.2-7.3,5.8-9.2c2.8-3.3,2.8-3.3,3.1,0.9c0.2,2.3,0.6,4.2,1,4.2c0.3,0,2.5-1.8,4.7-4c3.6-3.5,4.4-3.9,5.4-2.6
	c1.1,1.3,1.7,1.3,5.3,0c4.2-1.4,7.8-1.8,7.8-0.8C378,182.4,375.2,185.3,370.4,188.4z"/>
<path d="M309,349.7"/>
<path d="M312.5,249.6"/>
<path d="M292,48.8c-1.3,2.5-1.3,7.8,0,8.6c0.6,0.4,1-0.8,1-2.9c0-1.9,0.5-3.8,1-4.1c1.3-0.8,1.3-3.5,0-3.5
	C293.5,46.9,292.6,47.8,292,48.8z"/>
<path d="M299.6,50.8c-1,1.5,1,4.8,4,6.7c1.9,1.3,3.7,1.5,8,1c8.3-1,10.8,2.1,6.3,7.8c-2.4,3.1-2,4.3,0.9,2.7
	c2.5-1.3,4.6-6.4,3.8-9.4c-0.8-3.3-4.1-4.5-10.8-3.9c-5.4,0.4-5.8,0.3-8.6-2.8C301.4,51,300,50.1,299.6,50.8z"/>
<path d="M305.7,65.1c-4.5,7.3-6.7,11.9-6.7,13.8c0,1.2,0.4,1.9,0.9,1.6c1.4-0.9,9.1-14.6,9.1-16.2C309,62.2,307.2,62.6,305.7,65.1z"
	/>
<path d="M77.9,71.6c-2.4,5.5-3.2,6.3-7.7,6.3c-6.6,0-10.5,7.6-6.4,12.7c2.2,2.8,10.4,6.5,11.6,5.3c1.1-1.1,1.4-1-4.6-3.7
	c-3.4-1.6-4.9-3-5.4-4.9c-1-4,0.7-5.9,5.7-6.2c5.3-0.4,8.9-3.4,8.9-7.3c0-1.4,0.7-3.2,1.5-3.9c1.9-1.6,1.9-3,0-3
	C80.6,66.9,79.1,68.9,77.9,71.6z"/>
<path d="M87.6,72.4c-1.4,1.1-1.6,1.9-0.9,4.1c1.5,4.6,3.2,4,3-1c-0.1-2.5-0.2-4.6-0.2-4.6S88.7,71.6,87.6,72.4z"/>
<path d="M280.3,83.1c-2.6,3.5,0.1,10.8,2.9,8c0.8-0.8,0.8-1.5-0.2-2.7c-0.9-1.1-1-1.8-0.1-2.9c0.8-1,0.8-1.6-0.3-2.5
	C281.6,82.2,281,82.2,280.3,83.1z"/>
<path d="M295.5,95c-1,1.5,0.6,7,1.8,6.6c1.9-0.6,2.1-6.3,0.3-7C296.7,94.3,295.8,94.4,295.5,95z"/>
<path d="M294.4,108c-1,1.7,1.3,3.6,2.7,2.2c1.2-1.2,0.4-3.3-1.1-3.3C295.5,106.9,294.8,107.4,294.4,108z"/>
<path d="M292.9,114.6c-0.6,7.6-2.9,11.7-9.1,15.7c-5.1,3.4-5.9,4.6-2.9,4.6c2.6,0,10.1-5.8,12.2-9.5c2.2-3.8,2.9-10.6,1.2-11.2
	C293.6,113.9,293,114.1,292.9,114.6z"/>
<path d="M295,126c0,0.5,0.5,0.7,1,0.4c0.6-0.3,1-0.8,1-1.1c0-0.2-0.4-0.4-1-0.4C295.5,124.9,295,125.4,295,126z"/>
<path d="M240,169.5c0,0.9,0.7,1.4,1.7,1.2c2.5-0.5,2.8-2.8,0.4-2.8C240.9,167.9,240,168.5,240,169.5z"/>
<path d="M109,108.3c0,1,0.9,1.6,2.1,1.6c2.4,0,2.1-2.3-0.4-2.8C109.7,106.9,109,107.4,109,108.3z"/>
<path d="M153.2,154.8c0.2,0.7,0.7,1.2,1.1,1.2c1.2-0.1,0.9-1.5-0.3-2C153.3,153.8,152.9,154.2,153.2,154.8z"/>
<path d="M160.2,117.6c0.5,2.6,3.8,2.9,3.8,0.4c0-1.5-0.6-2.1-2.1-2.1C160.5,115.9,160,116.4,160.2,117.6z"/>
<path d="M81.1,182.3c-1.3,1.5-0.7,3.6,0.9,3.6c1.2,0,1.9-2.5,1.1-3.9C82.5,181.1,82,181.2,81.1,182.3z"/>
<path d="M81,192.4c0,0.8,0.5,1.5,1,1.5c0.6,0,1-0.7,1-1.5s-0.4-1.5-1-1.5C81.5,190.9,81,191.6,81,192.4z"/>
<path d="M88,204.3c0,1.8,1.6,2.9,3,2.1c1.3-0.8,0.1-3.5-1.6-3.5C88.6,202.9,88,203.5,88,204.3z"/>
<path d="M103,205.2c0,2.1,1.2,2.8,2.7,1.6c1.9-1.6,1.6-2.9-0.7-2.9C103.9,203.9,103,204.5,103,205.2z"/>
<path d="M105,216.9c0,0.6,2,1.9,4.5,3c2.5,1.1,4.5,2.3,4.5,2.8s1.1,1.4,2.5,2s4.5,3,6.9,5.2c2.4,2.2,4.6,4,5,4
	c1.2,0,0.6-2.1-1.6-5.1C121.6,221.8,105,212.8,105,216.9z"/>
<path d="M137.7,218.6c-1.4,1.3-0.6,3.3,1.3,3.3c1.3,0,2-0.7,2-2C141,218,139,217.2,137.7,218.6z"/>
<path d="M148.7,220.5c-2,2.1,1.4,18.3,4.1,19.2c2,0.6,2.6-2.7,0.8-4.7c-1-1.1-1.7-4.1-1.9-8.1C151.3,221,150.4,218.9,148.7,220.5z"
	/>
<path d="M299,189.4c0,0.8,0.7,1.5,1.5,1.5c0.8,0,1.5-0.7,1.5-1.5s-0.7-1.5-1.5-1.5C299.7,187.9,299,188.6,299,189.4z"/>
<path d="M297.2,204.6c0.4,2.1,3.3,2.5,3.3,0.3c0-0.8-0.8-1.6-1.8-1.8C297.3,202.8,296.9,203.2,297.2,204.6z"/>
<path d="M289.6,206.8c-1,1.6,0.5,4.2,2.3,3.9c2.1-0.4,2.1-4.2-0.1-4.6C290.9,205.9,289.9,206.2,289.6,206.8z"/>
<path d="M327.5,208.9c-0.8,1.4,0.3,3,2.1,3c0.8,0,1.4-0.9,1.4-2C331,207.8,328.6,207.1,327.5,208.9z"/>
<path d="M298.8,216.7c-2.9,1.7-3.6,3.6-1.8,4.7c1.2,0.8,7.1-4.5,6.4-5.7C302.7,214.6,302,214.8,298.8,216.7z"/>
<path d="M315.4,218c-0.8,1.4,1.1,3.3,2.5,2.5c0.6-0.4,1.1-1.4,1.1-2.2C319,216.7,316.4,216.4,315.4,218z"/>
<path d="M306.9,220.5c-0.7,0.9-3.6,2.6-6.4,3.9c-5.6,2.5-11.1,7.7-10,9.5c0.5,0.8,1.5,0.4,3.4-1.3c1.4-1.4,5.3-3.8,8.7-5.5
	c6.5-3.3,9-5.5,7.9-7.2C309.6,218.5,308.5,218.6,306.9,220.5z"/>
<path d="M272.7,227.5c-1.4,1.5-0.6,3.4,1.4,3.4c1.4,0,1.9-0.5,1.7-1.7C275.5,227.4,273.8,226.5,272.7,227.5z"/>
<path d="M221.5,199.9c-0.4,0.7-0.3,1.6,0.3,2.2c1.4,1.4,4.5,0.2,4-1.5C225.2,199,222.4,198.5,221.5,199.9z"/>
<path d="M231.3,200.5c-0.9,2.3,1.3,4,3.2,2.4c1.2-1,1.3-1.6,0.4-2.6C233.4,198.5,232.1,198.5,231.3,200.5z"/>
<path d="M156.5,201.9c-0.7,1.2,0.2,3,1.6,3c0.5,0,0.9-0.9,0.9-2C159,200.8,157.5,200.2,156.5,201.9z"/>
<path d="M239.2,215.1c0.2,1.3,1,2.3,1.8,2.3c0.8,0,1.6-1,1.8-2.3c0.3-1.7-0.2-2.2-1.8-2.2C239.4,212.9,238.9,213.4,239.2,215.1z"/>
<path d="M165.2,216.6c0.5,2.6,3.8,2.9,3.8,0.4c0-1.5-0.6-2.1-2.1-2.1C165.5,214.9,165,215.4,165.2,216.6z"/>
<path d="M193.5,216.9c-0.8,1.4,0.3,3,2.1,3c0.8,0,1.4-0.9,1.4-2C197,215.8,194.6,215.1,193.5,216.9z"/>
<path d="M211,228.9c0,1.5,0.5,2,1.8,1.8c0.9-0.2,1.7-1,1.7-1.8s-0.8-1.6-1.7-1.8C211.5,226.9,211,227.4,211,228.9z"/>
<path d="M177.6,232.6c-1.1,1.1-0.6,2.3,0.9,2.3c0.8,0,1.5-0.4,1.5-0.9C180,232.7,178.4,231.8,177.6,232.6z"/>
<path d="M212.5,241.9c-1,1.7,1.2,3.7,2.5,2.4c0.8-0.8,0.6-1.5-0.4-2.3C213.6,241.1,213,241.1,212.5,241.9z"/>
<path d="M215.5,279.6c-2.9,0.7-8.5,5.2-8.5,6.7c0,1.1,1.5,1.3,6.4,0.9c5.7-0.5,7-0.2,10.8,2c2.4,1.4,5,3.7,5.8,5.1
	c1.3,2.6,4,3.6,4,1.6c0-4.4-9.1-15.6-12.4-16.4c-0.8-0.2-1.2-0.4-2.8-0.4C216.8,279.2,216.6,279.4,215.5,279.6z"/>
<path d="M156,282.7c-3.1,1.6-10,11-10,13.4c0,1.8,2.9,0.7,4.4-1.7c3.5-5.3,13.9-8.2,18.2-5c5,3.8,5.9,0.4,1.1-4.3
	C165.4,280.9,160.7,280.1,156,282.7z"/>
<path d="M211.4,344.6c1.7-0.8,1.7-1.8,0.7-5.3c-0.6-2.1-1.1-5.3-1.1-7c0-2.8,0.5-3.3,4.8-4.9c2.6-1,5.1-2.1,5.6-2.6
	c0.5-0.4-1.5-1.9-4.3-3.3c-3.9-2-5.1-3.2-5.1-4.9c0.1-2.9,3-11.5,4.7-13.9c0,0,1.1-2.2,3.4-3.1c2.2-0.9,5-0.6,6.7,1.1c0,0,0,0,0,0
	c6.6,6.6,9.2,20.3,6.9,36.4c-0.8,5.2-0.7,5.7,1.3,6.3c1.2,0.4,1.9,1.2,1.7,1.8c-0.2,0.8-2.7,1.1-7.5,0.9c-8.2-0.4-16,1.5-21.6,5.3
	c-2,1.4-4.1,2.5-4.6,2.5c-1.5,0-1.2-2.1,0.5-4c0.1-0.2,0.3-0.3,0.4-0.4C203.8,349.4,207.8,346.3,211.4,344.6z"/>
<path d="M148,313.4c-1,1.2-1,1.6,0.1,1.9c6.1,1.8,11.5,4.2,13.7,6.2c2.7,2.3,2.7,2.3-1.2,2.4c-5.1,0-11.1,1.9-13.6,4.2
	c-3.9,3.6-1.2,5.3,3.5,2.2c4.1-2.7,15.3-1.6,19.8,1.9c2,1.5,4,2.7,4.6,2.7c3.5,0-2.6-11.9-8.8-17.2S150.6,310.2,148,313.4z"/>
<path d="M173.5,343.6c-6.7,1.7-8.6,9.3-3.6,14.4c2.5,2.4,3.7,2.9,8,2.9c3.9,0,5.1-0.4,5.1-1.5c0-1-1-1.5-3.4-1.5
	c-3.8,0-8.6-3.3-8.6-5.9c0-2.4,3.1-5.1,5.9-5.1c1.3,0,3.4,0.9,4.9,2c3.7,2.9,5.5,0.9,2.2-2.5C181.4,343.9,177,342.7,173.5,343.6z"/>
<path d="M207.9,359.5c-7.7,8.3-27.9,11.5-36.5,5.9c-1.4-0.9-2.9-1.3-3.4-1c-1.9,1.2,1.1,4.7,5.7,6.7c6.5,2.9,18.6,2.2,26.3-1.4
	c7.3-3.4,13.6-8.9,12.7-11.1C211.8,356.3,210.8,356.5,207.9,359.5z"/>
<path d="M178.5,377.9c-1.8,2.9,6.9,6.7,12.2,5.4c4.5-1.1,8.3-3.3,8.3-4.9c0-1.9-0.9-1.9-5.3,0c-4.6,1.9-7.4,1.9-11.1,0
	C179.2,376.6,179.3,376.6,178.5,377.9z"/>
<path d="M129,29.4c0,3.1-4.1,7.5-7,7.5c-3.1,0-1.9,2.2,1.6,3.2c3.4,0.9,5.4,3.3,5.4,6.5c0,1.4,0.6,2.3,1.5,2.3
	c0.9,0,1.5-0.9,1.5-2.3c0-3.2,2-5.6,5.4-6.5c4-1.1,4.3-2.9,0.7-3.7c-3.5-0.7-6.1-3.9-6.1-7.2c0-1.4-0.6-2.3-1.5-2.3
	C129.6,26.9,129,27.8,129,29.4z M133,36.4c1,1.3,0.9,1.9-0.5,3.5c-1.7,1.9-2,1.9-3.6,0.4c-1.5-1.3-1.6-2-0.6-3.5
	C129.7,34.5,131.3,34.4,133,36.4z"/>
<path d="M341,103.4c0,3.1-4.1,7.5-7,7.5c-2.7,0-2.1,2.4,0.6,2.9c2.9,0.5,5.2,3,5.9,6.3c0.8,3.5,2.6,3.2,3.6-0.6
	c1.1-3.8,2.8-5.6,5.5-5.6c3.7,0,3.8-1.8,0-3.4c-3.6-1.5-5.6-4.1-5.6-7.5c0-1.2-0.7-2.1-1.5-2.1C341.6,100.9,341,101.8,341,103.4z
	 M344.7,110.8c1,1.6,0.8,2.2-0.7,3.6c-1.6,1.5-2.2,1.5-3.5,0.5c-1.8-1.5-1.9-3.2-0.3-4.8C341.9,108.4,343.3,108.6,344.7,110.8z"/>
<path d="M54.4,132.5c-1.6,5.2-2.7,6.6-5.9,8c-3.7,1.5-3.9,3.4-0.4,3.4c2.7,0,5.9,3.5,5.9,6.5c0,1.6,0.6,2.5,1.5,2.5
	c0.9,0,1.5-0.9,1.5-2.3c0-3.4,2.8-6.7,5.6-6.7c3.5,0,3-2.4-0.8-4.1c-2.2-0.9-3.6-2.5-4.3-4.6C56.1,131,55.2,130.2,54.4,132.5z
	 M58,140.5c1.1,1.2,1,1.8-0.6,3.5c-2,2-2,2-3.9,0c-1.4-1.7-1.5-2.3-0.5-3.6C54.6,138.5,56.4,138.5,58,140.5z"/>
<path d="M48,239.2c0,4.9-4.2,10.5-8.5,11.3c-4,0.7-4.8,3.4-1,3.4c4.1,0,8.7,5,9.4,10.1c0.7,5.5,2.3,5.7,3.3,0.4
	c1.1-5.4,4.6-9.5,8.7-10.4c4.6-0.9,5-2.7,0.8-3.5c-5-0.9-9.7-6.7-9.7-12c0-1.6-0.6-2.6-1.5-2.6C48.5,235.9,48,236.9,48,239.2z
	 M52.8,255.3c-3,3.2-3,3.2-5.9,0.3c-3.3-3.2-3.6-4.2-1.4-5.1c0.8-0.3,2-1.7,2.6-3c1.2-2.5,1.2-2.5,4.5,1
	C55.9,252.1,55.9,252.1,52.8,255.3z"/>
<path d="M359,257.4c0,5.2-4.5,11-8.9,11.7c-3.6,0.5-3.8,2.7-0.3,3.4c4.1,0.8,8.4,5.5,9.1,10c0.8,4.6,3.1,5.8,3.1,1.6
	c0-3,3.4-8.9,6-10.4c0.8-0.4,2.8-1.3,4.3-1.8c3.2-1.1,2.7-3-0.8-3c-3,0-8.2-5.9-9.1-10.5C361.7,254.3,359,253.6,359,257.4z
	 M362,264.9c0,0.6,1.1,2.1,2.5,3.4c2.5,2.3,2.5,2.3-1,6c-3.4,3.6-3.4,3.6-4.6,1.4c-0.7-1.3-1.9-2.8-2.7-3.4c-1.3-1-1.1-1.6,1.4-4.8
	C360.5,263.9,362,263,362,264.9z"/>
<path d="M109.6,424.6c-0.3,0.3-0.6,1.7-0.6,3c0,3-5.1,8.3-8,8.3c-2.6,0-2.2,2.3,0.6,2.8c2.9,0.6,6.3,4.2,7.2,7.6
	c1.1,4,2.4,3.9,3.3-0.2c0.8-4.2,3.6-7.2,6.5-7.2c3.7,0,3.7-1.8,0.1-3.4c-3.9-1.6-6.7-5-6.7-8.3C112,424.9,110.7,423.5,109.6,424.6z
	 M112.2,434.6c2.2,2,2.3,2.8,0.1,5.3c-1.7,2-1.7,2-4-0.1c-2.1-2.1-2.1-2.3-0.5-4.5C109.9,432.5,109.9,432.5,112.2,434.6z"/>
<path d="M321.4,449.6c-1.4,4.7-3.1,6.8-5.9,7.3c-3.2,0.6-3.7,2-1.1,3.2c0.9,0.5,2.4,1.2,3.4,1.6c0.9,0.5,2.1,2.3,2.7,4
	c1.2,4.1,2.8,4.1,4-0.1c0.7-2.2,2-3.6,4.3-4.6c3.8-1.7,4.3-4.1,0.8-4.1c-2.6,0-5.6-3.3-5.6-6.2C324,448.3,322.1,447.4,321.4,449.6z
	 M324.5,458.9c0,2.9-3.2,4.1-4.1,1.6c-0.9-2.4,0.4-4.8,2.3-4.4C323.9,456.3,324.5,457.3,324.5,458.9z"/>
<polygon points="101.6,349.9 104.5,369.6 109.6,371.3 104.2,337 "/>
</svg>
