<?xml version="1.0" standalone="no"?>
<!DOCTYPE svg PUBLIC "-//W3C//DTD SVG 20010904//EN"
 "http://www.w3.org/TR/2001/REC-SVG-20010904/DTD/svg10.dtd">
<svg version="1.0" xmlns="http://www.w3.org/2000/svg"
 width="1024.000000pt" height="1024.000000pt" viewBox="0 0 1024.000000 1024.000000"
 preserveAspectRatio="xMidYMid meet">

<g transform="translate(0.000000,1024.000000) scale(0.100000,-0.100000)"
fill="#000000" stroke="none">
<path d="M6187 9419 c-96 -23 -176 -89 -223 -185 -26 -52 -29 -70 -29 -149 1
-83 4 -97 40 -180 37 -83 40 -97 39 -175 -1 -89 -21 -163 -71 -262 -22 -46
-25 -48 -66 -48 -50 0 -113 -27 -145 -62 -12 -14 -37 -61 -56 -105 -18 -44
-48 -101 -66 -127 -77 -112 -216 -228 -415 -346 -87 -52 -132 -87 -216 -172
l-107 -106 -228 -3 -229 -3 -7 68 c-9 89 -41 150 -105 201 -42 33 -54 50 -68
95 -45 146 -169 264 -305 290 -41 8 -63 20 -106 59 -108 99 -195 121 -314 80
-52 -18 -66 -19 -114 -9 -51 10 -59 9 -112 -16 -38 -18 -85 -54 -135 -105 -49
-49 -89 -80 -108 -84 -45 -10 -132 -71 -163 -113 -69 -98 -75 -218 -13 -304
19 -26 35 -52 35 -57 0 -4 -13 -26 -30 -49 -46 -64 -63 -130 -58 -221 3 -57
10 -88 26 -113 35 -56 29 -72 -36 -117 -32 -22 -81 -65 -110 -95 -126 -138
-119 -289 20 -450 l51 -58 54 -317 c29 -174 85 -480 124 -680 43 -224 67 -367
61 -373 -20 -20 -155 -30 -243 -19 -106 14 -144 27 -205 69 l-46 33 6 57 c3
31 2 90 -3 130 -11 89 -55 169 -117 214 -37 27 -42 35 -48 84 -10 90 -43 158
-140 289 -114 156 -151 216 -185 303 -24 63 -26 78 -26 247 -1 222 1 207 -32
246 -37 44 -116 79 -178 79 -63 0 -160 -44 -198 -90 -101 -120 -119 -283 -51
-471 14 -39 23 -74 19 -77 -3 -4 -66 -7 -138 -7 -143 -1 -212 -15 -302 -61
-134 -69 -210 -202 -184 -323 9 -44 8 -58 -10 -106 -32 -86 -24 -165 26 -241
13 -20 18 -48 19 -99 1 -86 22 -132 90 -195 26 -24 59 -66 72 -92 45 -90 145
-161 272 -193 103 -26 155 -28 266 -10 l104 17 39 -31 c71 -56 124 -73 223
-72 71 0 95 -3 121 -19 129 -78 235 -117 391 -145 118 -21 307 -17 459 11 53
9 100 15 103 12 3 -3 20 -82 39 -174 19 -93 52 -248 74 -344 22 -96 61 -267
86 -380 83 -363 155 -632 183 -683 59 -110 206 -205 447 -290 l120 -43 -3 -44
c-2 -25 -4 -179 -5 -343 l-2 -298 -33 -16 c-53 -26 -100 -88 -112 -150 -9 -40
-17 -56 -33 -62 -12 -5 -56 -22 -97 -37 -41 -16 -103 -48 -138 -71 l-62 -41
-118 1 c-98 1 -128 -3 -182 -22 -123 -43 -215 -115 -290 -226 -59 -88 -86
-161 -100 -267 -5 -45 -10 -83 -10 -85 0 -1 -21 -5 -47 -8 -89 -13 -313 -64
-372 -85 -74 -27 -125 -68 -116 -92 32 -81 382 -164 985 -232 768 -87 2020
-122 3020 -85 500 18 558 18 660 -6 102 -24 363 -28 475 -7 102 19 232 60 295
93 44 22 90 34 225 54 321 49 515 102 579 157 l37 33 -21 23 c-53 57 -197 100
-499 152 -95 17 -177 32 -181 35 -5 3 -20 31 -35 63 -29 64 -66 106 -142 163
-36 27 -62 57 -79 92 -81 161 -227 327 -351 397 -61 34 -62 36 -63 78 0 106
-121 221 -231 222 -21 0 -42 7 -49 16 -44 52 -220 484 -220 538 0 22 11 27
143 69 164 53 300 117 373 175 60 48 131 148 140 200 3 20 39 170 80 332 62
252 124 528 200 889 11 50 24 85 32 89 17 6 141 -54 233 -113 148 -96 254
-248 266 -382 l6 -61 -40 -21 c-69 -35 -115 -102 -127 -184 -7 -43 -12 -50
-59 -80 -63 -41 -134 -117 -206 -223 -30 -43 -72 -100 -93 -125 -114 -139
-110 -310 9 -355 39 -15 52 -16 91 -5 58 15 62 9 62 -89 2 -187 85 -261 253
-225 32 6 46 4 80 -16 63 -35 131 -32 197 9 42 26 61 32 109 32 164 0 280 101
337 295 26 88 23 244 -6 363 -19 75 -21 97 -12 110 43 59 54 141 28 203 -18
42 -60 100 -116 159 l-42 45 -2 150 c-2 125 -6 162 -25 220 -94 291 -360 542
-731 690 -63 25 -119 50 -124 55 -8 8 7 101 69 415 40 204 133 763 175 1049
l20 140 56 58 c68 72 96 132 97 212 2 72 -31 151 -84 205 -36 36 -138 106
-169 116 -29 9 -33 40 -12 82 40 77 45 119 26 195 -15 59 -16 74 -5 101 56
139 60 201 21 315 -38 107 -146 212 -252 244 -26 8 -54 29 -90 71 -69 79 -146
117 -239 117 -58 0 -74 4 -123 34 -104 63 -190 69 -292 22 -54 -25 -128 -93
-139 -126 -4 -14 -26 -26 -74 -40 -137 -40 -220 -138 -240 -281 -7 -53 -13
-66 -42 -90 -19 -16 -39 -29 -45 -29 -18 0 -56 93 -61 150 -4 43 1 72 21 131
28 82 32 128 15 177 -14 41 6 109 65 228 55 110 103 160 239 253 169 115 234
217 224 353 -13 198 -181 323 -387 288 l-68 -11 -44 44 c-77 76 -188 116 -271
96z m171 -115 c18 -14 43 -41 55 -60 33 -50 62 -58 135 -40 75 20 116 20 174
1 91 -32 151 -123 151 -230 0 -99 -43 -160 -184 -256 -166 -114 -224 -183
-299 -356 l-37 -87 -84 -1 c-46 0 -111 -4 -144 -9 l-60 -8 -37 61 -37 61 38
88 c79 183 90 306 37 432 -64 152 -68 219 -20 318 58 119 212 162 312 86z
m-433 -996 c15 -18 40 -54 55 -80 37 -60 58 -65 175 -47 192 31 230 -17 164
-207 -27 -78 -32 -108 -38 -239 -7 -134 -10 -155 -34 -201 -24 -47 -77 -104
-97 -104 -4 0 -13 7 -20 15 -10 12 -5 28 24 85 20 38 39 90 42 115 9 59 -10
105 -42 105 -29 0 -44 -27 -44 -78 0 -23 -13 -67 -30 -105 -22 -46 -34 -91
-41 -158 -14 -127 -37 -175 -116 -248 l-66 -60 18 -27 c41 -63 -23 -147 -160
-210 -94 -43 -115 -59 -115 -89 0 -35 35 -37 115 -9 38 15 82 28 98 31 23 5
27 2 27 -19 0 -30 -19 -48 -86 -81 -84 -42 -135 -52 -204 -37 -74 16 -113 8
-108 -23 2 -12 15 -28 31 -35 37 -18 21 -37 -22 -27 -35 8 -81 57 -115 123
-52 103 -121 148 -304 203 -96 28 -109 41 -80 80 32 43 16 53 -60 39 -66 -13
-123 -7 -141 14 -30 36 -24 79 23 171 92 180 271 388 415 482 48 31 131 86
186 122 183 120 330 285 376 420 37 109 118 146 174 79z m-2225 -103 c26 -14
70 -58 103 -105 13 -19 29 -25 80 -31 78 -8 147 -41 194 -92 39 -44 83 -130
83 -165 0 -36 16 -57 63 -87 80 -51 90 -77 98 -243 8 -145 8 -146 49 -230 31
-61 63 -107 119 -165 128 -134 255 -206 481 -272 69 -20 139 -45 157 -56 47
-29 99 -91 134 -161 17 -35 52 -85 77 -113 l45 -50 -39 -3 c-56 -5 -583 15
-766 29 -141 11 -158 15 -164 32 -7 24 -53 42 -124 51 -83 10 -133 39 -170 97
-46 71 -78 90 -167 100 -102 11 -155 39 -204 105 -26 36 -56 62 -89 79 -89 45
-100 100 -26 125 19 6 36 19 38 28 11 51 -23 71 -88 53 -100 -28 -160 -7 -237
81 -28 33 -72 71 -98 83 -58 30 -64 37 -103 132 -22 53 -38 79 -51 82 -25 4
-45 -25 -45 -68 0 -37 12 -61 64 -126 24 -29 27 -38 16 -45 -21 -13 -69 19
-100 67 -36 56 -54 122 -46 172 3 23 9 58 12 80 5 33 2 43 -25 73 -112 128
-62 286 108 343 34 11 66 35 121 91 99 100 114 107 203 99 58 -4 84 -2 132 15
64 21 117 20 165 -5z m3508 -1 c20 -8 49 -27 64 -41 25 -24 35 -26 115 -27 76
-1 94 -5 133 -28 25 -15 56 -44 70 -67 14 -23 30 -48 35 -56 6 -8 36 -22 68
-30 140 -36 227 -149 227 -293 0 -77 -13 -116 -60 -181 -28 -38 -31 -48 -25
-90 5 -38 2 -51 -17 -77 -32 -43 -79 -81 -111 -89 -38 -10 -36 18 4 47 41 31
82 101 74 128 -8 25 -35 26 -66 2 -13 -10 -45 -30 -70 -45 -34 -19 -56 -42
-77 -80 -65 -114 -207 -187 -246 -125 -14 23 18 67 66 90 38 18 98 81 98 103
0 49 -43 59 -108 26 -48 -24 -77 -56 -98 -106 -9 -22 -25 -53 -37 -69 -23 -32
-101 -71 -165 -81 -27 -4 -60 -21 -91 -45 -63 -50 -107 -62 -176 -48 -63 12
-85 7 -85 -22 0 -14 16 -30 48 -49 72 -44 83 -57 73 -83 -16 -43 -53 -60 -153
-69 -123 -11 -132 -14 -148 -44 -24 -45 -4 -61 71 -57 52 3 69 0 88 -15 53
-43 -15 -97 -139 -112 -53 -7 -94 -21 -170 -59 l-100 -51 -169 -10 c-94 -6
-191 -11 -216 -11 -44 0 -45 1 -39 25 11 45 9 59 -9 63 -26 5 -44 -13 -51 -52
-6 -33 -8 -34 -67 -41 -54 -6 -93 1 -62 12 65 23 348 263 441 373 80 96 144
208 185 327 45 127 50 136 115 181 76 52 94 92 96 212 2 106 16 139 66 160 20
8 30 20 30 34 2 66 10 128 23 157 34 81 104 133 199 147 50 7 54 10 78 54 14
25 34 56 45 68 49 55 166 77 243 44z m-2418 -783 c0 -2 -21 -37 -46 -77 l-46
-74 -53 0 c-28 0 -79 -3 -112 -6 l-60 -7 -22 46 c-12 25 -25 61 -28 81 l-6 35
109 3 c150 4 264 4 264 -1z m1285 -351 c-15 -22 -34 -45 -43 -52 -14 -12 -14
-10 -2 12 18 34 63 90 69 85 2 -3 -8 -23 -24 -45z m-3104 -33 c66 -59 70 -79
20 -102 -22 -9 -54 -31 -70 -47 -69 -67 -25 -137 134 -213 296 -142 811 -242
1550 -301 271 -21 1127 -30 1420 -15 774 41 1466 168 1783 327 159 80 174 167
41 234 -24 13 -46 24 -48 26 -2 2 14 27 35 56 21 29 39 55 40 57 2 1 29 -9 61
-23 91 -42 157 -98 187 -157 74 -149 -6 -280 -238 -393 -328 -160 -867 -287
-1446 -341 -521 -48 -1365 -48 -1930 0 -552 48 -987 125 -1320 234 -302 100
-464 215 -506 358 -27 94 9 194 97 263 43 35 120 80 134 79 6 0 31 -19 56 -42z
m614 -216 c79 -35 137 -131 80 -131 -30 0 -162 121 -151 139 10 15 24 14 71
-8z m-1715 -49 c55 -27 60 -48 53 -212 -6 -161 2 -224 45 -324 28 -67 103
-185 181 -286 82 -106 114 -173 119 -255 8 -124 -30 -243 -104 -324 -43 -49
-37 -73 13 -47 59 30 123 119 157 219 6 18 7 17 35 -2 64 -46 92 -156 71 -280
-35 -209 -199 -365 -399 -378 -70 -5 -85 -3 -135 20 -57 27 -73 47 -35 47 42
0 163 68 216 121 50 50 82 103 70 115 -3 4 -36 -19 -72 -50 -71 -60 -135 -97
-199 -114 l-39 -11 6 42 c4 29 1 54 -12 82 -11 26 -15 48 -10 60 15 39 9 92
-15 138 -14 25 -21 47 -17 49 21 9 62 81 71 126 14 64 -6 145 -44 181 l-25 24
28 36 c64 83 74 179 28 273 -30 61 -74 102 -149 139 -41 19 -50 31 -77 88 -68
149 -82 285 -42 392 22 57 72 114 119 135 41 18 122 17 162 -4z m1550 -65 c0
-9 -38 9 -62 31 -10 8 -18 19 -18 24 0 11 79 -44 80 -55z m3905 53 c9 -14 -43
-78 -76 -96 -28 -14 -69 -19 -69 -8 0 9 94 101 110 107 23 8 28 8 35 -3z m601
-377 c-3 -16 -7 -46 -10 -68 -8 -55 -89 -547 -121 -730 -126 -733 -325 -1687
-473 -2268 -65 -254 -81 -276 -262 -367 -373 -188 -1095 -291 -1822 -262 -415
17 -614 41 -931 112 -368 83 -639 209 -716 334 -11 17 -31 78 -46 136 -66 261
-224 958 -294 1300 -22 107 -54 260 -71 340 -114 544 -284 1490 -267 1490 3 0
38 -14 78 -31 371 -158 942 -262 1764 -321 247 -18 1240 -18 1475 0 667 51
1186 156 1600 326 47 19 89 35 93 36 5 0 6 -12 3 -27z m-6390 -248 c142 -27
240 -95 264 -184 21 -78 -22 -165 -87 -177 -20 -4 -88 1 -156 11 -131 19 -286
16 -314 -6 -28 -24 13 -39 101 -39 90 0 246 -21 319 -44 110 -33 155 -105 122
-192 -15 -40 -24 -49 -72 -71 -76 -35 -247 -43 -392 -19 -57 10 -105 15 -108
13 -12 -13 53 -40 139 -57 61 -13 134 -20 211 -20 134 0 167 -11 187 -60 16
-39 1 -96 -33 -128 -56 -52 -204 -74 -327 -48 -88 19 -90 19 -90 6 0 -5 36
-21 81 -35 110 -34 231 -35 324 -1 70 25 81 22 70 -22 -37 -151 -386 -149
-538 4 -23 24 -42 54 -48 81 -9 35 -19 47 -55 68 -26 16 -54 43 -70 71 -25 42
-26 51 -20 122 5 70 4 78 -14 90 -11 6 -29 31 -41 54 -26 52 -22 125 11 181
22 37 22 39 6 95 -17 63 -14 88 22 158 65 127 286 192 508 149z m1024 -1047
c30 -15 90 -33 132 -40 91 -14 114 -32 133 -106 15 -57 6 -120 -25 -181 -16
-33 -28 -42 -62 -52 -86 -23 -328 26 -460 92 l-61 31 57 31 c70 37 167 139
198 207 13 27 25 49 28 48 3 -2 30 -15 60 -30z m5542 -407 c247 -144 421 -346
479 -556 22 -78 33 -255 17 -270 -4 -4 -37 5 -73 20 -37 15 -105 32 -150 38
l-83 11 -16 66 c-28 116 -80 206 -170 295 -45 45 -108 97 -141 116 -49 29 -62
42 -73 74 -16 49 -9 107 21 160 23 41 78 85 106 85 9 0 46 -18 83 -39z m360
-872 c177 -51 349 -240 308 -338 -7 -17 -15 -31 -18 -31 -2 0 -24 18 -48 40
-38 35 -84 53 -84 33 0 -4 18 -34 39 -67 55 -84 80 -143 96 -232 40 -205 -1
-386 -109 -481 -53 -47 -122 -71 -154 -54 -20 11 -20 11 0 87 20 81 21 125 1
132 -14 4 -17 -4 -59 -123 -35 -102 -81 -154 -141 -162 -30 -4 -50 -1 -67 11
-41 26 -47 48 -31 102 23 81 47 223 40 244 -9 28 -43 26 -50 -2 -39 -171 -57
-243 -69 -273 -33 -78 -158 -71 -192 10 -26 64 -11 229 42 456 27 116 25 137
-15 124 -31 -10 -50 -45 -56 -102 -3 -28 -14 -81 -26 -118 -19 -61 -24 -68
-62 -86 -55 -24 -70 -24 -103 4 -50 44 -33 138 45 240 26 34 72 98 103 142
139 198 230 245 471 245 112 0 128 2 117 14 -24 30 -111 50 -217 51 -98 0
-103 1 -103 21 0 31 40 85 79 108 67 39 141 41 263 5z m-3428 -1208 c196 -14
730 -14 886 -1 63 5 156 13 206 16 l90 7 21 -64 c37 -114 83 -221 154 -363 38
-76 69 -145 69 -152 0 -8 -20 -32 -44 -54 -24 -23 -51 -56 -60 -74 -22 -46
-20 -119 4 -165 18 -36 94 -111 112 -111 4 0 8 -28 8 -62 1 -78 21 -193 49
-275 11 -34 21 -68 21 -76 0 -11 -149 -12 -857 -9 -472 2 -859 6 -861 7 -2 2
-8 50 -13 107 -15 159 -42 249 -111 360 -22 36 -22 37 -5 85 45 125 -7 229
-139 282 -29 11 -32 17 -37 69 -10 91 27 478 48 512 2 3 71 -1 152 -11 81 -9
220 -22 307 -28z m-744 -105 c36 -9 88 -16 116 -16 l51 0 -4 -257 c-5 -314 2
-298 -133 -298 -101 0 -132 15 -162 77 -31 64 -54 321 -43 471 l7 94 52 -28
c29 -16 81 -35 116 -43z m2448 -42 c18 -47 65 -154 104 -237 53 -112 71 -164
72 -196 1 -43 0 -45 -47 -69 -57 -30 -140 -39 -191 -22 -61 20 -119 98 -216
295 -49 99 -92 192 -95 208 l-7 27 63 0 c81 0 164 20 226 53 26 14 50 26 53
26 3 0 20 -38 38 -85z m366 -419 c38 -25 69 -89 61 -127 -9 -38 -57 -92 -110
-123 -136 -80 -393 -122 -519 -86 -119 35 -158 150 -79 233 29 31 48 35 60 15
4 -8 29 -30 55 -50 64 -48 139 -64 228 -48 133 24 195 77 195 164 l0 49 41 -5
c22 -2 53 -12 68 -22z m-3029 -56 c14 -44 76 -98 128 -114 60 -18 184 -20 239
-3 44 13 86 57 95 99 7 35 11 35 54 6 67 -45 75 -137 18 -202 -43 -48 -110
-68 -228 -67 -119 2 -185 19 -264 71 -34 22 -81 47 -104 56 -50 20 -61 50 -37
102 15 30 64 73 86 73 4 0 10 -9 13 -21z m3202 -209 c68 -39 165 -130 218
-204 44 -63 79 -125 73 -131 -2 -2 -36 2 -76 8 l-72 11 0 35 c0 27 -8 42 -40
72 -32 30 -40 45 -40 73 0 51 -41 92 -105 107 -85 20 -83 18 -56 40 30 25 37
24 98 -11z m-3251 -35 c91 -44 177 -160 157 -211 -7 -19 -49 -29 -73 -18 -10
5 -36 32 -58 60 -51 65 -113 116 -187 153 l-58 30 34 10 c49 15 125 5 185 -24z
m-201 -72 c111 -66 205 -171 205 -228 0 -36 -13 -45 -61 -45 -32 0 -54 19
-104 90 -36 51 -102 107 -173 147 -48 28 -51 31 -35 45 54 46 78 45 168 -9z
m3370 16 c22 -6 48 -18 58 -27 35 -31 20 -39 -80 -46 -129 -10 -170 -20 -282
-72 -102 -48 -119 -52 -127 -29 -12 30 35 83 102 116 116 57 247 80 329 58z
m-2527 -62 c25 -42 72 -183 72 -218 0 -12 -146 -99 -252 -148 -140 -66 -332
-125 -473 -147 l-41 -6 1 44 c0 23 -4 71 -8 106 l-8 62 26 0 c51 0 91 26 114
74 21 42 26 46 58 46 52 0 103 54 103 108 0 23 -4 51 -9 64 l-9 23 132 0 c110
0 140 4 186 22 30 12 60 22 65 22 6 1 25 -23 43 -52z m-1047 -44 c143 -68 231
-174 265 -319 17 -76 12 -169 -11 -177 -7 -3 -69 -11 -137 -18 -303 -29 -647
25 -745 117 -31 30 -35 38 -30 69 16 100 129 256 226 313 86 50 137 63 246 60
94 -3 106 -6 186 -45z m3084 -3 c-33 -64 -9 -131 52 -146 18 -5 23 -13 23 -40
0 -19 7 -46 16 -59 16 -25 15 -26 -28 -73 -25 -26 -53 -60 -63 -75 -21 -33
-25 -30 -64 48 -37 76 -71 207 -78 303 l-6 72 82 0 82 0 -16 -30z m611 -55
c13 -8 24 -24 24 -35 0 -21 -12 -24 -127 -35 -73 -7 -183 -36 -264 -70 -71
-30 -86 -31 -94 -5 -18 56 107 132 263 160 64 12 170 4 198 -15z m254 -170
c76 -24 124 -50 171 -92 155 -140 74 -300 -185 -367 -190 -50 -485 -36 -641
29 -106 45 -175 127 -154 184 43 114 190 209 400 256 87 20 332 14 409 -10z
m-2820 -109 c0 -70 -9 -82 -90 -129 -187 -107 -528 -211 -825 -253 -161 -22
-439 -23 -560 -1 -230 42 -335 109 -335 214 0 33 19 88 20 57 0 -18 117 -71
205 -93 426 -107 1102 -1 1505 237 36 22 68 37 73 35 4 -2 7 -32 7 -67z m3129
-291 c1 -104 -63 -179 -199 -234 -133 -52 -222 -66 -440 -66 -172 0 -204 3
-273 23 -134 38 -216 92 -254 166 -15 29 -21 135 -8 155 3 6 26 -12 50 -38 75
-80 212 -130 418 -152 180 -20 430 16 555 80 47 24 107 84 123 123 11 27 14
29 20 12 4 -10 8 -41 8 -69z"/>
<path d="M6143 9222 c-11 -9 -28 -31 -37 -49 -17 -35 -20 -125 -5 -158 6 -14
7 -5 3 27 -9 68 2 113 38 154 34 38 35 52 1 26z"/>
<path d="M6523 9060 c102 -10 162 -64 160 -143 -1 -37 0 -38 7 -14 17 57 -27
131 -93 156 -16 6 -54 10 -85 10 l-57 -2 68 -7z"/>
<path d="M6782 8937 c-3 -42 -30 -93 -64 -122 -16 -14 -26 -25 -21 -25 14 0
62 49 78 81 9 17 14 45 12 62 -4 31 -4 31 -5 4z"/>
<path d="M6420 8675 c-7 -8 -8 -15 -2 -15 5 0 15 7 22 15 7 8 8 15 2 15 -5 0
-15 -7 -22 -15z"/>
<path d="M5911 7988 c-6 -18 -21 -42 -32 -54 -13 -14 -17 -24 -10 -29 17 -10
71 50 71 79 0 38 -17 40 -29 4z"/>
<path d="M6176 7998 c-9 -34 -7 -68 3 -68 10 0 21 34 21 68 0 12 -4 22 -9 22
-5 0 -11 -10 -15 -22z"/>
<path d="M5478 7724 c-16 -8 -28 -20 -28 -25 0 -7 11 -9 28 -5 15 3 42 9 60
12 17 4 32 13 32 20 0 19 -57 18 -92 -2z"/>
<path d="M5876 7635 c-34 -31 -37 -35 -18 -35 25 0 62 33 62 55 0 19 2 20 -44
-20z"/>
<path d="M5157 7472 c-16 -17 -23 -42 -13 -42 8 0 56 47 56 54 0 13 -28 5 -43
-12z"/>
<path d="M5502 7449 c-31 -13 -43 -24 -40 -36 8 -45 118 -14 118 32 0 30 -18
31 -78 4z"/>
<path d="M5835 7316 c-21 -26 -65 -66 -99 -89 -69 -49 -84 -84 -31 -79 82 9
153 72 176 156 16 60 -2 65 -46 12z"/>
<path d="M4904 7186 c-7 -19 3 -36 22 -36 10 0 14 8 12 22 -4 26 -26 36 -34
14z"/>
<path d="M5180 7126 c0 -26 47 -51 77 -40 41 14 39 31 -4 36 -21 3 -46 8 -55
12 -13 6 -18 4 -18 -8z"/>
<path d="M5464 6957 c-5 -8 -26 -26 -47 -40 -43 -29 -34 -44 17 -27 37 12 66
54 49 71 -8 8 -13 7 -19 -4z"/>
<path d="M3684 7986 c-23 -17 -15 -21 59 -30 51 -6 60 4 25 28 -28 20 -58 20
-84 2z"/>
<path d="M3286 7869 c-29 -22 -35 -49 -11 -49 8 0 15 4 15 9 0 5 18 16 40 25
22 9 40 20 40 26 0 18 -57 11 -84 -11z"/>
<path d="M3069 7738 c-16 -30 -5 -126 19 -157 43 -58 77 -13 62 82 -12 82 -56
122 -81 75z"/>
<path d="M3660 7588 c0 -39 13 -63 29 -54 22 14 10 86 -15 86 -9 0 -14 -11
-14 -32z"/>
<path d="M3943 7498 c-26 -12 -30 -28 -9 -28 27 0 67 20 61 30 -8 12 -23 12
-52 -2z"/>
<path d="M3312 7468 c-28 -28 -2 -91 53 -134 44 -33 131 -46 141 -21 9 25 -14
56 -53 72 -20 8 -55 33 -79 55 -49 45 -46 44 -62 28z"/>
<path d="M3817 7050 c-9 -33 15 -89 50 -121 26 -22 43 -29 76 -29 24 0 48 5
55 12 18 18 -4 46 -42 53 -34 7 -75 38 -102 80 -20 30 -30 31 -37 5z"/>
<path d="M4210 6982 c0 -18 26 -61 44 -74 6 -4 23 -8 39 -8 20 0 27 5 27 20 0
13 -7 20 -19 20 -11 0 -32 14 -48 30 -32 34 -43 37 -43 12z"/>
<path d="M4580 6689 c-14 -6 -40 -8 -57 -4 -25 4 -33 2 -33 -8 0 -18 21 -27
64 -27 35 0 80 26 71 41 -7 11 -13 11 -45 -2z"/>
<path d="M4287 6643 c-16 -15 -4 -23 36 -23 28 1 37 3 27 9 -26 15 -56 22 -63
14z"/>
<path d="M4963 6593 c-34 -4 -44 -20 -19 -29 19 -7 79 10 84 24 4 12 -3 12
-65 5z"/>
<path d="M7174 7950 c-42 -17 -37 -30 10 -30 24 0 51 -3 60 -6 17 -7 21 3 8
23 -10 16 -53 24 -78 13z"/>
<path d="M7741 7635 c-21 -28 -33 -75 -35 -135 -1 -28 3 -36 20 -38 32 -5 76
83 72 145 -4 57 -25 68 -57 28z"/>
<path d="M7480 7618 c-50 -34 -50 -48 2 -48 23 0 54 -1 68 -2 22 -3 25 1 25
32 0 32 -3 35 -30 38 -19 2 -43 -6 -65 -20z"/>
<path d="M7098 7555 c-33 -28 -35 -35 -10 -35 21 0 52 29 52 48 0 18 -12 14
-42 -13z"/>
<path d="M6806 7343 c-13 -13 -5 -50 14 -71 23 -24 59 -29 78 -10 18 18 15 28
-9 28 -12 0 -33 13 -49 30 -15 16 -30 26 -34 23z"/>
<path d="M6566 7101 c-8 -12 13 -48 31 -55 8 -3 13 2 13 13 0 23 -35 56 -44
42z"/>
<path d="M6313 6754 c-29 -29 -53 -56 -53 -59 0 -3 9 -5 19 -5 23 0 111 83
111 105 0 27 -24 15 -77 -41z"/>
<path d="M6116 6552 c-9 -14 -11 -81 -2 -89 11 -11 26 18 26 54 0 31 -14 51
-24 35z"/>
<path d="M4467 5909 c-90 -13 -171 -54 -226 -115 -86 -94 -74 -129 30 -88 188
74 344 72 499 -6 34 -17 65 -28 70 -25 38 23 -30 134 -111 183 -83 50 -164 66
-262 51z"/>
<path d="M5777 5856 c-71 -30 -119 -65 -145 -108 -48 -79 -25 -94 78 -52 51
21 88 27 170 31 124 6 200 -10 300 -63 76 -40 100 -43 100 -11 0 56 -85 146
-179 191 -58 27 -79 31 -166 34 -88 2 -107 0 -158 -22z"/>
<path d="M4517 5570 c-148 -38 -272 -170 -333 -356 -28 -85 -29 -97 -29 -269
1 -175 2 -182 32 -275 18 -52 31 -95 30 -96 -1 -1 -31 -9 -67 -18 -69 -17
-115 -44 -115 -67 0 -16 30 -16 95 1 104 28 329 -10 500 -83 70 -30 75 -34 82
-71 18 -86 100 -146 200 -147 54 -1 118 21 118 41 0 6 -30 10 -66 10 -40 0
-79 6 -101 16 -99 48 -114 181 -26 235 44 28 125 23 171 -10 18 -12 36 -19 42
-16 31 19 -18 78 -82 97 -21 6 -38 13 -38 16 0 2 11 35 25 73 43 119 58 229
52 374 -8 193 -54 318 -158 429 -92 99 -220 144 -332 116z m147 -84 c27 -8 66
-27 89 -42 l41 -27 -45 -11 c-92 -24 -156 -83 -205 -191 -23 -50 -57 -157 -51
-160 1 -1 35 -7 76 -13 103 -15 150 -62 125 -127 -12 -31 -62 -47 -138 -44
l-71 4 1 -71 c2 -78 23 -164 60 -238 20 -40 21 -47 8 -42 -44 17 -171 46 -201
46 -31 0 -36 4 -58 53 -43 94 -59 181 -59 327 0 152 14 223 66 330 52 107 126
175 223 206 53 17 83 17 139 0z"/>
<path d="M5845 5533 c-195 -42 -324 -182 -386 -418 -28 -108 -31 -328 -5 -430
22 -84 79 -203 122 -253 l32 -37 -30 -33 c-16 -19 -27 -39 -25 -45 7 -22 46
-18 84 7 58 40 242 114 351 143 61 16 137 27 207 30 95 5 119 2 172 -16 81
-27 95 -27 91 2 -4 30 -91 73 -166 82 l-58 6 27 82 c37 116 55 287 40 403 -31
251 -158 428 -340 470 -57 14 -80 15 -116 7z m190 -124 l56 -34 -51 -14 c-100
-28 -194 -148 -231 -295 -14 -57 -7 -66 60 -66 118 0 179 -110 85 -155 -30
-14 -51 -16 -107 -10 l-70 6 5 -93 c5 -87 15 -126 64 -234 3 -5 -32 -25 -77
-44 l-82 -34 -40 45 c-47 52 -89 138 -114 229 -23 88 -22 289 1 380 41 154
134 286 238 336 46 22 64 25 130 21 66 -3 84 -8 133 -38z"/>
<path d="M5977 4323 c-15 -14 -6 -70 17 -110 l25 -43 -59 -34 c-125 -74 -333
-140 -520 -167 -108 -15 -355 -15 -485 1 -203 24 -401 93 -488 170 -64 56 -94
12 -36 -54 35 -40 110 -86 185 -112 l51 -18 28 -85 c80 -249 197 -411 350
-487 166 -81 359 -83 547 -4 226 94 414 337 486 626 l26 104 52 0 c99 0 115
28 32 55 -67 21 -110 54 -155 116 -35 49 -43 55 -56 42z m-89 -534 l32 -11
-42 -59 c-60 -86 -196 -213 -267 -248 -33 -17 -95 -40 -138 -52 -140 -39 -346
-14 -425 51 l-23 19 55 56 c75 76 172 125 251 125 57 0 58 -1 56 -27 -3 -45
28 -41 52 5 30 60 104 120 170 138 31 8 61 17 66 20 18 7 180 -5 213 -17z"/>
<path d="M4956 3265 c-9 -25 69 -101 139 -136 94 -46 177 -57 267 -36 92 22
253 105 236 122 -3 3 -32 -2 -64 -11 -32 -9 -107 -18 -165 -21 -131 -7 -225
12 -319 62 -72 39 -85 42 -94 20z"/>
</g>
</svg>
