<?xml version="1.0" standalone="no"?>
<!DOCTYPE svg PUBLIC "-//W3C//DTD SVG 20010904//EN"
 "http://www.w3.org/TR/2001/REC-SVG-20010904/DTD/svg10.dtd">
<svg version="1.0" xmlns="http://www.w3.org/2000/svg"
 width="1024.000000pt" height="1024.000000pt" viewBox="0 0 1024.000000 1024.000000"
 preserveAspectRatio="xMidYMid meet">

<g transform="translate(0.000000,1024.000000) scale(0.100000,-0.100000)"
fill="#000000" stroke="none">
<path d="M5305 8353 c-94 -5 -270 -24 -375 -39 -434 -62 -795 -172 -1119 -340
-252 -131 -420 -253 -606 -440 -187 -188 -298 -359 -350 -542 -24 -84 -27
-107 -23 -222 3 -127 3 -128 46 -211 23 -46 42 -89 42 -95 0 -7 -10 -14 -22
-18 -42 -10 -179 -97 -218 -138 -136 -139 4 -323 204 -267 62 17 66 1 23 -83
-46 -92 -68 -176 -66 -254 1 -33 -1 -65 -4 -71 -16 -26 -322 39 -420 89 -51
26 -117 86 -117 108 0 9 13 41 30 71 54 98 72 170 68 267 -3 76 -8 97 -41 166
l-37 78 16 81 c29 142 3 271 -91 456 -111 219 -113 428 -5 642 76 150 74 218
-9 300 -56 57 -107 73 -206 67 -173 -11 -309 -147 -360 -357 -15 -61 -17 -101
-12 -229 l5 -154 -36 6 c-190 33 -323 26 -463 -23 -244 -87 -367 -255 -330
-453 12 -59 11 -66 -13 -118 -50 -108 -44 -222 15 -316 27 -42 29 -52 23 -100
-4 -32 -1 -74 6 -105 13 -54 28 -72 190 -238 55 -57 143 -104 234 -127 62 -15
76 -24 125 -74 68 -69 145 -108 242 -122 78 -12 72 -8 209 -136 48 -45 200
-147 279 -187 173 -86 371 -135 586 -144 147 -6 150 -6 153 -29 2 -13 -1 -28
-6 -35 -5 -7 -17 -36 -27 -66 -14 -44 -17 -73 -11 -152 l6 -98 -50 -22 c-93
-40 -139 -122 -106 -187 22 -43 20 -68 -10 -108 -63 -82 -33 -182 69 -230 29
-13 62 -24 73 -24 21 0 22 -5 26 -117 5 -138 25 -204 97 -327 59 -102 198
-244 312 -319 185 -122 455 -234 753 -312 71 -18 133 -38 139 -44 7 -7 4 -40
-11 -108 -35 -159 -44 -248 -46 -432 l-1 -173 -44 -15 c-115 -39 -171 -104
-180 -211 l-6 -67 -65 -12 c-95 -17 -171 -48 -258 -106 l-77 -52 -115 0 c-131
-1 -204 -20 -306 -81 -169 -101 -254 -254 -254 -456 0 -48 -2 -88 -4 -88 -21
0 -299 -35 -401 -51 -223 -33 -398 -83 -420 -118 -9 -15 34 -49 89 -70 338
-125 1499 -222 3016 -251 342 -6 745 -6 1201 1 l686 10 89 -26 c125 -37 314
-58 444 -50 207 12 389 54 488 111 36 21 69 28 235 44 439 45 754 107 801 159
15 16 15 19 -1 34 -58 51 -357 118 -728 162 -185 22 -178 20 -202 68 -32 65
-99 141 -170 193 -49 36 -79 70 -128 143 -111 168 -286 338 -444 430 -62 37
-69 44 -75 79 -8 51 -56 116 -114 153 -57 36 -101 49 -169 49 -45 0 -54 4 -71
28 -52 73 -150 301 -193 452 -23 80 -24 110 -4 110 35 0 306 32 390 46 228 37
438 94 600 160 153 64 168 65 213 21 45 -44 122 -83 193 -99 36 -8 69 -25 100
-50 83 -70 182 -93 284 -67 36 9 53 8 91 -5 156 -53 334 21 409 171 25 50 30
70 30 138 0 63 -4 87 -21 115 -25 42 -21 63 18 112 16 21 39 63 51 94 20 50
27 58 64 73 95 37 143 120 143 247 l0 62 70 57 c133 109 241 244 292 366 17
43 22 74 22 155 1 96 0 103 -36 175 -121 242 -399 457 -741 575 -103 35 -109
39 -134 81 l-26 44 19 62 c11 37 18 87 17 124 -1 64 -41 204 -68 239 -30 39
-20 45 63 38 67 -6 85 -3 125 14 74 33 108 104 87 182 -16 60 -77 115 -203
184 -59 32 -110 62 -113 67 -2 5 11 31 30 59 66 96 80 149 80 295 0 123 -2
136 -37 240 -161 483 -671 946 -1327 1208 -523 208 -1110 310 -1763 305 -150
-1 -294 -3 -322 -5z m770 -83 c446 -38 906 -137 1237 -266 394 -154 763 -398
1001 -662 290 -324 411 -696 301 -927 -63 -134 -240 -239 -520 -309 -165 -42
-561 -94 -949 -126 -137 -11 -270 -23 -295 -26 -52 -7 -90 -28 -90 -49 0 -27
50 -37 141 -31 l86 7 7 -32 c16 -83 -8 -195 -52 -242 -37 -39 -87 -49 -205
-42 -81 5 -106 4 -121 -8 -25 -19 -15 -45 21 -53 57 -12 58 -13 27 -45 -16
-17 -67 -50 -114 -73 -99 -48 -120 -79 -44 -65 26 5 49 8 50 6 2 -2 -15 -22
-37 -45 -29 -30 -63 -50 -122 -72 -89 -34 -117 -54 -101 -70 6 -6 21 -6 44 0
48 14 70 12 70 -4 0 -22 -56 -61 -151 -105 -76 -35 -129 -74 -118 -86 14 -13
520 -27 814 -22 463 8 762 35 1125 103 296 55 455 112 545 195 l44 40 20 -40
c37 -72 22 -130 -52 -198 -77 -71 -201 -125 -400 -173 -127 -31 -389 -74 -409
-68 -16 6 126 82 265 143 61 27 107 53 107 61 0 20 -6 19 -137 -30 -341 -125
-634 -335 -942 -675 l-85 -93 -30 38 c-166 208 -346 350 -601 474 -119 58
-281 120 -313 120 -10 0 -39 -18 -66 -40 -101 -84 -272 -162 -406 -186 -192
-34 -367 -6 -560 91 -94 47 -137 77 -224 154 -66 58 -71 61 -122 61 -78 0
-309 -45 -410 -81 -216 -75 -431 -199 -596 -343 l-87 -76 -53 77 c-28 43 -103
159 -164 258 -214 344 -264 414 -368 523 -40 42 -56 51 -56 32 0 -5 29 -54 64
-108 35 -54 69 -108 75 -120 l12 -22 -53 21 c-121 47 -207 115 -234 184 -23
62 -15 139 20 200 l28 48 26 -34 c104 -138 280 -230 587 -308 224 -56 703
-112 1088 -125 166 -6 160 13 -33 107 -172 84 -226 157 -90 122 34 -9 65 -13
68 -10 14 14 -20 42 -83 68 -72 29 -135 70 -135 89 0 7 16 9 45 6 25 -3 47 -2
50 2 7 12 -28 39 -66 51 -76 24 -90 33 -119 78 -16 26 -30 50 -30 54 0 3 21 7
47 9 35 2 49 7 51 20 6 32 -44 51 -162 63 -188 19 -230 58 -229 210 0 44 6 93
12 109 11 28 12 28 69 20 99 -14 156 -11 160 8 6 30 -42 48 -280 108 -269 67
-368 97 -493 150 -278 118 -413 250 -446 434 -40 230 89 506 366 781 280 281
591 462 1030 600 314 99 644 154 1070 179 103 6 554 -3 680 -14z m-3930 -406
c79 -37 88 -110 31 -230 -70 -145 -88 -209 -93 -330 -7 -141 13 -225 96 -403
34 -71 68 -160 77 -197 39 -167 -18 -363 -148 -512 -28 -33 -30 -52 -3 -52 24
0 111 77 141 124 16 25 32 46 35 46 11 0 30 -54 37 -106 20 -132 -41 -286
-158 -401 -126 -124 -260 -185 -410 -187 -97 -1 -160 17 -236 66 l-49 32 75
11 c80 13 236 68 333 116 32 16 80 51 107 77 78 75 63 98 -25 39 -28 -19 -72
-46 -99 -61 -41 -23 -47 -24 -41 -9 4 10 11 50 15 88 4 40 16 87 29 110 27 50
28 123 1 175 -11 21 -24 41 -29 45 -6 3 10 25 34 49 86 87 98 210 28 304 l-25
33 32 36 c61 69 80 152 56 237 -18 62 -89 147 -160 192 l-44 28 -12 89 c-16
117 -16 238 -1 312 28 129 119 249 216 283 47 16 152 14 190 -4z m-518 -729
c221 -70 323 -261 191 -359 l-27 -19 -142 27 c-157 32 -364 39 -433 16 -67
-22 -37 -35 100 -43 300 -17 466 -73 515 -175 33 -67 14 -139 -48 -179 -24
-16 -57 -18 -310 -18 -279 0 -325 -5 -291 -32 25 -20 121 -33 316 -43 109 -6
209 -15 224 -21 59 -24 87 -119 51 -179 -45 -78 -264 -126 -453 -101 -92 12
-113 0 -49 -28 100 -44 246 -49 402 -14 38 8 71 12 74 9 13 -13 -32 -86 -66
-110 -65 -44 -127 -59 -241 -59 -176 1 -304 57 -362 160 -20 36 -41 58 -65 70
-64 30 -96 112 -75 190 11 41 10 46 -22 96 -67 100 -72 201 -15 307 27 51 30
63 21 92 -31 97 -20 187 31 255 59 80 194 153 332 179 101 20 242 11 342 -21z
m1384 -752 c8 -9 32 -29 54 -45 37 -27 38 -29 17 -35 -40 -10 -106 -47 -110
-62 -4 -10 1 -12 19 -7 13 3 57 11 98 17 69 10 79 9 125 -12 28 -13 53 -24 55
-25 2 -2 -15 -20 -38 -42 -39 -37 -52 -62 -32 -62 5 0 38 13 73 30 34 16 69
30 77 30 21 0 91 -22 91 -29 0 -3 -16 -17 -35 -31 -37 -27 -70 -79 -64 -99 3
-9 14 -5 36 13 37 32 139 86 161 86 8 0 39 -8 68 -17 l53 -16 -34 -38 c-89
-99 -84 -165 5 -73 71 72 130 96 198 78 15 -4 21 -12 18 -21 -4 -8 -9 -46 -12
-84 -4 -38 -11 -66 -16 -63 -5 3 -26 6 -45 6 -31 0 -44 -8 -87 -55 -76 -82
-152 -97 -234 -47 -37 23 -72 75 -72 108 0 12 -9 31 -19 41 -19 19 -20 19 -88
-5 -82 -29 -115 -30 -170 -5 -56 26 -75 65 -71 143 4 84 -5 89 -121 59 -99
-26 -144 -23 -179 9 -74 70 1 174 177 246 67 28 84 29 102 7z m5683 -238 c161
-76 221 -150 185 -229 -23 -50 -89 -57 -214 -24 -78 20 -85 21 -108 5 -20 -13
-27 -28 -32 -64 -9 -72 -34 -115 -80 -138 -78 -38 -184 -17 -275 55 -49 39
-74 38 -121 -4 -63 -58 -136 -58 -190 0 -12 13 -30 24 -40 24 -26 0 -49 -39
-49 -83 0 -114 -94 -187 -239 -187 -103 0 -159 31 -215 119 -25 38 -55 75 -68
82 -36 19 -101 15 -143 -10 l-38 -22 7 38 c3 21 6 68 6 106 l0 67 100 0 c100
0 100 0 138 -34 20 -19 51 -62 67 -95 16 -34 32 -61 36 -61 5 0 13 9 19 20 13
24 -1 87 -31 138 -10 18 -19 35 -19 37 0 2 16 7 36 11 32 6 40 3 76 -32 22
-22 56 -65 75 -96 20 -32 40 -58 44 -58 21 0 7 78 -25 137 l-33 61 31 6 c17 3
58 8 92 12 l61 6 67 -62 c48 -45 70 -60 78 -52 15 15 3 55 -27 90 -14 17 -25
33 -25 36 0 3 16 6 36 6 42 0 134 -46 194 -97 30 -26 44 -33 52 -25 18 18 -10
68 -60 111 l-45 39 70 12 c68 12 72 12 128 -14 32 -14 79 -41 104 -59 71 -51
71 -51 71 -25 0 15 -22 43 -63 83 l-64 61 58 18 c50 17 66 17 121 7 35 -6 98
-24 140 -38 43 -15 81 -23 85 -20 13 13 -33 49 -110 85 l-79 38 49 31 c56 37
66 36 167 -12z m-5671 -379 c-5 -74 -3 -86 21 -133 70 -139 212 -230 393 -253
61 -8 81 -15 109 -40 87 -76 218 -106 354 -80 l53 10 43 -40 c24 -22 50 -40
59 -40 8 0 15 -5 15 -11 0 -13 -47 -9 -300 27 -324 46 -537 115 -680 221 -63
47 -127 134 -146 201 -20 67 -15 178 10 236 l16 39 29 -27 c28 -27 29 -29 24
-110z m143 -33 c19 -44 17 -63 -5 -63 -23 0 -51 55 -51 101 0 32 0 32 21 13
12 -10 28 -33 35 -51z m-816 -60 c19 -11 63 -31 97 -44 49 -19 64 -30 77 -57
75 -156 -32 -326 -204 -326 -84 0 -268 102 -412 227 -32 27 -58 53 -58 57 0 4
19 10 43 14 73 12 216 88 287 154 l65 60 35 -32 c19 -18 51 -42 70 -53z m6290
-22 c71 -224 -49 -402 -316 -470 -66 -16 -212 -41 -245 -41 -5 0 -9 4 -9 9 0
13 46 29 120 41 235 40 361 135 389 295 9 47 8 72 -3 115 -13 50 -13 56 7 97
24 50 28 46 57 -46z m-5315 -47 c30 -22 41 -25 82 -21 163 19 169 19 208 3 23
-10 35 -20 29 -25 -5 -5 -58 -12 -119 -15 -60 -3 -129 -8 -153 -12 -31 -4 -49
-2 -67 10 -29 19 -48 52 -41 72 8 20 23 17 61 -12z m535 -52 c52 -50 62 -72
34 -72 -22 0 -104 82 -104 104 0 27 17 19 70 -32z m4615 -3 c10 -31 -22 -69
-85 -101 -52 -27 -100 -36 -100 -20 0 5 17 17 38 26 50 23 76 46 96 84 19 37
42 42 51 11z m-216 -5 c10 -10 -12 -17 -79 -24 -78 -9 -102 -23 -129 -80 -12
-26 -23 -36 -44 -38 -23 -3 -27 0 -27 20 0 80 108 144 225 132 27 -3 52 -7 54
-10z m-4085 -4 c14 -5 26 -15 26 -21 0 -12 -120 -6 -141 7 -33 20 67 33 115
14z m2906 -83 c0 -26 -35 -45 -107 -57 -69 -11 -99 -8 -88 10 3 4 37 16 77 25
40 10 80 21 88 26 22 12 30 11 30 -4z m-3376 -20 c75 -42 52 -61 -37 -31 -52
18 -67 32 -46 45 22 14 41 10 83 -14z m4176 -16 c0 -27 -37 -69 -81 -91 -41
-22 -118 -26 -150 -10 -33 18 -21 30 34 30 60 0 121 25 156 64 29 31 41 33 41
7z m-3593 -25 c17 -17 -24 -29 -110 -34 -67 -3 -96 -1 -102 7 -11 18 -2 23 62
31 62 9 140 7 150 -4z m3091 -59 c15 -16 13 -17 -39 -17 -31 0 -78 -7 -105
-15 -60 -18 -74 -19 -74 -2 0 48 176 75 218 34z m-591 -33 c58 -22 78 -25 136
-20 62 6 67 5 67 -13 0 -51 -100 -67 -180 -30 -75 35 -98 39 -151 27 -27 -6
-52 -8 -56 -5 -10 11 28 47 61 56 46 14 50 13 123 -15z m1271 -40 c7 -50 -97
-125 -224 -163 -38 -11 -125 -27 -194 -35 -149 -18 -451 -39 -458 -32 -11 12
60 28 158 37 89 7 115 14 173 43 60 31 71 33 104 24 20 -5 71 -8 112 -6 98 5
180 41 247 109 51 51 77 59 82 23z m-568 -14 c6 -12 8 -30 5 -41 -8 -23 -74
-59 -110 -59 -32 0 -33 18 0 26 30 7 65 49 65 75 0 25 27 24 40 -1z m-3157
-72 c26 -5 47 -14 47 -19 0 -12 -18 -11 -117 2 -68 10 -81 15 -72 25 12 15 50
12 142 -8z m2832 -43 c0 -25 -8 -36 -47 -62 -58 -38 -122 -53 -232 -53 -121 0
-327 12 -320 19 21 22 99 30 233 24 131 -5 152 -3 206 15 41 15 70 33 90 57
38 44 70 44 70 0z m-640 5 c0 -10 -12 -16 -32 -18 -32 -3 -45 13 -26 32 13 12
58 2 58 -14z m2538 -81 c130 -66 225 -135 327 -239 107 -109 152 -177 175
-265 19 -75 19 -118 -1 -186 -22 -72 -48 -123 -101 -191 -43 -56 -195 -198
-212 -198 -4 0 -25 27 -45 59 -43 71 -128 149 -202 188 -30 15 -54 30 -54 33
0 3 26 23 56 45 69 49 110 99 131 160 14 42 14 50 -2 90 -24 65 -105 133 -229
195 -87 43 -107 57 -115 83 -42 118 35 228 187 266 1 1 39 -18 85 -40z m-6040
-101 c-1 -7 -7 -43 -14 -79 -11 -59 -11 -72 6 -115 39 -103 212 -231 377 -279
45 -13 64 -25 90 -57 l32 -41 -62 7 c-69 8 -190 45 -255 77 -117 60 -193 131
-245 231 -24 46 -27 64 -27 143 0 65 5 101 18 128 l18 38 32 -20 c18 -11 31
-26 30 -33z m166 -151 c39 -87 46 -110 31 -105 -24 8 -72 86 -77 127 -8 62 13
52 46 -22z m5399 -83 c7 -104 -16 -163 -89 -237 -59 -59 -150 -110 -219 -121
-39 -7 -41 -9 49 49 116 75 175 169 175 280 1 39 -2 84 -6 101 -6 28 -4 32 25
46 32 16 32 16 46 -16 8 -17 16 -63 19 -102z m-220 0 c4 -40 -29 -89 -84 -124
-54 -34 -142 -66 -152 -55 -4 4 -2 10 4 12 6 2 40 23 75 46 47 32 73 58 98
100 37 62 54 68 59 21z m496 -38 c225 -109 254 -201 99 -318 -115 -88 -120
-90 -162 -83 -34 6 -40 11 -50 47 -16 52 -47 94 -89 120 -37 23 -37 25 -3 118
11 30 20 80 21 111 0 31 3 59 7 63 14 13 64 -3 177 -58z m-804 -16 c0 -20 -49
-53 -150 -102 -58 -28 -123 -63 -145 -78 -180 -121 -264 -160 -319 -146 -42
10 -26 27 41 46 69 19 132 54 218 120 33 26 108 72 168 103 134 70 187 87 187
57z m-3781 -29 c18 -12 61 -100 51 -106 -8 -5 -90 79 -90 93 0 21 17 26 39 13z
m-1389 -32 c7 -11 28 -38 47 -60 20 -22 34 -41 32 -42 -2 -1 -21 -10 -41 -20
-55 -24 -47 -37 25 -37 41 -1 74 -7 97 -20 l35 -18 -30 -11 c-70 -26 -84 -34
-106 -57 -30 -32 -18 -41 34 -26 23 7 74 19 114 28 l72 16 113 -33 c62 -18
116 -35 121 -39 4 -3 -2 -33 -13 -65 -11 -32 -20 -69 -20 -82 0 -39 32 -24 60
29 46 84 53 88 144 87 100 -1 213 -28 207 -49 -21 -77 -9 -88 45 -40 48 41
100 53 175 40 59 -11 241 -64 260 -76 6 -3 -8 -19 -29 -35 -43 -31 -72 -69
-72 -94 0 -23 14 -19 76 25 80 56 140 74 230 68 41 -3 76 -7 79 -10 3 -2 -1
-19 -7 -36 -20 -52 1 -58 56 -15 71 55 119 56 279 4 69 -23 133 -41 142 -41 8
0 15 -2 15 -5 0 -3 -27 -32 -60 -65 -52 -52 -75 -90 -53 -90 3 0 55 32 114 70
l109 70 71 0 72 0 -61 -64 c-34 -35 -62 -69 -62 -75 0 -26 25 -16 106 47 49
37 101 73 115 79 44 19 180 35 264 31 88 -4 292 -44 313 -61 20 -16 52 -83 52
-109 0 -13 5 -30 10 -38 9 -13 13 -12 26 5 12 15 15 35 11 88 l-6 67 62 0 c61
0 63 -1 136 -61 41 -33 87 -67 104 -75 60 -32 47 10 -30 89 l-51 53 139 33
c242 56 352 44 446 -48 23 -22 47 -41 53 -41 17 0 11 31 -15 77 l-26 43 60 0
59 0 80 -75 c44 -41 85 -75 91 -75 21 0 11 34 -30 97 -23 35 -40 65 -38 67 6
6 173 25 324 36 77 6 179 20 227 31 86 20 87 20 130 1 24 -10 56 -33 71 -51
15 -18 31 -29 37 -26 21 13 10 63 -20 95 -17 18 -30 33 -30 35 0 2 29 11 65
20 79 22 124 17 212 -24 40 -19 70 -28 76 -22 11 11 -18 58 -46 72 -31 17 -2
29 72 29 76 0 128 -14 167 -45 29 -23 29 -23 12 -58 -15 -32 -25 -38 -110 -66
-87 -29 -97 -30 -149 -19 -79 16 -111 1 -151 -69 -34 -60 -65 -89 -110 -98
-24 -6 -49 3 -132 44 -55 28 -108 51 -117 51 -8 0 -25 -9 -36 -19 -18 -17 -20
-28 -16 -88 5 -64 3 -71 -22 -101 -31 -37 -89 -57 -138 -48 -20 4 -63 25 -95
46 -68 46 -79 45 -132 -11 -53 -56 -135 -70 -205 -36 -36 17 -94 80 -105 113
-14 40 -30 47 -86 33 -40 -10 -48 -9 -94 15 -58 30 -73 32 -94 10 -11 -11 -16
-35 -16 -81 0 -81 -19 -116 -78 -144 -72 -35 -155 -15 -266 66 -26 19 -55 35
-63 35 -8 0 -36 -22 -62 -49 -74 -76 -156 -100 -234 -67 -44 18 -67 56 -77
129 -12 79 -39 108 -108 115 -71 6 -112 -11 -199 -85 -155 -131 -252 -145
-372 -52 -33 27 -67 24 -120 -10 -25 -17 -66 -35 -91 -42 -40 -11 -51 -10 -93
9 -58 26 -77 63 -77 151 0 101 -12 110 -99 64 -59 -30 -70 -28 -139 31 -24 20
-52 36 -62 36 -10 0 -47 -25 -83 -55 -35 -30 -84 -63 -108 -75 -86 -38 -186
-20 -232 44 -18 25 -22 46 -24 110 -1 73 -9 95 -34 96 -4 0 -29 -18 -55 -40
-80 -66 -119 -64 -201 11 -50 46 -75 49 -106 13 -56 -67 -88 -87 -162 -104
-60 -13 -118 1 -157 40 -24 24 -28 36 -28 83 0 45 -5 61 -26 86 -36 43 -77 48
-204 22 -58 -11 -124 -21 -146 -21 -93 0 -154 39 -154 99 0 30 8 43 55 86 64
60 69 85 23 106 -45 20 -55 41 -38 75 14 25 78 63 107 64 7 0 17 -9 23 -21z
m1678 -46 c43 -26 56 -28 152 -28 97 0 109 -2 153 -28 52 -31 66 -52 48 -70
-8 -8 -26 -4 -69 18 -54 29 -63 30 -184 30 -112 0 -130 2 -154 21 -36 26 -49
47 -41 68 9 24 42 20 95 -11z m-443 -91 c17 -8 50 -31 75 -52 79 -66 126 -85
208 -84 83 0 97 -17 35 -43 -68 -28 -173 2 -261 76 -56 46 -115 77 -165 86
-44 9 -47 20 -9 33 31 11 74 5 117 -16z m2130 -52 c49 -21 61 -50 21 -50 -13
0 -40 7 -60 15 -61 26 -114 21 -181 -15 -53 -28 -67 -31 -121 -27 -82 6 -123
33 -108 72 11 27 55 30 116 7 l58 -21 68 24 c77 28 134 26 207 -5z m255 20
c20 -12 11 -18 -34 -22 -23 -2 -41 2 -43 9 -7 19 52 29 77 13z m1710 -8 c0
-11 -39 -46 -65 -60 -11 -5 -53 -15 -93 -21 -39 -6 -102 -22 -139 -36 -72 -27
-92 -25 -53 6 55 42 128 70 203 78 42 4 84 14 98 23 26 18 49 23 49 10z
m-2974 -47 c59 -33 175 -61 198 -47 5 2 6 -1 4 -9 -4 -11 -27 -14 -99 -13 -77
0 -108 5 -169 28 -84 30 -95 38 -87 60 11 29 83 20 153 -19z m3390 -9 c50 -50
46 -71 -18 -87 -65 -15 -114 -35 -149 -60 -25 -17 -28 -18 -40 -2 -8 9 -26 24
-42 33 l-28 17 43 17 c24 9 72 38 108 66 36 27 71 49 79 50 7 0 28 -15 47 -34z
m-4746 -10 c100 -22 111 -36 29 -36 -99 0 -200 35 -156 54 14 6 24 4 127 -18z
m867 -22 c15 -10 47 -35 71 -57 56 -50 116 -77 173 -77 52 0 74 17 64 50 -5
14 -2 20 10 20 20 0 65 -44 65 -64 0 -40 -66 -63 -146 -51 -95 14 -143 35
-204 90 -57 50 -127 85 -172 85 -23 0 -24 17 0 24 31 9 111 -3 139 -20z m1847
-28 c70 -29 52 -95 -34 -120 -94 -28 -176 -30 -304 -6 -73 13 -133 19 -157 15
-50 -9 -53 -8 -57 4 -5 16 60 41 105 41 21 0 73 -7 116 -15 169 -32 277 -5
262 66 -6 25 -4 29 15 29 11 0 36 -6 54 -14z m1126 -9 c0 -21 -51 -64 -103
-87 -68 -30 -172 -47 -332 -55 -126 -5 -138 -4 -121 9 23 19 89 32 227 45 111
11 195 36 251 76 36 26 78 32 78 12z m-1828 -121 c-15 -34 -71 -50 -147 -43
-62 6 -170 40 -180 58 -15 23 10 26 63 7 34 -12 84 -21 124 -22 61 -1 70 2 95
26 24 24 29 26 42 13 11 -11 12 -19 3 -39z m2914 23 c140 -25 276 -128 334
-251 55 -116 52 -203 -7 -269 -37 -41 -53 -48 -53 -24 0 48 -78 190 -95 173
-4 -4 1 -30 10 -59 25 -73 17 -186 -17 -260 -43 -95 -123 -169 -212 -199 l-39
-12 5 -63 c6 -70 26 -120 48 -120 12 0 15 13 15 58 0 57 0 57 44 82 54 31 57
31 76 -5 54 -105 -39 -277 -170 -316 -100 -28 -184 -5 -231 65 -42 65 -57 126
-59 256 -3 121 -12 147 -37 103 -9 -16 -13 -66 -13 -163 0 -131 2 -143 26
-193 14 -29 23 -55 19 -57 -4 -3 -35 -5 -68 -6 -62 -2 -88 10 -150 65 -70 62
-101 201 -84 366 11 103 8 126 -14 112 -42 -27 -68 -261 -40 -362 8 -30 13
-56 11 -58 -10 -10 -117 44 -147 75 -50 52 -67 92 -77 174 -22 169 38 341 167
480 183 197 450 284 677 219 83 -24 80 -24 66 -6 -6 7 -39 26 -74 42 -50 22
-80 29 -154 32 -51 2 -93 7 -93 11 0 16 33 51 67 72 73 45 161 58 269 38z
m-1936 -58 c0 -15 -28 -21 -96 -21 -62 0 -87 14 -41 23 43 8 137 7 137 -2z
m-3726 -17 c3 -9 6 -31 6 -49 0 -127 136 -213 293 -184 71 12 103 27 153 71
25 22 40 29 49 22 49 -37 69 -47 102 -54 31 -8 80 -3 132 11 8 3 18 -13 27
-44 53 -176 309 -209 481 -62 l42 35 36 -25 c42 -28 89 -39 140 -33 33 4 35 3
35 -27 0 -17 12 -56 28 -86 38 -75 90 -104 187 -104 59 0 81 5 134 32 l64 31
60 -31 c55 -29 69 -32 146 -32 107 0 164 25 271 119 78 69 105 81 143 67 19
-7 25 -19 30 -51 3 -23 16 -63 29 -89 20 -38 36 -52 89 -80 58 -30 70 -33 129
-29 69 5 130 31 188 78 l34 28 56 -35 c117 -70 225 -80 320 -28 52 28 96 85
112 147 l10 37 58 -6 c53 -5 60 -9 107 -59 28 -29 70 -62 95 -73 86 -39 229
-22 293 36 16 15 22 14 79 -13 120 -57 245 -32 311 62 18 26 31 60 34 88 3 25
7 46 8 46 1 0 30 -14 64 -31 62 -31 139 -40 193 -23 19 6 18 3 -5 -28 -93
-122 -146 -341 -118 -488 11 -54 11 -55 -122 -110 -165 -69 -410 -130 -678
-169 -335 -49 -456 -56 -999 -56 -521 1 -674 7 -1050 45 -1132 115 -1797 396
-1975 837 -30 74 -48 185 -40 245 7 51 5 49 100 71 50 12 113 7 119 -9z m1771
-1238 c271 -28 819 -55 1112 -56 l92 0 27 -87 c61 -203 193 -487 279 -603 16
-21 14 -30 -17 -71 -85 -111 -75 -231 26 -314 41 -33 46 -42 46 -79 0 -76 29
-234 55 -297 39 -97 44 -92 -102 -85 -71 3 -459 9 -864 12 l-737 7 -5 166 c-5
183 -14 227 -75 348 l-35 71 21 50 c48 112 14 201 -102 269 l-66 38 0 147 c0
190 39 411 87 487 13 21 20 23 62 18 25 -3 114 -12 196 -21z m-626 -179 c36
-16 67 -21 139 -22 l93 0 -5 -28 c-22 -110 -29 -253 -19 -383 11 -139 11 -139
-13 -160 -45 -43 -187 -40 -261 6 -22 13 -35 31 -43 59 -30 113 -39 335 -19
510 l12 101 35 -32 c20 -17 56 -40 81 -51z m2372 -84 c40 -123 104 -256 188
-391 58 -93 80 -138 76 -152 -3 -11 -34 -33 -72 -52 -56 -27 -77 -32 -138 -33
-86 0 -91 3 -176 117 -73 98 -157 239 -207 348 -65 139 -67 130 26 130 98 0
200 29 245 70 18 16 33 30 34 30 1 0 11 -30 24 -67z m-2563 -448 c2 -21 10
-48 19 -61 22 -35 109 -73 188 -83 154 -19 275 28 275 106 0 27 4 28 40 7 59
-35 78 -119 41 -180 -63 -104 -356 -126 -575 -44 -37 14 -76 40 -107 69 -43
42 -49 52 -49 89 0 52 44 106 105 127 53 19 59 15 63 -30z m2989 -10 c48 -29
83 -86 83 -136 0 -46 -46 -123 -94 -157 -96 -69 -249 -114 -396 -115 -83 -1
-102 2 -152 25 -71 33 -93 65 -93 138 0 42 6 63 24 89 23 32 25 33 38 15 51
-73 95 -94 197 -94 128 0 245 48 293 119 30 44 29 66 -3 108 l-25 33 42 0 c27
0 58 -9 86 -25z m211 -242 c67 -42 192 -146 248 -205 65 -70 158 -187 153
-192 -2 -2 -35 2 -74 8 -68 12 -70 13 -73 43 -4 37 -41 78 -88 95 -30 10 -34
16 -34 46 0 69 -94 132 -197 132 -24 0 -43 3 -43 7 0 16 54 83 67 83 7 0 26
-8 41 -17z m-3337 -32 c144 -64 224 -188 148 -230 -39 -22 -71 -7 -140 65 -66
68 -152 123 -227 145 -49 14 -41 24 31 39 57 12 135 4 188 -19z m716 -75 c29
-45 61 -143 69 -214 6 -57 5 -59 -26 -86 -114 -95 -531 -249 -760 -280 l-45
-6 4 50 c3 45 -5 96 -25 163 -4 14 1 17 26 17 59 0 120 52 120 103 0 10 16 16
55 19 68 6 105 31 124 84 13 37 12 43 -10 89 -12 28 -24 53 -26 56 -2 3 22 2
54 -3 92 -15 288 -4 353 20 30 11 57 21 60 21 3 0 15 -14 27 -33z m-922 -16
c85 -40 178 -127 201 -186 16 -42 16 -45 -1 -64 -12 -13 -31 -20 -55 -20 -34
0 -44 7 -94 64 -63 72 -122 118 -209 164 -32 17 -57 34 -56 39 1 4 14 16 28
25 36 25 106 16 186 -22z m3532 -21 c33 -12 73 -48 73 -64 0 -8 -32 -15 -92
-19 -118 -9 -224 -44 -310 -102 -52 -35 -74 -45 -100 -42 -28 3 -34 7 -36 31
-6 47 38 92 133 137 124 61 263 85 332 59z m-3797 -61 c138 -59 237 -140 297
-239 62 -104 77 -235 29 -262 -15 -9 -101 -12 -311 -12 -264 1 -299 3 -385 23
-174 40 -260 99 -260 178 0 79 109 223 216 284 80 47 145 60 259 56 77 -3 113
-9 155 -28z m3276 -57 c-23 -25 -31 -85 -17 -119 13 -32 58 -62 91 -62 17 0
21 -5 20 -27 -4 -52 0 -62 36 -97 l36 -35 -26 -32 c-33 -39 -55 -80 -70 -133
l-12 -41 -65 67 c-79 80 -134 160 -160 233 -21 59 -46 233 -37 256 4 11 27 13
113 11 102 -3 106 -4 91 -21z m673 -50 c29 -20 48 -48 39 -57 -4 -3 -44 -10
-90 -15 -134 -15 -255 -57 -359 -126 -30 -20 -41 -23 -58 -14 -81 44 -11 138
146 197 120 45 270 53 322 15z m266 -181 c152 -52 305 -202 305 -298 0 -94
-168 -161 -457 -184 -237 -18 -451 10 -583 77 -50 25 -60 40 -60 83 1 75 100
198 208 259 173 97 414 123 587 63z m-2946 -37 c2 -95 -14 -118 -125 -175
-338 -173 -889 -282 -1268 -249 -273 23 -441 84 -490 179 -15 29 -32 122 -23
122 4 0 22 -11 42 -25 51 -34 127 -61 247 -87 92 -20 131 -22 373 -23 281 0
348 7 568 56 197 44 477 152 612 237 28 17 53 32 56 32 3 0 7 -30 8 -67z
m1982 -295 c100 -98 289 -183 462 -207 110 -15 343 -13 462 4 176 25 289 64
348 120 l27 26 0 -59 c0 -77 -25 -115 -105 -158 -139 -76 -342 -110 -600 -101
-184 6 -288 28 -401 82 -166 80 -253 193 -278 360 l-6 40 22 -30 c12 -16 43
-51 69 -77z"/>
<path d="M5445 8158 c-80 -29 -109 -80 -63 -112 37 -26 161 -21 224 8 74 34
84 83 22 105 -39 14 -143 13 -183 -1z m153 -46 c9 -29 -130 -56 -168 -32 -18
11 -14 15 30 34 41 18 131 17 138 -2z"/>
<path d="M6023 8110 c-39 -24 -41 -43 -8 -74 69 -64 265 -70 273 -8 11 76
-180 134 -265 82z m182 -44 c14 -9 23 -21 20 -26 -15 -25 -165 2 -165 29 0 26
104 24 145 -3z"/>
<path d="M4696 8104 c-64 -20 -95 -41 -102 -70 -13 -52 51 -75 150 -55 73 15
111 34 131 65 42 63 -58 97 -179 60z m131 -40 c6 -17 -47 -36 -114 -42 -88 -7
-80 15 17 51 24 9 93 3 97 -9z"/>
<path d="M6622 8028 c-51 -51 83 -160 199 -162 123 -2 99 103 -34 152 -63 24
-146 29 -165 10z m121 -39 c21 -5 52 -23 70 -39 29 -26 30 -29 14 -36 -38 -14
-157 39 -157 72 0 17 21 18 73 3z"/>
<path d="M5006 7931 c-97 -32 -135 -89 -84 -125 48 -34 201 -4 255 50 71 71
-38 118 -171 75z m119 -41 c0 -30 -125 -70 -155 -50 -13 9 -11 13 10 30 48 38
145 52 145 20z"/>
<path d="M5675 7896 c-67 -19 -102 -65 -77 -102 36 -54 194 -43 259 18 70 66
-49 121 -182 84z m113 -32 c34 -10 26 -30 -18 -48 -49 -19 -80 -20 -104 -3
-22 16 -8 30 44 45 44 13 50 13 78 6z"/>
<path d="M4157 7884 c-51 -16 -137 -89 -137 -117 0 -55 94 -64 188 -16 163 81
122 186 -51 133z m88 -44 c0 -33 -134 -95 -157 -72 -16 16 36 59 91 76 52 16
66 15 66 -4z"/>
<path d="M6485 7790 c-12 -4 -26 -15 -33 -23 -37 -44 80 -146 185 -163 53 -8
89 20 79 61 -18 70 -166 150 -231 125z m127 -75 c60 -40 50 -72 -15 -50 -44
15 -87 51 -87 73 0 21 55 8 102 -23z"/>
<path d="M7307 7742 c-25 -28 -21 -48 21 -94 39 -44 120 -88 162 -88 35 0 70
27 70 53 0 84 -202 186 -253 129z m152 -70 c45 -36 47 -58 6 -55 -36 3 -109
52 -113 77 -4 17 1 18 34 13 20 -4 54 -19 73 -35z"/>
<path d="M4643 7656 c-102 -25 -233 -130 -233 -188 0 -31 23 -30 92 6 135 70
300 70 447 1 68 -32 76 -34 90 -20 14 14 13 20 -8 61 -64 119 -228 179 -388
140z"/>
<path d="M3631 7593 c-26 -9 -65 -36 -94 -65 -43 -43 -48 -52 -45 -85 2 -30 8
-39 28 -46 58 -21 184 51 223 126 18 35 18 39 3 62 -19 29 -49 31 -115 8z m63
-42 c18 -28 -121 -128 -145 -104 -16 16 9 49 62 85 43 28 73 35 83 19z"/>
<path d="M5993 7585 c-80 -22 -126 -50 -172 -101 -71 -80 -50 -99 67 -61 102
34 174 41 260 28 94 -15 169 -44 225 -86 83 -64 115 -33 59 56 -40 63 -115
125 -180 149 -73 28 -191 34 -259 15z"/>
<path d="M7044 7511 c-63 -27 -13 -125 90 -176 57 -29 107 -32 130 -9 20 19
20 37 2 72 -40 77 -161 138 -222 113z m128 -72 c48 -35 60 -79 21 -79 -41 0
-122 77 -107 101 8 14 50 3 86 -22z"/>
<path d="M7890 7447 c-20 -11 -25 -20 -24 -50 3 -84 152 -200 214 -167 24 13
27 58 5 99 -17 34 -111 121 -130 121 -7 0 -19 2 -27 5 -7 3 -24 -1 -38 -8z
m97 -73 c28 -21 63 -70 63 -89 0 -12 -37 -4 -64 14 -30 20 -66 68 -66 89 0 20
31 14 67 -14z"/>
<path d="M4616 7305 c-132 -50 -229 -170 -281 -347 -44 -153 -36 -406 18 -569
l32 -96 -60 -12 c-62 -11 -108 -37 -113 -63 -5 -24 22 -28 75 -12 36 12 76 14
158 11 120 -6 179 -21 298 -74 76 -35 77 -36 77 -72 0 -97 114 -187 235 -185
63 1 129 26 122 47 -2 7 -36 14 -88 17 -96 6 -140 26 -176 80 -37 53 -31 108
15 160 35 39 43 43 95 48 47 4 66 0 110 -22 62 -30 77 -32 77 -11 0 27 -51 65
-110 82 l-56 17 22 56 c46 113 67 234 68 395 1 169 -12 235 -66 343 -46 91
-98 146 -176 184 -57 28 -78 33 -152 35 -56 2 -98 -3 -124 -12z m239 -83 c50
-24 85 -50 85 -61 0 -3 -22 -7 -48 -7 -117 -4 -192 -87 -242 -265 -11 -41 -20
-77 -20 -81 0 -4 17 -1 38 6 82 29 176 -17 174 -85 -2 -87 -118 -136 -199 -83
l-23 14 0 -67 c1 -128 40 -251 109 -342 23 -31 24 -34 6 -27 -68 27 -136 47
-188 56 -32 5 -65 14 -72 20 -17 14 -53 114 -70 197 -19 88 -19 300 -1 396 36
188 134 316 268 351 66 17 118 11 183 -22z"/>
<path d="M5890 7207 c-70 -29 -80 -35 -123 -74 -112 -99 -180 -260 -196 -465
-17 -220 30 -418 131 -548 l35 -44 -35 -34 c-33 -30 -34 -34 -20 -49 15 -14
26 -11 130 41 170 85 275 109 468 110 138 0 162 -2 218 -23 65 -24 89 -20 77
12 -9 22 -79 55 -148 69 -45 9 -57 16 -53 28 2 8 16 48 31 89 40 117 58 247
52 386 -8 184 -54 304 -156 405 -81 81 -152 113 -266 117 -77 3 -98 0 -145
-20z m255 -76 c33 -15 70 -39 82 -52 l22 -24 -68 0 c-57 0 -74 -4 -109 -28
-74 -48 -129 -146 -157 -274 l-6 -32 64 6 c75 7 118 -12 138 -58 35 -86 -90
-163 -185 -114 -15 8 -30 15 -32 15 -2 0 -4 -31 -4 -68 0 -88 32 -214 70 -275
35 -57 35 -57 13 -57 -10 -1 -51 -14 -91 -29 l-72 -29 -33 39 c-92 107 -132
257 -124 467 7 206 51 334 149 438 76 81 122 102 223 103 47 1 73 -5 120 -28z"/>
<path d="M6067 5953 c-13 -12 -7 -54 13 -93 11 -22 20 -42 20 -45 0 -13 -120
-80 -192 -106 -107 -39 -300 -77 -433 -85 -256 -15 -607 46 -749 130 -23 13
-61 45 -86 70 -24 25 -49 46 -56 46 -22 0 -23 -27 -3 -67 25 -51 101 -108 190
-143 l72 -28 32 -84 c67 -173 130 -272 238 -376 113 -108 228 -148 402 -140
82 4 115 11 182 37 157 61 282 185 368 366 43 90 95 255 95 304 0 19 4 22 23
17 82 -24 127 -29 152 -18 38 17 27 34 -36 52 -99 30 -138 60 -181 139 -16 29
-37 39 -51 24z m-168 -519 c28 -8 55 -22 58 -30 8 -21 -51 -106 -116 -166
-146 -136 -349 -182 -526 -119 -56 20 -125 65 -132 87 -7 20 77 101 138 133
64 35 158 51 214 37 24 -6 25 -8 10 -29 -30 -44 -14 -51 21 -9 80 94 211 133
333 96z"/>
<path d="M5140 4968 c0 -21 103 -113 154 -137 141 -66 299 -45 424 56 24 20
42 43 42 55 0 11 -3 18 -7 16 -5 -1 -44 -21 -87 -42 -70 -34 -90 -39 -170 -44
-106 -5 -185 16 -271 74 -53 35 -85 43 -85 22z"/>
<path d="M7273 3954 c-11 -29 66 -74 102 -60 22 8 3 41 -35 61 -38 19 -59 19
-67 -1z"/>
</g>
</svg>
