<?xml version="1.0" encoding="utf-8"?>
<!-- Generator: Adobe Illustrator 26.4.1, SVG Export Plug-In . SVG Version: 6.00 Build 0)  -->
<svg version="1.1" id="Capa_2" xmlns="http://www.w3.org/2000/svg" xmlns:xlink="http://www.w3.org/1999/xlink" x="0px" y="0px"
	 viewBox="0 0 432 458.7" style="enable-background:new 0 0 432 458.7;" xml:space="preserve">
<g>
	<g transform="translate(0.000000,896.000000) scale(0.100000,-0.100000)">
		<path d="M1525.1,8282.1c-66-24-169-76-225-114c-61-42-150-127-150-143c0-22,14-16,50,21c40,41,154,122,220,155c25,13,79,35,120,50
			c41,14,75,30,75,36C1615.1,8303.1,1577.1,8301.1,1525.1,8282.1z"/>
		<path d="M2090.1,8208.1c-35-18-38-54-6-68c51-24,132,37,90,68C2152.1,8224.1,2122.1,8224.1,2090.1,8208.1z M2140.1,8181.1
			c0-5-9-10-21-10c-11,0-17,5-14,10c3,6,13,10,21,10S2140.1,8187.1,2140.1,8181.1z"/>
		<path d="M2419.1,8175.1c-30-36,47-107,91-84c26,14,25,42-2,67C2476.1,8187.1,2435.1,8195.1,2419.1,8175.1z M2480.1,8141.1
			c8-5,12-12,9-15c-8-8-39,5-39,16S2461.1,8153.1,2480.1,8141.1z"/>
		<path d="M1662.1,8094.1c-52-26-57-93-7-93c26,0,85,48,85,69c0,11-28,41-38,41C1698.1,8111.1,1680.1,8103.1,1662.1,8094.1z
			 M1700.1,8062.1c0-10-30-24-37-17c-3,3-2,9,2,15C1673.1,8073.1,1700.1,8075.1,1700.1,8062.1z"/>
		<path d="M2733.1,8084.1c-9-23,18-66,49-77c35-12,58-2,58,28C2840.1,8083.1,2749.1,8125.1,2733.1,8084.1z M2800.1,8050.1
			c0-5-7-9-15-9s-15,7-15,15c0,9,6,12,15,9C2793.1,8061.1,2800.1,8055.1,2800.1,8050.1z"/>
		<path d="M1984.1,8053.1c-31-5-56-36-52-64c5-36,59-38,87-2c11,15,21,33,21,40C2040.1,8044.1,2011.1,8058.1,1984.1,8053.1z
			 M2000.1,8011.1c0-12-28-25-36-17c-9,9,6,27,22,27C1994.1,8021.1,2000.1,8016.1,2000.1,8011.1z"/>
		<path d="M2231.1,8015.1c-33-28-40-64-17-84c39-31,108,56,76,95C2273.1,8046.1,2267.1,8045.1,2231.1,8015.1z M2259.1,7975.1
			c-6-7-15-11-21-8c-5,3-4,12,3,20c6,7,15,11,21,8C2267.1,7992.1,2266.1,7983.1,2259.1,7975.1z"/>
		<path d="M3034.1,7956.1c-16-40,23-105,62-105c33,0,45,28,29,67C3105.1,7965.1,3046.1,7990.1,3034.1,7956.1z M3088.1,7919.1
			c16-16,15-28-3-28c-8,0-15,2-15,4s-3,11-6,20C3057.1,7934.1,3071.1,7936.1,3088.1,7919.1z"/>
		<path d="M2587.1,7954.1c-10-10-8-62,3-83c27-51,80-47,80,7C2670.1,7927.1,2613.1,7980.1,2587.1,7954.1z M2634.1,7905.1
			c11-27,7-37-9-24c-16,14-20,40-6,40C2624.1,7921.1,2631.1,7914.1,2634.1,7905.1z"/>
		<path d="M1774.1,7937.1c-35-16-104-95-104-120c0-21,14-21,31,1c38,45,148,67,201,39c49-26,46,14-5,62
			C1867.1,7948.1,1814.1,7955.1,1774.1,7937.1z"/>
		<path d="M1372.1,7881.1c-33-31-27-74,10-78c35-4,81,38,76,71C1454.1,7905.1,1403.1,7909.1,1372.1,7881.1z M1420.1,7862.1
			c0-13-26-32-33-24c-8,7,11,33,24,33C1416.1,7871.1,1420.1,7867.1,1420.1,7862.1z"/>
		<path d="M2303.1,7870.1c-49-31-42-45,20-45c80,1,154-47,180-117c3-9,8-9,16-1c17,16-22,116-60,154c-25,25-39,30-77,30
			C2352.1,7891.1,2323.1,7883.1,2303.1,7870.1z"/>
		<path d="M2844.1,7744.1c-13-49,38-109,74-87c27,17,26,48-3,83C2882.1,7779.1,2853.1,7781.1,2844.1,7744.1z M2897.1,7716.1
			c8-22-6-33-17-15c-13,20-12,30,0,30C2886.1,7731.1,2893.1,7724.1,2897.1,7716.1z"/>
		<path d="M3327.1,7694.1c-4-3-7-19-7-35c0-30,38-78,63-78c20,0,37,21,37,46C3420.1,7669.1,3351.1,7719.1,3327.1,7694.1z
			 M3379.1,7635.1c3-16,1-17-13-5c-19,16-21,34-3,29C3369.1,7656.1,3377.1,7646.1,3379.1,7635.1z"/>
		<path d="M3580.1,7396.1c0-80-16-113-67-142c-79-44-148-55-461-72c-13,0-20-5-17-11c8-13,213-13,311,1c198,27,292,113,267,241
			C3599.1,7482.1,3580.1,7473.1,3580.1,7396.1z"/>
		<path d="M2230.1,7122.1c0-6,5-13,10-16c19-12,10-23-30-39c-154-62-369-47-497,34c-48,31-39-14,10-46c24-16,38-39,57-88
			c13-36,37-83,54-102c60-73,171-95,264-52c61,29,143,111,177,177c22,44,28,51,41,40c11-9,18-9,26-1s0,23-34,57
			C2266.1,7128.1,2230.1,7144.1,2230.1,7122.1z M2233.1,7000.1c-24-41-45-51-131-64c-91-13-95-31-6-28c60,2,65,1,53-14
			c-23-27-111-63-154-63c-48,0-122,35-144,69c-15,23-15,23,34,20c60-5,75,17,18,26c-73,12-80,15-92,41s-12,26,36,18
			c81-15,282-9,328,9c22,8,48,16,58,16C2250.1,7031.1,2250.1,7030.1,2233.1,7000.1z"/>
		<path d="M1089.1,6916.1c-65-16-163-58-173-74s-3-14,98,23c50,19,110,37,134,41c23,4,42,11,42,16
			C1190.1,6934.1,1156.1,6932.1,1089.1,6916.1z"/>
		<path d="M2496.1,6755.1c-39-22-20-36,29-23c22,6,70,9,108,6c37-2,70,0,73,4C2724.1,6771.1,2546.1,6782.1,2496.1,6755.1z"/>
		<path d="M2164.1,6697.1c11-9,29-16,40-16c28,0,8,17-29,25C2146.1,6712.1,2146.1,6712.1,2164.1,6697.1z"/>
		<path d="M2816.1,6690.1c-66-27-172-90-234-139c-28-22-55-40-59-40c-3,0-38,22-77,49c-88,60-165,103-178,99c-5-2,49-43,122-92
			c148-98,119-98,255,0c28,20,100,60,160,90c70,34,101,53,85,53C2876.1,6710.1,2843.1,6701.1,2816.1,6690.1z"/>
		<path d="M2526.1,6129.1c13-23,37-48,46-48c16,0,7,29-14,44C2531.1,6144.1,2516.1,6146.1,2526.1,6129.1z"/>
		<path d="M3370.1,5974.1c-42-79-163-136-345-163c-113-16-125-19-125-30c0-25,222,9,334,51c99,37,176,110,176,167
			C3410.1,6033.1,3397.1,6025.1,3370.1,5974.1z"/>
		<path d="M1325.1,8269.1c-57-29-115-77-115-94c0-21,11-17,67,24c28,20,65,45,82,54c31,17,42,38,19,38
			C1371.1,8290.1,1347.1,8281.1,1325.1,8269.1z"/>
		<path d="M890.1,8026.1c0-28-32-65-55-65c-24,0-17-20,10-30c16-6,32-25,41-46c17-40,23-38,39,9c6,20,18,33,34,37c34,8,38,28,6,36
			c-28,7-45,31-45,63c0,12-7,21-15,21C896.1,8051.1,890.1,8042.1,890.1,8026.1z M928.1,7954.1c5-17-26-29-40-15c-6,6-7,15-3,22
			C894.1,7975.1,922.1,7970.1,928.1,7954.1z"/>
		<path d="M3805.1,8014.1c-11-50-28-73-59-81c-41-11-45-31-7-38c37-8,51-24,60-67s33-41,42,3c8,38,40,70,70,70c10,0,19,7,19,15
			s-9,15-19,15c-30,0-62,32-70,69C3833.1,8044.1,3813.1,8051.1,3805.1,8014.1z M3844.1,7932.1c17-19,17-21-4-43c-21-23-21-23-40,2
			c-17,23-17,26-3,42C3817.1,7956.1,3823.1,7955.1,3844.1,7932.1z"/>
		<path d="M3535.1,7882.1c-3-6,21-41,55-79c90-100,154-232,185-384c5-28,35-40,35-15c0,8-9,48-19,89c-22,86-75,199-125,267
			C3615.1,7828.1,3544.1,7895.1,3535.1,7882.1z"/>
		<path d="M3748.1,7715.1c-8-8,57-147,71-152c19-6,12,26-18,93C3773.1,7717.1,3762.1,7729.1,3748.1,7715.1z"/>
		<path d="M4057.1,6924.1c-4-3-7-16-7-28c0-23-22-47-52-58c-27-9-22-22,15-38c23-10,33-22,37-43c7-43,25-42,36,1c7,31,15,40,42,48
			c41,12,41,21-2,39c-26,11-35,21-40,50C4079.1,6930.1,4071.1,6938.1,4057.1,6924.1z M4088.1,6828.1c4-21-25-34-40-19
			c-8,8-8,16,2,27C4066.1,6855.1,4084.1,6851.1,4088.1,6828.1z"/>
		<path d="M846.1,6163.1c-8-13,18-85,49-138c48-81,201-202,225-178c8,8-7,22-49,48c-92,56-159,139-186,230
			C873.1,6165.1,857.1,6180.1,846.1,6163.1z"/>
		<path d="M840.1,6015.1c0-26,82-134,102-134c17,0,7,22-32,71c-22,28-40,54-40,59c0,4-7,10-15,14
			C846.1,6028.1,840.1,6025.1,840.1,6015.1z"/>
		<path d="M784.1,5944.1c-11-35-21-48-43-51c-29-5-27-28,3-36c15-4,28-17,35-38c12-33,26-30,33,7c2,11,16,26,31,33c32,15,35,32,6,32
			c-13,0-25,11-35,35C798.1,5965.1,792.1,5969.1,784.1,5944.1z M810.1,5876.1c0-8-7-15-15-15s-15,7-15,15s7,15,15,15
			S810.1,5884.1,810.1,5876.1z"/>
		<path d="M3355.1,5736.1c-53-30-152-63-237-80c-31-6-39-35-10-35c90,1,332,104,332,142C3440.1,5778.1,3416.1,5770.1,3355.1,5736.1z
			"/>
		<path d="M3311.1,5645.1c-39-18-51-28-43-36c17-17,122,29,122,53C3390.1,5676.1,3369.1,5671.1,3311.1,5645.1z"/>
	</g>
	<path d="M397.8,268.5c2.2-4.3,2.7-6.4,2.7-13.1c0-5.7-0.5-8.9-1.8-11.2c-3.9-7.3-12.3-13.2-24.1-17.3c-4.5-1.5-5-2-6.3-6.2
		c-0.8-2.8-3.1-6.6-5.9-9.7c-2.6-2.9-4.4-5.5-4-5.8c0.4-0.4,2.4-0.8,4.5-0.8c4.9-0.1,7.4-2.1,6.8-5.3c-0.5-2.4-0.4-2.4,4.5-1.9
		c8.6,1.1,14.1-2.7,12.3-8.4c-0.4-1.3-2.8-3-6.3-4.6c-5.7-2.5-5.7-2.5-2.9-4.5c1.5-1.1,2.7-2.8,2.7-3.7c0-2.1-2.7-4.8-5.5-5.3
		c-1.7-0.3-2-1.2-2-7.8c-0.3-24.6-22.4-52.7-57.5-73.4c-28-16.6-71.1-25.7-107-22.6c-36.2,3.1-69.6,16.9-90.6,37.5
		c-12.6,12.4-18.8,24.2-18.8,36.5c-0.1,6.5-0.1,6.5-4.1,7.1c-5.8,0.8-8.5,2.5-8.5,5.5c0,1.9,0.7,2.9,3,3.7c3.9,1.5,3.8,2.3-0.7,4.4
		c-7,3.4-7,8,0.1,9.6c3.5,0.9,3.6,1.1,3,4.2c-0.8,4.6,0.3,9,3.2,12.5c2.5,2.9,2.5,2.9,0.4,4.2c-1.2,0.7-3.7,3.7-5.6,6.5
		c-2.7,4.1-4.1,5.3-6.2,5.5c-4.9,0.2-8.6-0.4-11.5-1.9c-2.7-1.4-2.9-1.7-2.3-5.8c0.5-2.9,0.2-5.5-0.8-7.9c-0.8-1.9-1.4-6.3-1.4-9.8
		c0-4.2-0.6-8-2.1-11.6c-2.8-7-2.7-12.1,0.4-18.2c3.3-6.5,3.3-11-0.1-14.3C56.6,125.8,43,134.5,43,149c0,2.6-0.3,2.7-6.3,3.1
		c-11.6,0.7-18.4,6.7-17.3,15.3c0.3,2.2,0,5.9-0.6,8.3c-0.9,3.5-0.7,5.1,0.6,8.7c1,2.5,1.4,4.9,1.1,5.6c-1.2,1.8,2.5,9.8,5.5,11.9
		c1.6,1.1,4.6,2.7,6.7,3.4c2.1,0.7,5.6,2.5,7.7,4c2.3,1.5,5.3,2.6,7.2,2.6c2.4,0,4.5,1.1,7.9,4c9.7,8.4,19.7,10.8,31,7.6
		c4.7-1.4,5.9-1.5,6.6-0.4c1.1,1.7,1.1,1.5-0.6,7.1c-0.8,2.6-2.3,6-3.5,7.4c-1.1,1.4-2,3.7-2,5.2c-0.1,1.8-1,3.2-3.2,4.6
		c-6.8,4.3-9.1,11.3-5.2,15.6c1.5,1.7,2.8,2,7.4,1.7c5.5-0.3,5.5-0.3,6,7.2c0.7,9.7,3.6,15.6,10.7,21.9c3.1,2.8,9.4,6.9,14.2,9.2
		c9.5,4.6,33.3,12.7,45.4,15.4c4.2,0.9,8,2.1,8.3,2.6c0.3,0.6,1.4,4.7,2.5,9.2c1.1,4.5,2.6,9.9,3.5,12.1c1.4,3.7,1.4,4-0.6,6.1
		c-1.2,1.2-2.4,3.5-2.9,5.1c-0.5,2.1-1.5,3-3.8,3.5c-1.8,0.3-4.9,1.6-7,2.9c-2.8,1.7-5.2,2.2-9.2,2.1c-12.7-0.4-22.3,6.9-24.6,18.7
		c-1.1,5.6-1.1,5.6-6.9,7.3c-16.8,5-13.3,11.4,8.9,15.8c55.7,11.2,189.7,7.7,208.3-5.4c5.1-3.6,1.9-7.3-9.3-10.7
		c-3.8-1.1-7.4-2.4-7.8-2.8c-0.5-0.4-2.1-4.3-3.6-8.6c-3.1-8.9-7.8-16.7-14.8-24.7c-2.6-2.9-5.6-6.8-6.5-8.6
		c-1.9-3.5-6.9-6.1-11.7-6.1c-2.2,0-3.4-0.8-5-3.2c-1.1-1.8-1.7-3.6-1.3-3.9c0.4-0.4,5.4-1.2,11.2-1.9c24.1-2.7,39.8-6.9,49.7-13.5
		c2.9-1.9,5.4-3.5,5.6-3.5c0.3,0,1.2,2.1,2.2,4.6c1.8,4.7,6.1,8.4,9.9,8.4c1,0,3.3,0.9,5,1.9c4.1,2.6,21.3,2.8,26.4,0.4
		c8.7-4.1,11.5-16.8,5.3-23.8c-2-2.2-3-6.7-3.5-16.5c-0.3-5.7,0-6.9,2.1-9.4C394,274.9,396.3,271.3,397.8,268.5z M52,204.6
		c1.7-1,3-2.5,3-3.3c0-1.7-0.8-1.7-4,0.1c-3.9,2.2-11.8,1.8-17.5-0.9c-6.4-2.9-7.7-4.6-8.7-11c-0.4-2.8-1-6.8-1.4-8.8
		c-0.3-2.1-0.2-5,0.4-6.5c0.5-1.7,0.6-3.8,0-5.2c-1.1-3.1,1.8-9.1,5.2-10.8c3.5-1.8,13.6-1.6,17.5,0.2c4.3,2.1,7.2,8.4,4.5,10
		c-0.6,0.4-3-0.1-5.5-1c-5.4-2.1-15.8-1.1-16.3,1.5c-0.2,1.3,0.9,1.6,6.6,1.6c7.9,0,13.1,2.4,14.7,6.8c1.1,3.3-0.4,6.2-3.1,5.8
		c-11-1.8-18.4-1.2-18.4,1.3c0,1.2,1.5,1.5,6.5,1.5c8,0,12.5,2,12.5,5.5c0,3.9-2.5,5.5-8.6,5.5c-3,0-5.4,0.4-5.4,1c0,1.6,3.7,3,8,3
		c3.5,0,4.8-0.6,7.7-3.5c3-3,3.3-3.8,2.8-6.8c-0.5-2.4-0.2-4.3,1-6c1-1.6,1.6-4.5,1.5-8.3c-0.1-3.3,0.2-8.1,0.6-10.7
		c0.6-4.7,0.5-4.9-3.5-8.7c-3.6-3.5-4.1-4.4-4.1-8.5c0-5,2-9.8,4.7-11.4c2.7-1.6,7.4-1.3,9.5,0.6c2.4,2.1,2.3,3.4-0.7,9.3
		c-3.9,7.7-4.2,12.4-1.1,19.7c3.6,8.7,3.2,18.4-1,23.4c-0.8,0.8-1.4,2.1-1.4,2.7c0,1.9,2.8,1.4,4-0.8c1.7-3.1,3-2.4,3,1.7
		c0,4.8-3.5,9.8-8.6,12.3C49.7,209.2,46,208.1,52,204.6z M83.5,210.6c-0.4,1-0.9,3.5-1.2,5.5c-0.7,4.5-1.7,5-8.7,3.8
		c-5.7-0.9-9.4-2.5-13.6-6c-2.5-2-2.5-2,1.5-5.5c2.2-1.9,4.3-3.4,4.6-3.5c0.4,0,2.6,0.9,5,2c2.4,1.1,6.4,2,8.8,2
		C83.6,208.9,84.1,209.1,83.5,210.6z M359.5,214.1c3.1,3.6,5.1,7.5,4.3,8.3c-0.3,0.3-1.8,0.1-3.4-0.5c-1.6-0.6-5.8-1.7-9.4-2.5
		c-6.5-1.5-6.5-1.5,1.5-1.1c7.1,0.4,7.8,0.3,6.1-1c-1.1-0.8-3.2-1.4-4.8-1.4c-3.4,0-3.6-1.2-0.5-3.3
		C356.3,210.4,356.5,210.5,359.5,214.1z M357.4,266.9c-2.5,0-2.5,0-0.7-3c0.9-1.7,2-3,2.4-3c0.4,0,2.2,1.2,3.9,2.6
		c3.5,3,3.7,6.1,0.5,7.8c-1.1,0.5-3.2,1.8-4.7,2.8c-2,1.3-3.8,1.6-7.5,1.2c-5.9-0.7-8,0.7-10.2,6.7c-1.4,3.8-2.1,4.4-4.9,4.7
		c-2.1,0.2-4.8-0.5-7.5-2.1c-8.9-5.2-13.6-4.5-20.9,3.5c-4.5,4.8-4.9,5-9,4.6c-2.4-0.3-6.7-2-9.7-3.8c-3.8-2.4-7-3.5-10.7-3.8
		c-5.1-0.4-5.4-0.3-10.1,4c-8.7,8.1-11.6,8.4-21.9,2.2c-3.2-2-7.5-4.3-9.4-5.2c-3.5-1.5-3.5-1.5,2.5-2.9s6-1.4,8.2,1.4
		c1.3,1.5,2.3,3.1,2.3,3.5c0,0.5,0.7,0.8,1.5,0.8c2,0,1.9-0.6-0.6-4.2c-1.2-1.6-2-3.1-1.8-3.2c0.2-0.2,2.9-1.8,6-3.5
		c3-1.7,6.6-4.2,7.9-5.6c1.3-1.4,2.9-2.5,3.5-2.5c0.6,0,5.4,1.8,10.6,4c6.6,2.9,10.7,5.4,13.9,8.5c4.3,4.3,7,5.6,7,3.6
		c0-0.6-1.6-2.5-3.6-4.3c-3.5-3.4-3.5-3.4,14-3.1c15.8,0.3,17.8,0.5,21.1,2.4c2.4,1.5,4,1.8,4.6,1.2c0.7-0.7,0.1-1.4-2-2.1
		c-4.4-1.6-3.8-2.7,2-4c2.9-0.7,8-2.6,11.4-4.2c3.8-1.8,7.9-3,10.4-3c2.3,0,4.1-0.5,4.1-1C360,267.3,358.8,266.9,357.4,266.9z
		 M360,250.7c0-6.1,0-6.1,4.2-5.4c2.3,0.4,6.1,1.5,8.5,2.6c7.3,3.2,8.2,10,2.2,17.3c-3.4,4.1-4.9,4.7-4.9,1.8c0-2.5-3.5-6.8-7.1-8.6
		C360.2,256.9,360,256.5,360,250.7z M277,290.9c-2.5,0-3.9-0.4-3.5-1c0.3-0.6,1.9-1,3.5-1c1.6,0,3.2,0.4,3.5,1
		C280.9,290.5,279.5,290.9,277,290.9z M206.5,279.5c-5.8-0.7-17.5-3.6-19-4.6c-0.5-0.4-2.4-1.1-4.2-1.4c-1.7-0.4-3.7-1.4-4.4-2.2
		c-0.6-0.8-1.7-1.4-2.3-1.4c-0.7,0-2.1-1-3.2-2.3c-5.3-6.2-7.6-12.6-2.5-6.9c1.7,1.7,3.3,3.2,3.7,3.2c0.4,0,1.5,0.6,2.3,1.4
		c2.5,2.2,17.9,7.3,26.1,8.5c7.1,1.1,24.1,1.5,30.5,0.7c8-1,17.1-3.9,24.4-7.7c2.3-1.2,4.5-1.9,4.8-1.5c0.9,0.9-4,5.4-7.8,7.1
		c-1.9,0.9-4.5,2.3-5.9,3c-1.4,0.8-3.3,1.5-4.3,1.5c-0.9,0-2.5,0.4-3.5,0.9C236.8,280.3,219.4,281.1,206.5,279.5z M213.8,291.3
		c-3.7,0.1-8.8-3.4-8.8-5.9c0-0.9,14.5-1.1,21-0.2C228.9,285.6,217.6,291.3,213.8,291.3z M196,285.8c-1.9,0-4.4-0.4-5.5-0.8
		c-1.9-0.8-1.9-0.8,0-1.9c2.8-1.6,4-1.5,6.6,0.8C199.5,285.8,199.5,285.8,196,285.8z M97.9,233.8c-1.8-3.5,1.2-2.1,5.1,2.3
		c3.5,4,4.1,4.3,8.6,4.1c4.3-0.2,5,0.1,6.1,2.3c1.4,3.1,0.3,3.1-7.2,0.3C104.7,240.7,99.7,237,97.9,233.8z M107,247.5
		c0,1.3-0.6,2.4-1.3,2.4c-1.6,0-5.7-3.7-5.7-5c0-0.6-0.7-1-1.5-1s-1.5-0.9-1.5-2c0-1.1,0.5-2,1-2c0.6,0,1,0.4,1,1c0,0.5,0.7,1,1.5,1
		C103.4,241.9,107,245,107,247.5z M112.9,247c2.3,0.8,3.1,1.7,3.1,3.5c0,1.3,0.5,2.4,1,2.4c0.6,0,1-0.9,1-2c0-2.2,2-2.6,5-1
		c1.2,0.7,1.8,1.9,1.7,3.8c-0.2,2.3-0.7,2.6-2.7,2.4c-1.4-0.2-2.9-0.8-3.4-1.3c-0.6-0.5-2.2-0.9-3.6-0.9c-3.6,0-7-2.7-7-5.6
		C108,245.6,108.4,245.5,112.9,247z M125.8,245.2c3.4,0.2,6.8,0.9,7.5,1.6c1,1,0.2,1.1-3.8,0.5C120.9,246.1,118.8,244.9,125.8,245.2
		z M126.6,250.6c0.5-0.5,6.3,0,9.1,0.8c0.6,0.2,0.9,1.3,0.6,2.3c-0.2,1.1,0,2.3,0.6,2.6c0.7,0.5,1.1-0.2,1.1-1.8
		c0-3,0.9-3.7,3.9-2.9c1.5,0.4,2,1.1,1.6,2.3c-0.3,1-0.1,2.1,0.5,2.5c0.6,0.4,1-0.4,1-1.9c0-2.3,0.4-2.6,3.5-2.6
		c3.1,0,3.5,0.3,3.6,2.7c0.2,2.8,0.2,2.8,0.6,0c0.4-2.6,0.7-2.7,4.5-2.3c7.2,0.8,8,5,1.1,5.8c-4.9,0.6-27.9,0-30.4-0.7
		C126.1,256.8,125.2,252.1,126.6,250.6z M234,243.8c6.2,4.5,17.9,12.1,23,8.7c4.2-2.8,6.8-5.5,31.4-18.8
		c24.6-13.2,66.4-15.8,58.4-8.7c-4.4,3.9-2.8,14.7-3.2,16.3c-4.2,14.6-19.3,12.7-34.5,14.2c-2.5,0.3-5.2,0.5-8.1,0.6
		c-39.9,2.3-115.6-2.5-150.8-11.3c-35.2-8.7-44.8-7.4-51.4-19.9c-5.2-9.8,15-13.1,23.7-14c2.3-0.2,4.5-0.3,6.8-0.1
		c9.6,0.8,38.9,3.4,46.4,5.5c6.5,1.8,9.9,3.8,11.6,5.4c4.1,4,13.9,3.4,19.3,5.2 M259.2,202c11.2,5.7,41.6,10.5,59.7,9.4
		c12.4-0.7,24.5-3.4,29.8-6.5c4.3-2.5,4.3-2.5,4.3,0.5c0,5-12,9.7-29.4,11.5c-21.5,2.4-56.7-3.3-69.6-11.1c-3.1-1.9-3.2-2.1-1.5-4
		C254.7,199.5,254.2,199.5,259.2,202z M257,195.8c0-0.5,0.5-0.9,1-0.9c0.6,0,1,0.7,1,1.6c0,0.8-0.4,1.2-1,0.9
		C257.5,197.1,257,196.4,257,195.8z M286.6,202.1c1.4-0.8,2.4-0.5,4.6,1.1c1.5,1.2,2.7,2.5,2.7,2.9c0.1,1.1-0.5,1-10-0.8
		c-10.6-2-13.7-3.7-5.3-2.8C282.2,202.9,285.5,202.7,286.6,202.1z M281,197.9c0-0.6,0.4-1,0.9-1c0.6,0,1.3,0.4,1.6,1
		c0.3,0.5-0.1,1-0.9,1C281.7,198.9,281,198.4,281,197.9z M317.1,205c1.9,0.1,4.2,0.2,5.1,0.3c1,0.1,1.9,0.5,2,1.1
		c0.2,0.6-4.4,1.1-12.1,1.3c-12.3,0.3-12.3,0.3-9.7-2.8c1.4-1.8,2.6-4.2,2.6-5.6c0-3.3,0.7-3.1,5,1.6
		C312.8,203.9,314.5,204.9,317.1,205z M311,196.8c0-1.4,1.6-1.1,3,0.6c0.7,0.9,1,1.8,0.7,2.2C313.9,200.3,311,198.1,311,196.8z
		 M339.8,202.1c0.6-0.2,2.2-1.2,3.4-2.2c1.7-1.4,2.8-1.6,4.1-0.8c1.1,0.5,1.5,1.4,1.1,1.8c-0.5,0.5-2.6,1.6-4.6,2.4
		c-2.8,1.2-3.9,1.3-4.4,0.4C339,203,339.2,202.3,339.8,202.1z M255.3,210.8c4.5,2.2,11.6,4.9,15.7,6c8.7,2.4,25.6,5.1,31.8,5.1
		c2.3,0,4.2,0.4,4.2,0.8s-4.2,2-9.4,3.6c-14.8,4.4-34.5,15.3-41,22.5c-1.1,1.1-2.6,2.1-3.5,2.1c-0.9,0-6.8-3.5-13.1-7.8
		c-6.4-4.2-15.9-9.9-21.3-12.5c-5.3-2.7-9.7-5-9.7-5.2s2-1.5,4.4-2.9c2.4-1.4,7-4.7,10.2-7.3c4.9-4,7-5.1,13.4-6.4
		c4.1-0.9,8.1-1.7,8.8-1.8C246.5,207,250.8,208.7,255.3,210.8z M295,269.4c0,3.1-1.5,3.8-5.5,2.7c-3.3-0.9-4.7-4.8-2.3-6.3
		c1.7-1.1,2.1-1.1,5.2,0.1C294.3,266.6,295,267.6,295,269.4z M284.5,267.9c0,2.1-0.4,2.5-2.8,2.2c-4.1-0.4-13.9-5.1-13.2-6.2
		c0.4-0.6,1.7-0.7,3.1-0.4c1.3,0.3,4.8,0.9,7.7,1.3C284,265.3,284.5,265.6,284.5,267.9z M199.3,267.6c5.7,0.9,8.6-0.3,10.3-4.2
		c2-4.9,4.4-4.6,4.4,0.5c0,3.6,0.4,4.2,3.1,5.4c5.6,2.4,9.2,0.2,6.5-3.9c-1.5-2.3-1.5-2.5,0-2.5c0.9,0,2.9,1.1,4.6,2.5
		c3.5,2.9,7.6,3.2,12.1,0.8c3-1.6,11.7-2.5,11.7-1.2c0,0.9-4.3,2.7-10.8,4.3c-18.4,4.8-44.5,2.1-60.8-6.2c-5.2-2.6-10.6-7.1-9.9-8.2
		c0.9-1.4,4.9,0.3,7.3,3.1c3.2,3.9,7.6,4.5,13.2,2c5.7-2.6,8.5-2.7,4.4-0.2c-1.8,1.1-3.5,2.4-3.8,3
		C190.7,264.2,195,266.9,199.3,267.6z M202.5,263.9c0.3-0.6,1.3-1,2.1-1c0.8,0,1.2,0.4,0.9,1c-0.3,0.5-1.3,1-2.1,1
		S202.2,264.4,202.5,263.9z M217,264.9c0-1.1,0.4-2,1-2c0.5,0,1.4,0.9,2,2c0.9,1.7,0.8,2-1,2C217.7,266.9,217,266.2,217,264.9z
		 M232,263.9c0-0.6,1.4-1,3-1c1.7,0,3,0.4,3,1c0,0.5-1.3,1-3,1C233.4,264.9,232,264.4,232,263.9z M296.3,269.9c0-2.9,0.2-3,4.4-3
		c4.4,0,4.4,0,4.1,3.2c-0.3,3.5-2.1,4.4-6.2,3.4C296.9,273.1,296.3,272.2,296.3,269.9z M306.8,269.9c0.4-2.9,0.7-3.1,4-2.8
		c3.3,0.3,3.6,0.6,3.7,3.3c0,2.6-0.4,3-2.8,3.3C307.3,274.2,306.3,273.5,306.8,269.9z M316,269.8c0-2.8,0.2-2.9,4.5-2.9
		s4.5,0.1,4.5,2.9c0,2.5-0.5,3-3.5,3.5C317,274.2,316,273.5,316,269.8z M326.5,269.3c0.1-1.7,0.9-3,2.1-3.5c2.9-1.2,3.9-0.5,3.9,2.7
		c0,2.5-0.4,2.9-3,3.2C326.7,272,326.4,271.7,326.5,269.3z M334.8,267.3c0.7-4,6.6-5.9,7.5-2.4c0.6,2.3-2.5,5-5.9,5
		C334.7,269.9,334.4,269.4,334.8,267.3z M345.7,260.9c3.3-2.6,4.3-2.5,4.3,0.4c0,1.4-1,3-2.5,4c-3.1,2-3.2,2-3.8-0.4
		C343.4,263.5,344,262.3,345.7,260.9z M352,259.8c0-2,1.3-3.4,1.8-1.9c0.3,0.7-0.1,1.7-0.7,2.3C352.3,261,352,260.9,352,259.8z
		 M344.3,257.8c-2.3,1.2-6.8,2.8-10,3.6c-11,3-43.1,3.2-38,0.3c1.2-0.6,3.5-0.6,6.8,0.1c10.4,2.3,24.1,0.8,26.9-2.8
		c1.3-1.9,2.2-2.1,5.7-1.5c3.5,0.5,5,0.2,8.5-1.9c2.4-1.4,5.2-3.4,6.2-4.6c2-2.1,3.6-2.7,3.6-1.3S348.6,255.6,344.3,257.8z
		 M374.5,174.5c1.3,0.5,1.1,1.1-1.6,3.3c-4.3,3.6-3.4,6.4,2.9,8.7c6,2.2,8,4,6.5,5.5c-1.4,1.4-4.7,1.5-12,0.4
		c-4.5-0.7-5.4-0.5-5.9,1c-0.4,1-0.2,2.6,0.5,3.7c3,4.8-2.7,4.7-13.2-0.2c-7.7-3.7-11.4-4.4-15.1-3c-2.8,1-2.8,1.2-2.3,6
		c0.6,4.7,0.5,5-1.6,5c-2.6,0-5.5-1.8-11.5-7.3c-4.5-4.1-9.7-6.7-13.2-6.7c-3.1,0-7,4.4-7,7.8c0,2.8-1.4,4.2-4.1,4.2
		c-0.5,0-2.8-1.7-5.2-3.9c-9.2-8.4-14.2-9.1-19.9-2.9c-3.1,3.4-4.2,4-5.6,3.2c-2.4-1.4-7.4-11.6-6.3-12.7c1.4-1.4,4.8,0.9,5.5,3.8
		c0.4,1.4,1.3,2.5,2.1,2.5c1.7,0,2-2.6,0.5-3.5c-2.5-1.6-0.5-2.5,5.4-2.5c6.2,0,6.8,0.2,13.1,5c8.5,6.5,10.6,6.7,6.4,0.8
		c-1.2-1.6-1.8-3.3-1.3-3.8c0.5-0.4,6.5-0.5,13.3-0.3c12.3,0.6,12.3,0.6,16.8,4.4c4.3,3.8,7.3,5,7.3,2.9c0-0.5-1.9-2.2-4.2-3.7
		c-4.3-2.7-4.3-2.7,0.2-3.4c10.9-1.8,15.4-1.1,23.2,3.1c7.4,4,9.8,4.8,9.8,3c0-0.5-2.7-2.2-6-3.7s-6-3.1-6-3.5s1.6-1.1,3.5-1.7
		c2.8-0.7,4.7-0.5,9,1c6.3,2.2,10.9,2.5,10.3,0.7c-0.3-0.7-2.6-1.6-5.2-2c-5.8-0.8-6.6-1.4-3.5-2.7c1.3-0.5,4.2-2.7,6.4-4.9
		C370.6,173.9,371.7,173.4,374.5,174.5z M176.2,175.3c1,4.1,4.5,7.5,9,8.7c4.3,1.1,8.1,0.4,7.5-1.4c-0.2-0.6-1.8-1.4-3.5-1.8
		c-4.8-1-8.2-3.6-8.2-6.4c0-4.5,6.8-6,11.3-2.5c2.4,1.9,4.7,2.6,4.7,1.4c0-1.7-2.4-4.4-5.4-6.2c-3.5-2.1-3.5-2.1-2-6.4 M144.9,165.9
		c-4-1.7-8.1-3.2-12.2-4.3c-19.7-5.4-27.8-10.5-29.1-18c-2.3-12.2,9.4-31.1,27.6-44.6c28-20.8,71.7-31.3,111.7-26.9
		c38.3,4.2,72.3,18.6,96.4,40.8c13.5,12.5,22,24.7,26.4,37.7c3,9.1,3.1,14.7,0.2,20.4c-4.5,8.7-15.6,11.9-44.8,12.7
		c-20.5,0.5-63.3-1.9-65.5-3.7c-1.9-1.5-2.4-0.1-1.3,3.2c3.3,9.3-8.6,21.8-20.7,21.8c-2.3,0-5.4,1.7-11.6,6.4
		c-10.6,8-15.8,10.6-22.3,11.3c-7.8,0.8-11.6-1.6-20.1-12.8c-4-5.2-9-10.8-11.3-12.4c-2.3-1.7-6.1-4.4-8.5-6
		c-4.7-3.4-8.7-10.3-8.7-15.2c0-0.8,0.1-1.8,0.4-2.8c0.5-2.5-0.7-5-3-6L144.9,165.9z M147.3,186.6c-0.7,0.2-2.1,0.2-3,0
		c-1-0.3-0.4-0.5,1.2-0.5C147.2,186.1,147.9,186.3,147.3,186.6z M92.6,163.8c3.9-1.9,4.9-2.9,4.9-4.9c0-1.9-0.8-2.9-3.2-3.9
		c-4-1.8-4.2-2.8-0.5-3.4c5.6-0.8,7.2-0.7,7.2,0.7c0,0.8,0.9,1.7,1.9,2.1c2.6,0.8,7.1,4.4,7.1,5.6c0,0.6-0.4,0.7-1,0.4
		c-1.3-0.8-9,1.3-9,2.5c0,1.3,0,1.3,7.9-0.6c5.3-1.3,7.2-1.3,9.6-0.4c3,1.2,3,1.2,0,2.4c-1.7,0.7-2.5,1.5-1.8,1.9
		c0.6,0.4,2.7,0,4.7-0.8c3.4-1.4,4.2-1.4,9.8,0.3c3.4,1.1,6.4,2.4,6.6,3.1c0.2,0.6-0.1,1.1-0.7,1.1c-0.6,0-1.1,0.4-1.1,1
		c0,1.5,2.1,1.2,4.1-0.6c1.8-1.6,7.9-1.2,7.9,0.6c0,0.7-11.4,4-13.9,4c-0.5,0-1.4-1.3-1.9-3c-1.4-4-4.8-4.7-12.4-2.5
		c-3.4,0.9-6.7,1.9-7.4,2.2c-0.6,0.2-1.4-0.9-1.7-2.6c-0.8-4-3.4-4.5-12.1-2.7C88.3,168.3,85.8,167,92.6,163.8z M142.8,179.9
		c-1.4,2.3-3.8,2.7-3.8,0.7c0-1.9,1-2.7,3.2-2.7C143.8,177.9,143.8,178.2,142.8,179.9z M116.1,181.9c2.4,0.5,5.6,1.2,7.1,1.6
		c1.9,0.4,4,0,6.8-1.5c4.9-2.5,5-2.5,5-0.4c0,0.9,0.8,2.5,1.8,3.6c1.7,2,1.6,2-5.3,1.4c-19.8-1.8-40-11-33.9-15.4
		c1-0.7,2.7-1.3,3.9-1.3c1.6,0,2,0.6,2,3.2c0,2.8,0.6,3.6,4.1,5.5C109.9,179.9,113.7,181.3,116.1,181.9z M117,176.9
		c2-1.3,3.3-1.3,2.5,0c-0.3,0.5-1.4,1-2.3,1C115.7,177.9,115.7,177.7,117,176.9z M123.5,178c0.8-1.3,4.5-1.5,4.5-0.2
		c0,1.1-3.9,2.5-4.7,1.8C123,179.3,123.1,178.6,123.5,178z M96,181.2c0-1.7-0.2-1.8,6.7,1.7c9.7,4.8,20.1,7.1,35.6,7.7
		c11.6,0.5,14.2,0.9,16.3,2.5c1.3,1.1,2.1,2.4,1.8,3c-1,1.6-26.1,0.4-35.9-1.7C107,191.6,96,185.7,96,181.2z M89,216.4
		c-1.1-0.7,0.7-9,2.9-13.3c1.1-2.1,3.6-5.3,5.5-7c3.5-3,3.5-3,10.3-0.7c3.8,1.4,11.2,3.2,16.4,4.1c7.1,1.2,13.5,1.5,26.3,1.2
		c16.9-0.4,16.9-0.4,19.8,3.6c1.6,2.2,2.5,4.2,1.9,4.4c-0.5,0.2-3.3-0.4-6.2-1.2c-5.4-1.6-17.9-3.3-17.9-2.4c0,0.3,6.1,2,13.5,3.8
		c7.4,1.7,13.7,3.6,14,4.1c0.8,1.3-0.2,1.2-9.7-1c-12.5-3-28.5-5.1-37.9-5.1c-10.7,0-19.9,2-30.1,6.4
		C93.3,215.2,89.4,216.6,89,216.4z M91.4,259.3c-3.6,0.9-7.5,1.4-8.5,1.1c-4.3-1.4-0.7-7.9,6.3-11.4c3.6-1.8,4.5-1.9,6.2-0.7
		c1.1,0.7,2.2,1.8,2.3,2.3c0.2,0.6-1,1.4-2.6,1.8c-1.7,0.4-3.4,1.1-3.7,1.6c-1.2,2,0.6,2.2,4.4,0.5c3.8-1.7,3.8-1.7,10.2,1.3
		c3.6,1.7,7.1,3.1,7.8,3.1c0.6,0,1.2,0.7,1.2,1.5s-0.6,1.5-1.4,1.5c-0.8,0-1.8,0.5-2.2,1.2c-0.5,0.8,0.2,0.9,2.7,0.4
		c3.1-0.6,3.2-0.5,1.4,0.8c-2.9,2.2-0.1,1.9,4.6-0.5c3.8-1.9,4.6-1.9,14-0.8c5.5,0.6,12.9,0.9,16.5,0.7c3.5-0.2,6.4-0.1,6.4,0.3
		c0,0.4-1.9,2-4.2,3.6c-4.2,2.8-6,5.3-3.8,5.3c0.7,0,3.7-1.8,6.9-4c3.1-2.2,6.3-4,7-4s3.2,2,5.5,4.4c2.4,2.4,7.3,5.8,10.9,7.5
		c6.8,3.3,7.9,4.4,5.1,5.5c-3.4,1.3-6.1,0.5-9.5-3c-3.8-4-7.8-6.4-10.8-6.4c-1.1,0-5.4,1.8-9.6,4c-11.4,6-14.2,5.5-18.5-3.1
		c-4.4-8.7-8.4-9.9-17.5-5.4c-5.5,2.7-9.7,3.2-11.3,1.2c-0.5-0.6-1.5-3.1-2.1-5.3C103.5,258.3,100.2,257.1,91.4,259.3z M164.8,280.8
		c-5.3-1.2-5.7-1.6-2.7-2.8c2.5-0.9,5.9,0.4,6.6,2.6C169,281.4,167.8,281.4,164.8,280.8z M178.6,351.9c1.3-1.1,2-0.8,4.4,1.8
		c2.5,2.8,3.5,3.2,7.9,3.2c5.3,0,9.1-2.3,9.1-5.5c0-2.2,1.8-1.8,3.5,0.9c5.7,8.7-15.6,14.5-24.2,6.4
		C176.6,356.2,176.3,353.7,178.6,351.9z M182.3,331.5c2.9,0.3,5.7,0.7,6.3,0.9c1.1,0.3,6.4,15.9,6.4,18.9c0,1.2-1,1.6-4,1.6
		c-3.6,0-4.2-0.4-6.6-4.2c-1.4-2.3-3.7-7.2-5-11C177.1,330.8,177.1,330.8,182.3,331.5z M185.8,369.6c-0.4-3.7-0.4-3.7,6.7-3.8
		c3.8,0,7.9-0.4,9-0.9c3.7-1.6,4.4-1.1,5.1,3.7c0.8,5.4,0.6,5.6-9.6,10.7c-8.5,4.3-19.2,7.8-22.7,7.4c-2.4-0.3-2.8-0.8-2.8-3.3
		c0-2.2,0.4-2.9,1.7-2.7c0.9,0.1,2.5-0.9,3.6-2.3c1.1-1.4,2.8-2.5,3.9-2.5C184.4,375.9,186.3,373.5,185.8,369.6z M175.6,363.4
		c4.1,2.4,6.4,5.1,6.4,7.4c0,2-1.9,1.1-7-3.4c-2.8-2.5-5.5-4.5-6-4.5c-0.6,0-1-0.5-1-1C168,360.2,171.2,360.8,175.6,363.4z
		 M171,369.5c4,3.6,5.2,6.4,2.8,6.4c-1.8,0-2.9-0.9-6.6-5.8C163,364.7,165.3,364.4,171,369.5z M143.5,367.3
		c4.3-2.1,11.7-1.2,16.3,1.9c4.7,3,7.3,8.2,7.5,14.6c0.2,4.6,0.2,4.6-11.8,4.5c-10.2,0-12.8-0.4-17.2-2.3c-2.8-1.3-5.4-2.9-5.7-3.7
		C131.2,378.7,137.6,370,143.5,367.3z M207.5,380.2c-1.3,3.3-17.8,10.9-31.1,14.3c-20.4,5.1-44.4,1.7-44.4-6.4
		c0-0.5,2.8,0.2,6.3,1.6c8.8,3.6,22.7,4.1,35.7,1.4c9.7-2,23.1-6.8,28.5-10.2C206,378.6,208.2,378.3,207.5,380.2z M241.4,379.5
		c-20.1-0.6-29.1-1.1-29.6-1.9c-0.4-0.7-0.8-2.9-0.8-4.9c0-2.1-0.7-5.8-1.6-8.4c-0.8-2.5-1.3-5.7-1-7c1.1-4.3-1.9-9.3-6.7-11.4
		c-4.7-2.1-4.5-1.8-9.4-19.3c-0.5-2.1,0.3-2.1,16.2-0.2c6.6,0.8,19,1.7,27.5,2c8.5,0.4,16.4,0.8,17.5,1c1.2,0.3,2.9,2.1,3.9,4.2
		c1,2.1,3.1,5.8,4.7,8.4c2.5,4,2.8,5.1,2.2,9.7c-0.5,4.5-0.2,5.7,2.1,9.3c2.2,3.2,2.9,5.7,3.3,11.7
		C270.3,380.2,270.3,380.2,241.4,379.5z M276,369.2c1.1,2,2,4.5,2,5.6c0,1-0.6,2.4-1.4,3c-1.1,0.9-1.4,0.2-2-3.5
		C273.5,366,273.8,365,276,369.2z M316.1,397.3c-4.3,5.2-24.3,7-33.1,3c-4.7-2.1-8-4.8-8-6.5c0-1.2-0.3-1.3,6.2,2
		c9.5,4.9,23.5,5.1,32.2,0.6C316.7,394.7,317.9,395.1,316.1,397.3z M316.6,388.3c-1.5,6-17.5,9.5-28.8,6.2
		c-6.2-1.8-11.8-5.8-11.8-8.5c0-3,6.7-8.2,12.9-10.2c5.1-1.5,16.4-0.9,20.8,1.1C314.7,379.1,317.7,384.1,316.6,388.3z M282.3,372.3
		c2.9-2.9,19.8-5.7,21.1-3.5c0.3,0.4-2.4,1.1-6,1.5c-3.6,0.4-8.3,1.4-10.5,2.3C283.3,374,280.7,373.8,282.3,372.3z M297,354.9
		c1.4-2.7,2-2.4,6.5,2.9c3.7,4.5,9,13.9,8.2,14.7c-0.9,1-3.7-0.9-3.7-2.5c0-1-1.1-2.8-2.4-4c-1.4-1.3-2.6-3.3-2.8-4.4
		c-0.3-2-1.6-3-5.1-4.1C296.2,357,296.1,356.6,297,354.9z M299.5,362.4c-0.1,0.5-2.7,1.3-5.8,1.7c-3.2,0.4-7.8,1.6-10.2,2.7
		c-3.7,1.6-4.5,1.7-4.5,0.5c0-0.8,0.1-1.4,0.3-1.4c0.1,0,3.4-1.1,7.2-2.5C293.4,360.9,299.5,360.5,299.5,362.4z M288.1,345.3
		c-0.6-1.4-1.1-2.7-1.1-2.9c0-1.2,3.5-0.3,5.2,1.2c2.5,2.2,2.4,8.3-0.3,11.7c-3,3.8-7.5,5.8-13.5,6c-4.3,0.1-5.7-0.4-7.8-2.3
		c-1.4-1.4-2.6-3.5-2.6-4.8c0-2.9,0.4-2.9,4.4,0.2c4,3,8,3.2,12.3,0.5C288.4,352.7,289.8,348.9,288.1,345.3z M282.3,343.1
		c3.4,4.2,3.2,6.6-0.6,8.8c-2.4,1.3-3,1.3-5.4,0c-3.3-1.8-11.5-11.8-11-13.3c0.3-0.9,6.9-3.2,10.4-3.6c0.7,0,1.8,0.9,2.4,2.1
		C278.8,338.4,280.6,341,282.3,343.1z M345.4,298.3c-1.6,11.9-15.9,19.2-46.4,23.5c-56.3,8-136.1-2.2-179.9-23.1
		c-14-6.7-20.3-14-22.2-26c-1.3-7.9-0.3-11,2.7-9c0.6,0.4,1.5,2.2,1.9,3.9c1.3,6.1,8.1,8.9,14.9,6.3c3.6-1.3,16,3.3,18.7,7.1
		c3,4.2,7.9,5.5,13.9,3.5c4.6-1.5,5.4-1.5,13.2,0.4c4.6,1,15.7,3,24.8,4.3c12.3,1.8,17.5,3,20.3,4.7c3.2,1.9,4.5,2.1,8.5,1.4
		c2.6-0.4,9.8-0.7,16-0.5c9.5,0.2,12,0.6,16.5,2.6c6.4,3,12.1,3.2,16.5,0.5c2.8-1.7,5.2-2.1,15.5-2.1c6.7-0.1,14.7,0.2,17.7,0.6
		c4.9,0.6,5.9,0.4,9.2-1.8c2.2-1.6,6.8-3.1,11.6-4c7-1.4,8.4-1.4,12.5,0c6.3,2.1,9.7,0.6,13.7-5.8c1.6-2.7,3.7-4.9,4.5-4.9
		c2.4,0,1.8,5.6-1,9.8C347.1,291.7,345.7,295.6,345.4,298.3z M391.5,306.9c3.1,0,2.5,7.3-0.9,12.5c-2.2,3.4-7.9,5-12.6,3.6
		c-2.1-0.6-4.3-1.8-5-2.6c-1.9-2.3-3.1-1.8-2.4,1c1,3.9-4.1,2.8-8.9-2.1c-2.2-2.1-3-2.5-3.6-1.5c-2.4,3.8-7.4-2.4-8.7-10.6
		c-1.5-9.5,5-21.5,13.2-24.5c3.3-1.2,4.3-3.6,1.1-3c-2.6,0.4-2.9-1.6-0.5-3.2c3.3-2.3,10.6-2,15.8,0.6c4.4,2.3,8.9,7.2,7.7,8.4
		c-0.3,0.4-1.8-0.1-3.1-1c-1.4-0.9-3.5-1.6-4.8-1.6c-2,0-1.7,0.5,2.4,4.2c5.7,5.3,7.4,10.5,5.7,17.2c-0.6,2.5-1.7,5.1-2.5,5.7
		c-2,1.6-1.7,2.9,0.5,2.9c1.1,0,2.3,0.4,2.6,1c1.2,2,2.7,1,2.1-1.4C388.9,309.5,389.8,306.9,391.5,306.9z M388.5,274.3
		c-1.5,1.9-1.6,1.9-6.5-0.4c-2.7-1.3-5-2.7-5-3.1c0-0.5,1.5-2.9,3.3-5.5c4.2-6,4.5-12.8,0.7-16.9c-4.7-5-12.2-7.7-25.7-9
		c-7.6-0.8-8.9-2.1-7.3-6.9c0.6-1.9,1.6-3.7,2.3-4c1.7-0.7,12.2,0.4,19.6,2c18.4,4.1,29.5,16.7,26.1,29.5
		C394.9,264.2,391.8,270.2,388.5,274.3z"/>
	<path d="M118.2,209.7c0,0,9.8,20.6,11.6,21.3c8.3,3-8.2-22.3-8.2-22.3L118.2,209.7z"/>
	<path d="M147,212.4c0,0,9.8,20.6,11.6,21.3c8.3,3-8.2-22.3-8.2-22.3L147,212.4z"/>
	<path d="M178.9,217.4c0,0,9.8,20.6,11.6,21.3c8.3,3-8.2-22.3-8.2-22.3L178.9,217.4z"/>
	<path d="M307.8,223.6c0,0,9.8,20.6,11.6,21.3c8.3,3-8.2-22.3-8.2-22.3L307.8,223.6z"/>
	<path d="M188.1,165c0,0-9.8-4.6-12.4,6.7c-0.6,3.2,2,7,2,7l2.7-6.1l4.4-4.3L188.1,165z"/>
	<path d="M225,145c0,0,6.9-19.6,17.4-16.8c10.5,2.7-2,47.3-2,47.3s-13.8-2.8-18.7,0c-0.7-11.6,1.6-19.6,1.6-19.6l11.2-1.5L225,145z"
		/>
	<path d="M213.7,178.3c-0.7,0.3-1.2-0.6-0.6-1.1c3.2-2.6,8.7-5.9,15.7-5.5c9.6,0.6,15.6,2.6,17.9,5.2c0.4,0.4,0,1.1-0.6,1
		c-3.7-0.9-13.4-2.9-20.2-2.2C220.2,176.2,216.2,177.3,213.7,178.3z"/>
	<path d="M169.8,164.8c0,0-1.1-8.2-0.6-14.1l12.2-3.3l-8-8.5c0,0,5.3-21.3,15-17.9c10.1,3.6,4,42.1,0,43.8c-1,0-7.3-2.3-11.6,5.6
		C176.8,170.4,169.2,168.2,169.8,164.8z"/>
	<path d="M179,174c0.4,0.4,1-0.4,0.7-0.9c-1.5-3.1-4.3-7.4-9.3-8.4c-6.8-1.3-11.4-0.5-13.7,1.5c-0.4,0.3-0.3,1.1,0.2,1.1
		c2.7-0.1,10-0.2,14.5,1.8C175.1,170.7,177.5,172.6,179,174z"/>
</g>
</svg>
