<?xml version="1.0" encoding="utf-8"?>
<!-- Generator: Adobe Illustrator 26.4.1, SVG Export Plug-In . SVG Version: 6.00 Build 0)  -->
<svg version="1.1" id="Capa_2" xmlns="http://www.w3.org/2000/svg" xmlns:xlink="http://www.w3.org/1999/xlink" x="0px" y="0px"
	 viewBox="0 0 416.9 524.9" style="enable-background:new 0 0 416.9 524.9;" xml:space="preserve">
<g>
	<path d="M271.5,26.5c0,1.4-0.9,2.5-2.5,3.1c-3,1.2-3.2,2.6-0.4,3.3c1.1,0.3,2.3,1.5,2.6,2.6c0.7,2.7,2.3,2.7,3,0
		c0.3-1.1,1.7-2.5,3.2-3.1c2.6-1.1,2.6-1.1-0.1-2.1c-1.5-0.6-2.8-2-3-3C273.9,24.5,271.5,23.9,271.5,26.5z M273.5,31.6
		c0,0.5-0.2,1-0.4,1c-0.3,0-0.8-0.5-1.1-1c-0.3-0.6-0.1-1,0.4-1C273,30.6,273.5,31,273.5,31.6z"/>
	<path d="M204,34.8c-0.2,0.7-0.5,2.4-0.7,3.8c-0.2,1.9-1,2.6-3.2,3c-3.4,0.6-4.8,3-1.8,3c3.8,0,5.2,1.1,5.2,4.1c0,4,2.3,3.7,3.5-0.4
		c0.8-2.5,1.6-3.3,3.8-3.5c3.5-0.4,3.5-3,0-3.4c-2.1-0.2-2.9-1-3.5-3.5C206.4,34.3,204.7,32.8,204,34.8z M206.3,43.3
		c-0.4,2.2-2.2,2-2.6-0.1c-0.2-1,0.3-1.6,1.3-1.6S206.5,42.3,206.3,43.3z"/>
	<path d="M176.4,308.6c4.4,0.2,9.1,2.6,9.1,5s-1.3,2.6-3,0.5c-1.6-2-7.4-1.9-9.4,0.1c-2.2,2.1-2,4,0.5,6.5c2,2,4.7,2.2,9.9,0.8
		c0.8-0.2,1.5,0.3,1.5,1.1c0,1.9-6.9,4.2-10.1,3.4c-1.3-0.3-3.6-2-5-3.7c-2.1-2.5-2.4-3.6-1.9-6.9
		C168,315.4,168.6,308.3,176.4,308.6z"/>
	<path d="M254.8,71.5c-2.3,2.1-3,3.5-2.6,5c0.3,1.1,0.1,2.1-0.4,2.1s-1.7,1.6-2.6,3.5c-2.1,4.5-0.8,4.5,3.2,0c3.3-3.8,3.8-5.1,2-5.7
		c-0.6-0.2,0.5-1.6,2.5-3.1c2-1.6,3.6-3.2,3.6-3.8C260.5,67.7,257.9,68.6,254.8,71.5z"/>
	<path d="M258.5,76.1c0,0.9,0.6,1.2,1.5,0.9c0.8-0.4,1.2-1,0.9-1.5C260.1,74.1,258.5,74.5,258.5,76.1z"/>
	<path d="M210.5,72.7c0,0.5,0.5,0.7,1,0.4c0.6-0.3,1-0.8,1-1.1c0-0.2-0.4-0.4-1-0.4C211,71.6,210.5,72.1,210.5,72.7z"/>
	<path d="M259.1,98.3c-1.1,1.1-0.6,2.3,0.9,2.3c0.8,0,1.5-0.4,1.5-0.9C261.5,98.4,259.9,97.5,259.1,98.3z"/>
	<path d="M127,100.6c-0.8,1.3,0.3,3,2,3c0.7,0,1.6,0.8,1.9,1.7c0.5,1.2,1,1.3,1.8,0.5c0.8-0.8,0.5-1.8-1.3-3.6
		C128.8,99.4,127.9,99.1,127,100.6z"/>
	<path d="M125.8,107.3c-1.8,0.6-1.6,3.3,0.1,3.3c1.9,0,3.1-1.9,2-3C127.4,107.2,126.4,107.1,125.8,107.3z"/>
	<path d="M149.9,131.2c-1.9,1.9-3.4,4.5-3.4,5.6c0,1.8,0.5,2,3.3,1.5c8.2-1.4,10.3-3.8,7.7-8.8C155.9,126.7,153.6,127.2,149.9,131.2
		z M155.3,132.9c0.2,1.1-0.6,1.9-2.3,2.3c-3.5,0.9-4.2-0.1-2-2.6C153.1,130.3,154.8,130.4,155.3,132.9z"/>
	<path d="M152.2,140.2c-0.8,0.8,0.1,2.4,1.4,2.4c0.5,0,0.9-0.7,0.9-1.5C154.5,139.6,153.3,139.1,152.2,140.2z"/>
	<path d="M186.5,142.6c0,1.5,0.5,2,1.8,1.8c0.9-0.2,1.7-1,1.7-1.8s-0.8-1.6-1.7-1.8C187,140.6,186.5,141.1,186.5,142.6z"/>
	<path d="M189.2,147.3c-1.3,1.2-0.7,2.3,1.3,2.3c1.1,0,2-0.7,2-1.5C192.5,146.6,190.4,146,189.2,147.3z"/>
	<path d="M173.5,151.1c0,0.8,0.7,1.5,1.5,1.5s1.5-0.7,1.5-1.5s-0.7-1.5-1.5-1.5S173.5,150.3,173.5,151.1z"/>
	<path d="M242,142.6c-1.1,1.7,0.5,3.2,2.1,1.9c0.8-0.6,1.4-1.5,1.4-2C245.5,141.3,242.8,141.4,242,142.6z"/>
	<path d="M281.8,145.3c-1.7,0.6-1.6,3.5,0.3,8.3c2.2,5.5,4.8,5.3,7.7-0.6c2.2-4.6,2.2-4.6-0.2-6.5
		C287.4,144.7,284.4,144.2,281.8,145.3z M287.7,150.6c-0.6,5.4-4.1,4.7-4.2-0.8c0-1.9,0.5-2.3,2.3-2
		C287.5,148,287.9,148.7,287.7,150.6z"/>
	<path d="M210.4,158.2c-1.1,1.4-1,2.2,0.8,5.2c4.2,7.4,7.3,6.7,8.1-1.7c0.5-5.1,0.5-5.1-3.6-5.1
		C213.3,156.6,211.2,157.2,210.4,158.2z M217,162.3c-0.9,3.8-1.4,4.1-3.1,1.9c-2.1-3-1.7-4.6,1.2-4.6
		C217.5,159.6,217.6,159.9,217,162.3z"/>
	<path d="M203.5,163.1c-0.7,0.8-0.9,2.2-0.6,3.1c0.5,1.3,0.9,1.4,2.1,0.4c1.3-1,1.9-0.9,3.5,0.5c1.1,1,2,2.2,2,2.7
		c0,1.2-4.4,1-5.7-0.3c-1.7-1.7-3.3-0.1-3.3,3.2c0,6.5,3.3,8.6,8,4.9c3.1-2.3,1.9-3.8-1.6-2c-2.2,1.2-2.7,1.2-3.4,0
		c-1.9-3-0.2-4.8,2.8-2.9c1.5,0.9,2.4,0.8,4.6-0.6c2.7-1.8,2.7-1.8-1.6-6.2C205.6,161.1,205.3,161,203.5,163.1z"/>
	<path d="M172,164.7c-0.4,0.6-0.5,1.3-0.2,1.6c0.7,0.7,2.7-0.6,2.7-1.8C174.5,163.3,172.8,163.3,172,164.7z"/>
	<path d="M177.6,166.5c-0.8,1.4-0.7,2.2,0.4,3.1c1.9,1.6,3.5,0.4,3.5-2.6C181.5,164.1,179,163.8,177.6,166.5z"/>
	<path d="M213.7,254c-2.7,2.5-3.4,3.8-2.6,4.6c0.8,0.8,1.9,0.8,3.8,0c5.9-2.2,14.7,0.1,19,4.9c1.9,2.1,4.6,2.9,4.6,1.3
		c0-0.4-1.3-2.9-3-5.5c-3.7-5.9-8.2-8.7-13.8-8.7C218.3,250.6,216.8,251.2,213.7,254z"/>
	<path d="M209.2,318.3c-0.4,0.3,0,1.4,0.8,2.3c1.4,1.6,1.4,1.9-0.7,3.2c-11.1,7.2-38.7,7.1-45.3-0.2c-2.3-2.5-3.5-2.5-3.5-0.1
		c0,1.8,5.2,7.1,7,7.1c0.5,0,2.7,3.4,5,7.5c6.8,12.2,10.3,15.5,18.2,17c5.1,1,12.7-1.8,17.2-6.1c4.2-4.1,7.2-9.6,9.6-17.4
		c1.3-4.2,2.1-5.4,3.4-5.2s1.7-0.2,1.4-2C221.8,320.9,211.4,316,209.2,318.3z M212.6,331.4c-0.7,1.3-3.6,2.8-7.8,4
		c-10.1,3.1-14.5,3.6-16.7,1.9c-3-2.2-1.2-3.4,5.8-3.9c4.2-0.4,8.7-1.6,12.8-3.5C213.2,326.8,214.8,327.3,212.6,331.4z M209.5,339.9
		c0,1.5-6.5,8-9.7,9.6c-3.1,1.6-10.6,1.4-12.9-0.4c-1.9-1.5-1.8-1.6,0.9-4c3.5-3.1,7.1-3.4,6.2-0.5c-0.9,3,1.2,2.5,4.1-1
		C201.4,339.7,209.5,337.1,209.5,339.9z"/>
	<path d="M111.1,63.2c-0.3,0.9-0.6,2.4-0.6,3.4c0,1.2-0.8,2-2.5,2.2c-3.3,0.4-3.3,2.2-0.1,2.6c1.8,0.2,2.6,1,2.8,3
		c0.4,3.4,3,3.6,3.8,0.2c0.3-1.4,1.5-2.6,2.8-3c3.1-0.7,2.9-2.4-0.3-2.8c-1.7-0.2-2.5-1-2.5-2.2c0-2.4-1-5-2-5
		C112.1,61.6,111.4,62.3,111.1,63.2z M113.5,69.6c0,0.5-0.4,1-1,1c-0.5,0-1-0.5-1-1c0-0.6,0.5-1,1-1C113.1,68.6,113.5,69,113.5,69.6
		z"/>
	<path d="M337.3,69.3c-0.2,1.9-1,2.9-2.6,3.3c-3,0.7-3,2.3,0,3c1.2,0.3,2.5,1.6,2.8,2.8c0.7,3,2.3,3,3,0c0.4-1.6,1.4-2.4,3.3-2.6
		c3.5-0.4,3-2.6-0.6-3c-2.2-0.3-2.7-0.8-2.7-3.3C340.5,65.7,337.8,65.5,337.3,69.3z"/>
	<path d="M63.5,112.1c0,1.8-0.5,2.5-1.9,2.5c-2.9,0-3.7,2-1.1,2.7c1.2,0.3,2.6,1.6,3.1,2.9c1.1,3,2.7,3.1,3.1,0.1
		c0.2-1.4,1.1-2.3,2.6-2.5c2.8-0.4,2.4-2.6-0.6-3c-1.6-0.2-2.2-1-2.2-2.8c0-1.5-0.6-2.4-1.5-2.4S63.5,110.5,63.5,112.1z"/>
	<path d="M358.7,202.8c-0.6,2.3-1.5,3.4-3,3.6c-3,0.5-2.8,3.2,0.2,3.2c1.8,0,2.5,0.7,3,3c0.7,3.8,2.5,3.9,3.2,0.1
		c0.5-2.3,1.3-3.1,3.2-3.3c3.6-0.4,3.8-2.4,0.4-3.1c-2.3-0.5-3.1-1.3-3.5-3.6C361.4,198.7,359.8,198.8,358.7,202.8z M361.7,208.1
		c0,0.5-0.5,1.1-1.1,1.3s-1.1-0.4-1.1-1.3c0-0.9,0.5-1.5,1.1-1.3C361.2,207,361.7,207.6,361.7,208.1z"/>
	<path d="M61.1,222.1c-0.3,0.9-0.6,2.5-0.6,3.5c0,1.3-0.9,2-2.7,2.2c-3.4,0.4-4.3,2.8-1.1,2.8c3,0,4.8,1.7,4.8,4.7
		c0,3.7,2.8,2.8,3.2-1c0.2-2.7,0.8-3.3,3.1-3.5c3.5-0.4,3.5-3,0-3.4c-2.2-0.2-2.9-0.9-3.3-3.2C63.9,220.9,62.1,219.7,61.1,222.1z
		 M64.3,229.4c0.2,0.7-0.3,1.2-1.2,1.2s-1.6-0.7-1.6-1.6C61.5,227.3,63.7,227.6,64.3,229.4z"/>
	<path d="M150.2,265.3c-0.7,0.8-2,0-1.6-1c1.2-3.3,3.4-8,7.5-10.4c5.9-3.5,12.6-2.6,16.1,3.8c0.6,1.1-0.6,2.4-1.8,1.9
		c-2.4-1-6-1.9-10.9-0.3C154.8,260.9,152,263.3,150.2,265.3z"/>
	<path d="M152.1,164.2c-1.3-5.2-14.4-8.9-21.9-6.2c-5.2,1.9-7.3,4-9.3,9.2c-3.5,9.2,0.3,23.1,7.2,26c3.9,1.6,5.5,1.1,9.5-3.3
		c5.7-6,5.7-10.1,0.1-9c-3.8,0.8-6.3-1.7-5.5-5.5c0.7-3.9,3.5-6,7.5-5.6c3.1,0.3,3.3,0.5,3.3,4c0,4.8,1,5.6,3.9,2.9
		C150.3,173.5,152.9,167.2,152.1,164.2z M150,169.4c-1.6,5-5.4,7.5-5.9,6.6c-0.3-0.6-0.2-2.2-0.1-3.4c0.1-1.4-0.3-2.9-1.2-4
		c0,0,0,0,0,0c-7.2-6.4-12.5,5-12,9.9c0.5,4.8,6.2,4.1,7.9,4.5s-1.4,4.6-1.4,4.6s-3.2,6.1-9,4.2c-5.8-1.9-9.9-19.3-4-27.5
		c3.9-5.6,10.1-7,18.5-5.1C148.5,160.5,151.6,164.4,150,169.4z"/>
	<path d="M373.5,146.2c-1.3-4-3.8-6.4-7.6-7.5c-1.7-0.5-2.8-1.4-2.5-2.2c0.8-3.1,0.3-6.1-1.4-7.9c-1.6-1.8-1.5-2,2.4-5.8
		c3.1-3,4.1-4.6,4.1-7.1c0-4.5-2.4-8.6-6-10.1c-2.9-1.2-9.8-1-14.5,0.5c-1.5,0.4-2.4-0.2-3.7-2.4c-2-3.6-5.9-4.8-10.3-3.2
		c-2.7,0.9-3.9,0.8-8-1c-3-1.3-6.1-2-8.6-1.7c-4.4,0.4-4.8-0.3-1.9-3.9c0.6-0.8,1.3-2.2,2-3.8c1-9.7-3.7-14.4-9.8-16.5
		c-6.7-2.3-13,9.3-15.9,9.6c-2.9,0.3-0.8-5.2-8.6-3.1c-7.8,2.1-2.8,23.5-2.8,23.5c-4.6-6.4-18.6-11.9-17.8-11.9s3.9-5.2,3.1-8.2
		c-0.4-1.6-0.5-3.2-0.1-5c1.1-4.9,1-9.9-0.3-14.7c-0.9-3.1-2.9-5.8-5.7-7.4c-2.1-1.2-4.4-1.7-6.5-1.3c-5.6,1-12.5,6-12.9,9.3
		c-0.2,2.1-0.9,2.9-2.8,3.1c-4.1,0.6-6,3-6,7.9c0,4.1-0.2,4.3-2.8,4.3c-3.3,0-6.2,2.7-6.2,5.8c0,1.2-0.4,2.2-0.9,2.2
		c-2.1,0-2.1-2.1-0.1-5.9c4.1-8,1.4-15.6-6-16.7c-4.9-0.8-9.5,2.6-13.3,9.8c-2.5,4.8-3.4,5.8-5.6,5.8c-1.5,0-5.1,0.6-8.1,1.4
		c-5.3,1.4-5.5,1.3-8.3-1c-1.6-1.3-3.2-2.4-3.6-2.4c-0.4,0-1.3-1.6-2-3.6c-2.5-7-8.1-9.5-12.4-5.7c-1.8,1.7-2,1.6-4.5-1.4
		c-4.9-5.6-10.8-6.9-15.4-3.3c-3.2,2.5-4,6.4-2.2,11.5c0.8,2.5,1,4.1,0.4,4.3c-3.7,1.3-4.7,5.4-2.6,10.2c0.5,1.3-0.9,1.5-9.1,1.8
		c-15,0.4-14.6,0.2-20.2,9.5c-2.7,4.5-5.2,9.2-5.5,10.3c-0.6,1.9-1.1,2.1-4.4,1.3c-5.3-1.2-10.5,0.5-14.1,4.6
		c-3.6,4.1-4.7,9.2-3.4,15.2c1,4.2,0.9,4.5-1.4,5.4c-1.4,0.5-3.3,1.9-4.2,3c-1.7,2.1-1.7,2.1-5.1,0.1c-15.3-8.9-26.5,5.9-15.4,20.4
		c3.5,4.5,3.5,4.5,1.4,7.1c-2.2,2.8-2.6,7.3-0.9,10.5c1.8,3.3,8.6,5.8,16.2,5.8c6.3,0,6.7,0.1,6.7,2.2c0,4.5,2.1,9.8,5.8,14.5
		c3.6,4.8,3.6,4.9,7.4,29.8c4.9,32.5,7.9,47.8,12.8,65.7c2.2,8.1,4,15.4,4,16.2c0,1.7-7.5,7.6-9.6,7.6c-2.3,0-4.5-6.9-3.8-11.7
		c0.9-6.4-0.1-10.2-5.1-17.8c-2.5-3.7-4.5-8-4.5-9.4c0-1.4,0.9-5.9,2-10c1.6-6.5,1.7-7.8,0.5-10.7c-1.7-4.1-4.1-5.4-10.4-5.4
		c-4.2,0-5.6,0.5-8.5,3c-4.4,3.9-5.9,8.4-5.4,16.7c0.3,6.6,0.3,6.6-3.7,7.8c-13.6,4.1-19.4,11.3-16.4,20.2c0.7,2.1,1.3,6.3,1.3,9.4
		c0.1,4.4,0.6,6.3,2.7,9c1.5,1.9,2.9,4.8,3.3,6.6c1,4.3,5.1,8.1,9.5,8.8c2,0.3,5.5,1.5,7.9,2.6c2.3,1,6.2,1.9,8.5,1.9
		c2.3,0,6,0.7,8.2,1.5c8.1,2.9,18.1,0.9,26-5c2.5-1.9,4.9-3.5,5.3-3.5c0.4,0,1.8,2.8,3.1,6.2c3.2,8.5,10.4,22.4,15.4,27
		c4.4,4.1,11.4,12.2,20.8,15.7c6,2.2,7.3,3.1,7.1,4.7c-1.3,9.6-1.3,25.6,0.1,31.4c1.6,6.4,1.6,6.5-0.9,10.1
		c-1.3,1.9-2.4,4.4-2.4,5.5c0,2.2-6,8.4-8.2,8.4c-0.9,0-2.7,0.9-4.1,2c-1.5,1.2-4,2-6.2,2c-7.1,0-12.7,4.8-15.6,13.2
		c-2,6-1.7,5.8-12.4,8.8c-8.7,2.3-11.5,4.2-11.5,7.4c0,15,133,21.2,203.5,9.5c16-2.6,25-7.3,22.6-11.7c-1.1-2.1-8.8-5-20.1-7.6
		c-3.6-0.9-6.7-2.1-6.9-2.8c-0.2-0.7-3.1-4.1-6.5-7.5c-9.6-9.7-14.4-15.7-15.1-18.9c-1.1-4.7-2.8-7.5-5.6-8.9
		c-2.5-1.3-2.6-1.8-3.3-12.2c-0.3-5.9-1.5-15.1-2.6-20.3c-1.1-5.2-1.8-9.5-1.7-9.6c0.1-0.1,3.7-1.8,7.9-3.8
		c4.9-2.2,9.9-5.4,13.5-8.8c4.7-4.5,5.5-4.9,4.9-2.8c-3.7,13.9,0,25.7,8.7,27.5c1.8,0.4,4.4,1.9,6,3.3c2.4,2.3,3.7,2.6,11,2.9
		c12.6,0.5,14.6,0.4,17.7-1.2c8.1-4.2,11.5-16.4,6-22.2c-1.9-2.2-2.3-5.6-1.6-18.5c0.2-5.2,0.7-6.1,5.1-11
		c7-7.7,10.9-16.5,10.3-23.2c-0.4-5.2-3.4-12.2-6.6-16c-3.1-3.5-12.6-9-19.7-11.2c-6.1-1.9-7-2.5-6.9-4.6c0-1.3,1.7-9.5,3.7-18.3
		c4.2-18.4,6.7-33.2,9.7-56.5c1.6-12.5,2.6-17.1,4.1-19c4.8-6.3,7.3-11.5,7.4-15.4c0-4.9,0.8-5.6,6-5.6c9.3,0,14.6-6,11-12.6
		c-1.8-3.5-1.8-3.5,3.3-8.5C373.3,156.6,375.3,151.5,373.5,146.2z M82.6,262.5c2.3,1.8,2.3,2,0.9,6.7c-0.7,2.7-1.6,7.7-1.8,11.2
		c-0.3,5.5-0.6,6.2-2,5.6c-1-0.4-3.5-1.3-5.7-2.1c-4.9-1.8-4.5-1.3-5.6-6.3C65.8,266.2,75.1,256.4,82.6,262.5z M62.1,334.2
		c-3.4-0.8-6.6-4.1-6.6-6.6c0-1.1-1.4-3.9-3.1-6.3c-2.7-3.7-3-4.8-2.5-8.9c0.3-3.2,0-5.7-0.9-7.5c-2-3.9-1.9-6.6,0.6-9.7
		c5.1-6.4,18.9-9.7,25.8-6.1c3.5,1.7,5.9,6.9,4.2,8.9c-0.6,0.7-3.7,1.6-6.9,2c-6.3,0.7-14.9,3.3-15.7,4.7c-1.3,2.1,0.7,2.6,4.9,1.4
		c2.4-0.7,6.8-1.6,9.9-2c5.1-0.7,5.8-0.5,8.1,1.8c4.5,4.6,3.2,8.3-3.5,9.8c-9.8,2.2-14.9,4.1-14.9,5.5c0,1.8-0.2,1.8,9.8-0.3
		c10.7-2.2,13.5-0.7,11.8,6.3C81.9,331.7,69.1,336,62.1,334.2z M79.7,337.6c-2.3,0-2.2-0.2,1.6-3c2.3-1.6,4.6-3.8,5.1-4.9
		c1.6-2.9,1.3-9.2-0.5-11.2c-1.2-1.3-1.3-2.2-0.5-3.8c1.5-2.7,1.4-5.7-0.4-9.1c-2-3.8-1-12.7,1.2-10.8c0.8,0.6,2.1,2.5,3,4.1
		c1.5,3,1.4,9-0.3,17.4c-0.5,2.6-0.3,3.1,1.3,3c2.6-0.3,2.9,5.8,0.5,10.3C88.4,333.8,83.2,337.6,79.7,337.6z M107.2,330.6
		c-1.2,5.9-1.6,6.7-4.7,8.2c-3.7,1.9-14,2.5-14,0.9c0-0.6,1.2-2.3,2.6-3.8c1.5-1.5,3.3-4.2,4-5.9c0.9-2.2,2.3-3.4,5.2-4.2
		c2.2-0.7,4.5-1.9,5.2-2.7c1.5-1.8,3-2,2.9-0.3C108.4,323.5,107.8,327,107.2,330.6z M329.4,108.3c0.9,1.8,1.2,4.5,0.8,8.4
		c-0.9,10-2.2,9.4-2.2-1.1C328,106.6,328.1,105.9,329.4,108.3z M326.5,145.2c3.8-5.2,13.4-10.4,21.2-11.3c2.6-0.3,4.8-1,4.8-1.4
		c0-1.9-7.4-1.2-12.9,1.2c-2.4,1.1-4.6,1.7-4.8,1.5c-1.9-1.9,9.5-12.2,18.4-16.9c3.5-1.7,6.3-3.5,6.3-4c0-2.7-10.4,2-17.7,8
		c-4.6,3.7-5.1,3.3-2.8-2.4c1.7-4.1,1.9-6.3,0.5-6.3c-0.5,0-1.4,1.9-2,4.2c-1.2,4.9-4.1,12-4.7,11.5c-0.2-0.2,0.4-3.2,1.3-6.6
		c1.2-5,1.3-7.2,0.5-11.3c-1.2-5.6-0.4-7.8,3.1-7.8c1.2,0,2.4,1.2,3.4,3.5c1.9,4.6,3.3,5.1,9.1,3.1c6.2-2.1,8.5-2,11.7,0.5
		c4,3.2,3.2,6.6-2.6,10.9c-5.5,4-6.3,7.3-2.3,9.2c3.5,1.6,3.1,3.1-1.5,5.7c-3.4,1.9-4.6,2.1-7.1,1.2c-4.9-1.7-9.3,0.7-12.3,6.7
		c-2.3,4.6-2.8,5-7.2,5.6c-2.6,0.3-4.9,0.4-5.2,0.2C323.5,149.9,324.7,147.7,326.5,145.2z M259.4,203.8c1.2,0.7,2.1,2.3,2.1,3.6
		c0,2.8-3.1,4.1-12,4.9c-4.6,0.4-8,1.4-11.8,3.5c-2.9,1.7-5.6,2.7-6,2.4c-0.7-0.8,2.5-7.1,4.3-8.6c0.7-0.5,5.2-1.2,10.1-1.4
		c10.4-0.5,9.4-0.3,9.4-1.7c0-0.7-2.8-1-8.5-0.8c-4.7,0.2-8.5,0.1-8.5-0.3c0-1.8,5.6-4.8,8.9-4.8c3.8,0,8.2-2.3,6.9-3.5
		c-0.6-0.7-2.9-0.1-8.1,2c-1.3,0.6-1.6,0.3-1.1-0.9c1-2.6,7.2-5.8,12.6-6.5c2.9-0.3,5.3-1.2,5.6-1.9c0.3-1-0.5-1.2-3.4-0.7
		c-3.9,0.6-3.9,0.6-1.5-1.2c5.1-3.7,6.6-5.1,5.9-5.8c-0.9-0.9-5.1,1.5-12.2,6.9c-3.3,2.5-6.2,4.4-6.4,4.2s0.8-2.7,2.2-5.5
		c2.5-4.8,3.6-10.6,1.7-8.6c-0.5,0.6-2.5,4.8-4.5,9.5s-4.8,9.8-6.2,11.5c-2.5,3-2.5,3-2-1.5c0.2-2.4,0.2-5.7-0.1-7.2
		c-1-5-2.3-1.8-2.3,5.5c0,6-0.5,8.2-3,13.2c-3,6-3,6-2.5-1c1.5-19.2,3.1-25.5,6.2-25.5c0.7,0,1.7,0.9,2.3,2c1.8,3.3,3.8,2.3,6.9-3.3
		c4.4-7.8,6.1-9.8,7.9-9.5c1.1,0.2,1.9,1.6,2.2,3.8c0.6,3.9,0.9,3.9,8.2,1.9c5.7-1.6,7.8-0.3,7.7,4.5c-0.1,6.2-2.1,9.6-7.4,12.4
		C257.4,198.4,256,201.6,259.4,203.8z M222.5,198.1c-2.1-1.1-3-2.1-2.6-3.1c0.3-0.9,0.6-2,0.6-2.5c0-1.5,3.9-4.9,5.6-4.9
		c1.3,0,1.4,0.9,0.8,5.7c-0.3,3.2-0.8,5.9-0.9,6.1C225.8,199.6,224.3,199,222.5,198.1z M225.4,206c-0.9,1-10-3.4-9.4-4.5
		c1.1-1.6,4.3-1,7.2,1.5C224.7,204.3,225.7,205.7,225.4,206z M226.4,183.1c-1.7,0.2-4.1,1.3-5.4,2.5c-5.4,5.1-8.8,19.5-6.5,27.9
		c1.3,4.9,0.7,6.2-1.7,3.9c-2.1-2.2-2.9-14.1-1.3-20.6c1.5-6.5,6.1-13.7,10.2-16.2c3.4-2,9.3-2.7,10.2-1.1
		C232.8,180.9,229.7,182.9,226.4,183.1z M195,188.9c-1.7-0.4-2.6,4.9-2.1,11.5c0.4,5.1,0.3,6.2-0.7,5.3c-1.3-1-5.2-9-8.2-16.5
		c-1-2.6-1.9-3.6-2.5-3c-1.1,1.1,1,8.2,3.6,12.2c3.2,4.9,0.1,3.3-6.2-3.1c-4.2-4.3-7.6-9-9.5-13.2c-3.3-7-5.6-8.6-4.5-3.3
		c1.5,7.5,7.8,15.2,24,29.6c2.7,2.4,4.6,4.5,4.3,4.8s-4.9-1-10.2-3c-10.7-4-10.5-4-10.5-2.5c0,1.4,9.2,5.4,16.3,6.9
		c3.1,0.7,6.3,2,6.9,2.8c1.1,1.3,0.2,1.4-7.1,0.7c-7.9-0.7-8.7-1-14.1-5.1c-7.2-5.5-8-7.2-4-8.6c4.7-1.6,4-4.9-1.9-9.1
		c-5.8-4.2-9.1-10.3-9.1-16.9c0-6.8,3.8-9.6,9-6.8c1,0.5,3.4,3.3,5.5,6.1c3.4,4.8,3.8,5.1,7.1,4.5c3-0.6,3.5-0.4,4.5,1.8
		c1.7,3.6,3.7,3.9,6.4,1c3-3.3,5.4-2.8,7.9,1.6c1.8,3,2.1,5.2,2.1,15c0,6.3,0.4,12.7,0.9,14.2c1.3,4.5-0.8,3.3-4.4-2.2
		c-3.2-4.9-3.2-5.2-2.9-14.8C195.9,192.9,195.6,189,195,188.9z M113.5,200.8c0,0.9-12.8-5.9-14.9-7.8c-0.7-0.6-1-1.7-0.7-2.3
		c1.1-1.8,4-1.3,7.6,1.4C109,194.7,113.4,199.5,113.5,200.8z M106.8,170.6c-0.5,1.8-1.4,3.5-2,3.7c-1.2,0.4-6.3-6.4-6.3-8.4
		c0-1.7,5.1-1.7,7.4,0C107.3,166.9,107.5,167.8,106.8,170.6z M112.6,188c-1.5-3.1-2.1-6.2-2-10.6c0.1-6.3,0.1-6.3,1.4,0.3
		c0.7,3.7,2.3,8.6,3.5,11c1.2,2.4,4,6.6,6.3,9.3c2.6,3.1,3.3,4.5,2,3.7C120.7,200.1,114.9,193,112.6,188z M101.1,139.6
		c-8.3-10.5-5.6-14.4-2.7-15.7s14.1,7,14.1,7s3.4,15.6,1.9,19.6S109.5,150.1,101.1,139.6z M125.7,155.7c5.7-2.8,15.6-2.8,21.7,0
		c8.6,3.8,16.4,11.9,11.5,11.9c-0.8,0-1.2-0.5-0.9-1c0.3-0.6,0.1-1-0.5-1c-0.7,0-0.9,0.7-0.6,1.5c0.3,0.9-0.1,1.8-0.9,2.2
		c-2.2,0.8-6.8,9-6.1,10.9c0.4,0.9,1.6,1.4,3.3,1.2c2.4-0.3,2.8,0.1,3.4,3.4c0.4,2.8,0.2,4.1-1,5.1c-2.3,2-5.1,2.8-7.3,2.1
		c-1.7-0.5-1.8-1.2-1.3-4.5c0.5-3.1,0.4-3.9-0.8-3.9c-1.7,0-6.7,11.6-6.7,15.4c0,2.8,3.3,4.5,10.2,5.3c4.7,0.6,4.8,0.6,3.1,2.5
		c-1.3,1.5-2.5,1.8-5.2,1.3c-5.7-1.1-15.7-6.3-21-11.1C112.7,184.5,112.2,162.4,125.7,155.7z M195.3,99.7
		c-8.9-1.3-13.7,12-10.5,18.6c4,8.4,9.7,5.2,4,9.8s-16.4-4.5-13.7-19.1c4.1-14.2,14-19,20.6-18.2c5,0.6,4.2,8.5,3.5,12.3
		c-0.3,1.4-0.8,2.7-1.7,3.9C195.7,109.5,200.1,100.4,195.3,99.7z M186.3,131.2c2.5,0.7,4.9,4.9,7.6,13.1c1.7,5.3,1.7,5.3-1.9,11.2
		c-3.7,6-3.7,6-7.1,3.5c-6.1-4.7-15.5-3.9-18.4,1.6c-1.5,2.8-2.5,1.8-3.9-3.4c-0.6-2.4-1.3-5-1.6-5.9c-0.9-2.1,10.4-7.4,11.6-5.5
		c0.7,1,1.1,1,2.1,0c0.9-0.9,0.9-1.2,0-1.2c-2.5,0-1-1.6,4.7-5.3c5.9-3.8,8.3-6.7,5.7-6.7c-0.8,0-3.8,1.6-6.7,3.5
		c-3.3,2.1-6,3.3-7.1,2.9c-1.2-0.4-1.6-0.1-1.3,0.9c0.4,0.9-1.1,2.3-4.3,4c-5.7,3.1-6.2,3.2-6.2,1.3c0-1.3,2.1-3.3,10.1-9.6
		C175.5,131,180.4,129.7,186.3,131.2z M182,174.5c1.3,2.2-1.8,2.1-3.8-0.1c-1.2-1.3-3.7-3.5-5.6-4.9c-2.8-2.2-3.3-3.1-2.7-5.3
		c0.7-2.7,3.4-4.4,7-4.5c1-0.1,3.3,1.4,5.2,3.3c2.6,2.6,3.4,4.2,3.4,7c0,3-0.4,3.6-2.1,3.6C182.3,173.6,181.6,174,182,174.5z
		 M162.4,125.6c3.1,5.3,2.7,7.5-2.5,12.5c-4.7,4.4-4.7,4.4-4.1,10.5c0.4,3.3,0.5,6,0.2,6c-0.4,0-5.7-2.2-6.4-2.7
		c-0.2-0.1,0.7-1.1,1.9-2.1c2.4-1.9,2.4-1.9-1.9-6.3c-4.2-4.4-4.2-4.4-5.8-2.2c-0.8,1.3-2.1,2.3-2.9,2.3c-2.2,0-2.7-2.1-0.8-3.5
		c1.5-1.1,1.6-1.5,0.5-2.8c-1-1.3-0.9-1.7,0.8-2.6c1.1-0.6,2.7-1.1,3.5-1.1c0.9,0,1.6-0.5,1.6-1c0-0.6,1-2.5,2.3-4.1
		c2.2-3.1,2.2-3.1-0.2-5c-2.6-2.1-3-2.2-5-1c-2.1,1.3-0.6,4.1,1.8,3.4c1.5-0.4,2.1-0.1,2.1,1c0,2.1-1.7,3.1-2.3,1.5
		c-0.4-0.8-0.8-0.4-1.2,0.9c-0.9,2.8-2.5,3-2.5,0.4c0-1-0.9-2.9-1.9-4.2c-1.9-2.3-2.1-2.3-4.8-0.9c-4.2,2.3-4.1,5.3,0.2,8
		c4.1,2.5,4.1,3.6,0.1,2c-4.5-1.7-6.3-1.2-6.9,1.6c-0.4,2.5,0.6,9,1.6,10.1c1,0.9,9.2,0.9,10.5,0c0.8-0.6,1.7-0.5,2.7,0.3
		c2.6,2.1,1.7,3.1-2.7,2.9c-2.4-0.2-7.1,0.1-10.4,0.5c-6.9,0.9-6.8,0.9-8.3-7.2c-2.7-13.9,8.1-27.2,22-27.2c3.1,0,7.2,0.7,9,1.5
		C157.2,119.1,159.9,121.4,162.4,125.6z M161,113.6c0.8-1.3,2.2-1.3,3,0.1c1,1.5-0.1,2.3-2,1.5C161.1,114.9,160.7,114.2,161,113.6z
		 M148,148.6c-1.4,0-2.5-0.4-2.5-0.9s-0.3-1.6-0.6-2.5c-0.8-2.1,1.4-2.1,3.8,0.1C151.2,147.5,151,148.6,148,148.6z M134.3,140
		c-3.4,0.6-3.8,0.5-3.8-1.4c0-1.5,0.6-2,2.8-2c1.5,0,3.4,0.4,4.2,1C139.4,138.8,138.8,139.2,134.3,140z M135.5,142.6
		c0,1.2-2.8,2.5-3.6,1.7c-0.9-0.9,0.6-2.7,2.2-2.7C134.9,141.6,135.5,142.1,135.5,142.6z M136.1,131.1c-1.1-0.8-1.6-2.1-1.3-3
		c0.9-2.1,2.4-1.9,3.7,0.4C140.6,132.5,139.5,133.7,136.1,131.1z M159.2,172.9c-0.4,1.6-1.1,3.5-1.6,4.7c-0.4,0.9-1.1,1.6-2.1,1.9
		c-1.4,0.4-3.2,0.4-3-2.7c0.2-2.8,2.1-4.7,3.8-5.8C157.7,170.1,159.5,171.3,159.2,172.9z M153.6,203.3c-9.9-1.8-11.9-2.2-12.2-4.5
		c-0.2-1.2,0.8-4.3,1.7-7c0.4-1,1.7-1.1,2.3-0.2c1.1,1.7,3.8,2.5,9.6,0.6c4.5-1.4,4.2-4.8,6.5-0.8c2.3,4,8.2,7,7.5,10.5
		C168.3,205.4,163.5,205.1,153.6,203.3z M156.1,209.2c2.5-2.5,6-1.9,9.3,1.6c1.7,1.8,3.1,3.7,3.1,4.1c0,0.8-8.4,0.2-12.2-0.9
		C154.1,213.3,154,211.2,156.1,209.2z M202,182.9c-1.9-2.3-4.4-4.5-5.5-4.8c-1.6-0.5-2-1.5-2-5.1c0-16.7,18.7-27.7,33.9-19.9
		c7.7,3.8,9.1,6.4,8.8,15.1c-0.1,4.1-0.3,7.4-0.3,7.4c-0.1,0-1.8-0.7-3.9-1.6c-3.6-1.5-3.7-1.6-1.9-3.5c1.4-1.6,1.5-2.3,0.5-4.5
		c-0.6-1.4-2-2.8-3.1-3.1c-1.1-0.3-1.8-0.9-1.5-1.3c0.2-0.4-0.4-1.5-1.5-2.5c-1.5-1.4-2.3-1.6-3.2-0.7c-1.5,1.5-0.2,4.3,1.7,3.6
		c2.5-1,1.7,1-1.6,3.9c-2.4,2.1-3,3.2-2.5,5.1c0.5,2,0.1,2.6-2.2,3.4c-2.4,0.8-10.2,7.8-10.2,9.2c0,0.3-0.5,1.2-1,2
		C205.8,186.8,204.9,186.3,202,182.9z M293.4,140.1c8.6,3,14.5,10.2,15.6,18.9c0.8,6-1.5,13.3-3.7,12c-3.7-2.1-4.6-3.7-4.1-6.8
		c0.6-4-1.6-6.3-4.6-4.7c-2.3,1.3-6.1,1.4-6.1,0.3c0-0.5,1.8-1.6,4.1-2.6c4.6-2.1,5.5-3.6,3.9-6.5c-1.5-3-3.2-2.6-2.8,0.6
		c0.3,2.4-0.3,3.1-3.4,4.5c-3,1.3-3.8,2.3-3.8,4.3c0,1.9-0.5,2.5-2.2,2.5c-1.3,0-4.7,0.7-7.7,1.5s-5.8,1.2-6.3,0.9
		c-1.9-1.2,1.5-3.3,6.3-3.9c2.7-0.4,4.9-1.1,4.9-1.6c0-1.4-6.4-9.8-7.5-9.8c-0.6-0.1-1.8,0.8-2.7,1.8c-3.3,3.8-3.9,5.9-2.9,10.1
		c0.9,3.8,0.8,4.1-2,5.5c-3.9,2.1-4.7,1.9-4.2-0.9c0.3-1.4,0-4.1-0.7-6c-1-3.2-0.9-4.2,0.9-7.9c2.9-6,7-9.6,13.3-11.8
		C284.2,138.3,288,138.2,293.4,140.1z M291.5,129.8c1.4,0,1.9,0.2,1.3,0.5c-0.7,0.2-1.9,0.2-2.5,0
		C289.6,130,290.1,129.8,291.5,129.8z M299.2,127.2c1.1-1.1,2.5,2.3,1.8,4.4c-0.4,1.1-1.1,1.8-1.6,1.5
		C298.3,132.4,298.2,128.3,299.2,127.2z M312,131.6c0.3,0,0.5,0.8,0.5,1.7c-0.1,2.3-3.5,6.9-4.3,5.6
		C307.6,138,310.9,131.6,312,131.6z M307,133c-1.5,2-2,1-0.9-1.8c0.6-1.6,2.4-2.2,2.4-0.9C308.5,130.8,307.8,132,307,133z
		 M305.5,127.6c-0.6,0-1.1-0.9-1.1-2c-0.1-1.1-0.2-2.5-0.3-3c-0.1-1,5-4.8,6.7-4.9c0.4-0.1,0.7,0.5,0.7,1.2
		C311.5,120.6,306.7,127.6,305.5,127.6z M298.6,164.5c-0.7,1-1.3,1.1-3.1,0.1s-2-1.4-0.9-2.1c1.8-1.1,3.6-1.1,4.3-0.1
		C299.1,162.8,299,163.8,298.6,164.5z M272.4,157.8c0.5-0.9,1.2-2.5,1.5-3.5c0.7-2.2,1.5-2.2,4.3,0.5c3,2.8,2.9,4.2-0.1,3.4
		c-1.6-0.4-2.6-0.1-3,0.9c-0.3,0.8-1.2,1.5-2.1,1.5C271.3,160.6,271.2,160.2,272.4,157.8z M269.9,135.1c-4.2,2.2-8.9,7.4-11.2,12.1
		c-1.5,3.2-1.9,3.4-6.6,3.4c-5,0-5,0-2.1-3c2.5-2.6,2.7-3.3,1.9-6.2c-0.6-2.1-2.3-4.2-4.8-5.8c-3.8-2.5-3.8-2.5,1.4-7.3
		c6.3-5.8,11.9-8.8,14-7.7c0.9,0.5,3.7,3.1,6.3,5.9c2.6,2.7,4.7,5.4,4.7,5.8C273.5,132.8,271.9,134,269.9,135.1z M247.8,166
		c1.9-1.6,3.9-2.4,5.3-2.1c2.1,0.4,3.4-0.9,3.4-3.4c0-1.6-3-0.9-4.7,1.1c-2.5,2.9-3.6,2.5-2.8-1c0.5-2.2,0.3-3-0.7-3
		c-2-0.1,2.2-3,4.3-3c0.9,0,2.7,0.8,3.9,1.8c1.5,1.2,2.3,3.2,2.6,6.2c0.6,6-0.3,7.3-4.3,5.8c-4.1-1.5-8.7,0.4-10.3,4.3
		c-1,2.4-1.5,2.7-2.7,1.7c-2.1-1.7-1.1-8.8,1.8-13c2.4-3.3,2.4-3.3,2.7-0.6c0.2,1.5-0.4,3.8-1.4,5.2
		C242.8,169.3,243.9,169.3,247.8,166z M246.3,139.2c3.2,2.2,2.7,5.3-1.5,9.6c-3.7,3.7-3.7,3.7-7.2,1.6c-2-1.2-3.8-2.3-3.9-2.4
		c-0.8-0.6,1.1-4.6,3.5-7.4C240,137.3,242.9,136.8,246.3,139.2z M235.5,107c-1.9-4.9-1.2-6,5.8-10.1c9.4-5.6,12.2-6.5,12.2-3.9
		c0,0.8-1.7,2.1-3.7,2.9c-4.4,1.7-6.4,3.7-8.7,8.9C238.9,109.5,236.7,110.4,235.5,107z M236.3,127.3c0.6,0.9,1.2,2.4,1.2,3.3
		c0,0.9-1.1,2.7-2.5,4c-1.4,1.3-2.5,3-2.5,3.9c0,1.3-0.2,1.3-1.7-0.2c-1.6-1.6-1.6-2,1.2-7.2C234.7,126.2,235.1,125.8,236.3,127.3z
		 M225.5,169.8c-3-0.4-3-0.5-1.4-2.3c1.9-2.1,3.9-2.5,4.9-0.9C230.4,168.8,228.7,170.3,225.5,169.8z M286.4,186.1l8.1-5.6
		c1.2-0.9,2.9,0,3,1.5c0.3,4.7-0.3,13.5-8.1,19.8c-7.4,6-14.8,6.3-18.9,5.9c-1.4-0.2-2.1-1.8-1.2-3l5.2-6.2c0,0,7.9,2.1,12.1-6.2
		S286.4,186.1,286.4,186.1z M286.1,190.2c-0.9,3.7-5,7.4-8.2,7.4c-2.4,0-3.4-2.3-1.4-3.5c1.6-1,1.2-2.2-1.1-2.8
		c-3-0.8-2.3-6.7,1.1-8.4c3.6-1.8,5.4-1.7,4.5,0.4c-2.1,5.2-2,5.5,2,4.7C286.8,187.3,286.8,187.3,286.1,190.2z M284.2,182.3
		c-0.4,0.6-1.3,0.4-1.4-0.3c-0.3-1.6-1.3-3.1-4.5-2c-5.4,1.8-6.5,1.7-8.2-3.7c-0.3-0.8,0.2-1.6,0.9-1.9c3.6-1.2,13.2-4.1,17.6-2.4
		c1.2,0.5,1.6,2,0.7,3C287.8,176.8,285.6,180.1,284.2,182.3z M265.9,198.6c3.7-1.5,4.1-1.1,1.4,1.6c-1.4,1.5-3.1,2.3-3.7,2
		C262.1,201.3,263.1,199.7,265.9,198.6z M265.3,209.9c0.6-1,1.7-1,4.6-0.2c10.3,2.9,22.9-4.8,27.5-16.7c2.2-5.7,2.7-12.8,1.2-15.3
		c-0.7-1-2-0.6-6.5,2.3c-3.1,2-5.9,3.6-6.2,3.6s1.1-1.9,3-4.2c3.8-4.4,4-4.7,2.8-6.4c-2.5-3.8-8.6-4.3-17.3-1.4
		c-7.2,2.5-9.1,1.8-2.8-0.9c6.8-2.9,7-2.9,13.9-3c4.3-0.1,7.7,0.5,10,1.7c11.3,5.6,10.7,22.5-1.1,34.3c-5.7,5.7-13.5,9.1-21.4,9.3
		C266.5,213.1,264,212.1,265.3,209.9z M301.9,201.1c1.4-2,2.8-4.6,3.2-5.8c0.6-1.8,0.9-1.9,1.2-0.5c0.2,0.9-0.6,3.5-1.7,5.7
		c-1.2,2.2-2.6,4.3-3.2,4.6C299.3,206.5,299.5,204.7,301.9,201.1z M306.9,184.2c1.5-4.4,4.1-8.4,7.4-11.7
		c4.7-4.7,12.6-12.1,15.9-12.2c4.8-0.1,5,5.7,2.3,10.4c-2.7,4.6-9.9,18.8-21.2,21.3C305.1,193.2,305.4,188.7,306.9,184.2z
		 M315.5,194.1c6.8-5,15.4-14.8,18.5-20.9c3-6.1,3.2-10.9,0.5-13.6c-3.1-3.1-6.5-2.5-11.4,2c-4.8,4.4-6.6,5-6.6,2.1
		c0-2,4-5.6,9.5-8.6c4-2.2,9.4-1.3,12.3,2c5.2,6.1,1,18.1-10.8,30.8c-6.8,7.3-17.5,15.6-18.6,14.5
		C307.8,201.2,310.5,197.7,315.5,194.1z M314.5,139.2c3.3-5.7,3.9-10.3,1.5-11.2c-1.2-0.5-0.8-1.4,2-4.5c2.7-3.1,3.5-4.8,3.5-7.8
		c0-4-1.2-5.6-4.5-6.3c-1.3-0.2-2.1-1.3-2.3-3.1c-0.3-2.2,0.1-2.7,1.8-2.7c1.2,0,3.5,1.3,5.1,2.9c2.4,2.5,2.9,3.8,2.9,7.9
		c0,9.6-9,32.5-12.1,30.6C311.9,144.7,312.9,142.1,314.5,139.2z M284.6,83.5c1.8-0.9,2.5-0.7,4.9,1.6c1.6,1.5,3.3,2.6,3.8,2.4
		c0.5-0.2,2.5-2.4,4.4-4.9c5.2-6.9,9.7-8.3,13.8-4.4c0.9,0.9,1.5,3.3,1.5,5.8c0,3.4-0.8,5.6-3.7,9.8c-4.5,6.4-4.6,7.7-1.3,10.8
		c1.4,1.3,2.5,3.4,2.5,4.7c0,3-3.9,6.7-8.2,7.9c-2.5,0.7-3.6,1.8-4.4,4.4c-1,3-1.6,3.5-4.8,3.8c-3.5,0.3-3.6,0.2-3.6-3
		c0-1.9,0.6-4.2,1.3-5.1c1.3-1.7,9.9-5.7,12.2-5.7c1.7,0,2.8-1.7,2-2.9c-0.7-1.2-6,0.5-9.8,3.2c-1.6,1-3.1,1.6-3.5,1.3
		c-0.7-0.8,5.3-12.2,12-22.7c4.8-7.6,5.7-9.9,3.8-9.9c-1.2,0-8.3,10.8-12.6,19c-2.8,5.3-2.9,5.4-3.1,2.5c-0.9-9.1-1.5-11.5-2.9-11.5
		c-1.3,0-1.4,1-0.9,5.7c0.3,3.2,0.8,6.7,1,7.8c0.2,1.1,0,2.8-0.4,3.9c-0.6,1.5-1.1,1.2-3.4-2.3c-2.4-3.6-2.7-5-2.7-12.5
		C282.5,85.6,282.7,84.6,284.6,83.5z M268.8,98.2c14.5,9.1,18.9,17,15.7,28.5c-1.4,5-4.6,5.9-7.9,2.1c-9.3-10.8-12-13.2-14.5-13.2
		c-3.1,0-7.6,2.1-12.5,5.8c-3.2,2.4-3.5,2.4-4.7,0.8c-0.7-1-1.8-1.5-2.4-1.1c-0.8,0.5-0.6,1.3,0.6,2.6c2,2.2,1.1,3.8-1.4,2.3
		c-2.8-1.8-2.5-4.6,1.5-13.9c4.2-9.7,6.1-11.7,9.3-9.7c2.6,1.6,4,1.5,4-0.3c0-0.8-0.4-1.5-1-1.5c-2.2,0-0.8-2.1,2.3-3.4
		C262.4,95.1,264,95.3,268.8,98.2z M231.2,84.2c4.6,0.7,4.6,0.7,4-4.9c-1-7.7,1.9-10.4,7-6.5c1.7,1.4,2.5-0.8,1.8-5.1
		s0.3-5.5,6.2-7.7c4.7-1.6,5-1.6,7.3-0.4c1.1,0.6,3.2,3.5,4.6,6.5c2.4,4.9,2.6,5.8,1.4,8.3c-3.3,7.1-3.4,7.2-2.2,8.4
		c0.7,0.7,1.2,2,1.2,2.9c0,1.9-5.3,4.4-7.1,3.3c-0.7-0.4-3.2-0.6-5.6-0.5c-2.3,0-4.3-0.3-4.3-0.7c0-1.6,5.1-15.3,7-19
		c1.1-2,2-4.5,2-5.5c0-3.2-2.4-1.3-3.4,2.6c-0.9,3.6-2.6,5.1-2.6,2.3c0-0.8-0.5-1.8-1.1-2.2c-0.9-0.5-1,0.3-0.5,2.9
		c0.4,2,0.3,5.4-0.3,7.4c-0.5,2.1-1.2,5.1-1.5,6.7c-0.8,3.5-1.5,2.9-3.5-3.1c-0.9-2.6-2.2-4.9-3-5.1c-1.1-0.4-1.2,0.1-0.7,1.9
		c3.5,11,4,13.7,2.7,15.3c-1.7,2-6.1,2.1-6.1,0.2c0-0.7-1.2-2.1-2.6-3.1c-2.7-1.8-2.6-0.7,0.4,2.7c0.8,1,1.2,2.4,0.9,3.3
		c-0.7,1.7-2.7,2.1-2.7,0.4c0-0.6-0.9-2.2-2-3.6c-1.1-1.4-2-3.9-2-5.5C226.5,83.5,226.5,83.5,231.2,84.2z M205.6,76.8
		c1.4-3.7,5.9-8.2,8.2-8.2c1,0,2.7,0.5,3.8,1c2.5,1.4,2.5,5.6-0.1,9.8c-1.8,3-2.3,3.2-3.8,2.1c-0.9-0.7-1.9-1.5-2.1-1.6
		c-0.2-0.1,0.7-1.2,2-2.3c2.4-2,2.4-2-0.6-1.8c-2.2,0.2-3,0.8-2.9,2c0.1,1.3-0.6,1.8-2.7,1.8C204.7,79.6,204.6,79.5,205.6,76.8z
		 M208.6,86.2c8.9,2.7,15.6,8.1,19.7,15.9c2.2,4.2,2.7,6.3,2.7,13s-0.5,8.8-2.7,13.1c-0.1,0.2-0.3,0.5-0.4,0.7
		c-2.8,4.9-7.7,8.3-13.2,9.5l-5.6,1.2c-7.1,1.6-14.4-1.2-18.7-7.1c-0.3-0.5-0.6-0.9-0.9-1.2c-0.5-0.7-0.4-1.7,0.3-2.1
		c2.3-1.5,2.4-4.7,1.8-5.9c-0.3-0.7,0.5-1.4,1.3-2c0.8-0.5,1.8,0,1.9,0.9c0.2,1.4,0.7,3.1,2.1,3.5c2.4,0.6,3.3-2.7,6-4.2
		c1.4-0.8,1.8,4.3,1.8,9.4c0,0.1,0.1,0.2,0.1,0.3c0.3,0.8,0.9,1.7,1.6,2.6c1.2,1.6,3,2.6,5,2.8c1.1,0.1,2.3-0.1,4.7-1
		c13.2-4.7,15-27,4.6-37.4c-3.7-3.6-9.1-5.6-11.4-4.2c-0.7,0.4-2.3,3.2-3.7,6.3c-4.2,9.6-3,17.5,1.5,9.7c2.4-4,3.7-4.4,5.2-1.5
		c3,5.6-0.1,14.5-5.1,14.5c-1.9,0-2.5-0.6-2.7-2.8c-0.3-2.6-3.2-4-3.2-1.5c0,1.4-3,4.8-4.2,4.8c-0.4,0-0.8-1.6-0.8-3.5
		c0-4.1-1.1-4.5-3.4-1c-3.1,4.7-5.9,2.6-7.2-5.2c-1-6.2,3-12.3,7.9-12.3c2.3,0,2.9,3.1,1.1,5.1c-1.2,1.4-1.3,2.2-0.4,3.8
		c0.6,1.2,1.5,2.1,2,2.1c1.8,0,3.8-5.5,4.5-12.6c0.7-7-0.1-8.9-1.9-10.2c-2.3-1.7-4.6-1.5-7.3-1c-7.9,1.5-13.9,7.3-17.1,14.8
		c-2.2,5.2-2,13.9,0.6,18.8c1.8,3.5,1.9,4.1,0.6,4.6c-2.8,1.1-3.2,0.7-5.4-5.2c-3.9-10.1-0.7-21.7,8.2-29.7
		C186.7,84.9,197.3,82.9,208.6,86.2z M214.1,108.4c-1.2-5.3-5.2-4.1-6.8-2.9c-0.6,0.5-1.6-0.1-1.3-0.9c1-3.6,2.6-8.4,4.1-8.8
		c2.4-0.7,9.3,0,14.1,9.7c5.7,11.5-1.7,29.4-11.2,29.6c-9.5,0.3-6.6-10.1-6.6-10.1S218,126.1,214.1,108.4z M143.4,84.6
		c3.5,0,4.2-2.3,2.1-6.3c-5.7-10.6,1.4-16,9.4-7.2c4.5,4.9,7.9,5.8,9.6,2.5c1.8-3.4,4-2.3,6.6,3.5c1.6,3.7,3.2,5.9,4.9,6.5
		c1.4,0.5,2.5,1.3,2.5,1.8c0,1-7.8,8.7-8.3,8.1c-0.3-0.2-0.8-3.7-1.3-7.8c-0.6-4.9-1.4-7.6-2.3-7.9c-1.1-0.4-1.3,0.5-0.8,4.9
		c1.9,16.1,2.1,15.1-1.2,8.3c-2.5-5.2-13.8-19.2-16.3-20.2c-2.2-0.9-0.3,2.9,4.1,8.1c6.1,7.1,9.1,11.2,9.1,12.6c0,0.5-2.5-0.3-5.6-2
		c-3.1-1.6-6.2-2.9-7-2.9c-3.2,0-0.9,2,6,5.3c8.4,4,10.9,7.3,10.4,13.5c-0.3,3.7-0.3,3.7-7,4c-5.8,0.2-7,0-8.9-1.9
		c-1.5-1.5-1.8-2.4-1-3.2c0.9-0.9,2.4-0.7,6.1,0.6c5.1,1.8,7,1.6,7-0.7c0-2-7.2-8.2-12.7-11C141.1,89.4,138.2,84.6,143.4,84.6z
		 M144.8,95.7c3.7,1.9,4,2.3,2.2,3c-3.3,1.3-4,1-5.8-2.1C139,93,139.3,93,144.8,95.7z M117,97.8c0.9-0.4,4.7-0.9,8.5-1
		c5.9-0.2,6.9,0,6.4,1.3c-0.3,0.8-0.1,1.5,0.5,1.5c0.6,0,1.1-0.7,1.1-1.5c0-3,2.7-1.4,6.3,3.7c1.9,2.9,3.4,5.6,3.1,6
		c-0.3,0.4-1.8,0.8-3.3,0.8c-5.3,0-12.1,3.2-17.7,8.2c-5.1,4.8-5.7,5-7.9,3.8c-3.3-1.7-3.2-2.5,1-7.6c1.9-2.3,3.5-4.5,3.5-4.8
		s1.1-2.2,2.5-4.2c2.4-3.5,2.5-5.4,0.4-5.4c-0.5,0-1.4,1.1-2,2.4c-0.6,1.3-2,2.6-3,2.9c-1.1,0.3-1.6,1.1-1.3,2.3
		c0.2,1.2-1.1,3.6-3.6,6.4c-3.5,4-3.9,4.3-4,2.2C107.5,112.1,114.8,99.1,117,97.8z M97.2,117.6c1.5,0,6,1.9,10,4.2
		c4,2.3,7.3,4.8,7.3,5.5c0,1.5-0.4,1.6-2.8,0.4c-5.4-2.8-12.9-6.1-13.6-6.1c-0.5,0-1.8,0.7-2.8,1.7c-3.2,2.8-2.3,7.3,3.2,15.7
		c3.5,5.3,4.5,7.6,3.4,7.6c-4,0-12.4-13.6-12.4-20.2C89.5,121.7,93,117.6,97.2,117.6z M92.4,153.5c3.5-3.4,7.4-3.8,12.9-1.1
		c5.8,2.8,8.2,4.6,8.2,5.9c0,2.2-2.1,2.5-4.3,0.5c-7.5-6.7-15.7-5.1-15.7,3.1c0,4.4,2.3,8.8,7.8,14.8c4.9,5.3,6.3,7.9,4.4,7.9
		c-1.4,0-12.8-12.3-14.5-15.7c-1-1.8-1.7-5.3-1.7-7.8C89.5,157.3,90,155.9,92.4,153.5z M59.3,177.1c-0.9-2.1-0.7-3.1,1.6-6.4
		c2.9-4.2,2.7-6.1-0.9-9.1c-2.3-1.9-5.5-8.5-5.5-11.2c0-6.9,6.4-8.7,15-4.3c6.3,3.2,7.6,3.1,9.5-0.5c1.8-3.4,2.2-3.6,5.3-1.4
		c4,2.8,4.5,5,2,9.4c-1.3,2.2-2.6,4-3,4c-0.4,0-0.8-1.4-1-3.2c-0.4-3.8-2.8-5.1-2.8-1.5c0,1.3,0.7,4.1,1.5,6c0.8,2,1.5,4.8,1.5,6.2
		c0,2.6-0.1,2.6-6.2-2.1c-3.5-2.6-8.7-7-11.5-9.7c-5.1-5-7.5-5.8-5.4-1.9c1.6,3,11.5,11.7,18.1,15.9c3.3,2.1,6,4.2,6,4.6
		s-2.6,0.5-5.7,0.2c-6.6-0.6-12.4,0.4-13.1,2.4c-0.3,1,1.2,1.1,7.4,0.7c10-0.8,14.1,0.1,17,3.9c2.3,3,2.3,3-9.4,2.7
		C65.6,181.5,60.8,180.4,59.3,177.1z M168,435.6c3.7,4.1,15.8,1.7,17.1-3.5c0.5-2,0.9-2.3,2.4-1.5c1,0.5,2,1.8,2.3,3
		c0.7,2.8-2.6,6.6-6.9,8c-7.3,2.5-19.4-1.1-19.4-5.6C163.5,433.1,165.6,432.9,168,435.6z M165.2,393.4c0-1.6,1.4-2.8,2.9-2.5
		l8.4,1.5c1.4,0.2,2.4,1.5,2.4,2.9c0,7.7,0,27,0.7,30c1.4,7.4,0.7,8.5-5.2,8.1c-4.2-0.4-5.2-2-7.4-13
		C165.7,413.7,165.3,400.4,165.2,393.4z M178.3,450.1c-0.3-2.5,0.1-2.8,4.5-4c2.6-0.6,5-1.5,5.4-1.8c1.3-1.4,2.5-0.6,3.9,2.9
		c2.5,6.1,1.6,9.3-4,13.5c-5.3,4-19.7,10.2-22.4,9.7c-1.2-0.2-1.8-1.5-2-4c-0.3-3.3-0.1-3.7,2.5-4c1.9-0.2,3.2-1.2,4.1-3.1
		c0.7-1.5,2.1-2.7,3.1-2.7C176.1,456.6,178.7,453.2,178.3,450.1z M167.6,444.8c2.2,1.2,4.6,3.2,5.4,4.5c2.7,4-0.8,4-6.1-0.1
		c-2.6-2-5.3-3.6-6-3.6c-0.8,0-1.4-0.7-1.4-1.5C159.5,441.9,163.1,442.2,167.6,444.8z M152.1,448.4c0.9-1.4,5.4-0.1,9.9,3
		c2.2,1.6,4.1,3.8,4.3,5c0.4,2.8-1.9,2.9-4.4,0.1c-1-1.2-3.8-3.2-6.1-4.6C153.4,450.5,151.8,449,152.1,448.4z M129.6,461.7
		c0.6-1.7,2.6-4.4,4.5-6.1c2.8-2.4,4.4-3,8-3c2.5,0,6.2,0.7,8.1,1.6c4.2,2.1,7.7,6.6,9.2,11.9c1.4,5.3-0.2,6.5-8.5,6.5
		c-9.4,0-16.3-1.8-19.6-5C128.8,465.1,128.6,464.5,129.6,461.7z M193.3,463.8c-2.2,3.4-11.3,9.5-17.7,11.9
		c-17.4,6.5-41.3,6.1-45.8-0.8c-2.3-3.5-1-3.8,4.7-1.4c2.8,1.2,7.9,2.4,11.3,2.7c12.7,1.2,34-4.5,43.3-11.6
		C193.8,461.1,195.3,460.8,193.3,463.8z M245.4,444.1c0.4,1.1,0.2,3.9-0.6,6.4c-0.7,2.4-1.3,5.7-1.3,7.3c0,2.8,0,2.8-22.5,2.8
		s-22.5,0-22.5-3.6c0-1.9-1.1-6.9-2.5-11c-1.4-4.1-2.3-8.5-2-9.7c0.8-2.9-3.1-8.7-6.8-10.5c-1.6-0.8-3.3-2.6-3.8-4
		c-1.2-3.1-0.8-26,0.5-28c0.6-1,2.1-1.2,5-0.8c2.2,0.3,12,0.8,21.6,1.2c10.2,0.3,20.9,0.2,25.5-0.4c4.4-0.6,8.4-0.7,8.8-0.3
		c1.3,1.2,4.6,18.8,5.3,27.8c0.7,8.2,0.7,8.2-2.5,11.8C244.5,436.7,243.8,440,245.4,444.1z M250,449.6c1.2-1.9,4-0.6,4.3,2
		c0.2,1.4,1.1,3.4,2.1,4.5c3.6,4.1,4.1,6.9,1.9,10.3c-1.1,1.8-2.3,3.2-2.8,3.2c-1,0-5.6-6.8-6.9-10.2
		C247.7,456.9,248.3,452.3,250,449.6z M295.2,481c-3.3,3.3-9.5,4.9-19.7,4.9c-12.4,0-17.6-2.6-24.1-12c-4.4-6.3-3.5-6.6,2.4-0.8
		c3.6,3.6,7,5.9,11.2,7.4c8.1,3.1,19.8,2.7,26.7-0.8C297.3,476.9,298.8,477.4,295.2,481z M296.5,469.4c0,2.6-0.6,3.6-3.2,5.2
		c-9.6,5.9-30.1,5.5-32.5-0.5c-1.6-4.4,5.5-11.9,14.4-15.1c4.4-1.6,11.6-0.9,15.3,1.3C294.4,462.7,296.5,465.8,296.5,469.4z
		 M282.5,452.6c0,0.5-1.7,1-3.8,1s-6.1,1.1-8.8,2.5c-5.4,2.7-7.8,3.2-7.2,1.2C263.8,454.1,282.5,449.6,282.5,452.6z M275.9,445.2
		c2.8,1.1,1.7,2.2-2.7,2.8c-2.3,0.4-6.6,1.7-9.4,3.1c-5.9,2.7-7.8,1.8-3.9-1.8C263.8,445.6,271.8,443.6,275.9,445.2z M270.5,435.1
		c1.6-2,4-0.2,4,3c0,1.9-0.7,2.3-4.9,2.8c-2.7,0.3-6.8,1.5-9,2.7c-4.8,2.4-8.5,1.9-10.7-1.6c-1.2-1.7-1.3-2.7-0.4-4.3
		c1.2-2.4,3-2.8,3-0.7c0,2.4,1.4,2.6,6.5,1.1c2.6-0.8,6-1.5,7.5-1.5S269.8,435.9,270.5,435.1z M265.8,421.2
		c0.2,10.6,0.2,10.6-4.3,12c-2.5,0.8-4.7,1.4-5,1.4s-1.1-5.3-1.8-11.8c-0.7-6.4-2.2-15.7-3.2-20.6c-1.2-5.4-1.6-9.4-1.1-9.9
		c0.9-0.9,6.2-2.4,9.3-2.6c1.2-0.1,2,1.1,2.7,3.6C264.5,401.3,265.7,411,265.8,421.2z M285.3,334.8c-2.8,22.8-18.8,42.1-40.9,48.4
		c-0.6,0.2-1.2,0.3-1.7,0.5c-15.4,4-41,2.5-57.1,1.6c-0.2,0-0.3,0-0.5,0c-2.4-0.1-5-0.5-7.7-1c-25.2-5-45.7-23.2-54.3-47.4
		c-7-19.6-12.7-39.6-17-60l-13.8-65.2c2.3-0.1,6.2,1.7,10.7,3.8c44.3,21.7,122.1,27,183.8,12.5c6.4-1.5,11.9-2.6,12.1-2.3
		L285.3,334.8z M338.3,395.8c-1.3,3.4-6.5,6.8-10.4,6.8c-3.5,0-8.8-3.1-10.4-5.9c-0.6-1.2-1.5-2.1-2-2.1c-1.3,0-1.3,3.7,0,4.5
		c1.5,0.9,0.2,2.5-1.9,2.5c-2.7,0-6.6-3.5-8.5-7.5c-1-1.9-2.1-3.3-2.7-3c-0.5,0.4-0.7,1.1-0.4,1.6c1.1,1.7-0.5,3-2.5,1.9
		c-3-1.6-5.4-9.2-4.5-14.7c1.7-11.2,9.2-19.4,19.8-21.7c3.6-0.8,3.5-2.6-0.3-2.6c-1.6,0-3-0.4-3-0.8c0-3.7,11-4.4,17-1.1
		c3.6,2,8.9,9.4,7.6,10.6c-0.3,0.4-1.6-0.3-2.9-1.5c-2.3-2.2-5.7-3-5.7-1.4c0,0.5,0.9,1.7,2.1,2.8c5.8,5.3,7.1,16.7,2.4,22.2
		c-3.3,3.9-3.2,5.1,0.5,5c2.1-0.1,3-0.6,3-1.8c0-1,0.6-2.3,1.4-2.9c1.2-1,1.7-0.8,2.5,0.8C340.5,389.4,340.3,390.3,338.3,395.8z
		 M298.5,360.6c0-0.5,2.2-5.4,4.8-10.8c2.7-5.3,6.4-13.9,8.3-19c3.7-10.2,4-10.4,12.1-8.2c5.3,1.5,9.8,5.6,9.8,8.9
		c0,3-1.8,6-6.9,11.3c-2.7,3-4.3,3.8-7.1,3.8c-5.7,0.1-11.9,3.4-13.5,7.4C304.6,357.4,298.5,362.8,298.5,360.6z M342.4,349
		c-2.3,2.5-4.5,4.6-5,4.6c-0.7,0-7.5-4.3-8.7-5.4c-0.1-0.2,1.6-2.5,3.8-5.2c5.6-6.8,6.8-11.1,4.4-16c-2.7-5.5-10.2-9.1-21.9-10.5
		c-4.9-0.6-10-1.2-11.2-1.5c-2-0.4-6.3-5.9-6.3-8.1c0-3.3,10.8-4.2,22.2-1.8C348.9,311.3,359.1,330.9,342.4,349z M251.5,229.8
		c-14,1.7-64.2,1.7-77.7,0c-25.4-3.2-53.3-10.8-70-18.9c-10-4.9-18.7-13-20.3-19.1c-1.7-6.5,1-8.4,5.3-3.9c1.2,1.3,2.9,3.7,3.8,5.4
		c4.4,8.3,29.7,19,58.2,24.8c16.1,3.2,34.9,4.7,61.7,4.7c37.3,0.2,61.8-3.2,89.2-12.2c16.8-5.5,26.3-10.7,33.8-18.6
		c3.4-3.5,6.4-6.4,6.6-6.4c0.2,0,0.4,1.4,0.4,3.2C342.5,205.8,303.4,223.4,251.5,229.8z M368.4,154.9c-0.6,1.2-3.7,4.5-6.7,7.3
		c-6,5.5-6.1,5.9-2,11.6c2.1,2.9-1,4.9-8.6,5.5c-6.9,0.6-7.6,0.1-5.2-3.2c1.1-1.5,2.4-1.9,5.6-1.6c3.2,0.2,4.1-0.1,3.8-1.1
		c-0.3-0.8-1.9-1.3-4.2-1.2c-3.2,0.1-3.6-0.1-3.6-2.4c0-1.6,1.2-3.5,3.7-5.6c5.9-4.9,13.3-12.9,13.3-14.3c0-0.7-0.7-1.3-1.5-1.3
		s-1.5,0.3-1.5,0.8c0,0.4-2.1,3.1-4.6,6c-4.4,5-6.9,6.7-5.8,3.8c0.3-0.8,0-1.7-0.6-2.1c-0.7-0.4-1.4,0.2-1.7,1.4
		c-0.8,2.9-2.6,2.6-4.1-0.7c-1-2.4-1-3.4,0.4-6.1c1.2-2.3,1.3-3.6,0.6-4.3c-0.8-0.8-1.4-0.3-2.2,1.6c-0.5,1.5-1,3.2-1,3.7
		c0,1.3-1.2,1.1-3.3-0.6c-2.3-1.6-1.7-4.2,1.8-7.9c2.8-3.1,6-3.4,7.5-0.7c0.5,1.1,1,2.8,1,3.8s0.5,2.5,1,3.3
		c0.8,1.2,1.8,0.7,5.4-3.3c4.9-5.3,8.3-6,11.6-2.7C369.7,146.8,370.1,151.5,368.4,154.9z"/>
	<path d="M203.3,306.3c-0.5-2.5-0.8-10,11.4-16c0,0,0,0,0.1,0c6.8-2.7,11-3.1,13.4-3.1c0.7,0,0.9,1.1,0.2,1.3
		c-2.1,0.8-5.1,2-7.3,3.6c-0.5,0.4-0.2,1.3,0.4,1.2c4.8-0.3,16.9-0.1,19.7,7.5c0.2,0.5-0.2,1-0.7,0.9c-4.1-0.5-19-3.8-36.2,4.9
		C203.9,307,203.4,306.8,203.3,306.3z"/>
	<path d="M167.1,267c0,0-8.3-1.9-9.8,14.7l7,6.9l-7.9,4.2l-1,6.8c0,0,12.1,0.7,18.3,8.2C173.9,306.6,181.7,271,167.1,267z"/>
	<path d="M165.6,300.9c-0.5-0.3-6.9-2.5-16-2.3c-0.6,0-0.8,1-0.1,1.2c4.5,0.8,8.5-1.2,23.6,8.1c0.5,0.3,1.1-0.2,0.8-0.8
		C173.2,305.9,171.3,303.9,165.6,300.9C165.6,301,165.6,300.9,165.6,300.9z"/>
</g>
</svg>
