<?xml version="1.0" standalone="no"?>
<!DOCTYPE svg PUBLIC "-//W3C//DTD SVG 20010904//EN"
 "http://www.w3.org/TR/2001/REC-SVG-20010904/DTD/svg10.dtd">
<svg version="1.0" xmlns="http://www.w3.org/2000/svg"
 width="1024.000000pt" height="1024.000000pt" viewBox="0 0 1024.000000 1024.000000"
 preserveAspectRatio="xMidYMid meet">

<g transform="translate(0.000000,1024.000000) scale(0.100000,-0.100000)"
fill="#000000" stroke="none">
<path d="M3715 6997 c-22 -8 -52 -21 -67 -31 -55 -36 -73 -122 -43 -206 8 -23
15 -55 15 -70 l0 -28 -102 1 c-89 2 -109 -1 -145 -20 -47 -25 -83 -67 -83 -95
0 -30 29 -80 75 -128 67 -69 65 -100 -7 -136 -115 -57 -148 -115 -127 -220 14
-71 10 -80 -38 -90 -28 -6 -33 -3 -48 27 -28 54 -24 163 8 228 15 29 27 57 27
62 0 20 -73 89 -106 99 -45 15 -71 8 -125 -35 -24 -19 -52 -35 -61 -35 -10 0
-35 26 -58 60 -47 70 -89 104 -146 119 -95 25 -224 -42 -240 -125 -6 -33 26
-123 52 -145 8 -6 14 -20 14 -30 0 -15 -7 -19 -34 -19 -50 0 -119 -33 -164
-78 -73 -73 -65 -135 22 -176 28 -13 76 -35 107 -49 59 -26 99 -66 99 -101 0
-12 -12 -39 -26 -59 -46 -68 -21 -96 99 -111 67 -8 119 -38 163 -94 51 -64 99
-101 152 -115 39 -10 44 -16 62 -65 11 -29 29 -71 40 -92 11 -22 20 -42 20
-45 0 -11 -32 -4 -82 19 -81 36 -171 109 -228 186 -65 88 -88 104 -186 131
-90 24 -122 39 -145 65 -38 44 -30 101 22 166 22 26 22 28 5 47 -26 28 -166
48 -240 33 -186 -37 -221 -203 -62 -293 l53 -29 -4 -53 c-5 -67 20 -109 82
-139 30 -15 44 -27 41 -38 -23 -84 -13 -129 43 -192 17 -20 31 -46 31 -59 0
-86 88 -595 140 -811 30 -125 33 -118 -57 -118 -138 0 -293 39 -428 106 -95
48 -105 59 -105 110 0 56 -12 85 -55 132 -37 42 -104 76 -171 86 -32 6 -44 14
-59 42 -51 96 -163 173 -342 237 -125 45 -171 74 -257 162 -117 121 -194 150
-276 104 -110 -62 -94 -217 36 -338 79 -74 67 -80 -97 -51 -180 31 -321 26
-404 -14 -86 -43 -116 -107 -80 -176 8 -16 24 -34 34 -39 10 -6 24 -30 30 -55
12 -50 34 -70 141 -129 37 -20 72 -47 80 -62 37 -69 168 -163 296 -211 165
-62 397 -83 542 -49 l63 15 52 -29 c85 -47 122 -55 183 -42 l53 12 143 -70
c249 -123 591 -221 774 -221 45 0 75 -5 81 -12 5 -7 22 -47 38 -88 120 -318
295 -593 503 -791 161 -154 338 -267 555 -355 136 -55 133 -50 103 -167 -14
-53 -31 -146 -37 -207 l-12 -111 -63 -30 c-72 -34 -100 -64 -115 -125 -10 -39
-14 -43 -55 -53 -24 -6 -99 -38 -166 -71 l-122 -60 -97 0 c-123 0 -196 -22
-284 -84 -113 -81 -178 -187 -194 -317 -5 -39 -13 -75 -18 -79 -4 -4 -64 -15
-133 -25 -275 -37 -467 -85 -528 -132 -31 -23 -32 -26 -17 -43 179 -198 2229
-329 3997 -255 l328 14 67 -23 c102 -36 222 -49 334 -36 210 24 289 45 353 93
27 21 57 29 187 47 355 49 582 108 628 163 9 12 8 18 -6 33 -46 45 -176 81
-455 124 -112 18 -213 34 -225 36 -12 2 -36 24 -53 49 -19 27 -61 64 -111 97
-62 41 -86 64 -108 104 -83 146 -179 246 -319 331 -58 35 -65 43 -82 93 -28
84 -71 116 -199 147 -27 6 -41 19 -61 53 -50 86 -121 252 -118 276 3 22 19 31
146 79 426 160 723 399 951 764 69 110 169 313 221 450 l42 108 96 6 c215 13
580 129 787 250 67 39 70 40 120 30 69 -15 139 -1 195 38 l45 32 85 -16 c174
-33 266 -29 435 19 160 46 328 153 382 245 10 17 34 34 62 45 87 32 145 85
156 143 4 20 20 47 41 66 29 28 34 39 34 79 0 40 -5 51 -39 85 -78 78 -217 94
-456 52 -168 -29 -160 -29 -160 -7 0 12 18 32 45 51 81 56 139 168 125 238
-25 119 -147 161 -253 89 -22 -15 -69 -59 -105 -97 -73 -80 -120 -108 -258
-158 -179 -65 -243 -108 -314 -211 -30 -44 -44 -55 -74 -61 -86 -16 -174 -74
-207 -137 -8 -15 -14 -49 -14 -77 0 -32 -6 -55 -16 -66 -29 -29 -168 -93 -260
-120 -109 -32 -294 -47 -294 -24 0 8 16 89 35 180 42 205 90 488 106 634 11
105 13 112 48 152 48 54 64 106 50 157 -13 49 -6 66 28 66 35 0 124 51 152 86
67 85 15 187 -121 239 -49 20 -53 24 -59 60 -3 22 -11 50 -18 63 -13 25 -87
82 -106 82 -7 0 -20 9 -30 20 -30 33 -12 64 72 127 43 32 88 74 100 92 43 64
22 131 -57 180 -104 66 -175 66 -274 1 -66 -42 -102 -49 -116 -20 -4 8 -12 40
-18 72 -20 110 -112 197 -216 206 -68 5 -106 -21 -169 -116 -59 -89 -74 -91
-154 -26 -70 57 -107 76 -148 77 -62 2 -85 -25 -144 -166 -13 -32 -30 -31 -91
8 -57 37 -74 39 -108 10 -17 -14 -36 -41 -42 -60 -15 -44 -49 -47 -79 -8 -44
55 -33 106 34 157 50 38 89 99 80 126 -10 31 -63 60 -112 60 l-43 0 0 60 c0
73 -19 114 -62 136 -73 38 -157 2 -206 -86 -31 -57 -42 -59 -107 -28 -43 21
-46 21 -80 5 -43 -21 -52 -50 -37 -131 14 -75 8 -83 -54 -69 -34 8 -54 8 -71
0 -27 -12 -28 -17 -8 -43 8 -10 15 -24 15 -30 0 -13 -79 -56 -90 -49 -4 3 -10
25 -13 51 -6 57 -22 74 -73 78 l-39 4 -6 73 c-6 91 -26 131 -76 154 -33 16
-46 17 -101 7 -35 -6 -97 -27 -139 -46 -41 -20 -90 -36 -109 -36 -31 0 -34 3
-51 57 -11 35 -32 72 -54 95 -31 33 -42 38 -79 38 -76 0 -190 -74 -240 -155
-25 -41 -38 -43 -97 -14 -54 26 -87 20 -142 -27 -22 -20 -45 -33 -50 -30 -5 4
-12 25 -16 49 -11 65 -38 119 -79 155 -59 52 -117 41 -192 -37 -35 -36 -38
-34 -49 24 -10 56 -38 107 -80 143 -76 67 -159 92 -230 69z m98 -156 c46 -41
75 -111 112 -267 20 -80 51 -179 69 -219 36 -78 92 -165 105 -165 4 0 11 34
14 75 13 149 50 265 77 239 8 -8 6 -46 -11 -149 -19 -115 -21 -148 -12 -209 5
-39 10 -71 9 -72 -1 -1 -18 -4 -39 -7 -36 -6 -39 -4 -78 51 -96 132 -173 192
-323 253 -79 31 -91 39 -91 60 0 40 72 32 180 -19 48 -23 89 -41 91 -39 2 1
-3 25 -12 52 -8 28 -24 113 -35 190 -23 153 -30 174 -83 224 -20 19 -36 39
-36 44 0 10 19 -2 63 -42z m2335 -409 c-3 -75 2 -96 16 -73 10 15 55 19 72 6
15 -10 7 -22 -63 -91 -66 -65 -85 -92 -108 -149 -16 -38 -30 -71 -30 -73 -1
-1 -17 1 -34 4 -31 7 -33 9 -27 42 6 38 -11 89 -37 111 -30 24 -19 33 32 26
44 -6 50 -4 69 20 31 39 62 127 79 225 24 133 27 142 31 85 2 -27 2 -87 0
-133z m-831 98 c-35 -39 -68 -89 -88 -136 -33 -76 -51 -88 -88 -65 -30 19 95
190 178 243 25 15 47 26 49 23 2 -2 -20 -32 -51 -65z m-372 -21 c9 -61 -12
-167 -34 -173 -49 -13 -73 -16 -69 -9 2 4 16 32 31 61 15 28 30 73 33 100 9
80 14 98 24 82 5 -8 12 -35 15 -61z m-242 -6 c13 -22 19 -52 19 -95 0 -108
-12 -134 -102 -216 -44 -40 -92 -94 -106 -118 -23 -38 -30 -45 -50 -40 -40 10
-74 25 -74 33 0 3 42 47 93 97 119 116 142 160 142 271 0 44 4 86 8 93 15 22
50 9 70 -25z m-2026 -180 c19 -23 60 -100 90 -170 31 -70 70 -150 88 -178 45
-69 111 -142 121 -133 4 4 2 45 -4 90 -20 137 -13 222 15 205 6 -4 13 -41 17
-84 3 -43 11 -103 17 -134 10 -52 9 -62 -17 -127 l-28 -72 -67 65 c-75 73
-141 107 -276 145 -91 25 -113 41 -93 65 21 25 106 18 184 -15 57 -24 67 -26
63 -12 -3 9 -29 82 -57 162 -52 147 -86 210 -127 237 -13 9 -23 20 -23 25 0
17 62 -27 97 -69z m2857 -17 c29 -12 53 -36 128 -129 23 -27 24 -28 74 -16 28
6 63 9 77 5 58 -14 92 -91 45 -100 -13 -2 -54 -9 -93 -15 -38 -6 -82 -14 -97
-17 -24 -6 -29 -1 -56 52 -47 92 -78 116 -159 123 -54 5 -76 12 -106 35 l-39
30 39 23 c45 27 134 31 187 9z m1760 -73 c-10 -30 -34 -88 -55 -129 -21 -40
-35 -75 -31 -78 4 -2 47 14 96 36 107 48 156 57 176 33 13 -15 12 -19 -8 -35
-12 -10 -60 -32 -106 -49 -206 -74 -292 -137 -386 -285 -58 -90 -55 -88 -117
-65 -22 8 -21 11 32 81 90 119 108 214 60 316 -29 62 -32 92 -9 92 21 0 73
-56 90 -97 8 -18 14 -49 14 -70 l0 -37 41 39 c51 50 119 152 154 230 14 33 34
71 43 85 14 22 17 23 20 7 2 -10 -4 -43 -14 -74z m-2964 38 c0 -13 -29 -35
-37 -28 -7 8 15 37 28 37 5 0 9 -4 9 -9z m798 -26 c138 -33 270 -130 331 -244
17 -32 31 -63 31 -69 0 -5 -13 -24 -30 -42 -26 -28 -32 -30 -52 -19 -12 7 -47
15 -77 18 -51 6 -55 8 -63 37 -11 42 -40 66 -82 67 -50 1 -88 -38 -111 -113
-10 -33 -21 -60 -25 -60 -4 0 -17 23 -30 51 -45 95 -120 128 -170 74 -19 -21
-22 -31 -17 -70 l7 -45 -54 0 c-49 0 -56 3 -80 35 -14 19 -53 55 -86 80 l-60
46 17 31 c10 17 43 58 75 90 117 121 305 173 476 133z m2722 -73 c0 -5 -11
-14 -24 -20 -40 -18 -96 -73 -123 -121 -46 -83 -108 -171 -119 -171 -6 0 -19
9 -29 20 -18 20 -18 21 12 53 16 17 51 60 76 93 55 73 97 110 152 135 45 21
55 23 55 11z m-4164 -110 c49 -38 102 -84 118 -101 l30 -31 -22 -20 c-12 -11
-24 -20 -28 -20 -11 0 -212 190 -235 221 -11 16 -17 33 -14 39 9 15 48 -8 151
-88z m2803 -52 c139 -39 227 -95 233 -149 6 -47 -24 -48 -119 -4 -108 51 -155
59 -214 39 -44 -15 -44 -15 -74 13 -16 16 -47 40 -67 54 -42 28 -38 38 22 55
57 17 141 13 219 -8z m-2086 -50 c124 -38 247 -142 301 -253 35 -72 63 -184
51 -201 -78 -105 -83 -110 -132 -122 -26 -6 -55 -14 -63 -17 -10 -4 -22 5 -35
25 -31 48 -66 68 -128 75 -31 3 -57 9 -57 12 0 4 12 14 28 23 15 9 42 32 61
51 69 72 46 177 -38 177 -64 0 -95 -34 -121 -137 -6 -24 -14 -43 -19 -43 -4 0
-16 18 -26 40 -42 93 -139 132 -184 74 -29 -37 -28 -94 4 -132 23 -28 38 -36
109 -62 l29 -11 -53 -35 c-53 -35 -54 -35 -76 -17 -13 10 -91 71 -173 136
l-150 117 32 57 c122 217 392 320 640 243z m1667 -8 c133 -48 231 -129 280
-234 17 -35 30 -69 30 -75 0 -7 -15 -20 -32 -29 -18 -9 -53 -31 -78 -49 -58
-41 -205 -94 -220 -79 -8 8 4 22 42 50 89 65 108 135 53 190 -53 53 -127 14
-163 -86 -13 -35 -25 -66 -26 -68 -2 -2 -19 25 -37 59 -33 61 -75 99 -112 99
-19 0 -70 -45 -78 -69 -7 -21 -95 29 -171 98 l-61 55 44 40 c54 48 145 92 230
111 84 19 226 13 299 -13z m-2685 -42 c24 -11 57 -41 80 -72 69 -91 186 -207
290 -288 55 -43 127 -102 161 -131 116 -102 269 -242 333 -303 l63 -61 -31 -3
c-25 -3 -46 7 -97 44 -85 60 -247 189 -349 277 -44 38 -114 92 -155 120 -119
80 -165 122 -235 217 -54 74 -71 91 -104 101 -101 30 -181 -75 -181 -238 0
-76 17 -113 65 -143 44 -27 44 -44 3 -56 -42 -12 -44 -27 -17 -100 15 -41 38
-75 76 -112 l54 -54 -53 7 c-76 9 -80 11 -116 59 -83 111 -122 233 -122 385 0
143 25 217 100 292 77 78 155 97 235 59z m4135 -80 c17 -12 39 -39 50 -61 l20
-39 50 20 c130 51 245 1 257 -114 5 -45 7 -46 40 -46 104 0 168 -90 119 -166
-24 -35 -66 -53 -178 -74 -56 -11 -112 -27 -125 -36 -36 -23 -43 -7 -10 22 25
22 60 34 173 63 83 22 118 76 74 116 -17 15 -31 17 -95 12 -82 -7 -81 -9 -66
56 18 75 -24 127 -103 127 -20 0 -63 -15 -102 -35 -37 -19 -70 -35 -74 -35 -4
0 -10 19 -14 41 -5 28 -18 53 -40 75 -61 61 -128 41 -207 -60 -32 -40 -61 -63
-104 -85 -33 -16 -69 -38 -79 -50 -24 -26 -25 -26 -64 3 l-33 24 26 31 c15 17
54 44 88 60 35 17 84 52 112 81 63 64 102 89 157 99 50 9 86 1 128 -29z
m-2135 -34 c19 -8 62 -41 97 -73 84 -78 98 -87 282 -187 241 -132 317 -184
438 -303 65 -63 108 -130 108 -166 0 -13 -9 -17 -34 -17 -31 0 -37 5 -56 45
-38 79 -222 222 -430 336 -63 34 -144 78 -180 97 -36 20 -97 66 -135 103 -84
81 -113 94 -158 75 -51 -21 -70 -59 -75 -151 -5 -98 5 -126 60 -165 49 -36 54
-52 19 -60 -44 -10 -47 -31 -14 -102 28 -60 42 -76 133 -148 l25 -19 -35 -1
c-45 0 -128 48 -169 97 -83 99 -140 287 -125 413 21 180 127 277 249 226z
m1376 -196 c140 -26 287 -135 342 -252 31 -66 50 -143 45 -190 -3 -33 -4 -33
-73 -45 -112 -19 -299 -33 -308 -24 -5 5 11 22 36 40 55 38 86 79 94 125 5 30
1 40 -25 66 -72 71 -143 19 -188 -137 -7 -25 -21 -13 -38 30 -24 63 -75 109
-121 109 -46 0 -74 -25 -82 -75 -9 -56 30 -108 101 -138 31 -12 56 -26 56 -30
0 -12 -30 -19 -79 -19 -48 0 -48 0 -61 43 -29 98 -79 165 -183 243 l-60 45 65
64 c130 127 301 178 479 145z m865 -146 c-37 -81 -236 -280 -288 -289 l-38 -6
12 28 c10 25 11 84 5 243 -4 95 55 29 68 -77 4 -29 11 -53 15 -53 16 0 100 75
170 151 41 45 76 77 78 71 2 -7 -8 -37 -22 -68z m-2641 36 c0 -8 -21 -26 -47
-40 -83 -45 -120 -90 -133 -162 -11 -56 -26 -63 -131 -63 -91 0 -93 -1 -127
-33 -38 -37 -49 -34 -37 9 27 93 79 129 202 138 4 1 14 16 21 34 36 84 118
139 202 135 37 -2 50 -7 50 -18z m-1494 -65 c24 -28 68 -81 98 -118 30 -37 58
-67 61 -67 4 0 10 23 12 50 5 50 31 94 52 87 7 -2 11 -40 11 -98 0 -83 3 -100
28 -146 15 -29 27 -54 27 -56 0 -13 -81 11 -105 31 -46 38 -109 61 -198 71
-99 12 -117 18 -117 41 0 32 57 39 150 19 28 -6 53 -9 56 -7 2 3 -24 43 -59
89 -99 132 -109 149 -103 165 8 20 28 6 87 -61z m2070 -13 c24 -26 73 -82 109
-124 36 -42 68 -77 73 -77 4 -1 7 17 7 38 0 50 15 90 36 98 26 10 33 -15 27
-93 -6 -74 -5 -78 65 -216 2 -5 -15 -8 -37 -8 -33 0 -44 5 -63 30 -32 44 -110
78 -203 90 -117 15 -125 18 -125 40 0 28 40 35 128 21 41 -6 76 -10 78 -9 1 2
-36 54 -82 116 -46 63 -84 120 -84 128 0 27 27 14 71 -34z m-3154 21 c47 -22
73 -66 73 -124 0 -57 18 -76 120 -123 168 -77 467 -142 826 -180 428 -46 1532
-99 1844 -90 1283 41 1664 70 2040 156 208 47 379 110 442 164 74 61 148 49
148 -25 0 -32 -6 -45 -39 -74 -121 -109 -545 -235 -981 -291 -179 -23 -554
-53 -900 -73 -851 -47 -2214 7 -2835 113 -315 54 -680 183 -749 265 -41 48
-43 76 -13 131 15 27 27 56 27 67 0 28 -26 44 -57 36 -47 -11 -76 -8 -90 11
-18 25 -16 33 10 44 36 14 96 11 134 -7z m1929 -92 c42 -37 78 -51 129 -51
l23 0 -19 -61 c-10 -33 -19 -68 -19 -77 0 -10 -4 -23 -9 -31 -7 -12 -28 1 -96
58 -48 40 -89 79 -92 87 -7 19 17 114 29 114 5 0 30 -17 54 -39z m-3416 -316
c15 -8 56 -46 90 -84 80 -90 130 -121 276 -175 152 -55 196 -78 244 -126 54
-54 89 -128 110 -229 15 -78 18 -83 29 -62 7 12 15 47 18 77 3 30 9 54 12 54
28 0 88 -27 116 -51 61 -54 69 -135 24 -255 -27 -72 -114 -167 -174 -190 -53
-20 -119 -15 -159 11 l-27 18 50 44 c46 40 100 127 88 140 -4 3 -36 -22 -73
-55 -51 -48 -85 -68 -148 -93 -216 -84 -558 -25 -753 129 -63 50 -81 94 -53
122 29 29 134 27 245 -5 98 -29 150 -53 216 -101 52 -38 59 -40 59 -20 0 24
-85 91 -163 129 -92 45 -217 77 -299 77 -59 0 -82 -7 -134 -40 -30 -19 -88 -5
-130 32 -46 41 -45 82 5 115 29 20 47 23 123 23 172 0 415 -71 444 -129 23
-45 54 -49 54 -6 0 50 -116 114 -295 161 -103 27 -337 27 -382 0 -26 -16 -34
-17 -47 -7 -35 29 -7 82 58 112 52 24 183 25 316 3 52 -8 133 -17 180 -20 82
-4 87 -3 160 33 41 21 73 43 70 48 -3 6 -24 9 -47 7 -104 -7 -264 132 -263
229 1 77 86 122 160 84z m8497 -5 c66 -40 53 -132 -31 -215 -68 -68 -133 -98
-192 -89 -55 8 -58 -7 -6 -40 90 -60 153 -67 332 -36 218 38 369 23 414 -41
20 -28 20 -40 2 -64 -13 -18 -15 -17 -61 5 -155 75 -665 -52 -665 -166 0 -32
37 -33 49 -1 12 32 27 42 101 70 109 41 242 67 340 68 98 0 132 -10 163 -52
18 -25 18 -28 3 -57 -16 -32 -86 -72 -125 -72 -12 0 -34 9 -50 21 -55 41 -143
42 -276 5 -122 -34 -256 -108 -291 -162 -26 -39 -9 -40 43 -1 68 49 119 73
219 102 110 32 215 36 244 10 31 -28 24 -52 -30 -106 -59 -59 -196 -129 -315
-160 -112 -29 -280 -36 -369 -15 -99 23 -192 71 -249 128 -26 26 -52 46 -58
43 -16 -10 27 -78 81 -129 57 -53 56 -66 -7 -87 -146 -48 -323 134 -323 332 0
80 37 129 119 157 55 19 61 16 62 -30 3 -108 31 -126 46 -29 19 125 76 218
169 280 25 16 89 44 142 62 156 51 208 82 298 175 113 117 155 135 221 94z
m-6786 -90 c189 -70 525 -141 829 -174 1046 -116 2316 -122 3275 -15 333 37
653 102 893 183 l102 35 0 -23 c0 -37 -28 -241 -56 -401 -135 -792 -342 -1299
-682 -1666 -373 -403 -974 -634 -1707 -656 -561 -17 -1068 88 -1520 314 -296
148 -550 382 -724 666 -218 357 -362 811 -464 1467 -41 261 -46 300 -36 300 4
0 45 -14 90 -30z m-580 -794 c52 -24 132 -54 179 -65 47 -12 90 -28 97 -37 7
-9 17 -40 24 -68 23 -105 -31 -196 -116 -196 -69 0 -242 69 -393 157 l-43 25
46 49 c43 45 95 137 95 167 0 18 9 16 111 -32z m6239 32 c0 -29 50 -116 94
-165 l46 -51 -45 -27 c-25 -14 -89 -48 -143 -75 -179 -89 -252 -101 -302 -52
-40 40 -54 99 -40 166 6 30 16 61 23 70 7 9 48 25 92 37 44 11 121 40 170 64
101 49 105 50 105 33z m-3731 -2003 c320 -53 606 -66 901 -41 107 9 211 19
231 22 l35 6 28 -67 c16 -36 60 -120 97 -186 38 -66 69 -126 69 -134 0 -8 -11
-31 -25 -51 -62 -91 -37 -183 68 -249 17 -11 37 -143 37 -249 l0 -59 -107 6
c-58 4 -405 7 -770 7 l-663 0 0 53 c0 75 -25 171 -65 249 -19 37 -35 75 -35
83 0 8 10 33 21 55 39 75 15 151 -67 209 -33 24 -34 26 -28 75 11 93 45 248
60 278 13 25 20 29 42 23 14 -3 91 -17 171 -30z m-549 -30 c58 -30 150 -55
198 -55 27 0 33 -3 28 -16 -3 -8 -13 -70 -22 -137 -24 -182 -18 -171 -91 -175
-73 -3 -130 10 -167 39 -25 19 -26 25 -26 112 0 85 18 257 27 257 2 0 26 -11
53 -25z m2244 -203 c50 -100 77 -166 73 -176 -20 -52 -209 -81 -263 -40 -24
17 -202 295 -204 317 0 4 24 7 53 7 69 0 157 16 210 39 23 10 44 17 47 16 3
-2 41 -75 84 -163z m-2380 -146 c42 -101 315 -140 387 -56 22 26 28 28 38 16
42 -50 26 -122 -33 -150 -137 -65 -366 -30 -480 73 -56 52 -54 94 7 131 46 29
65 25 81 -14z m2586 19 c63 -32 79 -104 37 -166 -84 -125 -465 -174 -544 -70
-29 38 -2 140 31 116 67 -50 68 -50 161 -49 160 2 263 62 252 146 -4 33 -2 38
14 38 11 0 33 -7 49 -15z m-2710 -211 c122 -57 177 -158 96 -178 -35 -9 -48
-1 -99 59 -42 48 -100 85 -172 110 -19 6 -19 7 5 20 39 22 108 18 170 -11z
m2906 -14 c72 -42 146 -110 199 -185 25 -34 45 -65 45 -69 0 -3 -10 -6 -22 -6
-47 0 -66 12 -81 51 -11 27 -26 44 -52 56 -28 13 -35 22 -31 37 3 10 -1 34 -9
51 -11 27 -23 36 -67 50 -29 9 -59 18 -66 21 -17 5 -6 24 15 24 9 0 39 -14 69
-30z m-3048 -81 c127 -62 171 -199 63 -199 -12 0 -37 22 -67 60 -45 57 -121
123 -174 150 l-25 13 29 12 c37 16 91 4 174 -36z m3005 4 c40 -20 29 -37 -29
-46 -128 -19 -174 -31 -243 -63 -83 -38 -93 -40 -111 -19 -22 26 22 60 123 95
51 18 103 38 117 46 29 16 99 9 143 -13z m-2310 -1 c22 -24 64 -121 72 -165 7
-35 5 -37 -40 -66 -110 -69 -468 -194 -586 -203 l-43 -3 -3 45 c-2 25 -8 58
-13 74 -14 41 -13 43 20 49 44 9 76 34 94 71 12 27 25 36 59 45 62 15 97 53
97 105 l0 41 128 1 c71 0 138 5 152 12 35 15 45 14 63 -6z m-1008 -27 c124
-32 235 -128 298 -254 23 -48 31 -78 31 -117 0 -29 -3 -56 -6 -59 -16 -16 -96
-26 -253 -31 -148 -5 -183 -3 -270 15 -108 22 -217 61 -247 87 -61 56 38 244
171 322 87 51 175 63 276 37z m2858 -88 c-5 -39 -2 -46 22 -65 15 -12 36 -22
47 -22 16 0 18 -5 13 -34 -6 -27 -2 -39 15 -56 l22 -22 -30 -31 c-16 -18 -41
-51 -56 -74 -14 -24 -30 -43 -34 -43 -5 0 -21 13 -36 29 -27 28 -29 36 -37
163 -5 73 -11 148 -14 166 l-6 32 49 0 50 0 -5 -43z m548 -13 c47 -24 30 -38
-52 -46 -80 -8 -192 -39 -251 -69 -63 -32 -96 -22 -84 25 18 72 296 138 387
90z m151 -134 c104 -15 194 -56 255 -115 51 -49 59 -67 53 -119 -11 -107 -263
-183 -512 -156 -154 17 -347 75 -412 125 -65 49 135 208 314 249 115 26 200
31 302 16z m-2462 -69 c0 -34 -6 -55 -17 -67 -10 -10 -67 -41 -128 -70 -378
-179 -764 -246 -1145 -199 -138 17 -193 37 -232 83 -23 27 -57 127 -46 137 2
2 31 -10 66 -26 34 -17 106 -42 160 -56 86 -23 117 -27 267 -27 176 -1 186 0
525 70 119 25 368 111 455 158 44 24 83 44 88 45 4 0 7 -21 7 -48z m1873 -282
c154 -78 295 -110 483 -110 198 0 347 39 423 110 19 17 36 30 38 27 3 -3 2
-23 -2 -45 -24 -141 -200 -213 -520 -215 -146 0 -195 10 -347 72 -181 74 -248
136 -264 246 l-7 48 57 -46 c32 -26 94 -65 139 -87z"/>
<path d="M864 4565 c-7 -18 13 -45 33 -45 19 0 28 27 13 45 -16 19 -39 19 -46
0z"/>
<path d="M1318 4471 c-58 -19 -142 -63 -153 -81 -17 -27 11 -27 62 0 61 33
138 58 209 68 25 4 45 12 44 17 0 18 -103 15 -162 -4z"/>
<path d="M9310 4565 c-10 -12 -10 -18 0 -30 17 -20 37 -19 49 3 18 34 -24 57
-49 27z"/>
<path d="M8750 4477 c0 -8 26 -17 73 -25 47 -8 103 -27 153 -52 43 -22 80 -40
81 -40 2 0 3 7 3 15 0 24 -77 73 -148 95 -75 23 -162 27 -162 7z"/>
<path d="M4150 4650 c-71 -17 -126 -49 -173 -99 -81 -87 -52 -107 78 -55 60
24 85 28 171 28 98 1 103 0 178 -38 64 -33 79 -37 87 -25 12 19 12 18 -21 76
-16 28 -43 61 -60 73 -63 45 -170 61 -260 40z"/>
<path d="M5369 4627 c-20 -8 -51 -24 -69 -37 -35 -25 -90 -96 -90 -115 0 -24
31 -25 73 -3 130 66 278 61 416 -13 74 -39 85 -38 78 7 -9 53 -47 96 -119 134
-57 31 -72 34 -158 37 -62 2 -108 -1 -131 -10z"/>
<path d="M4224 4401 c-144 -37 -254 -161 -301 -341 -32 -124 -17 -359 32 -481
5 -13 -4 -17 -45 -22 -58 -7 -115 -36 -115 -58 0 -10 9 -13 30 -11 93 11 267
5 343 -11 109 -23 223 -66 229 -86 24 -82 81 -129 165 -138 59 -6 118 15 118
42 0 12 -15 15 -67 15 -50 0 -77 5 -100 20 -61 37 -67 135 -9 175 28 20 97 19
141 -2 38 -18 55 -12 39 15 -11 17 -65 57 -87 65 -9 3 -7 18 5 58 25 80 38
173 38 274 0 220 -82 395 -213 460 -56 27 -152 39 -203 26z m141 -84 c73 -29
126 -75 70 -61 -38 9 -109 -22 -146 -64 -42 -48 -94 -168 -90 -208 1 -4 28 -8
61 -8 71 -1 103 -25 103 -77 0 -49 -31 -69 -109 -69 l-64 0 0 -43 c0 -60 25
-152 61 -221 25 -49 27 -57 12 -52 -36 14 -139 36 -170 36 -28 0 -36 6 -52 38
-38 74 -54 160 -53 287 1 177 31 271 115 362 75 82 177 113 262 80z"/>
<path d="M5340 4377 c-75 -22 -116 -46 -170 -100 -91 -92 -136 -215 -146 -397
-9 -166 30 -306 119 -422 30 -39 34 -48 21 -59 -16 -13 -18 -35 -4 -44 5 -3
26 3 47 13 62 32 265 100 346 116 106 22 211 20 292 -5 47 -14 71 -17 78 -10
23 23 -35 61 -126 82 -56 12 -58 14 -52 38 40 155 48 356 21 474 -19 79 -55
156 -104 214 -68 84 -217 130 -322 100z m193 -97 c70 -35 78 -49 28 -48 -51 0
-102 -31 -141 -87 -31 -45 -63 -119 -75 -172 l-7 -33 47 0 c110 0 167 -69 103
-127 -14 -13 -36 -18 -86 -18 -63 0 -67 -2 -70 -24 -7 -44 19 -156 49 -210 16
-30 28 -55 26 -56 -1 -1 -37 -15 -80 -30 l-79 -28 -23 29 c-83 103 -125 229
-125 374 0 161 52 304 141 383 87 79 194 96 292 47z"/>
<path d="M5498 3354 c-10 -21 -9 -35 5 -73 16 -45 16 -46 -6 -63 -60 -47 -293
-118 -449 -138 -120 -15 -341 -12 -467 5 -234 33 -366 84 -392 153 -10 26 -36
26 -52 1 -29 -46 44 -133 140 -169 32 -12 63 -26 70 -31 6 -6 21 -40 33 -76
51 -157 141 -291 248 -368 85 -60 163 -87 277 -92 125 -7 192 7 295 58 173 87
326 297 379 519 l18 75 64 -3 c53 -3 69 0 89 16 32 26 19 41 -45 53 -73 14
-114 44 -142 106 -27 58 -47 67 -65 27z m-156 -450 c32 -9 58 -21 58 -26 0
-20 -61 -97 -122 -153 -38 -35 -92 -72 -138 -94 -67 -32 -86 -36 -173 -39 -60
-3 -116 1 -145 8 -63 17 -142 60 -142 77 0 23 92 115 135 134 24 11 63 19 98
19 57 0 57 0 57 -30 0 -39 27 -40 41 -2 39 104 178 149 331 106z"/>
<path d="M4611 2501 c-36 -23 52 -115 145 -151 81 -32 205 -32 288 0 61 23
126 73 113 86 -4 4 -31 2 -60 -4 -217 -50 -316 -37 -452 63 -12 8 -25 11 -34
6z"/>
</g>
</svg>
