<?xml version="1.0" standalone="no"?>
<!DOCTYPE svg PUBLIC "-//W3C//DTD SVG 20010904//EN"
 "http://www.w3.org/TR/2001/REC-SVG-20010904/DTD/svg10.dtd">
<svg version="1.0" xmlns="http://www.w3.org/2000/svg"
 width="1024.000000pt" height="1024.000000pt" viewBox="0 0 1024.000000 1024.000000"
 preserveAspectRatio="xMidYMid meet">

<g transform="translate(0.000000,1024.000000) scale(0.100000,-0.100000)"
fill="#000000" stroke="none">
<path d="M6128 9595 c-4 -4 -50 -11 -103 -15 -115 -8 -137 -21 -180 -104 -18
-35 -43 -65 -62 -76 -18 -11 -39 -32 -46 -47 -8 -15 -56 -195 -106 -398 -50
-204 -94 -383 -99 -400 -7 -27 -11 -30 -47 -28 -22 1 -119 5 -215 9 -535 21
-1080 -146 -1453 -445 -184 -149 -333 -340 -407 -524 l-35 -88 -105 -52 c-59
-30 -112 -63 -123 -79 -26 -36 -76 -275 -77 -366 0 -110 26 -153 141 -225 49
-31 57 -41 62 -74 13 -88 49 -515 43 -520 -9 -9 -118 44 -206 101 -91 59 -219
187 -285 285 -57 87 -168 300 -185 357 -12 40 -11 42 23 88 58 76 67 126 41
235 l-16 67 32 57 c41 73 48 104 59 254 11 143 25 180 112 300 109 150 117
236 28 320 -119 113 -335 18 -421 -184 -12 -29 -27 -53 -33 -53 -11 0 -59 184
-86 325 -28 154 -68 246 -126 294 -77 63 -159 62 -230 -3 -55 -50 -55 -89 6
-340 50 -204 53 -237 19 -224 -7 3 -30 50 -52 104 -108 277 -191 405 -270 420
-77 14 -154 -23 -188 -89 -31 -62 -21 -138 37 -268 53 -119 88 -183 157 -287
26 -41 46 -78 42 -83 -11 -18 -33 -8 -61 29 -39 54 -178 176 -232 206 -39 21
-95 31 -148 27 -19 -2 -73 -51 -89 -83 -22 -42 -20 -117 4 -164 26 -50 93
-116 207 -202 49 -37 99 -81 111 -99 12 -17 38 -80 58 -140 61 -178 114 -256
227 -340 44 -32 58 -50 68 -84 26 -87 91 -145 198 -175 l58 -16 45 -106 c94
-224 256 -450 442 -617 150 -135 374 -266 603 -350 55 -20 103 -40 107 -44 4
-3 14 -78 23 -166 27 -274 74 -726 85 -820 6 -49 22 -187 36 -305 49 -428 119
-902 151 -1030 20 -84 37 -116 84 -166 39 -40 40 -42 48 -142 6 -69 15 -113
28 -135 28 -48 105 -101 218 -150 l100 -43 0 -55 c-1 -30 -6 -98 -13 -151 -7
-54 -12 -169 -12 -256 l0 -159 -62 -32 c-109 -54 -130 -80 -137 -168 l-6 -67
-90 -26 c-116 -34 -145 -47 -229 -104 -67 -45 -71 -46 -146 -46 -167 0 -291
-49 -384 -152 -78 -85 -98 -143 -104 -289 l-4 -116 -132 -16 c-247 -31 -443
-81 -433 -111 19 -62 584 -150 1197 -186 569 -33 717 -40 1015 -51 355 -13
1410 -7 1768 10 193 9 201 9 277 -14 115 -34 219 -48 370 -48 203 1 355 34
463 103 27 17 61 30 79 30 57 0 431 51 528 71 96 21 190 55 190 69 0 13 -81
46 -155 64 -91 21 -217 41 -390 62 -77 9 -150 20 -162 25 -12 5 -32 27 -43 50
-30 58 -94 124 -160 165 -36 22 -71 55 -93 87 -70 100 -164 187 -346 316 -107
76 -116 85 -137 139 -42 103 -152 182 -255 182 -14 0 -31 6 -37 12 -30 37
-212 481 -212 518 0 26 3 27 62 34 83 8 278 76 343 120 73 48 94 94 96 209 l1
87 54 46 c33 29 63 65 78 97 23 50 74 292 151 717 10 56 103 605 122 718 14
87 20 102 36 102 17 0 125 -76 188 -132 86 -76 170 -220 194 -333 24 -116 23
-124 -40 -172 -86 -67 -109 -110 -114 -211 -3 -73 -7 -91 -33 -131 -16 -25
-43 -91 -60 -146 -41 -135 -56 -161 -138 -249 -78 -84 -91 -108 -83 -152 9
-46 39 -80 95 -108 128 -64 284 -5 385 147 29 44 49 65 55 59 17 -17 21 -128
8 -211 -15 -95 -8 -140 27 -181 55 -66 149 -83 233 -42 40 19 56 21 126 16 97
-8 149 11 210 74 24 25 61 49 96 62 64 24 110 69 141 139 17 38 19 60 14 155
-8 184 -71 358 -182 505 -38 50 -59 88 -66 121 -15 68 -59 130 -128 179 -54
37 -61 47 -76 99 -78 275 -146 402 -308 569 -105 109 -208 181 -385 271 -67
35 -122 67 -122 71 0 5 7 44 15 87 18 97 120 704 140 834 36 233 74 435 82
437 4 2 44 23 88 46 58 31 88 55 110 86 28 40 30 48 28 129 -3 120 -29 295
-52 346 -21 49 -58 80 -148 125 -49 24 -64 37 -69 59 -42 190 -158 397 -317
568 -258 276 -637 498 -1022 598 -187 49 -175 44 -175 72 0 28 34 161 106 419
68 242 74 258 101 283 35 30 78 29 348 -8 333 -46 693 -90 736 -90 50 0 90 34
119 102 30 70 32 148 4 185 -49 65 -32 60 -434 114 -129 17 -325 44 -434 60
-221 32 -357 45 -368 34z m5 -152 c-4 -68 -2 -97 10 -125 31 -73 -28 -24 -62
52 -38 84 -22 160 34 160 24 0 24 -1 18 -87z m397 43 c135 -19 340 -47 455
-62 116 -15 213 -30 217 -33 4 -4 1 -28 -7 -55 -8 -27 -15 -74 -15 -103 l0
-55 -37 6 c-21 3 -90 12 -153 20 -63 9 -182 24 -265 35 -82 11 -231 30 -330
41 -199 24 -200 24 -211 97 -7 51 0 98 22 130 12 19 21 23 47 18 18 -3 142
-21 277 -39z m-527 -34 c5 -62 30 -120 72 -170 27 -32 31 -42 16 -42 -12 0
-188 117 -196 130 -10 16 15 93 38 118 11 12 30 22 42 22 20 0 23 -7 28 -58z
m1311 -110 c12 -41 -8 -132 -35 -164 -19 -23 -19 -23 -35 -3 -34 42 4 211 45
203 9 -2 20 -18 25 -36z m-1423 -39 c30 -25 82 -59 117 -75 34 -15 62 -31 62
-34 0 -4 -26 -4 -57 0 -69 8 -199 68 -208 95 -5 18 12 61 26 61 3 0 30 -21 60
-47z m-60 -111 c51 -24 151 -52 187 -52 19 0 23 -4 17 -17 -9 -21 -92 -326
-161 -592 -27 -101 -54 -190 -61 -196 -21 -21 -95 -27 -140 -11 -55 19 -91 44
-98 66 -3 10 37 193 90 407 113 454 105 425 113 421 4 -2 28 -14 53 -26z
m-3635 -621 c59 -36 89 -121 153 -434 21 -97 41 -168 61 -208 37 -72 37 -72
-62 -135 -37 -24 -80 -58 -97 -77 -24 -26 -39 -34 -73 -35 -64 -4 -107 -18
-168 -54 -54 -33 -97 -88 -85 -108 4 -6 26 6 53 29 55 46 145 91 185 91 15 0
27 -1 27 -2 0 -2 -7 -28 -15 -58 -8 -30 -15 -77 -15 -103 0 -48 22 -117 37
-117 4 0 8 33 9 73 1 132 65 239 195 327 76 52 93 75 125 173 35 106 65 157
124 210 149 134 326 38 227 -123 -15 -25 -47 -73 -71 -107 -64 -90 -84 -153
-95 -296 -14 -184 -56 -283 -149 -351 -77 -55 -112 -69 -197 -75 -44 -3 -79
-10 -78 -16 3 -21 77 -37 146 -31 53 4 83 13 133 40 l65 36 9 -26 c16 -40 12
-66 -16 -123 -57 -113 -224 -191 -411 -191 -108 0 -163 23 -205 85 l-27 40 62
8 c63 8 128 34 134 52 2 7 -30 11 -89 11 -106 -1 -157 17 -233 79 -87 72 -170
240 -177 362 l-3 51 -135 102 c-164 123 -194 152 -220 205 -28 58 -26 110 5
140 55 56 115 27 320 -153 122 -107 147 -120 181 -97 37 24 30 61 -26 154 -84
138 -149 265 -180 350 -56 153 -33 231 68 231 74 0 90 -23 257 -374 47 -99 93
-188 102 -198 9 -10 29 -18 44 -18 53 0 62 57 28 180 -57 208 -83 389 -64 449
8 25 50 50 85 51 14 0 39 -9 56 -19z m3202 -130 c45 -5 85 -10 88 -13 3 -3 0
-25 -6 -50 l-11 -44 -242 0 c-320 -1 -495 -28 -743 -115 -299 -104 -591 -311
-748 -528 -32 -45 -71 -95 -87 -112 -52 -55 -73 -185 -43 -264 5 -13 2 -15
-22 -9 -36 9 -84 32 -106 52 -39 34 -8 166 73 308 221 386 725 680 1299 758
178 25 396 31 548 17z m737 -107 c475 -137 861 -395 1072 -716 103 -157 163
-314 163 -429 l0 -48 -52 -16 c-28 -8 -53 -15 -55 -15 -2 0 -3 10 -3 23 0 44
-49 211 -69 236 -12 14 -40 59 -64 99 -131 226 -292 387 -529 530 -166 100
-412 203 -601 253 -49 12 -91 28 -94 35 -2 6 1 31 7 54 l11 42 47 -7 c26 -4
101 -22 167 -41z m-565 -3 c0 -20 114 -63 168 -63 36 0 50 -4 43 -11 -28 -28
-167 -2 -213 40 -19 17 -24 43 -8 43 6 0 10 -4 10 -9z m-585 -52 c22 -6 51
-19 65 -29 23 -16 43 -18 185 -13 88 3 169 1 181 -3 21 -9 20 -13 -48 -294
-39 -157 -75 -303 -80 -325 l-10 -40 -23 62 c-31 88 -65 127 -138 162 -47 23
-85 33 -157 41 -52 5 -131 18 -175 29 -125 30 -168 34 -230 21 -77 -16 -134
-68 -186 -172 -22 -43 -40 -78 -42 -78 -1 0 -24 11 -51 25 -60 31 -109 32
-231 5 -116 -26 -225 -37 -225 -22 0 6 27 44 59 85 58 73 174 173 289 250 84
56 267 142 347 163 55 14 76 25 98 51 16 18 42 40 58 48 78 41 230 57 314 34z
m650 -55 c27 -8 64 -14 82 -14 28 0 33 -3 29 -17 -14 -51 -50 -190 -96 -368
-75 -293 -97 -358 -137 -397 -33 -32 -33 -32 -62 -15 -16 9 -49 20 -74 23 -34
5 -44 10 -41 23 7 30 185 746 195 785 l10 38 23 -22 c13 -11 45 -28 71 -36z
m357 -28 c200 -45 453 -153 632 -270 120 -77 283 -239 361 -355 l64 -96 -29
-3 c-29 -3 -110 23 -230 74 -76 32 -161 41 -227 24 -45 -11 -49 -10 -63 12
-34 53 -81 91 -183 152 -130 78 -164 90 -224 81 -58 -9 -109 -55 -161 -150
-35 -63 -43 -71 -83 -83 -24 -7 -66 -23 -93 -37 l-48 -24 6 42 c9 54 122 512
148 595 17 55 21 62 41 57 12 -2 52 -11 89 -19z m-1230 -390 c57 -14 137 -27
178 -31 158 -14 257 -103 248 -225 l-3 -44 -35 46 c-52 68 -92 92 -154 92 -42
1 -63 -5 -103 -31 l-51 -31 -82 10 c-60 8 -92 8 -121 -1 -40 -12 -65 -42 -55
-68 5 -12 12 -10 37 11 25 22 40 26 87 25 31 0 65 -4 75 -7 16 -7 15 -10 -10
-33 -76 -68 -68 -65 -121 -40 -30 14 -86 26 -157 34 l-110 12 1 37 c1 22 13
56 31 85 17 26 42 70 57 96 20 36 39 54 69 68 55 25 95 24 219 -5z m1433 -85
c116 -68 211 -138 229 -169 l19 -33 -38 -54 c-51 -74 -95 -86 -95 -26 0 68
-66 69 -113 1 -24 -35 -21 -54 18 -113 20 -29 40 -70 46 -92 11 -38 10 -40
-22 -65 -19 -14 -55 -45 -82 -69 -26 -24 -48 -42 -50 -40 -1 2 -7 12 -12 23
-6 10 -35 26 -65 36 -30 9 -78 29 -106 44 -66 35 -119 42 -166 23 -41 -17 -72
-56 -62 -80 11 -30 34 -27 66 8 19 22 40 35 56 35 25 0 162 -78 162 -92 0 -5
-74 -8 -165 -8 -177 0 -178 1 -150 50 21 36 19 109 -4 147 -11 17 -40 45 -65
62 -25 18 -46 35 -46 39 0 10 105 71 209 121 137 66 195 55 306 -58 33 -34 63
-61 67 -61 18 0 6 56 -22 102 -30 48 -30 50 -19 116 17 100 17 107 -6 107 -17
0 -20 -8 -23 -60 -4 -87 -5 -88 -49 -63 -21 12 -40 23 -41 24 -8 6 71 131 96
151 36 30 67 29 127 -6z m-1957 -115 c15 -8 36 -23 46 -35 l19 -21 -66 0 c-41
0 -81 -7 -109 -18 -29 -13 -79 -21 -150 -24 -92 -5 -114 -10 -152 -32 -25 -14
-51 -26 -58 -26 -8 0 -29 -16 -48 -35 -18 -19 -37 -32 -42 -29 -13 9 -9 83 7
114 23 44 62 59 198 76 67 8 149 21 182 28 80 18 140 19 173 2z m815 -46 c26
-21 117 -150 117 -166 0 -5 -44 -30 -98 -56 -53 -25 -113 -56 -133 -69 l-37
-22 -38 43 c-21 23 -57 55 -81 71 -24 17 -40 35 -37 42 7 20 140 129 187 155
52 27 87 28 120 2z m1742 -90 c49 -21 132 -51 183 -66 95 -28 158 -69 164
-107 3 -16 -6 -19 -82 -22 -47 -2 -113 -12 -148 -23 l-63 -20 -102 39 c-134
53 -134 52 -96 101 17 21 29 42 25 45 -8 9 -54 -36 -62 -60 -7 -22 -16 -21
-112 14 l-63 22 28 29 c65 69 135 101 198 92 22 -3 80 -23 130 -44z m-2430 -6
c191 -24 233 -33 262 -58 l26 -23 -42 -7 c-51 -8 -81 -23 -179 -88 -69 -45
-75 -47 -95 -33 -14 9 -44 15 -84 15 -53 0 -64 -3 -77 -22 -14 -20 -14 -23 -1
-31 8 -4 23 -3 34 3 22 11 111 14 111 3 0 -4 -12 -19 -26 -34 l-26 -27 -55 19
c-139 47 -182 114 -134 208 22 42 51 65 102 79 47 14 40 14 184 -4z m-352 -15
c-8 -8 -19 -8 -40 -1 -28 10 -28 10 12 11 28 1 36 -2 28 -10z m-613 -65 c0
-38 15 -59 62 -87 84 -48 363 -129 578 -166 775 -136 1933 -193 2755 -136 442
31 618 69 645 141 5 13 13 24 17 24 21 0 138 -67 150 -86 12 -18 11 -24 -8
-48 -63 -80 -305 -139 -751 -182 -223 -22 -1009 -30 -1336 -15 -769 37 -1431
118 -1836 226 -262 70 -466 174 -466 239 0 31 36 62 106 90 76 31 84 31 84 0z
m559 -1 c3 -2 0 -16 -5 -31 -10 -29 -63 -61 -104 -62 -33 0 -70 26 -70 49 0
20 33 46 65 53 21 4 107 -2 114 -9z m1431 -23 c11 -6 33 -31 51 -56 17 -25 53
-59 80 -76 62 -38 71 -66 39 -125 l-23 -43 -141 0 -141 1 30 24 c16 13 58 41
92 61 66 38 71 48 37 70 -17 11 -29 6 -106 -53 -49 -36 -88 -72 -88 -80 0 -13
-18 -15 -121 -11 -113 4 -123 6 -140 27 -30 37 -34 70 -13 87 11 8 95 53 187
99 170 86 214 98 257 75z m-684 -54 c3 -8 -3 -35 -14 -60 -15 -33 -35 -54 -78
-83 -51 -34 -64 -38 -113 -36 -31 1 -75 5 -99 8 -52 8 -48 16 36 72 141 93
254 135 268 99z m1792 -23 c96 -49 126 -92 78 -114 -19 -9 -36 -7 -75 6 -57
19 -67 15 -87 -29 -7 -17 -13 -24 -14 -16 0 8 -17 48 -37 88 -32 62 -36 74
-23 82 29 19 103 11 158 -17z m-1695 -71 c15 -21 30 -53 33 -71 6 -31 5 -34
-12 -27 -10 4 -40 10 -66 13 l-46 6 24 45 c13 25 24 51 24 58 0 24 17 15 43
-24z m2389 -20 c20 -20 -3 -31 -80 -38 -62 -6 -77 -11 -111 -40 -37 -32 -71
-44 -71 -25 0 17 45 65 89 93 40 26 53 29 104 26 31 -3 63 -10 69 -16z m-3979
-28 c135 -114 561 -238 1057 -308 621 -88 1467 -135 2108 -116 631 18 987 67
1179 160 43 21 79 38 80 37 0 -1 4 -68 8 -148 7 -145 7 -146 -16 -169 -126
-121 -697 -210 -1347 -210 l-163 0 3 -37 3 -38 150 -3 c154 -4 615 15 643 25
13 6 14 -5 8 -88 -4 -52 -12 -132 -19 -179 -11 -77 -15 -86 -40 -98 -15 -7
-27 -16 -27 -20 1 -31 53 -46 91 -27 38 20 55 72 84 259 13 87 26 160 27 161
2 1 18 5 36 8 32 6 32 6 32 -34 0 -37 -40 -324 -61 -433 -6 -33 -17 -57 -32
-68 -25 -19 -234 -72 -347 -87 -82 -11 -237 -26 -371 -37 l-85 -6 -23 -99
c-12 -54 -23 -102 -24 -105 -1 -4 45 -31 103 -61 58 -30 114 -62 124 -71 64
-57 88 -220 45 -305 -23 -45 -180 -204 -241 -245 -48 -31 -83 -26 -192 29 -43
22 -79 39 -80 37 -105 -227 -220 -398 -367 -548 -140 -143 -260 -208 -400
-217 -93 -7 -184 9 -253 44 -159 81 -348 360 -446 659 l-43 132 -58 -38 c-62
-40 -254 -100 -320 -100 -63 0 -100 49 -135 177 -23 84 -37 446 -19 489 17 41
77 76 174 103 41 11 76 23 78 25 3 3 -2 35 -10 73 -8 37 -18 91 -22 119 l-7
52 -76 21 c-189 54 -331 102 -352 119 -19 16 -25 36 -36 118 -16 126 -39 463
-31 470 3 3 18 2 34 -3 l28 -10 16 -196 c17 -209 23 -230 68 -225 25 3 26 6
29 72 2 37 -2 125 -7 194 -6 69 -8 128 -6 130 2 2 48 -5 102 -16 129 -28 259
-45 282 -37 22 7 35 46 19 56 -6 4 -85 21 -177 39 -428 83 -698 176 -811 280
-37 34 -40 41 -40 91 0 30 7 92 15 139 8 47 15 86 15 88 0 7 16 -1 43 -24z
m3477 -15 c6 -11 8 -33 5 -50 -6 -26 -10 -29 -47 -29 -34 0 -39 2 -33 18 5 9
13 36 19 59 9 35 13 40 28 32 10 -5 22 -19 28 -30z m138 -43 c-4 -26 -45 -35
-54 -11 -9 24 25 58 43 43 8 -6 13 -21 11 -32z m-275 -4 c13 -12 15 -17 5 -24
-22 -13 -75 -9 -89 8 -11 14 -10 18 6 30 21 15 50 10 78 -14z m-278 -28 c0
-20 -26 -30 -53 -19 -15 6 -14 9 7 26 28 23 46 20 46 -7z m-3652 -300 c75
-151 120 -223 221 -358 103 -137 120 -168 112 -211 -14 -73 -108 -106 -202
-70 -123 47 -310 270 -438 522 -25 49 -47 99 -51 113 -6 25 -4 26 79 42 47 9
113 29 148 46 35 17 65 31 68 31 3 1 31 -51 63 -115z m817 -127 c64 -23 65
-23 72 -67 4 -25 14 -133 23 -240 34 -424 117 -1228 170 -1655 38 -305 169
-1261 180 -1312 12 -55 90 -112 213 -154 135 -46 543 -122 802 -148 302 -31
926 -42 1195 -21 327 26 548 93 604 184 26 41 98 437 307 1676 64 377 195
1166 236 1418 10 60 16 73 33 77 79 18 118 25 121 22 2 -1 -12 -93 -30 -202
-72 -425 -169 -992 -216 -1265 -27 -157 -81 -474 -120 -705 -128 -752 -180
-1035 -195 -1064 -56 -109 -274 -187 -680 -242 -193 -26 -761 -38 -1006 -20
-603 43 -1092 150 -1296 282 -34 22 -69 51 -77 64 -13 20 -30 108 -66 345 -13
84 -80 597 -119 905 -41 322 -92 775 -141 1260 -22 220 -52 506 -65 635 -14
129 -25 238 -25 242 0 11 6 10 80 -15z m460 -889 c13 -25 13 -31 0 -55 -23
-41 -63 -52 -98 -26 -58 43 -27 117 46 111 28 -2 40 -10 52 -30z m100 -49 c0
-12 -7 -19 -20 -19 -22 0 -29 35 -7 43 18 6 27 -2 27 -24z m2494 -91 c23 -37
-35 -76 -70 -48 -19 17 -18 47 4 59 24 15 53 9 66 -11z m421 -24 c0 -12 -8
-20 -22 -22 -17 -3 -23 2 -23 16 0 20 16 33 35 28 6 -2 10 -11 10 -22z m-145
-49 c24 -22 26 -77 4 -99 -24 -24 -94 -20 -135 7 -52 35 -49 84 6 108 30 13
103 4 125 -16z m170 -158 c-21 -142 -100 -531 -110 -541 -19 -19 -10 75 25
283 37 214 59 311 78 346 17 33 20 1 7 -88z m-280 -117 c23 -23 25 -51 9 -83
-15 -29 -28 -37 -59 -37 -36 0 -50 18 -50 62 0 43 27 78 60 78 11 0 29 -9 40
-20z m25 -275 c30 -29 32 -58 5 -85 -37 -37 -93 -20 -116 36 -21 50 -6 74 47
74 29 0 47 -7 64 -25z m791 -81 c135 -56 311 -225 407 -389 43 -74 78 -156
109 -260 l25 -80 -96 0 c-53 0 -122 -4 -153 -9 l-58 -8 0 28 c-1 49 -57 193
-107 276 -26 44 -92 127 -146 184 -54 58 -105 121 -113 140 -44 105 22 164
132 118z m-1011 -94 c15 -6 64 -37 108 -69 45 -33 108 -71 139 -84 103 -46
114 -111 39 -233 -26 -43 -74 -122 -106 -174 -33 -52 -72 -112 -87 -132 -31
-40 -81 -61 -120 -51 -49 13 -389 196 -399 215 -25 47 -5 102 75 210 173 234
218 286 264 309 42 22 51 23 87 9z m-2084 -91 c21 -21 20 -44 -7 -86 -31 -49
-114 -32 -114 23 0 70 75 109 121 63z m1651 -66 c22 -19 23 -46 3 -63 -16 -13
-48 -6 -70 16 -19 19 -19 29 1 48 20 21 43 20 66 -1z m-2052 -43 c17 -33 -4
-62 -43 -58 -25 2 -33 8 -35 26 -7 48 56 73 78 32z m150 10 c12 -7 12 -13 4
-27 -23 -38 -66 -19 -50 22 6 17 24 19 46 5z m1805 -79 c8 -25 -3 -49 -26 -56
-25 -8 -39 2 -39 29 0 42 53 65 65 27z m-1444 -24 c21 -15 94 -135 126 -204
20 -44 24 -68 24 -142 -1 -140 -13 -175 -90 -252 -75 -75 -184 -135 -224 -125
-27 6 -74 54 -217 216 -155 177 -181 230 -146 297 33 64 87 96 306 179 119 45
190 55 221 31z m1389 -63 c0 -8 -5 -12 -10 -9 -6 4 -8 11 -5 16 9 14 15 11 15
-7z m-98 -181 c10 -9 18 -29 18 -44 0 -15 11 -40 24 -56 40 -48 286 -190 307
-178 5 4 7 11 4 16 -13 20 13 7 39 -19 33 -35 43 -87 26 -138 -19 -57 -109
-203 -203 -329 -100 -134 -131 -154 -212 -136 -58 13 -400 177 -453 217 -75
58 -81 138 -15 233 24 35 47 57 61 59 26 4 106 112 158 215 40 78 96 144 139
163 41 18 85 17 107 -3z m2222 -188 c91 -19 165 -68 194 -126 12 -24 20 -44
19 -46 -2 -1 -31 7 -66 17 -96 30 -289 25 -258 -7 4 -4 26 -6 47 -4 109 8 272
-59 342 -139 127 -145 219 -436 187 -589 -9 -44 -20 -65 -54 -98 -23 -24 -46
-43 -51 -43 -5 0 -8 34 -6 75 4 87 -19 219 -49 277 -26 52 -43 50 -36 -4 3
-24 11 -83 17 -133 25 -184 -13 -290 -119 -337 -43 -20 -103 -19 -116 2 -3 5
3 28 12 52 14 34 18 72 18 178 0 142 -14 220 -40 220 -12 0 -15 -23 -13 -137
1 -148 -13 -224 -54 -292 -38 -62 -111 -87 -171 -60 -35 16 -51 50 -43 96 15
90 18 202 6 256 -15 74 -63 170 -102 202 -40 34 -59 20 -36 -28 14 -29 14 -35
1 -52 -8 -11 -26 -42 -39 -68 -59 -114 -161 -187 -262 -187 -46 0 -58 4 -83
29 -16 16 -29 39 -29 51 0 12 25 47 59 83 105 109 116 129 155 266 15 52 36
112 48 134 32 63 101 130 178 172 114 63 67 82 -59 24 -35 -16 -66 -27 -69
-25 -2 3 -1 21 2 40 21 111 189 210 366 215 19 0 66 -6 104 -14z m-2988 -10
c121 -24 175 -59 142 -91 -28 -28 -288 30 -288 64 0 45 28 50 146 27z m1636
-92 c48 -43 -19 -143 -75 -111 -45 25 -40 79 11 111 34 21 41 21 64 0z m-1650
-40 c76 -21 138 -41 138 -45 0 -23 -231 17 -277 47 -21 14 -24 34 -5 35 4 1
69 -16 144 -37z m-49 -72 c60 -16 110 -31 112 -33 2 -1 -35 -159 -83 -350
l-85 -348 -36 1 c-20 0 -72 10 -116 22 -64 18 -81 26 -83 42 -2 12 36 170 83
353 47 183 85 335 85 337 0 8 12 6 123 -24z m1447 -76 c35 -18 47 -54 29 -87
-28 -52 -67 -61 -104 -23 -34 33 -33 77 1 104 32 25 36 25 74 6z m-2193 -51
c9 -23 -13 -40 -32 -24 -12 10 -13 16 -4 26 15 18 28 18 36 -2z m421 -22 c4
-26 -22 -40 -43 -22 -11 9 -12 17 -4 32 13 25 43 19 47 -10z m-528 -32 c8 -15
6 -24 -10 -40 -11 -11 -24 -20 -29 -20 -18 0 -33 30 -27 55 8 31 50 35 66 5z
m359 -20 c10 -5 24 -22 30 -39 10 -24 10 -34 -3 -59 -17 -34 -33 -42 -81 -42
-24 0 -39 7 -54 26 -28 36 -26 60 8 95 30 30 67 37 100 19z m2111 -40 c11 -11
20 -26 20 -34 0 -22 -40 -66 -61 -66 -25 0 -59 35 -59 60 0 26 34 60 60 60 11
0 29 -9 40 -20z m-2358 -127 c10 -9 18 -25 18 -35 0 -25 -44 -68 -68 -68 -27
0 -72 38 -72 61 0 49 82 78 122 42z m1954 -19 c16 -63 -36 -193 -101 -253 -53
-49 -97 -59 -161 -37 -48 16 -134 63 -134 72 0 3 19 2 43 -1 96 -15 159 25
269 167 33 43 64 78 69 78 5 0 12 -11 15 -26z m-886 -3 c22 -42 -20 -75 -53
-43 -16 16 -17 23 -8 41 15 26 47 27 61 2z m1114 -72 c15 -12 26 -30 26 -45 0
-28 -41 -74 -65 -74 -18 0 -65 43 -65 60 0 18 29 68 42 73 24 10 35 7 62 -14z
m-1891 -17 c25 -22 18 -61 -15 -85 -35 -26 -86 -14 -108 26 -36 63 63 111 123
59z m1002 -77 c48 -47 23 -145 -35 -145 -48 0 -110 52 -110 91 0 10 12 31 26
48 33 40 83 43 119 6z m-1590 -237 c40 -19 45 -26 45 -54 0 -66 49 -100 214
-150 108 -33 107 -33 99 21 -7 55 -12 54 152 20 461 -94 1234 -129 1700 -75
44 5 100 10 125 12 l45 3 5 -45 c6 -53 2 -53 154 -13 124 33 156 54 170 112 9
37 17 46 49 58 21 9 40 14 42 11 3 -2 2 -34 -2 -71 -7 -80 -25 -103 -118 -147
-428 -204 -1727 -198 -2383 12 -167 53 -296 121 -324 171 -10 18 -29 157 -21
157 1 0 23 -10 48 -22z m815 -498 c30 -5 120 -14 200 -20 80 -6 156 -13 170
-17 14 -3 179 -8 368 -12 l343 -6 53 -125 c59 -141 175 -375 212 -429 13 -20
24 -40 24 -46 0 -5 -14 -37 -30 -69 -17 -32 -30 -73 -30 -90 1 -46 35 -115 84
-166 38 -40 44 -53 55 -119 6 -41 25 -115 41 -163 17 -49 30 -96 30 -104 0
-14 -21 -15 -177 -8 -98 5 -436 8 -750 8 l-573 0 0 126 c0 148 -15 222 -66
322 -35 70 -36 73 -24 125 6 30 9 71 5 93 -9 52 -56 115 -105 140 l-40 20 0
133 c0 149 16 346 31 395 l11 33 56 -6 c32 -4 82 -10 112 -15z m-495 -55 c48
-32 131 -62 183 -67 l43 -3 2 -249 c2 -246 2 -249 -20 -266 -50 -39 -158 -32
-207 13 -31 28 -44 87 -52 229 -6 101 3 368 12 368 2 0 19 -11 39 -25z m2085
-208 c25 -61 72 -169 106 -238 34 -69 67 -142 74 -163 11 -36 11 -39 -16 -67
-45 -47 -146 -64 -204 -34 -56 29 -145 164 -258 390 -85 171 -84 162 -14 157
71 -5 151 11 212 42 25 13 47 24 50 25 3 0 25 -50 50 -112z m-2180 -326 c0
-78 93 -131 229 -131 89 0 131 21 151 78 l16 42 34 -35 c31 -32 35 -42 35 -90
0 -67 -23 -94 -103 -120 -72 -23 -213 -24 -299 -2 -155 40 -245 125 -217 206
11 31 97 91 130 91 21 0 24 -5 24 -39z m2495 -30 c22 -10 55 -34 73 -55 26
-30 32 -45 32 -81 0 -65 -47 -114 -164 -170 -110 -52 -162 -65 -259 -65 -96 0
-151 27 -184 90 -26 50 -29 87 -9 134 l14 34 44 -42 c54 -52 114 -71 198 -63
79 7 157 50 183 101 20 38 20 38 -1 82 -12 25 -22 47 -22 49 0 12 58 3 95 -14z
m-2661 -225 c93 -28 186 -106 186 -158 0 -24 -28 -48 -55 -48 -14 0 -50 22
-90 56 -81 69 -171 124 -202 124 -38 0 -26 16 20 27 61 15 88 15 141 -1z
m2977 -95 c159 -119 312 -273 245 -248 -8 3 -31 9 -51 13 -28 5 -39 13 -49 38
-15 37 -67 83 -102 92 -13 3 -24 14 -24 23 0 29 -37 77 -71 94 -19 8 -58 19
-87 23 -29 4 -51 9 -50 13 2 3 10 18 17 34 8 15 17 27 20 27 3 0 72 -49 152
-109z m-2327 17 c25 -44 66 -175 66 -214 0 -11 -10 -30 -22 -41 -32 -29 -151
-87 -293 -143 -157 -62 -257 -92 -422 -126 -20 -4 -21 -1 -16 31 5 32 -9 133
-24 173 -5 10 -2 13 6 8 39 -24 134 31 146 84 6 27 11 30 43 30 38 0 97 29
119 59 17 22 16 80 -2 115 -20 37 -20 37 16 24 48 -17 234 -4 294 20 28 11 53
20 57 21 4 1 18 -18 32 -41z m-844 -10 c81 -24 188 -104 210 -158 18 -44 -7
-80 -55 -80 -30 0 -48 12 -120 79 -46 43 -109 91 -140 107 -30 16 -55 31 -55
34 0 3 12 12 28 22 28 17 65 16 132 -4z m3079 -42 c62 -33 57 -43 -26 -50
-111 -10 -212 -48 -292 -108 -28 -22 -60 -23 -86 -4 -18 13 -18 17 -6 40 49
90 317 170 410 122z m-3255 -55 c92 -45 188 -137 225 -215 36 -74 48 -154 31
-195 -10 -25 -18 -30 -63 -35 -203 -22 -389 -14 -557 25 -151 35 -239 103
-220 169 36 125 144 234 273 276 27 9 78 13 143 11 91 -2 107 -6 168 -36z
m2742 -31 c20 0 22 -4 21 -46 -2 -40 2 -49 31 -75 18 -16 41 -29 52 -29 16 0
20 -7 20 -30 0 -20 11 -42 34 -67 l33 -37 -33 -44 c-19 -24 -37 -61 -40 -83
-4 -21 -10 -39 -13 -39 -4 0 -26 16 -49 36 -55 47 -112 165 -146 303 -14 57
-26 108 -26 114 0 6 18 7 46 3 26 -3 57 -6 70 -6z m650 -50 c58 -36 43 -53
-61 -65 -100 -13 -200 -43 -288 -87 -56 -28 -60 -28 -78 -12 -10 9 -19 25 -19
34 0 25 59 76 122 105 124 57 256 67 324 25z m197 -135 c88 -23 176 -72 233
-131 91 -93 92 -150 3 -210 -92 -61 -237 -94 -414 -94 -166 1 -360 44 -453
100 -40 24 -46 39 -38 86 31 161 432 311 669 249z m-2493 -65 c0 -87 -6 -93
-155 -165 -445 -214 -1073 -276 -1409 -139 -96 39 -136 91 -136 177 0 27 13
36 25 17 4 -6 32 -23 63 -39 193 -97 577 -116 921 -46 216 44 484 144 626 233
28 17 53 32 58 32 4 0 7 -31 7 -70z m1744 -266 c91 -57 211 -110 311 -135 78
-21 113 -24 270 -23 167 0 186 2 270 28 99 30 154 59 204 105 18 17 35 31 38
31 3 0 3 -27 1 -60 -5 -73 -32 -105 -118 -144 -127 -57 -198 -69 -410 -69
-179 0 -203 2 -295 26 -117 31 -245 90 -299 137 -44 39 -73 92 -82 152 l-7 43
29 -26 c16 -15 56 -44 88 -65z"/>
<path d="M4596 7690 c-18 -46 -20 -60 -7 -60 11 0 51 82 44 93 -10 16 -22 5
-37 -33z"/>
<path d="M5866 7394 c-9 -8 -16 -20 -16 -25 0 -14 33 -10 55 7 17 13 18 16 5
24 -21 13 -26 12 -44 -6z"/>
<path d="M5782 7287 c-20 -21 -30 -57 -16 -57 11 0 84 62 84 71 0 18 -47 8
-68 -14z"/>
<path d="M5007 7430 c-21 -22 -37 -45 -37 -50 0 -12 2 -12 34 0 21 8 28 6 40
-11 8 -13 19 -18 26 -14 16 10 7 83 -13 102 -12 12 -19 8 -50 -27z"/>
<path d="M4157 7404 c-10 -11 -8 -87 3 -104 14 -23 22 -6 24 51 1 48 -10 70
-27 53z"/>
<path d="M5380 7304 c-26 -31 23 -64 53 -35 4 4 -3 17 -16 29 -22 21 -25 21
-37 6z"/>
<path d="M3350 6970 c-41 -41 -18 -90 60 -130 104 -53 519 -157 758 -190 83
-11 83 -11 115 16 18 15 54 37 81 50 31 14 44 25 35 28 -7 3 -72 15 -144 26
-364 57 -731 146 -847 206 -34 18 -34 18 -58 -6z"/>
<path d="M7365 6754 c-223 -62 -825 -114 -1312 -114 l-123 0 47 -42 c26 -24
58 -56 72 -72 l25 -29 245 7 c413 12 675 34 904 77 186 34 247 67 247 130 0
62 -15 68 -105 43z"/>
<path d="M4443 6685 c-69 -19 -123 -56 -160 -108 -40 -56 -47 -81 -28 -97 13
-11 29 -6 102 31 l86 44 116 0 116 0 85 -42 c73 -36 87 -40 99 -28 33 33 -54
135 -155 182 -70 32 -185 40 -261 18z"/>
<path d="M4891 6585 c12 -19 24 -37 28 -39 6 -4 124 -14 377 -31 l91 -6 26 40
27 40 -43 5 c-51 6 -426 26 -484 26 l-42 0 20 -35z"/>
<path d="M5565 6596 c-99 -41 -182 -152 -130 -173 9 -3 44 7 78 23 47 21 82
29 146 32 138 8 231 -23 323 -106 36 -32 40 -34 55 -19 23 23 10 73 -35 132
-28 38 -56 59 -114 89 -69 35 -85 39 -169 43 -83 3 -101 1 -154 -21z"/>
<path d="M4495 6411 c-83 -21 -171 -95 -216 -182 -87 -172 -89 -427 -4 -621 6
-14 2 -18 -17 -18 -42 0 -124 -29 -143 -50 -16 -18 -17 -22 -4 -35 12 -12 20
-12 59 2 106 38 257 26 412 -33 78 -30 90 -41 92 -92 6 -115 144 -199 261
-160 32 11 40 18 40 38 0 24 -2 25 -61 22 -69 -4 -109 11 -143 54 -42 53 -36
136 13 169 30 21 99 18 157 -6 67 -29 87 -13 39 31 -17 16 -36 30 -40 30 -5 0
-20 4 -34 10 l-25 9 18 53 c32 94 46 190 46 323 0 150 -20 225 -80 307 -85
116 -243 180 -370 149z m180 -82 c31 -11 68 -32 83 -45 l27 -23 -30 -1 c-43
-1 -105 -32 -142 -71 -38 -41 -82 -126 -90 -174 l-6 -35 29 15 c37 19 77 19
114 0 74 -38 64 -135 -17 -166 -38 -14 -57 -11 -97 16 -20 14 -40 25 -43 25
-11 0 7 -128 26 -182 10 -31 31 -74 46 -98 14 -23 24 -44 22 -47 -3 -2 -42 7
-87 21 -44 14 -95 26 -111 26 -27 0 -33 6 -55 54 -92 202 -55 505 78 638 69
69 152 85 253 47z"/>
<path d="M5565 6313 c-172 -62 -277 -231 -292 -468 -10 -157 21 -287 96 -403
l39 -60 -24 -23 c-24 -22 -32 -53 -16 -63 5 -3 51 16 103 42 103 52 185 75
352 99 129 19 212 10 301 -30 46 -21 57 -23 66 -11 26 31 -95 104 -173 104
-14 0 -17 4 -12 18 60 143 81 348 50 481 -32 134 -119 246 -231 298 -75 34
-189 41 -259 16z m203 -67 c45 -16 112 -57 112 -69 0 -5 -5 -5 -10 -2 -17 11
-106 -24 -152 -59 -44 -34 -86 -99 -113 -176 -14 -39 -14 -42 3 -35 9 4 43 10
74 13 55 4 59 3 93 -31 21 -21 35 -45 35 -60 0 -36 -36 -75 -80 -87 -46 -12
-83 -5 -124 23 l-29 20 5 -95 c3 -81 8 -105 33 -155 l30 -60 -85 -26 -85 -26
-22 27 c-112 135 -133 418 -44 608 38 81 119 165 181 187 57 20 126 21 178 3z"/>
<path d="M4030 6131 c0 -27 19 -36 37 -18 18 18 9 37 -18 37 -12 0 -19 -7 -19
-19z"/>
<path d="M3723 6113 c-32 -12 5 -63 46 -63 32 0 39 29 12 52 -23 18 -36 21
-58 11z"/>
<path d="M3843 6055 c-8 -22 14 -36 52 -33 22 2 30 8 30 23 0 16 -8 21 -38 23
-27 2 -39 -1 -44 -13z"/>
<path d="M6354 6045 c-9 -22 14 -37 38 -24 19 10 25 29 9 29 -5 0 -16 3 -25 6
-10 4 -18 -1 -22 -11z"/>
<path d="M3994 5995 c-9 -23 15 -45 47 -45 22 0 29 5 29 20 0 34 -65 55 -76
25z"/>
<path d="M6724 5915 c-9 -23 3 -45 25 -45 29 0 36 18 15 41 -21 23 -33 24 -40
4z"/>
<path d="M6320 5889 c0 -17 5 -20 32 -17 22 2 34 9 36 21 3 14 -4 17 -32 17
-30 0 -36 -4 -36 -21z"/>
<path d="M6444 5859 c-9 -15 12 -33 30 -26 9 4 16 13 16 22 0 17 -35 21 -46 4z"/>
<path d="M3964 5335 c-9 -23 3 -45 25 -45 25 0 34 14 26 40 -7 23 -43 27 -51
5z"/>
<path d="M5710 5275 c-13 -15 -7 -46 17 -83 8 -13 12 -29 10 -36 -13 -33 -229
-117 -354 -137 -115 -19 -387 -16 -508 5 -200 35 -382 114 -434 188 -28 41
-42 46 -61 23 -30 -36 37 -114 150 -174 51 -27 60 -36 60 -59 0 -41 37 -167
66 -225 42 -84 112 -175 167 -218 101 -80 184 -109 317 -109 148 0 271 41 376
127 147 118 230 257 284 470 l10 41 88 -1 c83 -2 87 -1 90 21 3 16 -2 22 -15
22 -39 0 -123 31 -153 57 -17 14 -40 43 -51 64 -20 41 -39 49 -59 24z m-152
-485 c17 -7 32 -19 32 -27 0 -23 -138 -155 -195 -187 -98 -54 -159 -68 -275
-64 -81 3 -117 9 -157 27 -68 30 -98 62 -84 89 16 31 81 83 130 105 45 20 171
30 187 15 4 -5 2 -19 -4 -33 -18 -40 2 -37 44 6 39 40 76 65 124 80 32 11 156
4 198 -11z"/>
<path d="M4023 5221 c11 -104 59 -196 117 -226 50 -26 170 13 170 55 0 14 -24
12 -70 -6 -80 -32 -130 9 -180 147 -17 49 -34 89 -37 89 -3 0 -3 -27 0 -59z"/>
<path d="M6380 5179 c-37 -59 -162 -202 -190 -216 -29 -15 -57 -2 -70 33 -12
30 -36 31 -51 2 -10 -19 -8 -25 20 -50 36 -32 59 -35 107 -12 58 28 200 197
219 262 10 35 -8 25 -35 -19z"/>
<path d="M4817 4433 c-27 -26 51 -111 142 -156 60 -29 74 -32 156 -32 70 1
103 6 148 24 69 27 147 95 129 113 -8 8 -29 3 -84 -22 -62 -29 -87 -35 -163
-38 -108 -5 -176 16 -255 79 -50 39 -61 44 -73 32z"/>
<path d="M6333 4683 c-34 -60 -117 -177 -154 -221 -32 -36 -37 -67 -13 -76 28
-11 50 11 129 130 64 96 79 125 83 165 6 63 -9 63 -45 2z"/>
<path d="M6523 4702 c25 -27 134 -85 141 -74 6 10 -98 76 -137 88 -21 6 -22 6
-4 -14z"/>
<path d="M6638 4533 c-8 -10 -26 -39 -41 -64 -14 -25 -53 -82 -85 -126 -65
-87 -76 -111 -63 -132 16 -25 51 0 111 81 119 160 154 237 114 252 -21 8 -19
9 -36 -11z"/>
<path d="M4301 4435 c-137 -55 -169 -74 -157 -94 13 -20 54 -12 181 35 69 25
131 44 139 41 7 -3 27 -30 45 -61 30 -54 51 -71 51 -42 0 7 -9 24 -19 38 -11
13 -23 41 -27 62 -8 43 -35 76 -61 76 -10 0 -78 -25 -152 -55z"/>
<path d="M4375 4303 c-94 -49 -85 -100 43 -237 49 -52 77 -58 130 -26 42 26
42 55 -4 150 -59 124 -98 151 -169 113z"/>
<path d="M4116 4213 c-26 -26 13 -96 114 -210 84 -95 100 -106 125 -97 27 11
16 34 -58 117 -40 45 -87 103 -105 129 -33 48 -64 73 -76 61z"/>
<path d="M5651 4165 c-32 -28 -147 -232 -136 -243 10 -10 38 12 73 59 111 150
124 155 223 82 35 -26 100 -70 144 -98 96 -63 109 -77 101 -110 -9 -35 -32
-42 -54 -17 -27 32 -154 112 -179 112 -26 0 -70 -51 -108 -125 -42 -84 -45
-81 133 -163 76 -35 85 -38 110 -25 73 36 180 203 167 261 -8 38 -17 45 -144
121 -57 34 -135 87 -174 117 -79 62 -109 67 -156 29z"/>
<path d="M5461 3834 c-25 -32 -27 -71 -5 -102 8 -12 63 -45 120 -73 58 -28
139 -71 180 -95 75 -45 110 -52 145 -34 24 14 25 40 1 33 -17 -4 -339 154
-374 184 -10 9 -18 33 -20 61 -4 54 -18 63 -47 26z"/>
<path d="M5380 3670 c0 -17 43 -50 67 -50 32 0 29 11 -12 38 -37 24 -55 28
-55 12z"/>
</g>
</svg>
