<?xml version="1.0" encoding="utf-8"?>
<!-- Generator: Adobe Illustrator 26.4.1, SVG Export Plug-In . SVG Version: 6.00 Build 0)  -->
<svg version="1.1" id="Capa_3" xmlns="http://www.w3.org/2000/svg" xmlns:xlink="http://www.w3.org/1999/xlink" x="0px" y="0px"
	 viewBox="0 0 369.3 528.4" style="enable-background:new 0 0 369.3 528.4;" xml:space="preserve">
<style type="text/css">
	.st0{fill:none;stroke:#000000;stroke-linecap:round;stroke-miterlimit:10;}
	.st1{fill:none;stroke:#000000;stroke-width:0.726;stroke-linecap:round;stroke-miterlimit:10;}
</style>
<g>
	<g transform="translate(0.000000,896.000000) scale(0.100000,-0.100000)">
		<path d="M2173.9,8469.4c-66.4-33.2-112.4-97.9-119.1-171.8c-0.1-0.6-0.1-1.2-0.2-1.8c-3-30-13-112-23-184c-17-130-17-130-136-142
			c-277-29-480-118-654-287c-118-113-194-241-237-398c-9-32-19-58-23-58s-19-10-35-23c-36-29-101-206-88-241c11-26,71-81,99-90
			c11-4,22-12,25-19c2-7,24-188,48-403c49-442,52-410-36-450c-53-25-114-31-146-14c-16,9-18,18-13,48c4,24,0,51-9,74
			c-9,20-15,65-15,100c0,43-7,77-21,108c-28,61-27,116,4,174c46,87,23,156-58,171c-80,15-157-64-157-162c0-43,0-43-62-43
			c-113,0-186-66-173-155c3-22,1-55-4-73c-7-24-6-46,4-80c8-26,15-60,15-75c0-61,47-112,125-137c22-7,52-23,68-36c15-12,48-26,75-30
			c30-4,63-19,90-40c93-71,206-81,318-30c31,15,59,24,61,22c3-2,18-129,34-283c17-163,38-305,49-344c35-117,137-227,276-297
			c40-20,40-22,52-97c7-42,24-110,38-151c25-74,25-74,5-100c-12-15-21-34-21-43c0-23-20-41-44-41c-12,0-37-10-56-22
			c-25-16-57-24-117-28c-65-5-89-11-121-33c-48-31-90-97-100-157c-7-41-9-43-65-60c-78-24-109-46-105-73c9-62,237-111,641-138
			c241-16,893-7,1087,15c265,30,416,71,444,119c16,26-20,52-108,78c-39,12-76,27-82,33c-6,6-19,33-28,60c-24,72-77,163-143,241
			c-32,39-68,85-78,102c-20,34-68,63-104,63c-11,0-27,10-35,23c-14,22-56,138-56,156c0,5,35,26,77,47c106,53,202,144,248,236
			c19,39,35,77,35,84c0,28,17,13,29-25c13-44,61-91,93-91c11,0,35-9,52-19c40-25,213-27,264-4c84,40,114,170,53,237
			c-21,24-32,73-35,161c-2,49,2,66,21,93c36,49,72,133,79,185c10,68-11,129-63,187c-65,72-148,109-328,147c-49,10-50-28,13,423
			c47,334,47,334,86,356c99,56,115,95,76,182c-10,23-22,58-26,77c-4,24-21,50-50,77c-24,23-44,49-44,57c0,9-13,53-29,98
			c-100,288-357,505-691,586c-47,11-89,23-93,27s-1,63,8,131c18,137,44,209,84,236c14,9,170,70,345,135c176,64,323,123,328,130
			c16,26,8,94-15,129c-35,52-63,49-287-37c-107-41-249.7-106.4-318.7-133.4L2173.9,8469.4z M2939.7,8711.8c12-11,20-31,20-52
			c0-18-4-33-10-33c-15,0-30,36-30,71C2919.7,8728.8,2919.7,8729.8,2939.7,8711.8z M657.7,5916.8c-22,0-21,2,10,26
			c17,14,32,32,32,40c0,18-5,18-36-2c-54-36-189-10-239,46c-20,22-38,111-37,175c1,22,1,65,2,97c0,50,3,59,30,81
			c37,31,102,43,158,28c47-13,69-32,78-67c9-37-8-50-47-34c-56,23-179,10-179-19c0-5,36-11,79-12c98-5,136-27,136-80
			c0-32-2-34-30-32c-121,10-175,4-175-21c0-11,15-14,58-13c62,2,117-16,127-40c16-44-37-80-101-68c-27,5-35,3-32-7c7-22,57-40,93-34
			c53,10,85,47,85,100c0,24,8,58,17,74c15,27,16,35,4,67c-11,31-10,41,4,71c21,44,7,95-35,126c-35,25-45,63-31,114
			c21,76,94,111,136,64c17-19,17-22-10-82c-40-88-42-131-11-201c34-76,34-138,0-202c-27-51-20-80,11-45c27,29,35,25,35-19
			C789.7,5985.8,719.7,5916.8,657.7,5916.8z M1034.7,5909.8c-8-66-8-66-54-82c-59-19-136-14-191,14c-57,29-69,44-46,57
			c9,5,28,20,42,33c22,21,30,23,47,13c31-16,129-13,163,6c16,8,33,15,37,16C1037.7,5966.8,1037.7,5940.8,1034.7,5909.8z
			 M2985.7,6759.8c-3-32-24-186-46-343c-21-157-40-296-42-309c-3-23-32-51-42-40c-3,3,15.8,138.6,36,303c33.9,275.8,41,298,21,324
			c-11,15-36,36-56,47s-37,23-37,26c0,6,127,46,154,48C2990.7,6816.8,2991.7,6811.8,2985.7,6759.8z M1134.8,6538.1
			c-7.7,69.7-10.9,118.2-4.3,137.8c10.6,31.6,37.4,57.8,68.9,71c9.5,9.5,22.3,15.8,35.4,16c0,0,758.7-121.6,1483.5-29
			c50.3,6.4,95.8-10.8,121-38.8c26.2-18,38.5-47.6,41.8-79.7c8.5-83.8-7.6-99.1-16.7-181.2c-20.6-185.8-27.3-180.7-44.8-270
			c-9.7-49.6-29.4-209.7-38.4-259.4c-3.9-73.5-11-99.6-17.6-138.1c-2-14-17-127-34-252c-17-132-39-250-50-281
			c-39-104-113-177-241-237c-141-65-330-90-548-71c-234,19-391,74-491,171c-75,73-100,135-122,309 M2207.8,6696.9 M2603.7,7091.8
			c24-33,43-62,40-66c-2-3-25-9-51-13c-42-6-53-3-103,28c-59,36-84,46-128,50c-28,3-40,29-24,53c12,19,242,121,274,122
			c15,1,34-6,42-15c46-45,147-186,140-193c-7-7-92-31-107-31c-2,0-20,26-40,59c-42,67-58,83-75,72
			C2562.7,7152.8,2572.7,7133.8,2603.7,7091.8z M2119.7,7185.8c0,14,3,36,6,49c7,25,17,26,177,15c53-3,97-9,97-13s-18-15-40-25
			c-22-10-47-28-55-41c-13-20-24-24-69-24C2144.7,7146.8,2119.7,7154.8,2119.7,7185.8z M2224.7,7016.8c0-18-6-26-23-28
			c-24-4-38,18-28,44c3,9,15,14,28,12C2218.7,7042.8,2224.7,7034.8,2224.7,7016.8z M2139.7,7308.8c0,11,46,10,215-3
			c143-11,172-15,162-25C2507.7,7271.8,2139.7,7298.8,2139.7,7308.8z M2312.7,7022.8c33,28,63,30,112,7c19-9,35-20,35-24
			c0-10-93-18-110-9c-8,5-23,4-33-2C2285.7,6978.8,2282.7,6996.8,2312.7,7022.8z M2788.7,7159.8c-20,26-20,27-1,27c10,0,43-8,73-19
			c72-25,109-43,109-52c0-4-24-17-52-28c-53-20-53-20-81,12C2820.7,7117.8,2799.7,7143.8,2788.7,7159.8z M2772.7,7231.8
			c-44,7-69,25-36,25c10,0,52-9,93-21c91-25,170-58,170-71c0-6-8-7-17-3C2924.7,7186.8,2808.7,7225.8,2772.7,7231.8z M2228.7,7916.8
			c10,0,58-11,106-25c277-81,477-233,590-450c36-68,81-202,72-211c-3-3-36,6-74,19c-130,47-389,88-651,103c-67,3-124,10-127,13
			c-2,4,7,92,21,197c25,192,33,214,72,214c23,0,80,30,86,46c10,27-6,44-60,61C2209.7,7900.8,2192.7,7916.8,2228.7,7916.8z
			 M2206.7,7849.8c8,9,7,9,40-4c22-8,24-12,13-19C2224.7,7804.8,2180.7,7824.8,2206.7,7849.8z M2281.7,8475.8c3,14,543,228,579,230
			c11,1,22-15,32-46c9-27,13-51,9-54c-11-10-553-209-569-209C2316.7,8396.8,2278.7,8455.8,2281.7,8475.8z M2228.7,8466.8
			c5,0,18-19,30-42c20-43,20-43-9-10C2219.7,8446.8,2211.7,8466.8,2228.7,8466.8z M2165.7,8437.8c5,8,16,2,35-22c16-19,29-38,29-42
			c0-11-32,8-54,31C2165.7,8416.8,2160.7,8430.8,2165.7,8437.8z M2167.7,8365.8c13-16,20-29,15-29c-17,0-53,31-53,46
			C2129.7,8403.8,2141.7,8398.8,2167.7,8365.8z M2149.7,8311.8c19-14,28-25,21-25c-19,0-71,29-71,40
			C2099.7,8342.8,2113.7,8338.8,2149.7,8311.8z M2065.7,8041.8c28,225,29,229,47,221c6-2,32-10,56-17c42-12,43-13,38-48
			c-3-20-16-112-28-206c-12-93-25-173-29-178c-3-4-30-10-58-14C2028.7,7792.8,2030.7,7771.8,2065.7,8041.8z M2024.7,7734.8
			c5,20,11,22,66,22c60,0,60,0,55-32c-3-18-27-190-52-383c-25-192-50-353-56-356c-6-4-18-5-27-3c-72,14-71,13-71,51
			C1939.7,7070.8,2015.7,7690.8,2024.7,7734.8z M1932.7,7802.8c-74,8-143,25-143,34c0,15,48,24,188,39c7,0,15-5,18-12c3-8,0-26-5-40
			C1980.7,7798.8,1977.7,7797.8,1932.7,7802.8z M1123.7,7459.8c82,146,236,288,399,367c96,46,244,87,354,99c113,12,123,12,123,1
			c0-5-6-10-13-10s-50-5-96-10c-91-12-156-34-165-56c-14-36,72-75,197-89c42-5,57-11,57-22c0-66-45-360-56-369c-8-6-81-14-166-17
			c-254-11-471-43-631-94c-43-13-81-22-84-19C1033.7,7249.8,1087.7,7395.8,1123.7,7459.8z M1460.7,7196.8c-4,0-32-36-61-81
			c-53-80-53-80-94-73c-23,3-45,8-49,11s29,45,74,94c100,109,110,111,219,41c41-27,90-63,109-81c35-32,35-32-10-72
			c-48-42-39-42-186-19c-40,7-73,16-73,20c0,5,21,38,46,74C1475.7,7169.8,1484.7,7196.8,1460.7,7196.8z M1181.7,7076.8
			c-20,0-112,41-112,50s54,30,135,54c55,16,95,20,95,9C1299.7,7176.8,1195.7,7076.8,1181.7,7076.8z M1693.7,7012.8
			c27,19,79,18,124-3c37-18,37-18-28-21c-35-2-76,0-90,3C1675.7,6997.8,1675.7,6998.8,1693.7,7012.8z M1788.7,7153.8
			c-107-6-107-6-163,35c-30,23-53,44-50,47c8,8,129,17,247,19c99,2,99,2,92-40c-4-24-10-46-14-49
			C1897.7,7161.8,1846.7,7156.8,1788.7,7153.8z M1772.7,7293.8c-82-4-184-9-228-12c-58-4-73-2-55,5c54,21,430,40,430,22
			C1919.7,7303.8,1853.7,7296.8,1772.7,7293.8z M1239.7,7246.8c52,12,100,23,105,25c12,3,28-5,22-11c-3-3-51-16-108-28
			c-57-13-128-33-158-45c-30-11-57-18-59-16C1031.7,7181.8,1147.7,7224.8,1239.7,7246.8z M959.7,7161.8c17,20,18,20,34-19
			c34-81,290-157,621-185c438-37,899-16,1192,54c148,35,222,74,238,125c8,25,21,26,34,2c42-79-233-171-639-214c-169-17-650-14-845,6
			c-282,29-498,83-592,147C956.7,7109.8,941.7,7139.8,959.7,7161.8z M899.7,6987.8c0,22,31,89,41,89c3,0,12-7,20-16
			c21-25,121-72,212-98c408-118,1256-124,1677-11c102,28,203,69,221,91c20,25,37,15,55-31c16-44,16-46-2-66c-58-64-284-133-574-175
			c-154-22-733-31-898-14C1246.7,6797.8,899.7,6904.8,899.7,6987.8z M1585.7,4756.8c14-6,41-10,60-10c19,0,36-6,38-12
			c16-53,58-185,62-195c8-17-32-35-61-27c-30,7-68,67-102,161C1552.7,4758.8,1552.7,4768.8,1585.7,4756.8z M1692.7,4418.8
			c-73,4-116,30-121,72c-5,38,22,44,50,11c46-53,159-41,166,18c4,34,21,31,42-6C1860.7,4459.8,1793.7,4413.8,1692.7,4418.8z
			 M1852.7,4389.8c17-62,17-73-3-93c-28-28-126-76-216-105c-105-34-114-33-114,10c0,28,4,35,20,35c11,0,27,11,36,25
			c11,17,25,25,45,25c33,0,41,10,42,56c1,34,1,34,51,35c28,0,67,6,86,13C1847.7,4408.8,1847.7,4408.8,1852.7,4389.8z M1502.7,4426.8
			c14,0,45-15,69-33c43-33,61-67,35-67c-8,0-22,10-33,21c-10,12-37,35-58,50C1478.7,4425.8,1477.7,4426.8,1502.7,4426.8z
			 M1525.7,4330.8c13-13,24-30,24-39c0-28-26-15-58,30c-17,25-36,45-42,45c-5,0-10,5-10,10
			C1439.7,4390.8,1496.7,4360.8,1525.7,4330.8z M1226.7,4355.8c42,22,97,26,140,10c66-25,113-97,113-175c0-37-15-44-101-44
			c-102,0-220,31-241,64C1118.7,4238.8,1173.7,4327.8,1226.7,4355.8z M1866.7,4233.8c-9-23-176-104-271-132c-111-32-231-41-321-26
			c-78,14-145,44-145,66c0,19,5,19,68-5c149-57,425-19,607,84C1866.7,4255.8,1875.7,4257.8,1866.7,4233.8z M2153.7,4253.8
			c-126,3-231,8-234,10c-6,5-27,114-38,198c-10,78-22,98-72,120c-42,19-45,25-97,208c-4,17,3,17,119,10c68-4,155-8,193-8
			c39,0,106,2,150,5c80,5,80,5,102-60c13-36,33-86,44-111c17-37,19-51,10-67c-18-34-13-82,15-129c18-31,27-64,31-113
			C2382.7,4247.8,2382.7,4247.8,2153.7,4253.8z M2427.7,4286.8c-3,55,8,61,31,15c9-19,11-33,4-44
			C2442.7,4226.8,2431.7,4235.8,2427.7,4286.8z M2829.7,4066.8c-65-49-227-60-318-20c-46,20-72,43-72,65c0,4,15-3,33-14
			c19-11,62-28,98-37c76-20,159-14,226,16C2848.7,4099.8,2866.7,4094.8,2829.7,4066.8z M2819.7,4133.8c-74-63-268-57-342,10
			c-28,25-22,48,24,88c67,57,172,79,259,55C2846.7,4262.8,2877.7,4181.8,2819.7,4133.8z M2509.7,4306.8c0,5,10,15,23,22
			c28,15,128,38,145,32c8-2,18-4,23-4s9-4,9-10c0-5-20-10-45-10s-68-9-97-20C2505.7,4293.8,2509.7,4293.8,2509.7,4306.8z
			 M2656.7,4499.8c13,14,24,5,69-55c25-35,52-75,60-90c14-26,13-28-6-28c-13,0-20,7-20,19c0,11-11,28-25,39c-14,11-25,27-25,36
			c0,9-13,25-30,34C2650.7,4471.8,2642.7,4486.8,2656.7,4499.8z M2663.7,4418.8c3-5-23-14-57-21c-33-7-74-19-89-27
			c-15-8-33-14-40-14c-23,0,7,20,68,45C2605.7,4426.8,2654.7,4433.8,2663.7,4418.8z M2564.7,4601.8c-8,30-8,30,16,14
			c13-9,30-27,38-40c11-21,11-29-2-62c-26-61-134-103-201-77c-31,11-60,54-52,76c5,13,11,12,37-10c41-35,106-36,144-3
			C2572.7,4523.8,2578.7,4551.8,2564.7,4601.8z M2491.7,4638.8c39-80,40-83,23-102c-43-48-101-8-155,106c-16,35-30,68-30,72
			c0,8,74,39,98,41c7,0,15-7,18-16C2448.7,4729.8,2469.7,4684.8,2491.7,4638.8z M2769.7,5215.8c-56-188-245-319-525-364
			c-116-19-353-19-480,0c-279,42-477,171-540,350c-16,47-197,1610-188,1627c2,4,25,0,51-8c26-8,59-17,75-21c36-7,34-17-7-41
			c-74-44-75,13,13-778c88-779,87-776,165-875c126-160,380-238,736-226c256,9,433,69,551,186c104,105,116,144,168,546
			c41,313,40,305,56,305c8,0,16-4,19-9C2873.7,5892.8,2790.7,5285.8,2769.7,5215.8z M2859.7,5451.8c0,19,51,420,56,433
			c5,15,30,11,133-20c101-31,127-69,98-141c-24-57-63-94-113-106c-50-13-94-49-94-79c0-10-18-36-40-57
			C2877.7,5460.8,2859.7,5446.8,2859.7,5451.8z M3297.7,5229.8c4-42-22-97-54-112c-39-17-98-13-127,9c-37,29-66,23-35-8
			c9-9,8-13-4-17c-21-8-72,19-93,47c-12,18-17,20-24,10c-14-22-43-9-65,28c-32,54-29,161,6,221c25,42,76,86,121,102
			c23,9,13,27-16,27c-22,1-22,1,2,20c28,24,96,27,144,6c32-13,93-74,83-83c-2-2-18,3-35,11c-16,9-35,16-41,16c-19,0-10-27,14-39
			c61-33,84-142,46-216c-24-47-24-45-2-45c10,0,23-5,30-12c13-13,14-10,16,37C3264.7,5273.8,3293.7,5271.8,3297.7,5229.8z
			 M3236.7,5576.8c-17,0-97,41-97,50c0,4,6,13,14,19c8,6,24,35,36,63c52,122-21,192-234,224c-55,8-103,17-108,20c-10,6-11,55-1,80
			c5,14,16,16,77,11c39-4,98-14,131-22c219-57,313-174,261-323C3297.7,5649.8,3250.7,5576.8,3236.7,5576.8z"/>
		<path d="M1439.7,7710.8c-30-20-77-57-103-83c-94-89-199-271-158-271c6,0,27,32,47,70c45,86,144,195,227,250c59,40,74,59,52,67
			C1498.7,7745.8,1469.7,7730.8,1439.7,7710.8z"/>
		<path d="M2529.7,7732.8c0-8,22-28,50-46c83-53,194-180,241-276c23-46,46-84,50-84c20,0,16,22-15,86c-59,124-152,228-271,307
			C2539.7,7750.8,2529.7,7752.8,2529.7,7732.8z"/>
		<path d="M2629.7,7180.8c0-21,52-94,68-94c17,0,15,25-4,41c-8,7-22,25-30,41C2647.7,7199.8,2629.7,7205.8,2629.7,7180.8z"/>
		<path d="M2465.7,7146.8c-66-16-101-40-57-40c32,0,125,21,136,31C2565.7,7158.8,2530.7,7162.8,2465.7,7146.8z"/>
		<path d="M1489.7,7148.8c0-12,34-42,48-42c16,0,15,23,0,38C1523.7,7158.8,1489.7,7160.8,1489.7,7148.8z"/>
		<path d="M1346.7,7121.8c-14-19-15-25-4-25c14,0,47,31,47,43C1389.7,7155.8,1363.7,7143.8,1346.7,7121.8z"/>
		<path d="M949.7,6977.8c0-16,56-50,123-76c92-34,203-61,347-84c159-25,230-29,230-13c0,4-62,16-137,26c-230,31-490,101-524,142
			C975.7,6988.8,949.7,6991.8,949.7,6977.8z"/>
		<path d="M3040.7,6962.8c-31-37-281-107-471-131c-184-23-191-25-184-37c13-21,329,24,481,68c113,33,213,79,213,98
			C3079.7,6980.8,3055.7,6981.8,3040.7,6962.8z"/>
		<path d="M3095.7,7820.8c-3-9-6-24-6-33c0-21-27-48-55-53c-27-5-26-32,1-36c28-4,51-30,56-62c4-34,32-32,36,2c3,28,44,68,69,68
			c21,0,10,24-13,29c-27,4-54,31-54,52c0,24-10,49-20,49C3105.7,7836.8,3098.7,7829.8,3095.7,7820.8z M3133.7,7733.8c8-13,6-21-7-34
			c-16-16-18-16-33-1c-13,13-14,20-4,37C3102.7,7759.8,3117.7,7759.8,3133.7,7733.8z"/>
		<path d="M796.7,7639.8c-4-3-7-16-7-28c0-25-24-49-58-60c-27-8-24-29,5-33c27-4,50-30,55-61c4-35,26-37,34-4c9,36,22,53,51,64
			s29,27,0,38s-44,29-52,64C817.7,7646.8,808.7,7652.8,796.7,7639.8z M829.7,7550.8c11-12,10-18-3-32c-16-15-18-15-34,0
			c-13,14-14,20-3,32c7,9,16,16,20,16S822.7,7559.8,829.7,7550.8z"/>
		<path d="M3234.7,6444.8c-9-40-32-68-56-68c-33,0-29-18,8-37c28-13,39-26,43-48c7-41,30-38,44,5c8,27,19,37,44,45
			c35,10,44,35,12,35c-25,0-53,32-60,67C3262.7,6482.8,3242.7,6482.8,3234.7,6444.8z M3273.7,6373.8c16-25-16-56-38-37
			c-19,15-20,32-4,48C3246.7,6399.8,3259.7,6395.8,3273.7,6373.8z"/>
		<path d="M865.7,5524.8c-3-7-6-22-8-33s-18-27-35-35c-36-16-44-40-15-40c22,0,48-27,54-55c5-31,31-23,40,13c7,25,15,34,39,39
			c44,8,44,20,2,40c-28,13-39,26-43,47C894.7,5531.8,872.7,5546.8,865.7,5524.8z M899.7,5450.8c11-12,10-18-3-32c-16-15-18-15-34,0
			c-13,14-14,20-3,32c7,9,16,16,20,16S892.7,5459.8,899.7,5450.8z"/>
		<path d="M2903.7,4929.8c-15-48-25-62-45-65c-29-4-36-26-12-35c28-10,53-34,53-53c0-10,7-23,15-30c13-11,16-8,21,18
			c7,34,29,58,58,63c29,6,31,27,2,35c-29,7-52,31-57,58C2933.7,4946.8,2910.7,4952.8,2903.7,4929.8z M2939.7,4860.8
			c11-12,10-18-3-32c-16-15-18-15-34,0c-13,14-14,20-3,32c7,9,16,16,20,16S2932.7,4869.8,2939.7,4860.8z"/>
	</g>
	<g>
		<path d="M233,342.4l16.7,19.2l-1-0.5l10.6,0.8c0.6,0,0.6,1,0,1c0,0-10.6,0.8-10.6,0.8s-0.6,0.1-0.6,0.1l-0.4-0.5l-15.3-20.3
			C231.8,342.6,232.5,342,233,342.4L233,342.4z"/>
	</g>
	<line class="st0" x1="228.4" y1="344.8" x2="217" y2="357.4"/>
	<g>
		<path d="M223.5,373.9c2.1,1.2,4.1,2.4,6,3.6c1.7,1.2,3.7,2.3,5.7,1c0.7-0.4,1.7-1.7,2.4-2.3c0.8-0.8,1.6-1.7,2.5-2.5
			c1.7-1.7,3.3-3.3,5.1-4.9c0.2-0.2,0.5-0.2,0.7,0c0.2,0.2,0.2,0.5,0,0.7c-1.5,1.8-3.1,3.5-4.7,5.2c-1.1,1.3-2.5,2.6-3.6,3.8
			c-1.6,2.2-5.1,2.8-7.3,1.1c-2.4-1.7-4.8-3.4-7.1-5.2C222.8,374.2,223.1,373.7,223.5,373.9L223.5,373.9z"/>
	</g>
	<path d="M175.5,310c4.4,0.2,9.1,2.6,9.1,5s-1.3,2.6-3,0.5c-1.6-2-7.4-1.9-9.4,0.1c-2.2,2.1-2,4,0.5,6.5c2,2,4.7,2.2,9.9,0.8
		c0.8-0.2,1.5,0.3,1.5,1.1c0,1.9-6.9,4.2-10.1,3.4c-1.3-0.3-3.6-2-5-3.7c-2.1-2.5-2.4-3.6-1.9-6.9
		C167.1,316.8,167.7,309.7,175.5,310z"/>
	<path d="M212.8,255.4c-2.7,2.5-3.4,3.8-2.6,4.6c0.8,0.8,1.9,0.8,3.8,0c5.9-2.2,14.7,0.1,19,4.9c1.9,2.1,4.6,2.9,4.6,1.3
		c0-0.4-1.3-2.9-3-5.5c-3.7-5.9-8.2-8.7-13.8-8.7C217.4,252,215.9,252.6,212.8,255.4z"/>
	<path d="M208.3,319.7c-0.4,0.3,0,1.4,0.8,2.3c1.4,1.6,1.4,1.9-0.7,3.2c-11.1,7.2-38.7,7.1-45.3-0.2c-2.3-2.5-3.5-2.5-3.5-0.1
		c0,1.8,5.2,7.1,7,7.1c0.5,0,2.7,3.4,5,7.5c6.8,12.2,10.3,15.5,18.2,17c5.1,1,12.7-1.8,17.2-6.1c4.2-4.1,7.2-9.6,9.6-17.4
		c1.3-4.2,2.1-5.4,3.4-5.2c1.3,0.2,1.7-0.2,1.4-2C220.9,322.3,210.5,317.4,208.3,319.7z M211.7,332.8c-0.7,1.3-3.6,2.8-7.8,4
		c-10.1,3.1-14.5,3.6-16.7,1.9c-3-2.2-1.2-3.4,5.8-3.9c4.2-0.4,8.7-1.6,12.8-3.5C212.3,328.2,213.9,328.7,211.7,332.8z M208.6,341.3
		c0,1.5-6.5,8-9.7,9.6c-3.1,1.6-10.6,1.4-12.9-0.4c-1.9-1.5-1.8-1.6,0.9-4c3.5-3.1,7.1-3.4,6.2-0.5c-0.9,3,1.2,2.5,4.1-1
		C200.5,341.1,208.6,338.5,208.6,341.3z"/>
	<path d="M149.3,266.7c-0.7,0.8-2,0-1.6-1c1.2-3.3,3.4-8,7.5-10.4c5.9-3.5,12.6-2.6,16.1,3.8c0.6,1.1-0.6,2.4-1.8,1.9
		c-2.4-1-6-1.9-10.9-0.3C153.8,262.3,151,264.8,149.3,266.7z"/>
	<path d="M202.4,307.7c-0.5-2.5-0.8-10,11.4-16c0,0,0,0,0.1,0c6.8-2.7,11-3.1,13.4-3.1c0.7,0,0.9,1.1,0.2,1.3
		c-2.1,0.8-5.1,2-7.3,3.6c-0.5,0.4-0.2,1.3,0.4,1.2c4.8-0.3,16.9-0.1,19.7,7.5c0.2,0.5-0.2,1-0.7,0.9c-4.1-0.5-19-3.8-36.2,4.9
		C203,308.4,202.5,308.2,202.4,307.7z"/>
	<path d="M166.2,268.4c0,0-8.3-1.9-9.8,14.7l7,6.9l-7.9,4.2l-1,6.8c0,0,12.1,0.7,18.3,8.2C173,308,180.8,272.4,166.2,268.4z"/>
	<path d="M164.7,302.3c-0.5-0.3-6.9-2.5-16-2.3c-0.6,0-0.8,1-0.1,1.2c4.5,0.8,8.5-1.2,23.6,8.1c0.5,0.3,1.1-0.2,0.8-0.8
		C172.3,307.3,170.4,305.3,164.7,302.3C164.7,302.4,164.7,302.3,164.7,302.3z"/>
	<path d="M230.6,334.6c-8.2,1.1-19.2,19.7-23.7,27.8c-1.3,2.4-1.1,5.3,0.6,7.4c7.7,9.4,25.8,22.4,31,23c5.9,0.7,28.2-27,27.8-33.2
		C266,353.4,241.1,333.1,230.6,334.6z M238.3,389.9c-4.7-0.5-21-12.2-28-20.7c-1.6-1.9-1.8-4.6-0.6-6.7c4-7.3,14-24.1,21.4-25.1
		c9.4-1.3,31.9,17,32.3,22.6C263.8,365.5,243.7,390.5,238.3,389.9z"/>
	<g>
		<path d="M150.8,347.1l12.4,13.7l-1.1-0.5l7.7,1c0.4,0,0.4,0.7,0,0.7c0,0-7.7,1-7.7,1s-0.6,0.1-0.6,0.1l-0.4-0.6l-10.8-15
			C150,347.2,150.5,346.8,150.8,347.1L150.8,347.1z"/>
	</g>
	<line class="st1" x1="147.5" y1="348.8" x2="139.2" y2="358"/>
	<path class="st1" d="M143.8,370.1l5.4,3.6c1.3,0.9,3.1,0.7,4.2-0.5l6.5-6.8"/>
	<path d="M149.1,341.4c-5.9,0.8-14,14.3-17.2,20.2c-1,1.7-0.8,3.9,0.5,5.4c5.6,6.9,18.7,16.2,22.5,16.7c4.3,0.5,20.4-19.6,20.2-24.1
		C174.8,355,156.7,340.3,149.1,341.4z M154.7,381.6c-3.4-0.4-15.3-8.9-20.3-15.1c-1.1-1.4-1.3-3.3-0.4-4.9
		c2.9-5.3,10.2-17.5,15.5-18.2c6.9-1,23.2,12.3,23.4,16.4C173.2,363.9,158.6,382,154.7,381.6z"/>
	<circle cx="129.5" cy="235.4" r="7.4"/>
	<circle cx="130.8" cy="254" r="2"/>
	<circle cx="258.8" cy="283.7" r="10.3"/>
	<circle cx="264.9" cy="253.2" r="4.5"/>
	<path d="M219.7,380.6L237,392h2.4l18.6-19.5c5.2,3.6,8.9,7.4,8.9,7.4s-16,36.5-94,24.2c-29.2-5.7-38.8-22.4-38.8-22.4
		s2.5-3.1,6.9-6.4l15,7.7l13.8-14.3c4.9,1.2,10.3,3.6,15.9,7.7c13.9,10.2,25.1,8.7,34.2,4.2"/>
</g>
</svg>
