<?xml version="1.0" encoding="utf-8"?>
<!-- Generator: Adobe Illustrator 26.4.1, SVG Export Plug-In . SVG Version: 6.00 Build 0)  -->
<svg version="1.1" id="Capa_1" xmlns="http://www.w3.org/2000/svg" xmlns:xlink="http://www.w3.org/1999/xlink" x="0px" y="0px"
	 viewBox="0 0 357.4 428.9" style="enable-background:new 0 0 357.4 428.9;" xml:space="preserve">
<g transform="translate(0.000000,461.000000) scale(0.100000,-0.100000)">
	<path d="M1931.5,4323.7c-28-8-62-29-81-49c-31-32-39-35-92-35c-80,0-139-29-176-88c-69-109-13-271,111-322c32-13,32-14,26-63
		c-3-28-9-54-14-59s-101-11-213-15c-231-6-259-14-298-83c-28-51-28-133,0-179c20-34,20-34-5-90c-13-31-40-112-60-181
		c-49-176-62-208-100-254c-42-53-62-92-72-141c-9-49-16-55-79-55c-57,0-116,29-148,72c-18,25-19,31-8,66c8,23,11,57,7,83
		c-3,24-10,82-14,129c-5,47-16,99-25,117c-24,46-21,105,8,163c43,86,29,147-41,170c-94,31-174-40-174-154c0-43,0-43-74-48
		c-84-6-137-31-155-76c-14-34-17-215-4-293c13-80,34-106,119-148c41-20,92-45,114-55c22-12,47-35,59-56c28-51,103-118,159-143
		c27-12,77-22,120-25c39-3,72-9,72-14s-20-61-44-126c-24-64-47-131-50-149c-5-22-18-38-42-52c-63-37-93-148-60-224c7-18,26-44,42-59
		c43-40,240-130,401-184c141-46,141-46,152-134c12-91,34-168,70-238c25-49,26-61,6-98c-8-16-15-39-15-50c0-30-95-69-147-61
		c-60,10-122-11-168-57c-45-45-65-98-65-170c0-65,21-100,77-127c70-34,256-40,371-11c153,39,354,153,368,208c10,39-3,109-31,164
		c-15,29-25,66-25,90c0,54-38,95-97,105c-23,3-48,14-57,24c-34,37-98,222-83,238c4,3,68-11,144-30c133-35,317-67,381-67
		c51,0,62-10,102-90c22-43,62-108,90-145c37-48,49-73,44-87c-12-39,6-91,46-127c41-37,60-92,91-254c13-71,43-107,109-136
		c71-31,160-37,245-17c127,30,183,91,172,187c-12,98-93,217-268,392c-118,117-127,123-192,118c-33-3-50,9-89,63c-43,59-39,66,35,59
		c148-13,223,51,251,212c14,81,18,82,37,18c20-62,63-113,96-113c9,0,40-11,70-25c44-22,59-24,88-16c19,5,52,7,74,4c52-7,83,1,121,33
		c66,56,77,135,29,208c-27,40-32,57-34,121c-2,40-6,78-9,84c-4,6,11,36,33,68c119,176,87,339-82,423c-34,17-86,33-115,37
		c-30,3-56,12-59,19c-5,13,100,335,167,508c39,101,42,116,38,187c-5,129-41,159-308,260c-74,28-200,72-280,99c-145,48-145,48-148,98
		s-3,50,40,57c99,16,167,68,188,143c14,51,13,79-6,141c-30,102-138,170-250,157c-53-6-53-6-83,38
		C2193.5,4316.7,2055.5,4361.7,1931.5,4323.7z M2134.5,4263.7c54-27,115-93,150-160c27-53,55-72,47-33c-3,13-7,30-9,37
		c-14,48,117,33,177-20c47-42,67-83,68-143c0-36-6-61-22-87c-38-62-162-106-162-58c0,11,11,27,25,36c37,24,31,37-14,29
		c-45-7-113,8-131,30c-10,12-10,18,0,30c20,24,6,28-43,11c-24-8-58-14-76-14c-36,1-46-5-36-22c4-7,24-10,49-8c32,4,48-1,72-19
		c17-13,48-29,70-37c39-13,39-13,37-67c-5-95-12-119-35-119c-20,0-20,4-14,70c6,58,5,70-7,70c-11,0-17-16-22-52c-9-64-18-77-51-70
		c-24,4-25,6-22,81c4,100-13,108-29,12c-7-41-16-78-20-81c-14-12-280-32-332-25c-58,8-58,7-40,114c6,36,13,80,15,97c4,31,4,31,98,44
		c94,12,127,23,113,36c-11,11-139,12-175,0c-28-9-40-7-73,11c-48,26-62,12-25-26c43-45,29-73-23-47c-65,34-110,121-97,189
		c9,47,41,86,90,108c72,32,113,20,95-29c-6-16-6-29,0-35s18,8,34,39C1883.5,4286.7,2006.5,4328.7,2134.5,4263.7z M1718.5,3633.7
		c39-25,125-32,266-19c210,20,282,7,623-115c262-93,306-110,306-119c0-4-14-18-31-30c-43-32-71-99-70-172c0-32-2-59-5-59
		s-70,33-150,74c-185,96-297,132-455,152c-68,8-198,33-289,55c-183,46-131,44-535,23c-115-6-121-6-140,16c-26,29-27,115-1,155
		c31,48,64,54,269,55C1661.5,3649.7,1698.5,3646.7,1718.5,3633.7z M667.5,3453.7c21-20,20-37-4-84c-11-22-25-61-31-89
		c-9-44-7-55,15-110c34-80,34-141,0-210c-29-58-26-75,9-43c32,30,37,28,37-19c0-34-6-48-38-79c-21-21-55-43-77-49c-43-12-60-5-31,13
		c42,26,59,43,52,55c-6,9-13,8-27-5c-11-10-41-19-72-22c-97-8-212,63-206,127c2,14-3,43-10,64c-8,25-10,52-5,75c4,20,6,57,5,82
		c-3,59,30,96,95,106c88,13,159-15,178-70c14-38-3-52-45-37c-45,16-141,14-165-3c-28-21-11-30,55-27c74,3,137-25,147-66
		c8-32-7-59-32-55c-64,11-133,12-157,3c-50-19-26-34,57-35c69-1,80-4,97-25c24-29,24-33,0-62c-17-21-27-24-75-22c-31,1-56,0-56-2
		c0-16,38-35,71-35c76,0,129,50,114,107c-3,14,1,34,11,48c13,20,15,38,10,84c-4,38-3,62,4,66c5,3,10,24,10,45c0,31-8,48-40,85
		s-40,54-40,86c0,41,11,71,38,102C580.5,3474.7,646.5,3475.7,667.5,3453.7z M1699.5,3391.7c6-4,15-17,18-30c4-12,18-30,32-38
		c18-12,24-25,24-50c0-45,30-74,75-74c30,0,38,6,60,40c17,26,33,40,46,40c12,0,36,9,54,20c32,20,35,20,161,4c165-20,262-53,476-159
		c94-47,178-85,186-85c7,0,12-3,10-7c-1-5-18-38-36-75c-24-47-38-94-48-162c-18-117-25-137-76-204c-68-90-80-130-89-282
		c-7-135-7-135-65-245c-52-100-58-117-62-187c-5-78-5-78-146-80c-196-3-194-3-223,26c-14,14-35,26-46,26c-11,0-37,18-57,40
		c-33,36-42,40-84,40c-30,0-57-7-74-19c-15-11-53-22-88-25c-56-6-67-4-136,29c-68,33-88,37-194,44c-108,7-126,11-194,45
		c-41,20-81,36-88,36c-8,0-66,26-130,58c-65,32-127,61-139,64c-31,8-29,21,16,140c68,181,101,293,110,369c11,91,18,110,74,192
		c27,40,57,102,77,161c17,53,36,96,40,96c15,0,31-78,24-117c-5-26-22-51-57-85c-40-38-46-49-33-54c23-9,82,39,106,86
		c27,52,25,109-5,184c-25,63-25,63-6,118c32,94,37,98,111,99c36,0,124,6,195,13C1686.5,3400.7,1686.5,3400.7,1699.5,3391.7z
		 M1894.5,3355.7c86-23,104-39,52-44c-24-2-40-13-59-38c-15-19-34-34-44-34c-26,0-43,26-36,54c5,20,0,29-24,46c-16,12-30,28-30,36
		C1753.5,3393.7,1763.5,3391.7,1894.5,3355.7z M3037.5,3309.7c30-36,41-85,31-137c-3-20-32-102-62-182c-31-80-79-220-108-311
		c-47-149-54-165-76-168c-26-4-49-19-49-33c0-5,40-9,90-9c100,0,193-27,253-73c77-58,94-166,42-269c-15-32-36-65-46-74
		c-18-16-22-15-64,7c-25,13-45,27-45,32c0,4,12,25,26,46c56,85,39,172-39,207c-51,23-218,27-239,6c-10-10-8-14,10-19
		c15-3,21-11,18-22c-66-227-112-398-156-585c-17-71-36-138-42-150c-35-68-86-84-135-42c-25,22-28,31-28,88c0,65,27,129,60,142
		c25,9,65-12,83-44c17-29,42-41,42-19c0,15-20,51-41,75c-19,20-19,22,1,80c12,32,56,183,100,334c43,151,117,394,165,540
		s91,279,96,295c5,17,22,38,39,47c30,17,48,44,37,55c-3,3-18-4-33-16c-31-25-76-27-94-6c-21,26-24,101-6,150
		C2901.5,3341.7,2986.5,3369.7,3037.5,3309.7z M2828.5,2874.7c-33-95-35-98-32-50c4,50,59,193,65,165
		C2862.5,2981.7,2848.5,2929.7,2828.5,2874.7z M723.5,2725.7c47-44,98-66,153-66c32,0,32-2,3-60c-21-44-23-45-66-42
		c-24,1-64,12-89,23c-48,21-141,104-141,125c0,10,68,58,89,63C674.5,2769.7,697.5,2749.7,723.5,2725.7z M2691.5,2440.7
		c-29-94-57-171-62-171c-13,0,1,148,19,200c16,45,84,154,92,146C2742.5,2613.7,2720.5,2534.7,2691.5,2440.7z M2933.5,2318.7
		c55-12,90-43,90-79c0-28-44-104-76-131c-10-9-35-19-55-23c-48-8-86-39-94-75c-6-28-60-89-70-80c-5,6,92,354,106,382
		C2845.5,2331.7,2869.5,2333.7,2933.5,2318.7z M943.5,2099.7c74-38,89-49,68-49c-16-1-28-5-28-10c0-13,38-21,101-21
		c41,0,68-7,100-25c92-52,112-58,229-64c106-6,122-10,194-44c49-23,93-37,118-37c21,0,109-18,194-40c151-39,159-40,326-40
		c158,0,170-1,163-17c-41-97-44-138-14-200c12-24,19-46,17-48c-5-6-321,21-473,40c-138,17-223,37-460,105c-355,102-618,202-702,266
		c-41,31-57,84-42,139c13,47,59,95,91,94C838.5,2148.7,891.5,2126.7,943.5,2099.7z M2547.5,1962.7c-30-92-39-111-42-89
		c-6,51,7,109,39,164c17,30,33,51,36,48C2583.5,2083.7,2568.5,2027.7,2547.5,1962.7z M2995.5,2039.7c40-11,98-62,98-86
		c0-13-4-12-30,1c-33,17-60,20-60,5c0-5,12-16,28-24c15-8,38-33,51-56c29-52,26-125-8-171c-21-28-21-29-2-29c11,0,23-4,26-10
		c13-21,26-9,20,18c-6,31,15,59,35,47c25-16,1-104-40-140c-32-29-108-27-150,3c-31,23-55,23-32,0c44-44-29-36-78,8
		c-29,26-40,32-40,20c0-44-64,7-80,65c-33,114,14,230,112,273c48,21,54,36,16,36c-26,0-18,22,13,37
		C2903.5,2051.7,2946.5,2052.7,2995.5,2039.7z M1968.5,1884.7c18-19,45-37,59-41c40-10,45-27,5-19c-78,16-194,53-193,61
		c2,13,46,34,73,34C1926.5,1919.7,1949.5,1905.7,1968.5,1884.7z M1405.5,1562.7c45-7,52-14,67-78c7-27,33-89,58-137
		c25-49,43-95,39-103c-3-10-19-15-45-15c-32,0-44,6-70,35c-39,45-64,94-96,189c-30,91-33,131-7,121
		C1360.5,1570.7,1385.5,1565.7,1405.5,1562.7z M2351.5,1352.7c28-38,64-81,81-97c52-50,34-96-37-96c-40,0-105,59-170,153
		c-29,42-52,80-52,86c0,5,26,12,58,14c31,2,60,4,64,5C2298.5,1418.7,2324.5,1389.7,2351.5,1352.7z M2547.5,1264.7
		c49-46,28-134-43-179c-50-32-101-41-145-26c-35,11-66,46-66,75c0,20,8,19,55-5s67-25,105-5c27,14,60,60,60,83c0,5-11,26-25,46
		c-24,36-24,36,4,36C2508.5,1289.7,2531.5,1278.7,2547.5,1264.7z M1673.5,1259.7c29-29,25-64-11-94c-28-24-43-30-92-38
		c-31-5-19-23,18-26c23-2,49,4,71,17c19,12,39,21,43,21c14,0,42-80,36-100c-3-10-32-36-63-57c-64-42-231-109-242-96
		c-4,4-11,18-15,31c-5,16-2,24,12,29c10,4,24,15,31,25s24,18,37,18c15,0,31,10,41,26c27,41,1,84-78,126c-62,32-76,50-60,76
		c7,10,20,7,61-14c46-24,55-26,90-16c47,14,75,44,68,72C1613.5,1286.7,1646.5,1286.7,1673.5,1259.7z M2684.5,1122.7
		c67-70,109-121,109-134c0-20-41-8-52,16c-6,13-19,27-28,30c-10,3-20,18-23,33c-6,32-44,54-76,45c-12-3-21-3-21-1c0,14,23,68,29,68
		C2626.5,1179.7,2654.5,1153.7,2684.5,1122.7z M1426.5,1113.7c35-18,87-63,87-76c0-19-30-5-70,32c-24,22-47,40-52,40c-4,0-8,5-8,10
		C1383.5,1133.7,1389.5,1132.7,1426.5,1113.7z M1379.5,1067.7c35-23,49-40,49-55c0-33-13-27-73,33
		C1296.5,1106.7,1307.5,1115.7,1379.5,1067.7z M1273.5,1059.7c49-25,85-72,102-133c15-59,12-62-86-72c-106-10-222,13-260,50
		c-18,18-16,34,12,93C1076.5,1074.7,1186.5,1103.7,1273.5,1059.7z M2648.5,1069.7c3-5-14-14-37-20c-24-7-67-25-95-41
		c-40-22-53-26-53-14c0,19,39,44,104,67C2626.5,1081.7,2640.5,1083.7,2648.5,1069.7z M2424.5,987.7c5-13,17-36,25-51
		c16-28,12-77-5-77c-9,0-51,117-51,140C2393.5,1017.7,2413.5,1009.7,2424.5,987.7z M2693.5,1000.7c0-5-19-11-42-15s-64-18-91-31
		c-53-27-67-30-67-15c0,13,41,39,88,56C2623.5,1010.7,2693.5,1013.7,2693.5,1000.7z M1743.5,969.7c0-30-215-140-334-170
		c-143-36-325-21-377,31c-12,12-19,22-17,25c3,2,31-6,64-17c81-30,226-30,348,0c93,22,233,83,276,119
		C1730.5,980.7,1743.5,984.7,1743.5,969.7z M2821.5,924.7c30-18,52-52,52-80c0-7-11-27-25-44c-26-30-85-54-160-66
		c-81-12-217,31-223,71c-4,30,77,103,140,126C2671.5,954.7,2775.5,951.7,2821.5,924.7z M2861.5,737.7c-8-13-42-34-74-47
		c-107-43-274-27-323,32c-18,22-7,21,59-4c80-31,224-24,295,13C2880.5,764.7,2878.5,764.7,2861.5,737.7z"/>
	<path d="M1523.5,3503.7c-58-8-130-13-160-11c-30,1-56-2-58-8c-7-22,73-28,199-15c71,7,168,10,218,7c56-3,91-2,91,4
		C1813.5,3510.7,1664.5,3522.7,1523.5,3503.7z"/>
	<path d="M1320.5,3302.7c-23-26-30-68-16-95c16-32,28-38,71-38c64,0,90,69,47,124C1398.5,3324.7,1345.5,3329.7,1320.5,3302.7z
		 M1398.5,3245.7c0-36-26-56-49-37c-31,26-11,75,29,69C1393.5,3275.7,1398.5,3266.7,1398.5,3245.7z"/>
	<path d="M1575.5,3293.7c-34-18-102-92-102-113c0-18,20-13,52,14c46,39,104,51,158,32c24-9,46-14,49-12c9,9-18,54-42,69
		C1653.5,3308.7,1611.5,3311.7,1575.5,3293.7z"/>
	<path d="M2087.5,3184.7c69,11,139-26,171-88c1.6-3.1,3.3-6,5-8.6c8.3-4.9,16.2-10.3,23.8-16.1c3.7,1,6.2,4.7,6.2,11.7
		c0,31-48,123-75,144c-38,30-91,29-138-3C2030.5,3189.7,2032.5,3176.7,2087.5,3184.7z"/>
	<path d="M1417.5,2691.1c25.4-5.2,55.9-15.3,79.1-25.4c50-24,58-32,67-67c14-50,57-79,118-79c52,0,54,21,3,31c-67,14-96,75-46,97
		c28,13,67,3,98-25c9-9,20-14,23-10c13,13-8,45-41,63c-41,22-41,28-14,114c24.1,76.5,32.7,171,24.2,234.8
		c-2.6,19.3-10.3,37.8-23.5,52.1c-0.2,0.3-0.5,0.5-0.7,0.8c-24.4,26-64.4,30-94.9,11.6h0c-30.9-18.6-52.1-49.7-58.3-85.2l-10.7-62.1
		c31-21,75-64,69-69c-3-3-28-8-56-11c-50-5-50-5-50-78c0-41-2-74-5-74c-2,0-15,5-29,11c0,0-53.1,20.9-109.2,9.6
		S1417.5,2691.1,1417.5,2691.1z"/>
	<path d="M1937.7,2607c15.4,7.6,31.2,14.9,48,18.3c12.7,2.6,12,15.6,8.8,80.4c-3,81-3,81,29,88c18,3,45,6,61,6c37,0,37,11,1,32
		c-15,9-36,25-45,36c-5.4,5.7-7.4,16.8-7,30.8c1.2,37.1,19.3,69.9,46.6,91.8c32.7,26.3,80.4,22.5,109.2-8.1v0
		c31.1-33,46.2-78.1,40.5-123.1c-7.7-60.1-25.3-133.4-53.3-221.4c-3-11,5-21,26-32c17-9,31-23,31-31c0-19-15-19-46,1
		c-14,10-54,19-92,21c-63,5-112-6-194-42c-23-9-25,20-3,33L1937.7,2607z"/>
	<path d="M2465.5,3049.7c-90-55-97-199-13-259c153-109,325,107,191,241c-34,35-42,38-91,38
		C2516.5,3069.7,2487.5,3062.7,2465.5,3049.7z M2587.5,3025.7c46-19,66-52,66-106c0-52-18-83-60-105c-49-25-88-19-126,19
		c-28,28-34,42-34,75c0,55,24,99,63,116C2537.5,3042.7,2546.5,3042.7,2587.5,3025.7z"/>
	<path d="M1123.5,2809.7c-43-43-11-120,49-120c32,0,71,39,71,70c0,10-9,29-21,44C1197.5,2835.7,1152.5,2838.7,1123.5,2809.7z
		 M1198.5,2759.7c0-20-6-26-27-28c-24-3-28,0-28,21c0,30,9,39,35,35C1192.5,2785.7,1198.5,2777.7,1198.5,2759.7z"/>
	<path d="M1410.5,2592.7c-24-24,10-95,62-127c35-23,38-29,44-82c9-86,51-161,111-199c46-28,57-30,140-30c76,0,99,4,136,24
		c58,30,125,101,174,185c38,65,49,75,61,56c8-14,25-13,25,1c0,21-91,119-111,119c-20,0-26-15-9-25c66-41-194-98-343-75
		c-156,23-257,76-257,134C1443.5,2597.7,1425.5,2608.7,1410.5,2592.7z M1989.5,2328.7c10-17-64-86-118-109c-69-30-135-36-181-17
		c-20,9-37,20-37,25c0,26,92,82,136,82c26,0,26-1,10-24c-23-37,2-47,27-11C1861.5,2321.7,1970.5,2358.7,1989.5,2328.7z"/>
	<path d="M2397.5,2539.7c-31-12-54-49-54-88s46-92,80-92c29,0,77,26,90,49c24,47-2,113-51,130
		C2425.5,2551.7,2425.5,2551.7,2397.5,2539.7z M2465.5,2492.7c34-31,10-93-37-93c-30,0-45,19-45,55
		C2383.5,2507.7,2426.5,2527.7,2465.5,2492.7z"/>
	<path d="M1058.5,2499.7c-75-31-107-142-64-220c54-95,181-94,252,1c44,60,14,180-53,214C1162.5,2510.7,1090.5,2513.7,1058.5,2499.7z
		 M1181.5,2453.7c26-18,52-65,52-94c0-58-57-110-121-110c-46,0-99,56-99,104c0,42,22,90,47,105
		C1087.5,2474.7,1156.5,2471.7,1181.5,2453.7z"/>
	<path d="M1163.5,2426.7c0-2,7-18,16-35c14-29,14-35,0-64c-23-45-20-55,9-28c28,26,34,83,11,113
		C1188.5,2426.7,1163.5,2436.7,1163.5,2426.7z"/>
	<path d="M1123.5,2339.7c0-5,5-10,10-10c6,0,10,5,10,10c0,6-4,10-10,10C1128.5,2349.7,1123.5,2345.7,1123.5,2339.7z"/>
	<path d="M1325.5,2192.7c-21-8-43-61-36-88c13-52,77-72,114-35c20,20,27,74,12,96C1398.5,2191.7,1354.5,2204.7,1325.5,2192.7z
		 M1382.5,2140.7c13-24-9-57-33-48c-23,9-31,34-16,52C1350.5,2164.7,1370.5,2163.7,1382.5,2140.7z"/>
	<path d="M2145.5,2173.7c-99-51-109-202-18-267c42-30,123-31,163-1c89,66,98,181,19,253C2275.5,2190.7,2193.5,2197.7,2145.5,2173.7z
		 M2279.5,2131.7c48-38,60-119,24-164c-68-88-200-42-200,69c0,38,5,50,34,79c28,28,41,34,78,34
		C2241.5,2149.7,2267.5,2142.7,2279.5,2131.7z"/>
	<path d="M1583.5,2131.7c0-5,14-23,31-40c53-54,146-65,220-26c35,18,41,50,7,39c-94-28-154-24-209,15
		C1604.5,2140.7,1583.5,2145.7,1583.5,2131.7z"/>
	<path d="M1037.5,1847.7c-11-17,7-26,176-82c182-61,255-77,248-56c-2,7-64,30-137,52c-73,21-166,51-207,67
		C1072.5,1845.7,1040.5,1853.7,1037.5,1847.7z"/>
</g>
</svg>
