<?xml version="1.0" standalone="no"?>
<!DOCTYPE svg PUBLIC "-//W3C//DTD SVG 20010904//EN"
 "http://www.w3.org/TR/2001/REC-SVG-20010904/DTD/svg10.dtd">
<svg version="1.0" xmlns="http://www.w3.org/2000/svg"
 width="1024.000000pt" height="1024.000000pt" viewBox="0 0 1024.000000 1024.000000"
 preserveAspectRatio="xMidYMid meet">

<g transform="translate(0.000000,1024.000000) scale(0.100000,-0.100000)"
fill="#000000" stroke="none">
<path d="M5905 9394 c-119 -29 -295 -111 -379 -178 -32 -25 -65 -46 -73 -46
-8 0 -46 7 -86 16 -138 32 -355 3 -485 -63 -105 -54 -120 -65 -225 -163 -58
-55 -97 -107 -157 -210 -21 -37 -51 -131 -65 -203 -33 -172 -13 -312 66 -474
42 -86 61 -113 119 -166 88 -81 223 -153 306 -162 91 -10 100 -13 112 -40 27
-58 9 -198 -29 -236 -24 -24 -40 -21 -55 10 -26 51 -72 64 -114 31 -27 -21
-52 -25 -78 -11 -47 24 -70 21 -121 -14 -28 -19 -57 -35 -66 -35 -8 0 -36 16
-62 36 -42 32 -51 35 -88 29 -111 -19 -101 -21 -130 26 -37 60 -63 79 -108 79
-40 0 -75 -27 -120 -93 -23 -35 -45 -34 -110 3 -60 34 -124 39 -167 15 -37
-21 -58 -18 -111 15 -69 45 -99 51 -145 30 -22 -9 -50 -29 -63 -44 -30 -32
-51 -33 -88 -2 -81 67 -129 62 -171 -19 -16 -33 -29 -43 -71 -58 -45 -16 -54
-24 -77 -69 -29 -57 -27 -91 6 -138 34 -47 26 -78 -30 -130 -56 -52 -62 -76
-30 -128 28 -45 25 -73 -11 -108 -41 -39 -62 -81 -55 -110 4 -13 31 -42 61
-64 31 -23 57 -51 61 -65 7 -28 -14 -68 -45 -84 -34 -19 -45 -64 -31 -131 l13
-60 -42 -45 c-74 -81 -77 -111 -16 -171 42 -41 45 -46 45 -97 0 -48 -4 -58
-35 -90 -20 -21 -41 -37 -47 -37 -49 0 -205 172 -286 315 -46 81 -122 253
-122 277 0 10 18 41 39 68 63 79 76 176 40 281 l-21 60 34 52 c58 88 69 133
78 300 9 182 31 248 116 355 84 104 107 158 102 237 -3 54 -8 69 -32 94 -48
50 -120 81 -187 81 -140 0 -293 -129 -325 -274 -11 -47 -43 -64 -72 -38 -14
13 -27 61 -51 197 -65 361 -85 419 -164 492 -73 68 -156 79 -227 30 -64 -43
-74 -66 -74 -174 0 -108 18 -202 62 -333 41 -119 44 -136 28 -149 -27 -22 -44
2 -90 127 -52 144 -159 348 -208 400 -46 47 -79 62 -140 62 -67 0 -113 -24
-157 -81 -33 -43 -33 -44 -29 -134 5 -85 8 -95 57 -189 60 -113 147 -259 197
-329 19 -26 34 -56 34 -67 0 -33 -42 -25 -81 16 -59 61 -211 180 -274 214 -55
30 -65 32 -124 26 -109 -10 -162 -70 -162 -183 0 -96 67 -177 246 -298 49 -33
119 -89 156 -125 71 -70 74 -75 103 -225 29 -144 117 -277 230 -345 52 -32 56
-37 76 -101 11 -37 32 -81 46 -98 35 -42 117 -79 192 -87 76 -8 75 -7 132
-159 23 -60 52 -128 64 -150 13 -22 38 -67 56 -99 18 -33 37 -64 41 -70 35
-42 69 -90 69 -97 0 -4 6 -14 13 -21 6 -7 28 -33 48 -58 104 -129 237 -236
447 -360 42 -25 72 -49 72 -58 0 -9 -16 -42 -35 -74 -20 -31 -42 -78 -49 -103
-13 -43 -13 -47 8 -73 63 -75 61 -104 -9 -167 -73 -65 -81 -102 -36 -159 17
-21 31 -44 31 -51 0 -7 -14 -29 -30 -50 -41 -51 -46 -80 -27 -136 22 -60 21
-82 -2 -103 -11 -10 -31 -41 -46 -70 l-27 -53 21 -41 c11 -22 25 -43 31 -47 5
-3 10 -19 10 -35 0 -23 -9 -35 -45 -60 -24 -17 -51 -40 -60 -52 -23 -33 -20
-139 5 -188 30 -58 26 -73 -34 -127 -61 -54 -86 -97 -86 -145 0 -26 10 -42 55
-84 30 -29 55 -60 55 -69 0 -9 -25 -41 -56 -71 -61 -58 -60 -56 -39 -161 6
-29 4 -34 -34 -57 -41 -26 -61 -56 -87 -128 -16 -46 -11 -61 42 -121 26 -28
34 -46 34 -76 0 -32 6 -44 34 -68 18 -17 50 -33 72 -36 30 -5 44 -15 62 -42
13 -20 44 -50 70 -66 50 -32 49 -32 182 -13 29 5 46 -2 100 -37 52 -34 73 -42
107 -40 27 1 55 -7 80 -21 32 -19 52 -23 133 -23 91 0 98 -2 144 -33 44 -28
55 -31 95 -26 42 5 50 2 92 -31 75 -58 150 -59 230 -5 53 36 67 37 122 8 36
-20 58 -23 159 -23 64 0 119 -2 122 -5 3 -3 2 -108 -1 -234 l-6 -227 -51 -26
c-28 -14 -59 -33 -70 -42 -32 -28 -56 -88 -56 -139 0 -50 -12 -72 -41 -72 -42
0 -152 -44 -239 -95 l-95 -56 -63 12 c-96 18 -188 8 -267 -30 -88 -41 -136
-80 -189 -155 -55 -77 -76 -138 -84 -246 l-7 -85 -45 -6 c-25 -4 -99 -15 -165
-24 -209 -28 -395 -77 -395 -104 0 -31 156 -77 390 -115 310 -50 1162 -112
1905 -137 348 -12 1687 -6 2065 9 159 7 170 6 325 -25 131 -27 184 -33 290
-33 199 0 375 34 502 99 52 26 74 31 130 31 251 0 853 111 853 158 0 23 -147
68 -320 96 -75 12 -521 66 -552 66 -4 0 -16 20 -27 44 -10 24 -39 63 -63 87
-47 46 -153 119 -174 119 -6 0 -24 21 -39 46 -15 26 -43 64 -62 85 -53 58
-220 174 -317 219 -79 38 -86 44 -96 78 -11 41 -50 85 -90 100 -14 6 -60 13
-103 17 -42 4 -77 8 -77 10 0 1 -16 55 -35 121 -43 147 -44 164 -8 164 15 0
53 7 85 16 l59 17 46 -33 c63 -46 118 -50 202 -16 87 35 138 34 185 -3 54 -43
98 -55 170 -46 95 12 125 10 214 -14 l82 -23 34 21 c18 12 45 21 58 21 27 0
56 24 102 84 27 36 31 38 71 32 54 -9 62 2 71 89 6 56 13 77 36 105 33 41 35
68 7 104 -11 14 -19 36 -17 48 3 21 8 23 48 20 24 -2 58 -11 75 -19 42 -22
154 -29 212 -12 67 18 153 105 178 178 25 77 22 137 -10 209 -20 44 -26 69
-21 89 4 15 11 50 15 77 8 52 35 83 93 107 34 14 82 90 92 144 4 22 9 48 12
57 3 10 52 54 110 98 218 169 308 337 291 544 -8 89 -62 206 -139 296 -94 111
-309 281 -449 354 -61 32 -69 42 -85 102 -19 73 -14 93 30 123 42 28 49 45 36
91 -15 51 -14 54 35 111 31 36 48 67 56 103 10 47 9 58 -14 116 -19 51 -25 84
-26 152 l0 87 42 28 c61 42 70 65 46 127 -10 28 -19 60 -19 71 0 11 23 50 50
87 58 77 68 112 43 149 -10 15 -31 46 -48 69 l-29 43 27 48 c40 71 36 113 -13
173 -22 26 -40 53 -40 59 0 6 23 33 50 59 56 54 61 73 30 139 -28 63 -25 80
25 129 81 79 93 145 40 208 -26 32 -58 47 -118 57 -30 5 -41 13 -57 45 -38 75
-110 102 -216 80 -32 -6 -74 -20 -92 -31 -42 -24 -64 -24 -129 1 -40 15 -58
17 -84 10 -19 -6 -53 -10 -76 -10 -39 0 -45 3 -70 43 -32 51 -46 62 -100 78
-54 15 -85 7 -132 -36 -53 -49 -103 -49 -167 0 -52 40 -71 43 -116 15 -39 -24
-95 -26 -125 -5 -11 8 -33 35 -47 60 -49 83 -127 97 -193 33 -36 -35 -74 -39
-141 -15 -32 11 -33 13 -26 51 11 66 58 188 77 200 13 8 38 5 104 -14 144 -40
247 -27 408 52 163 79 317 288 351 476 26 149 12 337 -33 442 -22 53 -75 154
-87 166 -6 7 -26 32 -45 55 -64 81 -265 239 -304 239 -7 0 -17 4 -23 9 -10 10
-93 31 -238 61 -66 13 -137 20 -216 20 l-117 0 -89 85 c-82 79 -192 161 -286
214 -21 12 -53 30 -72 40 -47 27 -205 76 -305 95 -129 25 -331 20 -456 -10z
m500 -94 c327 -71 607 -289 753 -587 14 -29 31 -52 37 -50 16 6 8 100 -15 157
-17 43 -18 55 -8 62 23 16 247 2 332 -21 279 -74 494 -276 566 -533 69 -245
15 -475 -149 -638 -158 -158 -377 -218 -531 -148 l-45 21 69 13 c144 28 283
122 351 238 68 117 96 263 64 341 l-12 30 -13 -50 c-19 -71 -42 -120 -92 -197
-50 -78 -102 -125 -187 -173 -176 -99 -358 -80 -504 51 l-51 46 57 57 c62 59
96 120 119 204 16 61 18 143 4 152 -6 4 -23 -22 -39 -57 -81 -180 -213 -280
-401 -303 -64 -8 -173 12 -241 44 -54 26 -149 102 -165 133 -6 13 -15 50 -18
83 -17 148 -23 152 -55 36 -26 -94 -40 -114 -103 -150 -80 -46 -171 -64 -294
-59 -94 4 -110 8 -178 42 -139 68 -234 201 -291 404 -16 56 -32 102 -35 102
-20 0 -26 -177 -9 -262 6 -29 31 -95 56 -146 l45 -93 -22 -24 c-60 -64 -197
-73 -305 -20 -151 73 -241 243 -274 515 -7 52 -14 96 -16 99 -8 7 -35 -67 -45
-121 -23 -122 -7 -256 46 -363 65 -134 151 -222 242 -247 23 -7 42 -15 42 -18
0 -27 -145 -47 -210 -30 -137 37 -268 178 -331 357 -32 90 -37 256 -11 359 29
115 70 198 140 285 160 198 409 302 645 268 42 -6 80 -15 82 -20 3 -4 -6 -35
-20 -69 -14 -33 -28 -82 -32 -108 l-6 -47 44 64 c149 222 367 358 624 392 96
12 280 2 390 -21z m-4406 -902 c34 -26 84 -114 100 -173 6 -22 22 -101 36
-175 39 -210 61 -289 104 -374 22 -43 38 -83 35 -87 -3 -5 -46 -36 -95 -70
-50 -35 -105 -80 -122 -101 -29 -37 -33 -38 -92 -38 -100 0 -223 -72 -255
-150 -20 -48 -4 -47 48 3 27 25 68 55 92 67 44 23 150 39 150 24 0 -5 -7 -31
-15 -58 -20 -66 -20 -195 1 -224 25 -36 30 -26 26 47 -3 56 1 85 24 153 23 69
36 93 83 142 31 32 88 80 128 107 80 54 88 64 103 135 19 87 73 205 117 254
81 90 195 126 284 88 46 -20 74 -74 64 -126 -9 -51 -25 -78 -89 -152 -94 -107
-135 -224 -136 -382 0 -154 -44 -270 -136 -362 -79 -79 -163 -118 -265 -124
-43 -3 -79 -8 -79 -12 0 -14 92 -40 139 -40 64 0 117 16 184 57 42 26 62 32
69 25 17 -17 22 -116 7 -143 -81 -153 -308 -259 -529 -247 -109 7 -152 26
-202 93 -20 27 -36 51 -34 53 2 2 30 5 63 6 74 4 133 20 167 47 36 29 21 40
-34 28 -25 -6 -74 -9 -110 -7 -202 11 -394 232 -417 481 -5 60 -10 73 -37 98
-29 27 -171 137 -308 237 -70 52 -103 94 -119 153 -32 118 52 173 176 115 51
-24 108 -66 259 -194 105 -89 148 -110 181 -88 55 36 43 76 -86 292 -189 319
-229 460 -148 528 37 32 90 34 135 7 37 -23 82 -89 134 -196 21 -44 74 -155
118 -247 104 -217 134 -247 187 -193 36 35 33 80 -20 288 -75 302 -79 399 -17
447 34 27 88 22 131 -12z m4322 -484 c90 -61 156 -87 262 -104 66 -11 166 -10
248 3 8 1 57 -38 109 -86 l93 -89 -12 -61 c-6 -34 -28 -134 -50 -222 -33 -140
-36 -162 -24 -177 15 -17 71 -44 78 -37 2 3 13 47 24 99 11 52 38 150 60 218
23 68 41 130 41 138 0 24 25 15 43 -15 23 -40 22 -50 -22 -181 -45 -133 -57
-192 -66 -311 -4 -47 -10 -91 -15 -99 -6 -10 -22 -1 -67 37 -88 76 -142 109
-296 184 -356 171 -859 245 -1287 188 -97 -13 -291 -62 -354 -88 -27 -12 -51
-19 -54 -16 -3 3 19 56 48 117 59 125 70 181 51 278 l-10 55 49 48 c42 40 54
47 89 47 57 0 140 34 209 84 l58 43 35 -18 c92 -50 250 -74 384 -58 78 9 205
46 255 73 14 8 29 11 35 8 5 -3 44 -29 86 -58z m-2106 -390 c8 -9 25 -34 36
-55 26 -53 57 -67 112 -50 90 27 86 27 132 -23 56 -60 86 -62 150 -6 25 22 54
40 63 40 10 0 34 -11 54 -25 50 -34 82 -33 105 5 19 33 26 36 40 18 19 -25 21
-73 6 -131 -17 -60 -36 -70 -41 -22 l-4 28 -19 -32 c-22 -36 -63 -42 -104 -15
-29 19 -32 36 -10 54 13 11 13 15 3 21 -25 16 -54 9 -91 -22 -47 -38 -114 -51
-133 -25 -8 11 -14 13 -19 7 -3 -6 -26 -11 -50 -11 -32 0 -52 -7 -72 -24 -27
-24 -28 -24 -9 -45 11 -12 17 -23 15 -24 -2 -2 -19 -14 -38 -27 -38 -26 -51
-18 -51 37 0 26 5 34 25 39 31 8 31 15 4 40 -21 19 -21 19 31 24 37 3 56 11
64 23 17 28 -17 47 -85 47 -54 0 -60 3 -93 37 l-35 38 -53 -27 c-170 -87 -210
-95 -227 -48 -13 40 -36 47 -69 23 -18 -14 -27 -29 -27 -49 0 -27 2 -29 44
-30 114 -2 44 -104 -89 -128 l-36 -6 4 40 4 40 -85 0 c-57 0 -88 4 -95 13 -17
20 -2 32 62 53 32 10 58 24 58 29 -1 6 -19 14 -41 19 -23 5 -41 12 -41 16 0 3
-6 14 -13 24 -13 18 -15 17 -53 -2 -70 -38 -71 -38 -45 -59 20 -17 22 -23 12
-41 -15 -29 -27 -28 -80 7 -25 17 -48 28 -53 25 -4 -3 8 -26 26 -52 44 -60 50
-96 18 -100 -27 -4 -92 58 -92 89 0 25 -22 24 -45 -1 -18 -20 -19 -20 -48 16
-41 49 -55 32 -31 -38 9 -29 18 -81 18 -115 0 -59 1 -63 28 -72 30 -11 31 -13
28 -76 -1 -29 6 -50 24 -74 32 -43 32 -56 2 -95 -34 -45 -56 -92 -56 -118 0
-13 18 -47 40 -77 22 -29 40 -59 40 -66 0 -7 -29 -43 -64 -79 -61 -63 -63 -67
-56 -103 4 -21 16 -57 28 -80 26 -49 23 -60 -23 -92 -22 -15 -35 -32 -35 -45
1 -34 26 -138 43 -179 19 -44 17 -47 -66 -104 -60 -42 -63 -73 -12 -123 40
-39 43 -55 15 -85 l-20 -22 20 -18 c32 -29 25 -51 -25 -81 -27 -15 -48 -36
-51 -49 -7 -28 9 -80 44 -149 25 -48 25 -49 7 -81 -9 -19 -35 -48 -56 -65 -22
-17 -39 -36 -39 -42 0 -6 14 -23 32 -38 l31 -26 -44 -56 c-24 -31 -48 -55 -54
-54 -5 1 -11 16 -13 32 -5 61 -22 105 -40 102 -23 -5 -19 -70 8 -113 20 -32
20 -33 1 -38 -13 -3 -25 -23 -37 -63 -9 -33 -27 -67 -38 -77 -55 -48 -57 -49
-72 -36 -23 19 -17 37 25 77 22 21 44 54 51 78 11 36 10 46 -9 85 -11 24 -26
51 -32 60 -16 22 27 115 76 166 54 56 55 74 6 165 -49 91 -48 104 17 213 46
75 60 138 43 186 -18 51 -14 65 34 119 l45 51 0 84 0 83 43 14 c23 8 43 22 45
31 3 16 -22 17 -148 4 -43 -4 -36 29 19 88 59 62 67 87 46 137 -21 52 -19 71
11 99 31 28 63 93 64 127 0 24 -36 119 -52 137 -5 6 -16 5 -29 -4 -25 -15 -43
-3 -33 23 7 18 54 46 77 46 29 0 56 35 62 80 5 37 3 50 -13 70 -16 20 -22 22
-25 10 -19 -57 -16 -54 -37 -35 -39 36 -36 56 15 100 40 36 48 48 52 87 5 39
0 55 -27 102 l-31 56 29 30 c18 18 41 30 56 30 33 0 66 32 66 64 0 37 25 52
52 32 13 -9 38 -28 57 -41 48 -35 70 -31 137 20 31 25 67 45 79 45 12 0 40
-14 61 -31 22 -17 52 -38 68 -46 27 -14 32 -13 87 16 33 17 66 31 74 31 8 0
32 -16 54 -35 63 -57 121 -46 198 39 45 49 62 55 88 30z m-3 -174 c32 -29 32
-31 14 -45 -25 -19 -47 -19 -91 -1 -39 17 -43 30 -18 58 24 26 58 22 95 -12z
m1926 -45 c263 -45 510 -131 664 -232 91 -60 101 -77 29 -52 -26 9 -41 8 -77
-6 l-44 -17 -46 41 c-54 48 -86 52 -165 21 l-52 -19 -44 39 c-57 50 -83 55
-181 35 l-80 -16 -52 35 c-29 20 -61 36 -72 36 -11 0 -46 -12 -78 -26 l-57
-25 -49 31 c-41 26 -56 31 -90 26 -23 -3 -57 -13 -76 -22 -34 -16 -36 -16 -74
10 -22 14 -53 28 -69 30 -17 2 -57 11 -89 21 -58 17 -60 17 -114 -5 -51 -22
-56 -22 -82 -6 -37 21 -62 20 -93 -4 -30 -24 -45 -25 -72 -4 -20 15 -20 15 5
34 43 33 236 78 427 100 43 5 168 7 278 5 159 -3 231 -9 353 -30z m-2014 -61
c33 -8 62 -16 64 -18 2 -3 6 -23 9 -45 10 -72 -27 -91 -88 -45 -19 14 -49 33
-67 40 -29 13 -72 65 -72 87 0 10 73 1 154 -19z m333 -29 c-4 -8 -14 -15 -23
-15 -16 0 -16 2 1 20 20 22 31 20 22 -5z m-844 -29 c9 -7 17 -19 17 -26 0 -20
-41 -60 -61 -60 -18 0 -58 69 -51 88 5 16 73 14 95 -2z m979 4 c13 -5 42 -14
66 -20 60 -15 52 -30 -18 -30 -47 0 -60 -3 -60 -15 0 -8 3 -15 8 -15 4 0 23
-10 42 -21 32 -20 33 -22 15 -35 -24 -18 -69 -18 -104 1 -24 12 -29 22 -34 67
-6 43 -4 55 10 66 20 14 44 15 75 2z m2963 -64 c59 -85 105 -103 182 -71 50
21 65 19 122 -16 38 -24 65 -32 115 -36 l65 -6 45 47 c63 64 91 60 146 -19 39
-57 79 -69 180 -55 68 10 74 9 113 -14 36 -22 39 -26 22 -33 -21 -8 -72 -9
-173 -4 -52 3 -65 1 -77 -15 -13 -18 -10 -19 50 -24 93 -7 110 -32 43 -63 -65
-29 -83 -29 -128 4 -39 29 -41 31 -25 49 15 16 14 20 -9 46 -24 28 -25 28 -26
7 0 -33 -14 -36 -90 -22 -39 7 -73 9 -77 6 -3 -4 -1 -18 6 -31 15 -26 8 -46
-15 -46 -26 0 -72 29 -79 49 -8 25 -63 45 -81 30 -18 -15 -18 -39 0 -39 23 0
76 -49 69 -65 -11 -31 -68 -17 -134 31 -35 26 -66 49 -69 51 -3 3 6 13 19 24
23 19 23 20 5 40 -24 26 -67 49 -92 49 -16 0 -20 -9 -25 -46 -2 -25 -11 -53
-20 -61 -13 -13 -18 -11 -48 14 -28 25 -41 29 -74 26 -45 -5 -99 12 -90 27 9
15 -4 50 -19 50 -7 0 -23 -11 -36 -25 -19 -20 -32 -25 -60 -23 -54 5 -48 37
12 66 47 22 74 54 63 72 -3 6 -2 10 3 10 5 0 30 20 54 45 57 57 76 52 133 -29z
m-4222 46 c22 -24 39 -71 32 -92 -22 -69 -99 13 -81 85 7 29 26 32 49 7z m607
-27 c0 -29 -88 -46 -97 -19 -4 11 41 31 75 33 13 1 22 -5 22 -14z m1015 -12
c32 -22 54 -28 110 -31 39 -2 74 -8 79 -12 5 -5 -6 -18 -25 -30 -42 -26 -88
-21 -130 14 -35 30 -53 35 -127 39 -57 3 -68 15 -31 34 38 20 81 15 124 -14z
m479 -13 c37 -27 46 -30 71 -20 23 9 32 8 44 -5 14 -13 13 -15 -11 -15 -14 0
-31 -7 -38 -15 -10 -13 -10 -19 5 -35 10 -11 27 -20 37 -20 24 0 58 -18 58
-30 0 -13 -54 -40 -80 -40 -47 0 -100 60 -100 115 0 34 -22 32 -60 -5 -35 -34
-84 -41 -94 -13 -4 9 -2 21 4 27 5 5 10 18 10 27 0 21 57 59 88 59 13 0 43
-14 66 -30z m-1054 -30 c0 -12 -52 -31 -70 -25 -21 7 -32 29 -24 48 4 12 12
11 49 -1 25 -8 45 -18 45 -22z m2940 30 c11 -7 2 -10 -33 -10 -30 0 -46 4 -42
10 8 13 55 13 75 0z m-1500 -66 c25 -20 45 -40 45 -46 0 -5 -26 -21 -58 -34
-45 -19 -62 -22 -78 -14 l-20 11 21 33 c11 18 20 36 20 39 0 3 -21 7 -47 9
l-48 3 30 17 c48 27 84 22 135 -18z m217 14 c35 -33 28 -41 -27 -36 -63 6 -71
14 -41 39 30 24 39 24 68 -3z m-2287 -13 c51 -18 161 -18 210 -1 31 11 39 10
79 -11 47 -25 93 -29 137 -12 24 8 36 6 77 -17 48 -26 51 -26 121 -14 62 10
76 9 111 -6 62 -26 130 -23 200 10 46 21 80 29 147 33 83 5 89 4 147 -26 66
-34 81 -36 143 -20 41 11 46 10 93 -20 43 -28 56 -32 94 -27 41 6 47 3 86 -33
67 -62 116 -69 227 -34 35 10 52 11 67 4 30 -16 67 -13 111 9 47 24 66 25 113
5 56 -23 105 -18 171 18 67 36 79 53 44 62 -33 8 -34 43 -2 51 30 8 74 -19 74
-45 0 -12 12 -21 39 -29 21 -7 41 -12 45 -12 12 0 6 34 -10 52 -14 14 -14 20
-4 33 23 28 46 15 122 -72 43 -49 106 -117 142 -152 l65 -64 52 6 c45 6 61 2
107 -20 48 -23 58 -25 99 -16 38 9 52 8 87 -8 51 -23 88 -24 147 -3 45 17 45
17 88 -12 54 -35 134 -39 198 -10 41 18 42 18 70 -2 32 -23 165 -62 209 -62
16 1 54 9 84 20 54 19 55 19 80 0 45 -36 119 -70 150 -70 17 0 51 5 76 11 38
10 51 9 93 -10 28 -11 64 -21 81 -21 37 0 70 -16 70 -34 0 -7 -7 -27 -15 -44
-13 -25 -14 -38 -4 -76 11 -43 10 -48 -20 -93 -18 -26 -30 -55 -27 -63 2 -8
10 -30 17 -48 13 -31 12 -33 -23 -62 -53 -44 -57 -76 -16 -151 l33 -60 -32
-29 c-66 -59 -72 -118 -18 -197 19 -29 35 -57 35 -63 0 -6 -27 -39 -59 -74
-67 -72 -91 -131 -91 -226 0 -45 6 -65 30 -103 17 -26 30 -50 30 -53 0 -2 -27
-34 -60 -69 -55 -59 -60 -68 -60 -110 0 -32 8 -60 26 -90 27 -48 25 -63 -16
-100 -53 -48 -76 -127 -54 -190 15 -47 15 -47 -13 -87 -58 -83 -63 -94 -63
-129 0 -21 13 -60 30 -92 17 -31 30 -60 30 -64 0 -5 -21 -33 -46 -63 -93 -112
-112 -182 -94 -352 l12 -109 -45 -48 c-68 -73 -72 -128 -16 -227 16 -28 29
-54 29 -58 0 -4 -24 -31 -53 -60 -66 -65 -75 -102 -47 -187 11 -32 20 -63 20
-70 0 -6 -22 -32 -50 -58 -39 -37 -50 -54 -50 -78 0 -18 4 -34 10 -38 5 -3 1
-24 -10 -51 -11 -25 -20 -57 -20 -70 0 -37 -26 -91 -48 -103 -29 -15 -31 -14
-42 14 -10 26 -41 33 -69 16 -11 -7 -10 -13 4 -34 19 -30 13 -63 -14 -70 -11
-2 -37 3 -59 13 -70 32 -98 34 -140 10 l-39 -22 -47 21 c-62 27 -195 30 -286
6 -109 -28 -137 -26 -208 22 -71 48 -162 73 -289 81 -79 4 -84 3 -131 -27 -27
-17 -56 -31 -64 -31 -9 0 -40 11 -70 25 -61 29 -94 31 -145 10 -47 -20 -65
-19 -106 5 -56 33 -116 36 -198 10 -57 -19 -75 -21 -88 -11 -9 6 -45 26 -81
44 -81 40 -141 42 -220 9 l-56 -24 -52 33 c-74 46 -141 51 -213 15 l-52 -27
-45 32 c-39 28 -56 33 -141 41 -140 14 -179 12 -245 -11 -63 -22 -62 -23 -122
26 -89 72 -153 77 -232 21 l-43 -30 -27 25 c-34 32 -121 67 -168 67 -19 0 -60
-9 -91 -20 -32 -11 -59 -20 -60 -20 -2 0 -3 15 -3 34 0 52 -19 62 -99 48 -36
-6 -88 -21 -115 -33 l-48 -21 -34 33 c-19 18 -41 52 -50 75 -9 24 -23 45 -31
49 -33 12 -106 -11 -190 -61 l-31 -18 -62 43 c-41 29 -75 45 -103 48 -55 6
-97 22 -97 37 0 7 6 21 14 31 14 19 15 19 50 2 67 -32 76 -23 52 48 -15 43
-33 53 -65 35 -17 -9 -21 -8 -21 7 0 9 28 43 62 74 57 53 63 61 63 99 0 37 -6
46 -50 85 l-50 43 39 33 c21 19 44 46 52 61 21 41 17 110 -11 174 -14 31 -25
64 -25 73 0 9 16 38 35 65 48 68 63 139 41 205 -22 68 -21 72 25 116 71 69 86
121 49 168 -49 62 -90 131 -90 150 0 26 28 57 50 57 25 0 33 -27 20 -66 -19
-56 15 -76 47 -28 16 24 16 28 -1 59 -23 42 -14 136 15 174 25 32 25 96 -1
162 l-21 52 46 42 c53 49 57 76 18 117 l-27 28 26 28 c66 72 73 113 33 192
-32 64 -32 80 6 116 46 44 59 76 59 148 0 58 -3 69 -35 110 -19 26 -35 48 -35
50 0 2 27 22 60 45 79 55 82 71 34 165 l-38 75 22 28 c92 114 96 127 62 193
-29 57 -26 91 11 126 43 40 59 76 59 128 0 36 -7 52 -35 86 -39 46 -40 40 17
108 24 27 28 42 28 90 0 56 1 59 46 97 34 28 61 41 97 46 28 5 63 19 81 33 37
30 41 30 96 11z m5097 -67 c9 -11 26 -35 38 -55 16 -29 32 -39 87 -57 104 -35
130 -68 88 -114 -24 -26 -40 -28 -40 -7 0 9 -9 15 -22 15 -12 0 -34 12 -49 26
-23 22 -30 24 -49 14 -17 -9 -25 -9 -39 4 -38 35 -61 15 -61 -53 0 -25 -7 -44
-20 -56 -19 -17 -21 -17 -40 0 -12 10 -29 33 -40 50 -23 38 -87 75 -129 75
-35 0 -44 25 -12 35 36 11 72 46 66 64 -5 18 2 24 80 58 81 35 111 35 142 1z
m-2210 -33 c26 -25 53 -45 60 -45 7 0 27 9 45 20 47 29 66 25 85 -15 19 -40
28 -43 43 -15 10 19 59 50 78 50 4 0 16 -6 26 -13 17 -13 17 -16 -14 -50 -50
-58 -22 -84 59 -56 44 16 58 0 31 -34 -28 -35 -61 -34 -102 2 -18 15 -43 33
-56 40 -20 11 -24 9 -40 -18 -9 -17 -22 -31 -29 -31 -6 0 -31 23 -54 50 -49
59 -75 63 -107 20 -13 -16 -28 -30 -35 -30 -24 1 -59 37 -66 70 -5 26 -14 36
-40 45 l-34 11 28 22 c41 33 68 28 122 -23z m568 -59 c70 -19 75 -22 75 -51 0
-31 25 -55 58 -55 36 0 49 10 57 43 13 51 74 64 102 21 30 -46 65 -54 133 -30
57 20 59 20 79 2 31 -29 26 -39 -32 -60 -104 -36 -174 -29 -248 25 -14 10 -25
7 -65 -19 -62 -42 -102 -42 -149 -1 l-35 32 20 33 20 34 -80 -1 c-85 -3 -96 1
-87 26 8 20 77 20 152 1z m948 -107 c48 -25 57 -35 57 -67 0 -15 10 -29 30
-40 34 -19 36 -41 4 -53 -28 -10 -100 37 -134 88 -14 21 -39 44 -55 53 -17 8
-32 16 -34 17 -1 1 0 6 4 12 11 18 83 12 128 -10z m192 -25 c29 -19 31 -35 8
-56 -28 -24 -64 -32 -74 -17 -14 22 -10 51 8 71 20 22 27 22 58 2z m116 2
c-16 -19 -70 -40 -79 -31 -11 11 38 45 65 45 21 0 23 -3 14 -14z m147 -38 c16
-16 15 -59 -3 -123 -19 -64 -31 -76 -76 -72 -29 2 -34 7 -37 29 -3 21 3 30 27
43 34 17 55 49 47 71 -16 41 -86 -15 -86 -68 0 -32 -42 -108 -59 -108 -14 0
-41 47 -41 70 0 43 145 169 196 170 11 0 25 -5 32 -12z m-581 -19 c36 -12 35
-30 -3 -48 -44 -20 -87 -13 -127 20 -20 17 -34 35 -31 41 7 12 109 3 161 -13z
m849 -34 c10 -25 -5 -64 -32 -81 -22 -15 -27 -15 -39 -3 -8 8 -17 28 -21 45
-5 25 -2 32 18 41 33 17 68 15 74 -2z m99 -145 c7 0 18 -7 25 -15 11 -13 6
-22 -29 -55 -74 -70 -97 -47 -54 53 26 60 29 64 36 42 5 -14 14 -25 22 -25z
m-6526 -102 c32 -85 96 -212 134 -267 17 -25 64 -80 105 -123 64 -67 75 -84
79 -121 11 -94 -56 -162 -157 -161 -150 2 -275 106 -408 339 -47 83 -122 251
-122 273 0 5 41 17 91 27 56 11 120 32 167 56 43 21 79 38 82 38 3 1 16 -27
29 -61z m5999 21 l29 -32 22 32 c26 36 41 39 66 11 17 -18 17 -21 -4 -55 -26
-44 -26 -58 -4 -96 24 -41 8 -64 -41 -63 -39 1 -38 3 -50 -76 -4 -27 -3 -31 5
-17 13 23 32 22 54 -3 15 -16 17 -26 9 -47 -19 -55 -74 -52 -74 5 0 23 -2 22
-38 -18 -35 -39 -40 -42 -61 -31 -25 14 -25 24 3 96 l15 40 -32 26 -31 27 28
37 c24 31 28 43 23 79 -3 23 -9 49 -12 58 -7 19 27 58 50 58 8 0 28 -14 43
-31z m515 -188 c35 -32 34 -58 -3 -107 -16 -21 -30 -50 -30 -64 0 -14 18 -54
40 -90 46 -75 49 -97 16 -136 -13 -16 -43 -51 -65 -77 -23 -27 -41 -52 -41
-56 0 -4 14 -26 31 -49 41 -56 36 -80 -24 -117 -52 -32 -52 -33 -32 -132 6
-25 3 -33 -13 -42 -11 -6 -28 -8 -36 -5 -29 11 -17 -23 34 -102 55 -84 60
-113 30 -158 l-19 -30 -10 27 c-8 19 -18 27 -35 27 -23 0 -25 -4 -32 -77 -4
-52 -3 -93 5 -123 13 -49 13 -50 -63 -105 -27 -19 -28 -22 -16 -64 6 -23 8
-46 5 -49 -14 -14 -30 36 -30 96 0 59 2 65 28 84 24 17 57 71 57 93 0 10 -40
5 -60 -7 -26 -17 -31 -8 -19 35 9 33 7 43 -17 85 -43 77 -12 130 60 102 14 -5
33 -7 42 -3 23 9 12 63 -20 106 -14 19 -26 41 -26 51 0 9 18 36 40 60 47 51
50 77 13 105 l-28 20 33 26 c38 32 40 48 7 63 -36 17 -31 40 21 93 l46 47 -21
29 c-12 16 -24 45 -27 65 -6 36 -5 37 27 40 45 4 51 37 15 73 -14 14 -26 37
-26 50 0 19 6 24 33 27 30 3 32 5 29 38 -5 58 -4 122 3 168 8 48 4 49 78 -17z
m-643 -226 c7 -8 17 -12 23 -8 6 3 7 1 3 -5 -5 -9 6 -12 38 -12 l46 0 11 -45
c6 -25 17 -45 25 -45 19 0 54 -54 54 -84 0 -36 -34 -68 -68 -64 -22 2 -28 9
-30 35 -2 24 2 35 17 45 12 7 21 15 21 18 0 8 -88 5 -97 -3 -4 -4 -8 -39 -10
-77 -3 -68 -2 -70 22 -70 14 0 29 -8 35 -20 9 -18 6 -27 -19 -56 -39 -43 -39
-54 -2 -54 20 0 36 -9 50 -26 23 -29 18 -49 -22 -81 -38 -30 -39 -40 -12 -90
32 -60 31 -76 -1 -102 -36 -28 -52 -26 -72 9 -25 44 -58 41 -67 -7 -6 -33 -3
-40 19 -60 18 -15 26 -32 26 -54 0 -30 1 -31 18 -16 10 10 22 17 27 17 19 0
45 -35 45 -62 0 -29 -38 -78 -60 -78 -6 0 -25 7 -42 16 -30 15 -32 15 -45 -2
-7 -10 -13 -24 -13 -31 0 -18 37 -53 55 -53 24 0 18 -24 -20 -79 -19 -29 -37
-67 -41 -86 -4 -25 -13 -36 -34 -44 -37 -12 -48 -46 -24 -73 19 -20 19 -20 41
6 12 14 27 42 32 62 11 40 47 84 68 84 21 0 15 -22 -28 -103 -31 -57 -49 -79
-70 -86 -30 -10 -38 -33 -16 -50 67 -55 66 -54 54 -90 -12 -35 -56 -65 -110
-76 -24 -5 -26 -8 -17 -25 6 -11 23 -23 38 -26 32 -8 72 -42 72 -62 0 -8 -8
-27 -17 -42 -16 -28 -16 -29 8 -49 17 -15 20 -21 9 -21 -8 -1 -35 -16 -60 -34
-44 -31 -45 -34 -48 -91 -3 -47 1 -64 18 -87 29 -40 22 -61 -25 -76 -44 -14
-85 -48 -85 -69 0 -16 2 -16 34 -2 20 9 29 9 41 -1 38 -31 0 -97 -49 -84 -21
5 -32 -1 -65 -35 -50 -51 -64 -116 -36 -163 22 -38 14 -65 -30 -108 l-36 -35
-45 47 c-57 60 -57 83 1 148 43 49 45 53 45 115 0 62 4 71 33 66 5 -1 5 4 0
11 -4 7 -13 29 -20 48 l-12 34 69 72 c39 40 70 78 70 85 0 7 -14 28 -31 45
l-32 33 42 47 c22 26 41 52 41 59 0 7 -16 33 -36 59 -19 25 -40 60 -46 76 -9
27 -7 35 18 66 82 100 85 111 59 185 -15 41 -15 45 5 69 32 38 80 146 80 178
0 15 -7 37 -15 49 -41 58 -39 70 19 131 82 87 92 120 57 178 -12 19 -21 61
-26 113 -7 78 -6 84 19 121 14 22 30 40 35 40 5 0 23 19 40 42 45 61 43 109
-9 171 -44 54 -44 65 6 117 59 63 70 129 29 178 -13 16 -22 32 -18 36 11 10
30 7 43 -9z m305 -116 c8 -23 -1 -39 -20 -39 -18 0 -38 37 -31 55 7 19 44 7
51 -16z m130 -109 c11 -18 -42 -60 -75 -60 -38 0 -40 21 -4 49 28 22 69 28 79
11z m-132 -142 c29 -21 35 -54 17 -89 -12 -22 -42 -25 -59 -6 -13 17 -10 127
4 119 6 -3 22 -14 38 -24z m-64 -198 c22 -11 45 -64 38 -84 -7 -17 -54 -10
-79 12 -21 17 -23 53 -6 70 15 15 24 15 47 2z m60 -192 c12 -31 5 -38 -29 -31
-25 5 -30 2 -30 -14 0 -26 -33 -56 -57 -51 -22 4 -30 60 -10 76 14 12 83 39
105 41 7 0 16 -9 21 -21z m-41 -210 c7 -7 12 -39 12 -75 0 -68 -12 -83 -64
-83 -22 0 -26 5 -26 29 0 16 6 34 13 40 8 6 12 23 9 41 -7 47 27 77 56 48z
m-5540 -150 c16 -16 15 -58 -1 -58 -7 0 -18 5 -25 12 -9 9 -9 2 -1 -27 14 -48
-2 -108 -44 -171 -28 -43 -29 -49 -23 -115 l6 -69 -40 0 -40 0 0 -47 c0 -27
-9 -68 -20 -92 -23 -50 -26 -114 -6 -130 15 -12 20 -3 52 93 19 58 54 116 71
116 17 0 54 -51 51 -69 -2 -8 -28 -33 -58 -54 -74 -52 -78 -65 -39 -153 21
-47 30 -80 26 -96 -4 -13 -29 -50 -57 -82 -29 -33 -50 -67 -50 -80 0 -13 14
-56 30 -96 17 -40 30 -86 30 -102 0 -33 -34 -69 -92 -99 -53 -27 -52 -66 2
-138 46 -61 46 -69 -5 -143 -34 -49 -58 -140 -55 -211 1 -33 -5 -44 -50 -87
-43 -41 -50 -54 -50 -87 0 -49 -44 -120 -65 -103 -7 6 -16 29 -20 50 -9 52
-42 95 -61 80 -7 -7 -18 -9 -24 -5 -16 10 -12 33 8 38 13 3 11 6 -10 15 -35
14 -35 35 -2 61 34 27 62 27 66 1 3 -19 5 -19 24 -6 32 23 39 91 18 167 l-17
62 46 43 c26 24 47 51 47 61 0 10 -8 48 -17 86 -13 50 -22 67 -34 67 -36 0
-49 12 -49 46 0 34 28 64 60 64 18 0 61 42 79 77 22 42 13 119 -19 177 -38 67
-32 89 43 144 84 63 98 128 43 209 -42 61 -33 89 40 126 49 25 65 99 25 112
-10 3 -29 17 -42 31 -29 31 -20 49 37 79 33 17 40 27 47 65 5 24 15 49 23 55
8 5 18 34 23 64 8 53 36 90 68 91 6 0 15 9 18 20 7 23 16 25 33 8z m5712 -331
c294 -148 521 -336 594 -491 96 -204 34 -409 -184 -607 -45 -41 -85 -75 -90
-77 -6 -2 -15 9 -20 25 -38 101 -115 200 -200 254 l-25 16 59 54 c65 59 106
132 106 188 0 100 -99 199 -339 337 -46 27 -107 69 -134 94 -44 41 -50 51 -54
96 -10 98 48 163 152 173 6 1 67 -27 135 -62z m4 -468 c76 -50 131 -110 142
-156 11 -42 -7 -76 -76 -147 l-68 -70 -58 12 c-78 16 -83 23 -56 75 13 24 21
59 21 82 -1 22 2 54 6 71 6 27 2 37 -29 72 -38 41 -43 60 -26 93 18 32 60 23
144 -32z m-816 -62 c13 -15 6 -27 -28 -50 -32 -22 -40 -21 -40 4 0 49 42 78
68 46z m620 -42 c11 -10 11 -18 3 -33 -14 -26 -14 -69 -1 -77 28 -17 -8 -83
-58 -109 -15 -7 -42 -16 -60 -19 l-33 -7 26 45 c23 39 25 48 16 82 -14 50 -14
53 7 53 27 0 42 20 42 58 0 30 2 33 23 27 12 -4 28 -13 35 -20z m185 -358
c214 -106 315 -341 200 -468 -38 -42 -53 -43 -53 -2 0 67 -56 170 -80 147 -8
-8 -6 -19 5 -40 35 -68 7 -262 -51 -345 -27 -40 -64 -74 -87 -82 -14 -4 -12
-118 3 -147 19 -36 40 -25 40 23 0 51 31 107 60 107 20 0 42 -33 54 -83 4 -17
0 -52 -10 -85 -33 -117 -156 -187 -259 -148 -55 22 -104 76 -130 148 -16 42
-20 78 -20 170 0 65 -3 118 -6 118 -17 0 -43 -84 -47 -157 -4 -76 8 -144 44
-237 6 -15 2 -16 -91 -31 -70 -11 -190 78 -221 164 -30 85 -30 278 2 389 5 16
2 22 -10 22 -20 0 -49 -58 -70 -141 -19 -79 -20 -145 -2 -222 7 -31 10 -59 7
-62 -4 -2 -25 0 -47 5 -53 12 -124 89 -147 160 -63 193 35 439 227 574 168
117 373 148 519 77 75 -36 90 -23 32 28 -36 31 -145 71 -196 71 -33 0 -37 10
-11 34 48 42 94 56 183 54 76 -3 94 -7 162 -41z m-683 -57 c0 -5 -4 -10 -10
-10 -5 0 -10 5 -10 10 0 6 5 10 10 10 6 0 10 -4 10 -10z m-5253 -600 c6 -23
13 -24 67 -9 52 14 75 7 137 -46 65 -56 98 -58 176 -14 47 27 57 30 82 19 15
-6 39 -29 52 -51 46 -75 44 -74 96 -73 26 1 68 11 92 22 49 22 64 20 126 -22
46 -31 73 -33 127 -5 46 24 101 27 124 8 8 -7 22 -25 29 -39 13 -25 21 -28 87
-33 68 -5 77 -3 127 25 66 37 87 33 136 -28 l38 -46 61 5 c33 2 88 14 120 26
71 27 93 23 146 -25 44 -40 70 -40 70 1 0 37 35 33 89 -10 63 -50 80 -52 157
-16 60 28 68 30 97 17 50 -21 95 -64 116 -111 15 -35 25 -44 52 -50 47 -9 89
-26 89 -35 0 -15 -31 -40 -57 -46 -46 -12 -98 13 -167 82 -53 52 -71 65 -93
62 -35 -4 -39 -21 -8 -38 56 -30 5 -62 -65 -41 -20 6 -51 11 -67 11 -30 0 -83
33 -83 51 0 5 16 9 36 9 44 0 42 21 -5 34 -33 9 -85 1 -148 -25 -29 -12 -35
-11 -62 9 -26 19 -43 22 -119 22 -87 0 -88 0 -121 -34 -28 -28 -37 -32 -59
-26 -87 26 -123 33 -171 32 -62 -2 -88 10 -101 44 -8 21 -16 24 -62 25 -29 1
-70 2 -90 3 -25 1 -46 9 -65 27 -27 26 -103 49 -159 49 -15 0 -43 -15 -67 -35
-22 -19 -48 -35 -58 -35 -21 0 -42 25 -37 42 4 9 -19 16 -80 23 -84 10 -119
30 -73 42 32 8 26 33 -8 33 -15 0 -42 5 -60 11 -17 6 -43 8 -57 5 -21 -6 -24
-9 -14 -21 7 -8 25 -15 40 -15 29 0 56 -23 46 -39 -4 -5 -20 -13 -38 -16 -21
-5 -54 -31 -98 -76 -75 -78 -107 -88 -156 -46 -40 34 -27 57 31 57 50 0 103
18 123 43 10 12 11 21 2 37 -11 20 -13 20 -35 6 -54 -35 -94 -6 -72 53 16 43
1 54 -82 58 -61 4 -75 1 -110 -21 -22 -14 -47 -37 -56 -49 -15 -24 -55 -47
-79 -47 -8 0 -19 13 -24 30 -20 55 32 171 63 142 4 -4 5 9 2 30 -7 43 -3 48
36 48 20 0 30 -6 34 -20z m4899 -55 c-7 -18 -26 -20 -26 -2 0 18 24 41 28 27
2 -6 1 -17 -2 -25z m54 -161 c25 -67 46 -97 89 -124 13 -9 25 -27 26 -41 2
-14 9 -36 16 -48 12 -18 12 -23 -1 -31 -27 -18 -46 -10 -79 30 -17 22 -36 40
-41 40 -17 0 -11 -56 10 -104 17 -40 23 -46 43 -41 31 8 44 -9 52 -70 6 -43 4
-53 -14 -69 -20 -18 -21 -18 -51 15 -74 81 -83 89 -98 77 -10 -9 -12 -25 -8
-55 5 -40 4 -43 -13 -33 -25 13 -71 68 -71 85 0 18 -53 35 -130 41 -90 7 -110
12 -110 28 0 14 27 40 51 49 9 3 34 -3 57 -13 46 -21 65 -13 76 31 9 43 34 44
71 4 27 -31 34 -34 44 -21 7 8 10 24 6 34 -3 11 2 36 11 55 16 33 16 39 0 97
-17 58 -15 91 6 118 20 24 33 11 58 -54z m-4805 21 c0 -28 -29 -25 -33 3 -3
19 0 23 15 20 10 -2 18 -12 18 -23z m-97 -47 c7 -7 12 -18 12 -24 0 -16 -47
-49 -80 -57 -66 -16 -63 44 3 74 50 22 50 22 65 7z m892 -83 c55 -28 62 -40
28 -48 -21 -6 -111 7 -129 18 -23 15 1 55 33 55 10 0 41 -11 68 -25z m1615 15
c7 0 43 -22 81 -50 80 -59 106 -62 194 -25 75 31 95 31 155 -1 61 -32 88 -33
158 -4 l56 23 42 -29 c31 -21 55 -29 93 -31 28 -1 78 -5 112 -9 60 -6 104 5
104 26 0 5 -17 21 -37 34 -31 22 -34 26 -19 32 11 4 40 -2 70 -15 59 -26 65
-28 128 -36 40 -5 60 -17 124 -71 l77 -66 24 26 c19 20 33 26 67 26 24 0 60 7
79 15 34 14 39 14 82 -7 41 -20 50 -21 90 -10 41 11 50 10 85 -8 49 -25 77
-25 115 0 52 34 78 22 68 -31 -4 -20 3 -31 31 -53 42 -31 43 -39 16 -73 l-20
-25 26 -32 c31 -37 98 -84 132 -93 17 -4 31 2 51 21 15 14 35 26 44 26 18 0
59 -58 54 -74 -2 -5 -57 -10 -122 -12 -114 -2 -122 -1 -152 22 -17 13 -43 48
-57 78 -21 44 -33 57 -61 66 -20 7 -42 24 -52 41 -22 37 -34 36 -78 -3 -47
-41 -120 -51 -148 -20 -18 19 -17 20 17 42 20 12 36 25 36 30 0 4 -30 13 -66
19 -60 11 -68 10 -100 -9 l-34 -22 6 31 c9 41 -7 40 -76 -4 -56 -35 -95 -42
-150 -26 -18 5 -42 -1 -85 -21 -33 -15 -67 -28 -75 -28 -23 0 -40 20 -40 46 0
17 8 24 29 29 42 9 58 31 32 44 -28 16 -47 14 -91 -9 -22 -11 -59 -20 -82 -20
-50 0 -88 -22 -88 -51 0 -24 43 -69 66 -69 19 0 114 -59 114 -71 0 -13 -76
-49 -103 -49 -28 0 -77 35 -77 55 0 7 7 18 15 25 19 16 19 25 0 44 -12 11 -22
13 -40 6 -53 -20 -123 20 -79 45 37 21 54 46 54 78 0 31 -3 33 -68 56 -103 36
-123 37 -150 8 -30 -32 -19 -39 75 -45 70 -4 87 -12 61 -28 -6 -4 -48 -13 -92
-20 -45 -8 -100 -17 -123 -22 -49 -11 -80 2 -49 19 30 18 56 48 56 64 0 30
-31 28 -64 -4 -48 -47 -91 -37 -110 27 -8 25 -26 30 -26 7 0 -8 -12 -17 -27
-20 -16 -3 -51 -12 -79 -20 -28 -8 -60 -15 -71 -15 -26 0 -94 54 -112 88 -7
15 -16 29 -18 32 -3 3 -43 7 -90 10 -53 3 -88 10 -90 17 -5 14 136 86 155 78
7 -3 19 -5 27 -5z m-2119 -24 c3 -8 0 -32 -6 -55 -9 -33 -15 -41 -34 -41 -13
0 -29 7 -36 15 -10 12 -6 22 20 55 34 42 47 49 56 26z m182 -45 c11 -6 37 -11
56 -11 25 0 38 -6 46 -19 17 -33 12 -61 -13 -72 -20 -9 -36 -5 -93 21 -80 37
-104 56 -104 81 0 29 53 30 108 0z m1142 -51 c8 -15 6 -21 -9 -30 -44 -23 -82
-3 -67 35 8 23 63 19 76 -5z m-550 -12 c53 -27 57 -49 13 -61 -27 -8 -39 -5
-77 17 -92 54 -33 93 64 44z m235 -58 c42 -43 82 -52 105 -25 10 12 8 18 -11
34 -40 32 -13 35 36 5 65 -41 75 -94 17 -94 -15 0 -63 7 -107 15 -44 8 -97 17
-117 20 -21 3 -38 10 -38 16 0 29 37 64 70 68 3 1 24 -17 45 -39z m-532 23 c4
-3 -2 -17 -14 -29 -46 -49 21 -61 75 -13 25 21 43 29 62 27 l28 -3 -35 -37
c-37 -39 -75 -54 -111 -44 -28 7 -92 82 -83 96 7 11 68 14 78 3z m1021 -42
c19 -21 15 -26 -31 -36 -19 -4 -35 -14 -38 -26 -12 -37 -76 -18 -89 28 -6 19
-2 23 31 32 99 25 106 25 127 2z m233 -29 c29 -5 55 -11 58 -14 3 -3 0 -17 -6
-32 -9 -18 -22 -27 -46 -31 -18 -3 -48 -7 -67 -10 -19 -3 -45 0 -59 6 -22 10
-25 16 -20 43 9 47 22 59 57 51 17 -3 54 -9 83 -13z m446 -42 c37 -23 47 -35
47 -56 0 -33 -35 -91 -59 -99 -25 -8 -51 4 -51 23 0 8 3 12 7 9 9 -9 33 12 33
29 0 17 -32 18 -48 2 -7 -7 -12 -8 -12 -1 0 5 -11 22 -24 36 -22 23 -29 26
-52 17 -15 -6 -40 -21 -55 -34 -45 -38 -92 -14 -105 52 l-7 32 54 -5 c35 -4
70 -1 99 9 73 24 120 20 173 -14z m2140 -40 c2 -28 -3 -37 -31 -53 -42 -25
-82 -17 -82 16 0 13 16 43 36 66 37 42 37 42 56 23 11 -11 20 -34 21 -52z
m-1881 15 c35 -49 60 -61 113 -52 53 9 59 -29 9 -52 -40 -18 -62 -13 -127 26
-34 20 -72 43 -84 50 -28 17 -29 27 -3 53 32 32 57 25 92 -25z m1116 -18 c16
-46 15 -55 -8 -67 -26 -14 -57 -5 -71 22 -9 17 -6 25 17 49 36 37 47 37 62 -4z
m1456 -19 c5 -14 6 -37 2 -52 -7 -29 -65 -99 -66 -79 0 7 8 17 18 22 23 14 6
14 -19 0 -19 -9 -19 -9 -10 10 6 11 16 23 21 26 6 3 10 15 10 26 0 14 -7 19
-25 19 -35 0 -44 28 -17 51 30 23 74 12 86 -23z m-171 -38 c11 -82 -20 -123
-62 -81 -29 29 -27 73 5 111 32 37 49 28 57 -30z m-2055 0 c45 -22 49 -29 30
-48 -31 -31 -108 4 -108 48 0 26 25 26 78 0z m1212 -15 c22 -66 -29 -96 -67
-38 -12 17 -11 23 8 46 28 36 45 34 59 -8z m-280 -4 l35 -29 -28 -13 c-55 -25
-116 25 -71 58 24 17 25 17 64 -16z m-2122 3 c53 -16 142 -15 183 1 9 3 34 -9
60 -29 53 -43 85 -51 137 -35 38 11 42 10 78 -19 22 -16 51 -32 65 -36 44 -10
96 12 131 54 24 31 38 40 63 40 35 0 54 -12 79 -54 18 -29 18 -29 100 -23 44
2 93 10 107 17 23 10 33 8 84 -19 65 -35 93 -38 155 -16 58 20 75 19 118 -10
42 -29 86 -32 158 -10 81 24 70 40 114 -165 13 -58 38 -147 56 -199 19 -51 34
-103 34 -114 0 -12 -16 -37 -34 -57 -45 -45 -63 -109 -47 -166 11 -42 69 -109
103 -120 18 -5 23 -25 32 -119 2 -28 12 -71 21 -95 9 -25 19 -58 22 -74 l6
-29 -284 8 c-156 4 -531 9 -834 11 -302 2 -553 3 -557 4 -5 0 -8 38 -8 84 0
129 -22 225 -75 322 -25 46 -45 90 -45 98 0 7 9 35 21 60 26 59 19 114 -21
160 -29 33 -105 76 -134 76 -14 0 -16 16 -16 128 0 118 13 284 26 325 7 21 30
22 102 1z m1800 0 c37 -25 24 -84 -19 -84 -18 0 -92 84 -82 94 12 12 79 6 101
-10z m1122 -22 c13 -11 20 -24 16 -30 -9 -16 -59 -15 -74 0 -23 23 -14 39 29
47 4 0 17 -7 29 -17z m-3345 -47 c51 -25 73 -29 145 -30 l84 -1 -4 -54 c-9
-99 -4 -244 9 -312 7 -37 10 -79 7 -92 -13 -52 -172 -79 -258 -43 -68 29 -72
45 -73 271 0 192 9 301 23 294 4 -2 34 -17 67 -33z m2403 3 c19 -19 14 -28
-13 -28 -18 0 -25 5 -25 20 0 22 20 26 38 8z m242 -27 c0 -17 -52 -51 -77 -51
-28 0 -93 28 -93 40 0 5 17 6 38 3 20 -2 55 0 77 5 54 13 55 13 55 3z m214
-50 c39 -21 38 -35 -1 -39 -24 -2 -39 3 -58 22 -46 46 -10 57 59 17z m591 9
c0 -35 -111 -64 -156 -40 -29 16 -23 27 24 44 54 19 132 17 132 -4z m223 -52
c-7 -20 -53 -42 -71 -35 -20 8 -12 34 11 40 36 10 64 7 60 -5z m-1205 -130
c61 -173 107 -316 107 -330 0 -23 -63 -73 -109 -87 -49 -14 -123 -14 -155 1
-35 15 -51 43 -96 163 -37 96 -85 264 -78 270 2 2 28 -1 58 -7 64 -12 148 -5
205 16 55 20 52 21 68 -26z m-2613 -203 c0 -58 34 -97 106 -124 72 -28 192
-28 250 -2 47 22 84 64 84 97 0 28 18 31 60 9 45 -23 65 -69 51 -116 -21 -71
-117 -122 -256 -137 -166 -18 -305 21 -390 108 -36 37 -40 46 -39 90 0 33 7
56 18 69 22 24 96 62 108 55 4 -3 8 -25 8 -49z m2877 -75 c8 0 28 -13 44 -29
80 -81 -13 -175 -256 -261 -122 -43 -241 -51 -307 -22 -80 35 -99 92 -59 176
24 49 36 57 45 28 4 -10 22 -34 42 -53 35 -34 35 -34 132 -34 86 0 104 3 154
28 31 15 71 44 88 64 27 30 31 41 26 69 -6 30 -4 33 21 37 15 2 34 2 41 0 8
-1 20 -3 29 -3z m-2995 -187 c118 -55 196 -151 156 -191 -28 -28 -65 -13 -154
64 -49 43 -108 86 -134 96 -25 11 -56 24 -70 30 l-25 11 30 13 c45 21 122 12
197 -23z m3226 3 c97 -50 214 -134 262 -189 24 -26 41 -49 39 -51 -2 -2 -24
-1 -47 3 -37 5 -48 13 -71 46 -15 22 -44 50 -65 61 -22 12 -44 35 -51 51 -17
41 -35 52 -101 65 -89 16 -88 16 -74 33 18 22 33 19 108 -19z m-2563 -53 c28
-43 85 -182 85 -211 0 -73 -507 -282 -766 -317 l-51 -6 1 78 c1 43 -3 90 -8
106 -8 26 -7 27 26 27 61 0 97 19 119 61 16 32 25 39 50 39 107 0 173 107 108
176 l-20 22 118 -1 c119 -1 213 16 273 48 35 20 36 19 65 -22z m-914 -9 c80
-24 126 -50 185 -106 61 -58 81 -96 64 -127 -7 -15 -20 -21 -44 -21 -39 0 -89
37 -162 118 -28 32 -70 65 -105 83 -33 16 -59 33 -59 38 0 8 38 29 56 30 6 1
35 -6 65 -15z m3446 -16 c18 -7 33 -15 33 -18 0 -3 -39 -12 -87 -19 -104 -14
-189 -49 -297 -119 -85 -56 -97 -60 -116 -37 -31 37 22 83 170 146 136 58 227
72 297 47z m-3653 -48 c111 -42 174 -89 258 -191 68 -83 96 -195 64 -258 -14
-25 -22 -29 -83 -34 -233 -22 -531 9 -660 70 -121 56 -133 165 -34 291 47 59
135 121 198 138 64 18 185 11 257 -16z m3764 -60 c23 -10 42 -23 42 -27 0 -5
-37 -14 -82 -21 -141 -22 -231 -51 -319 -103 -46 -27 -87 -49 -90 -49 -4 0
-12 7 -19 15 -40 48 122 165 265 190 100 19 154 17 203 -5z m-664 -54 c-11
-47 36 -106 85 -106 14 0 21 -6 21 -20 0 -12 11 -32 25 -46 l24 -24 -28 -45
c-16 -25 -32 -61 -35 -80 -4 -19 -11 -35 -15 -35 -4 0 -27 13 -49 30 -69 49
-122 159 -137 283 l-7 56 38 4 c87 9 85 9 78 -17z m886 -78 c124 -30 252 -115
290 -193 22 -45 22 -49 7 -81 -21 -42 -97 -98 -162 -118 -82 -26 -242 -46
-365 -46 -184 0 -415 56 -482 117 -79 71 107 255 313 308 132 35 287 40 399
13z m-2760 -94 c0 -44 -5 -59 -22 -77 -67 -67 -401 -195 -648 -250 -122 -28
-370 -57 -477 -57 -113 0 -342 30 -423 55 -124 40 -187 95 -197 175 -6 42 5
52 28 24 24 -29 112 -66 229 -97 110 -29 124 -30 325 -31 287 -1 467 25 712
105 130 42 331 133 413 187 25 16 48 28 53 25 4 -2 7 -29 7 -59z m1892 -217
c91 -61 265 -132 383 -156 305 -62 639 -17 784 104 l31 27 0 -57 c0 -54 -3
-60 -37 -93 -87 -82 -242 -117 -518 -117 -206 1 -304 16 -454 71 -105 38 -169
75 -220 128 -27 28 -35 45 -39 85 -2 28 -2 51 0 51 3 0 34 -20 70 -43z"/>
<path d="M3187 6884 c-22 -22 0 -84 30 -84 14 0 50 66 42 75 -10 9 -64 16 -72
9z"/>
<path d="M3193 6688 c-19 -24 -23 -65 -9 -77 11 -9 17 -4 31 24 23 49 6 88
-22 53z"/>
<path d="M3155 6527 c-34 -33 -45 -51 -45 -73 0 -28 2 -30 33 -26 27 3 37 12
60 53 52 93 27 117 -48 46z"/>
<path d="M3106 6370 c-8 -45 -8 -100 2 -100 31 0 42 66 18 109 l-13 23 -7 -32z"/>
<path d="M3090 5981 c-26 -49 -4 -72 36 -37 24 20 26 26 15 40 -18 21 -38 20
-51 -3z"/>
<path d="M3054 5826 c-9 -25 0 -61 16 -61 10 0 16 12 18 38 2 28 0 37 -13 37
-8 0 -18 -6 -21 -14z"/>
<path d="M3038 5683 c-27 -31 -59 -104 -56 -126 4 -30 39 -33 63 -7 14 15 20
39 22 86 2 67 -3 76 -29 47z"/>
<path d="M3032 5421 c-11 -18 -23 -53 -27 -78 -3 -24 -20 -67 -36 -94 -16 -28
-29 -52 -29 -54 0 -15 34 0 79 36 l51 41 0 76 c0 98 -11 118 -38 73z"/>
<path d="M7460 7085 c-17 -20 6 -55 55 -85 33 -20 38 -21 52 -7 22 21 8 53
-35 82 -42 29 -55 31 -72 10z"/>
<path d="M4795 6959 c-101 -13 -187 -74 -235 -168 -22 -44 -26 -86 -10 -96 6
-4 39 11 73 34 110 71 151 84 257 85 89 1 99 -1 160 -33 36 -18 76 -42 89 -52
28 -23 41 -17 41 19 -1 37 -18 65 -75 123 -72 74 -176 104 -300 88z"/>
<path d="M3805 6875 c-36 -35 -35 -96 3 -125 21 -17 36 -21 67 -17 115 16 110
167 -5 167 -30 0 -47 -6 -65 -25z"/>
<path d="M4340 6861 c0 -16 28 -20 40 -5 10 12 8 14 -14 14 -14 0 -26 -4 -26
-9z"/>
<path d="M6110 6841 c-91 -29 -194 -139 -176 -186 7 -19 7 -19 111 20 61 24
81 26 161 23 79 -3 100 -8 160 -38 42 -20 90 -55 122 -88 79 -81 105 -54 60
62 -28 75 -83 135 -160 176 -57 31 -72 34 -158 37 -52 1 -106 -1 -120 -6z"/>
<path d="M4835 6600 c-131 -19 -260 -139 -323 -300 -65 -166 -84 -399 -44
-553 14 -55 16 -80 8 -82 -6 -2 -26 -6 -44 -9 -50 -9 -121 -43 -128 -61 -4 -9
0 -23 8 -31 12 -13 20 -13 57 1 69 24 231 20 329 -8 100 -29 222 -99 222 -128
0 -47 25 -111 58 -150 48 -56 101 -79 182 -79 80 0 114 16 118 54 l4 28 -75
-7 c-83 -8 -112 2 -158 52 -58 62 -61 149 -8 202 61 62 139 54 244 -23 13 -10
25 -12 34 -6 12 7 12 12 -3 35 -15 22 -89 78 -118 87 -5 2 0 28 10 58 11 30
29 106 42 169 19 97 22 135 18 260 -6 175 -24 240 -92 335 -54 76 -142 139
-216 155 -28 6 -56 10 -63 10 -7 -1 -35 -5 -62 -9z m131 -95 c41 -17 124 -75
124 -87 0 -4 -17 -8 -37 -8 -158 0 -293 -236 -293 -512 0 -115 17 -198 55
-266 21 -37 22 -43 7 -37 -58 24 -127 45 -167 51 -54 8 -67 23 -89 111 -45
174 -20 406 59 563 76 150 228 233 341 185z m33 -391 c49 -63 4 -164 -72 -164
-36 0 -77 52 -77 97 0 79 103 125 149 67z"/>
<path d="M6100 6479 c-153 -26 -270 -134 -349 -323 -43 -103 -61 -209 -61
-351 1 -166 19 -258 70 -352 l41 -76 -26 -27 c-27 -28 -32 -49 -14 -67 9 -9
21 -6 48 11 53 33 153 71 261 97 82 20 120 24 280 24 l185 0 74 -32 c41 -18
78 -30 83 -27 14 9 9 40 -11 58 -22 20 -149 75 -173 76 -23 0 -23 7 5 82 40
105 52 191 52 363 0 193 -17 261 -92 370 -95 138 -225 199 -373 174z m149
-104 c23 -8 62 -29 88 -46 l47 -33 -63 -12 c-87 -18 -144 -55 -196 -125 -77
-105 -118 -243 -119 -404 0 -94 4 -122 28 -193 15 -46 26 -85 24 -86 -2 -1
-39 -13 -83 -28 -57 -19 -83 -24 -92 -16 -19 15 -68 126 -84 188 -9 34 -14
107 -14 190 0 111 4 149 23 215 66 228 194 364 343 365 31 0 75 -7 98 -15z
m-14 -351 c21 -9 45 -56 45 -91 0 -29 -22 -68 -50 -90 -44 -35 -120 16 -120
82 0 39 22 90 42 98 19 8 64 8 83 1z"/>
<path d="M8160 6441 c0 -5 7 -14 15 -21 18 -15 42 1 31 19 -8 13 -46 15 -46 2z"/>
<path d="M3887 6399 c-109 -18 -234 -101 -296 -197 -56 -88 -73 -154 -68 -267
5 -125 33 -189 118 -270 68 -65 139 -100 245 -122 148 -30 313 17 361 102 21
37 31 85 17 85 -3 0 -38 -14 -77 -32 -204 -90 -452 -17 -533 156 -27 59 -32
152 -9 201 13 29 13 28 14 -36 3 -201 220 -345 453 -299 111 22 178 71 178
132 0 23 -6 31 -30 39 -40 14 -40 44 1 58 31 11 31 11 27 75 -3 63 -2 65 19
60 32 -8 42 22 16 48 -18 18 -21 18 -36 4 -15 -15 -20 -13 -59 27 -51 50 -129
91 -161 84 -12 -3 -37 -11 -54 -18 -31 -13 -34 -12 -67 20 -33 32 -34 32 -70
17 -32 -13 -36 -19 -36 -50 0 -45 -25 -61 -67 -44 -15 6 -31 11 -35 10 -19 -4
-5 27 25 56 72 70 209 100 309 67 29 -9 83 -37 120 -61 109 -70 144 -53 66 32
-91 99 -232 146 -371 123z m195 -206 c22 -20 23 -31 1 -55 -31 -34 -83 -17
-83 27 0 43 47 60 82 28z m-164 -89 c3 -27 -4 -37 -54 -78 -69 -57 -109 -61
-109 -11 0 27 5 32 43 44 33 10 47 21 60 48 21 44 56 43 60 -3z m280 -17 c4
-20 -25 -34 -40 -19 -15 15 -1 44 19 40 10 -2 19 -11 21 -21z m-258 -141 c0
-8 -5 -18 -11 -22 -14 -8 -33 11 -25 25 10 16 36 13 36 -3z m140 -3 c0 -47
-70 -71 -91 -31 -10 18 -8 24 7 35 27 19 84 17 84 -4z m-280 -49 c0 -9 -5 -14
-12 -12 -18 6 -21 28 -4 28 9 0 16 -7 16 -16z m342 -61 c24 -22 23 -37 -5 -52
-33 -18 -77 1 -77 32 0 13 3 27 7 30 12 13 56 7 75 -10z m-262 -13 c0 -5 -4
-10 -9 -10 -6 0 -13 5 -16 10 -3 6 1 10 9 10 9 0 16 -4 16 -10z"/>
<path d="M7271 6320 c-101 -27 -194 -81 -272 -159 -74 -75 -105 -131 -121
-222 -22 -124 20 -247 121 -352 89 -94 204 -141 346 -140 215 0 414 112 496
280 33 65 34 72 34 188 0 116 -1 123 -33 187 -92 187 -334 280 -571 218z m281
-85 c49 -17 116 -68 156 -121 73 -94 81 -210 24 -327 -55 -112 -156 -183 -301
-212 -100 -21 -189 -11 -284 32 -115 52 -202 190 -182 292 8 40 7 42 35 -58
17 -62 94 -141 173 -177 105 -47 237 -43 354 12 68 32 145 118 172 189 23 60
29 183 11 229 -15 40 -62 58 -125 51 -53 -7 -54 -7 -61 20 -12 47 -114 73
-158 40 -11 -8 -38 -15 -60 -15 -53 0 -110 -16 -126 -35 -10 -13 -10 -19 4
-33 18 -21 21 -89 5 -125 -24 -52 -103 -73 -139 -37 -42 42 -11 132 57 164 18
9 33 20 33 25 0 22 141 87 220 101 53 10 140 3 192 -15z m-244 -131 c4 -29
-23 -51 -43 -34 -16 13 -20 42 -8 54 14 14 48 1 51 -20z m176 -10 c4 -11 1
-14 -11 -12 -9 2 -18 9 -21 16 -6 18 25 15 32 -4z m166 -29 c0 -8 -7 -15 -15
-15 -8 0 -15 7 -15 15 0 8 7 15 15 15 8 0 15 -7 15 -15z m5 -86 c4 -13 0 -27
-11 -40 -22 -25 -41 -24 -54 2 -9 16 -8 25 6 40 23 25 51 24 59 -2z m-405 -80
c16 -28 12 -57 -9 -68 -22 -12 -46 9 -56 51 -11 45 43 60 65 17z m206 -14 c32
-50 -22 -103 -72 -70 -28 18 -30 41 -8 73 20 30 59 29 80 -3z m142 -33 c2 -7
-3 -12 -12 -12 -9 0 -16 7 -16 16 0 17 22 14 28 -4z m-478 -12 c0 -24 -26 -38
-42 -22 -16 16 -2 42 22 42 13 0 20 -7 20 -20z m410 -78 c0 -13 -12 -22 -22
-16 -10 6 -1 24 13 24 5 0 9 -4 9 -8z m-233 -47 c7 -20 -2 -29 -21 -22 -9 4
-13 13 -10 22 8 19 23 19 31 0z"/>
<path d="M8139 6289 c-9 -17 -8 -25 4 -36 13 -14 16 -13 27 7 12 23 7 50 -9
50 -6 0 -15 -10 -22 -21z"/>
<path d="M3430 6254 c0 -14 3 -14 15 -4 8 7 15 14 15 16 0 2 -7 4 -15 4 -8 0
-15 -7 -15 -16z"/>
<path d="M3378 6214 c-5 -4 -8 -19 -8 -33 1 -23 2 -24 11 -8 11 19 9 53 -3 41z"/>
<path d="M8032 5348 c-14 -14 -16 -28 -3 -28 9 0 24 30 18 36 -2 2 -9 -2 -15
-8z"/>
<path d="M3317 5266 c-4 -10 -5 -21 -2 -24 9 -9 17 6 13 25 -3 17 -4 17 -11
-1z"/>
<path d="M4581 5254 c-20 -15 -23 -22 -17 -61 6 -43 5 -45 -27 -58 -39 -16
-71 -50 -62 -64 16 -26 105 -3 105 27 0 27 22 18 83 -32 36 -29 81 -63 100
-75 31 -19 36 -28 42 -74 27 -209 127 -420 262 -553 70 -69 191 -129 288 -145
136 -21 333 18 450 89 128 78 270 241 353 407 16 33 46 113 67 178 34 110 38
118 58 113 12 -4 54 -9 92 -13 59 -5 73 -3 85 12 23 27 0 47 -71 62 -84 17
-134 53 -175 128 -22 38 -40 60 -51 60 -27 0 -29 -64 -4 -114 12 -22 21 -42
21 -45 0 -2 -22 -18 -50 -36 -216 -138 -660 -181 -1028 -99 -221 49 -423 169
-469 277 -15 37 -20 38 -52 16z m1368 -560 c28 -8 54 -21 57 -29 9 -23 -25
-75 -108 -161 -94 -97 -161 -141 -273 -180 -147 -49 -304 -33 -429 46 -54 35
-57 52 -17 107 75 104 231 176 344 159 l46 -7 -16 -34 c-23 -48 -10 -54 27
-12 92 106 239 150 369 111z"/>
<path d="M3650 5062 c-119 -40 -209 -104 -273 -194 -55 -78 -77 -134 -88 -221
-21 -163 55 -310 203 -395 161 -92 390 -97 559 -12 80 41 167 128 205 205 27
56 29 68 29 175 0 111 -1 118 -34 185 -48 98 -133 181 -236 231 -77 37 -84 39
-195 41 -90 2 -127 -1 -170 -15z m312 -105 c57 -25 125 -80 157 -126 23 -33
35 -81 20 -81 -6 0 -17 -7 -25 -15 -20 -19 -48 -19 -64 0 -18 22 2 65 30 65
20 0 20 1 4 26 -23 34 -69 57 -92 46 -9 -5 -39 -13 -66 -16 -42 -7 -51 -5 -72
15 -13 12 -24 32 -24 44 0 33 -73 52 -146 38 -62 -11 -60 -2 6 21 68 24 201
16 272 -17z m-238 -63 c20 -19 20 -28 1 -44 -31 -26 -82 13 -56 44 17 20 35
20 55 0z m-120 -57 c13 -21 -13 -51 -36 -42 -25 10 -31 38 -11 52 20 16 33 13
47 -10z m214 -40 c14 -17 -2 -42 -22 -34 -20 8 -21 47 -2 47 7 0 18 -6 24 -13z
m152 -16 c0 -29 -26 -47 -46 -30 -15 12 -14 15 6 31 28 23 40 23 40 -1z m-460
-25 c16 -20 9 -56 -13 -70 -14 -9 -21 -7 -32 7 -13 19 -11 40 8 65 12 16 22
15 37 -2z m204 -74 c22 -19 46 -73 46 -99 -1 -12 -21 -28 -59 -47 -55 -27 -59
-28 -88 -13 -41 22 -58 65 -44 110 24 73 92 95 145 49z m484 -86 c-6 -75 -32
-128 -90 -182 -53 -50 -81 -67 -141 -88 -126 -43 -273 -40 -380 8 -62 27 -140
94 -164 140 -16 31 -34 135 -26 149 3 4 17 -18 32 -50 68 -142 243 -231 403
-204 158 26 251 89 313 213 19 39 35 80 35 92 1 20 1 20 12 2 6 -11 8 -44 6
-80z m-290 72 c7 -7 12 -25 12 -40 0 -40 -39 -58 -75 -34 -31 20 -32 50 -3 70
27 19 50 20 66 4z m132 -39 c0 -5 -7 -9 -15 -9 -15 0 -20 12 -9 23 8 8 24 -1
24 -14z m25 -69 c9 -15 -14 -40 -36 -40 -22 0 -33 16 -25 35 6 17 52 20 61 5z
m-277 -98 c-4 -23 -41 -27 -58 -6 -12 14 -12 18 4 30 23 17 59 1 54 -24z m122
4 c0 -17 -7 -27 -22 -32 -29 -9 -34 -7 -30 14 6 34 12 42 32 42 15 0 20 -7 20
-24z"/>
<path d="M7093 4959 c-67 -11 -191 -61 -256 -103 -71 -45 -158 -142 -195 -216
-101 -201 -46 -427 132 -538 91 -58 146 -74 273 -79 200 -9 379 52 498 172 72
72 102 129 123 236 14 73 14 86 -1 155 -22 103 -51 157 -123 231 -72 74 -174
127 -274 143 -74 11 -104 11 -177 -1z m196 -108 c74 -23 151 -71 184 -114 53
-70 70 -118 75 -215 5 -88 3 -95 -27 -156 -17 -35 -50 -81 -72 -101 -90 -81
-259 -132 -399 -120 -178 15 -305 97 -348 224 -15 42 -16 118 -2 126 6 3 10
-2 10 -13 0 -114 143 -240 299 -262 58 -8 179 1 236 18 93 28 175 86 220 156
79 124 63 261 -38 334 -54 39 -65 39 -113 7 -44 -30 -66 -26 -143 22 -69 44
-105 48 -109 12 -5 -41 -36 -65 -70 -53 -33 11 -40 39 -16 65 26 29 -4 25 -46
-6 -40 -29 -60 -33 -36 -6 21 23 114 66 187 85 75 20 136 19 208 -3z m150
-145 c19 -23 2 -47 -32 -44 -36 4 -44 19 -22 42 20 20 39 20 54 2z m-513 -52
c28 -27 27 -56 -2 -102 -15 -23 -69 -52 -98 -52 -31 0 -60 36 -60 75 0 30 7
44 37 71 46 42 87 45 123 8z m152 -1 c-4 -22 -58 -31 -58 -10 0 20 10 27 37
27 18 0 24 -5 21 -17z m154 -20 c37 -33 8 -79 -45 -71 -28 4 -33 32 -13 63 19
29 33 31 58 8z m163 -97 c0 -32 -23 -53 -49 -43 -19 7 -21 48 -4 65 7 7 22 11
33 10 15 -2 20 -11 20 -32z m-371 -41 c-4 -8 -12 -15 -20 -15 -8 0 -14 7 -14
15 0 8 9 15 20 15 13 0 18 -5 14 -15z m176 -20 c79 -41 58 -145 -29 -145 -43
1 -62 14 -84 57 -38 72 35 128 113 88z m-350 -11 c11 -12 10 -18 -4 -32 -16
-16 -18 -16 -31 2 -11 14 -12 23 -4 33 15 17 24 16 39 -3z m490 -80 c0 -17
-22 -14 -28 4 -2 7 3 12 12 12 9 0 16 -7 16 -16z m-332 -47 c4 -20 -25 -34
-40 -19 -15 15 -1 44 19 40 10 -2 19 -11 21 -21z"/>
<path d="M5045 4190 c-11 -18 34 -97 80 -143 68 -66 186 -117 275 -117 53 0
179 38 225 67 73 47 139 123 117 137 -4 2 -33 -11 -64 -29 -61 -36 -154 -68
-229 -79 -104 -15 -247 43 -338 138 -36 37 -55 44 -66 26z"/>
<path d="M4335 4013 c-114 -15 -278 -102 -352 -186 -82 -93 -118 -196 -110
-311 8 -119 29 -170 102 -242 109 -110 236 -159 410 -158 129 1 246 27 340 77
83 45 188 146 222 215 25 52 28 67 28 167 0 105 -2 114 -33 177 -79 161 -283
270 -496 267 -45 -1 -94 -4 -111 -6z m253 -102 c90 -24 148 -58 205 -121 62
-69 87 -124 87 -191 0 -171 -178 -312 -430 -340 -243 -27 -470 103 -470 270 0
63 8 101 21 101 5 0 9 -12 9 -26 0 -41 48 -129 92 -169 22 -21 70 -51 106 -68
54 -25 81 -31 161 -35 55 -2 121 1 153 7 122 26 241 110 290 206 14 26 21 59
21 101 1 80 -22 120 -92 157 l-52 28 -35 -31 c-40 -34 -51 -36 -82 -14 -30 21
-26 65 6 79 31 14 27 25 -10 26 -54 2 -62 -1 -89 -32 -26 -30 -103 -59 -164
-62 -44 -3 -47 34 -6 64 17 13 31 28 31 35 0 35 139 44 248 15z m-386 -128
c10 -9 18 -22 18 -30 0 -28 -30 -72 -65 -93 -30 -19 -41 -21 -60 -12 -53 24
-38 92 28 132 39 24 55 25 79 3z m245 -39 c16 -42 -40 -69 -71 -35 -15 17 -16
23 -6 36 17 20 69 20 77 -1z m223 -34 c0 -5 -2 -10 -4 -10 -3 0 -8 5 -11 10
-3 6 -1 10 4 10 6 0 11 -4 11 -10z m-135 -40 c0 -7 -6 -15 -12 -17 -8 -3 -13
4 -13 17 0 13 5 20 13 18 6 -3 12 -11 12 -18z m-246 -36 c53 -44 35 -118 -35
-145 -26 -9 -85 8 -99 30 -12 21 6 71 40 106 39 42 54 43 94 9z m219 -56 c17
-17 15 -38 -5 -60 -28 -31 -83 -18 -83 21 0 39 61 66 88 39z m230 -46 c5 -17
-27 -27 -41 -13 -9 9 -8 14 3 21 18 11 32 8 38 -8z m-378 -113 c0 -12 -7 -19
-19 -19 -26 0 -36 17 -21 35 15 18 40 8 40 -16z m210 16 c15 -19 -3 -45 -31
-45 -27 0 -33 19 -13 41 21 23 28 24 44 4z"/>
<path d="M6165 3951 c-77 -13 -133 -30 -149 -46 -8 -8 -23 -15 -33 -15 -67 0
-269 -173 -317 -272 -152 -311 109 -628 499 -605 94 6 235 41 308 78 121 61
213 166 248 282 30 98 24 238 -13 320 -51 110 -164 202 -296 241 -67 19 -182
27 -247 17z m208 -101 c95 -30 174 -92 216 -169 32 -60 33 -68 29 -145 -3 -68
-10 -91 -38 -144 -132 -249 -564 -321 -768 -128 -70 65 -104 175 -81 257 l13
44 7 -57 c11 -77 38 -126 99 -181 68 -61 141 -88 255 -94 120 -7 209 14 293
69 100 65 152 138 171 242 21 111 -17 176 -112 196 -41 8 -60 18 -72 36 -32
50 -135 72 -155 34 -13 -24 -93 -80 -114 -80 -26 0 -58 38 -51 61 8 24 -2 24
-67 -2 -90 -36 -98 -39 -98 -35 0 12 114 74 170 93 87 30 212 31 303 3z m-72
-110 c22 -12 25 -36 5 -43 -17 -7 -36 11 -36 35 0 21 4 22 31 8z m-308 -50
c33 -26 41 -63 22 -99 -22 -44 -53 -61 -107 -61 -94 0 -119 72 -49 141 45 45
92 52 134 19z m513 -12 c10 -17 -26 -40 -42 -27 -7 6 -10 17 -7 25 6 17 39 19
49 2z m-342 -4 c24 -9 19 -33 -9 -46 -19 -8 -28 -8 -41 3 -15 12 -14 15 6 31
25 21 23 20 44 12z m304 -116 c17 -17 15 -63 -2 -78 -43 -35 -99 28 -61 70 20
23 45 26 63 8z m-211 -75 c13 -19 12 -24 -6 -42 -29 -29 -69 -27 -83 4 -24 54
56 88 89 38z m-342 -23 c0 -18 -6 -26 -23 -28 -13 -2 -25 3 -28 12 -10 26 4
48 28 44 17 -2 23 -10 23 -28z m95 -94 c0 -15 -37 -32 -47 -22 -9 8 17 36 33
36 8 0 14 -6 14 -14z m110 -36 c0 -5 -7 -10 -15 -10 -8 0 -15 5 -15 10 0 6 7
10 15 10 8 0 15 -4 15 -10z m160 -5 c0 -8 -9 -15 -20 -15 -20 0 -26 11 -13 23
12 13 33 7 33 -8z"/>
<path d="M3297 3865 c-50 -47 -29 -128 37 -141 85 -15 146 75 95 140 -29 36
-93 37 -132 1z"/>
<path d="M7327 3609 c-39 -11 -55 -26 -62 -60 -14 -61 35 -119 100 -119 35 0
85 50 85 85 0 21 -25 85 -33 85 -1 0 -16 4 -32 8 -17 5 -43 5 -58 1z"/>
<path d="M3048 3349 c-11 -6 -18 -22 -18 -41 0 -40 55 -93 106 -102 55 -11 62
5 25 55 -17 24 -31 51 -31 61 0 31 -48 47 -82 27z"/>
<path d="M5241 3171 c-38 -36 -40 -69 -5 -110 52 -62 154 -29 154 48 0 87 -84
122 -149 62z"/>
<path d="M7003 3148 c-30 -14 -46 -58 -34 -89 13 -36 36 -51 78 -51 49 0 98
50 88 91 -12 53 -75 76 -132 49z"/>
<path d="M7417 2951 c-50 -48 -60 -62 -49 -73 25 -25 132 57 132 102 0 38 -22
30 -83 -29z"/>
<path d="M5020 2910 c0 -23 4 -24 31 -9 23 12 16 29 -12 29 -12 0 -19 -7 -19
-20z"/>
<path d="M6460 2780 c0 -5 20 -10 45 -10 25 0 45 5 45 10 0 6 -20 10 -45 10
-25 0 -45 -4 -45 -10z"/>
<path d="M7210 2715 c-10 -12 -10 -15 3 -15 8 0 20 7 27 15 10 12 10 15 -3 15
-8 0 -20 -7 -27 -15z"/>
<path d="M8752 6958 c-43 -21 -8 -67 41 -54 26 6 44 37 32 56 -8 13 -44 12
-73 -2z"/>
<path d="M8331 5478 c-14 -39 -23 -118 -13 -118 14 0 42 75 42 110 0 35 -17
40 -29 8z"/>
<path d="M8116 4524 c-23 -59 20 -85 52 -33 10 16 10 24 1 35 -15 19 -45 18
-53 -2z"/>
<path d="M8105 4310 c-9 -15 4 -67 20 -80 12 -10 41 -3 63 15 2 1 -5 19 -14
39 -18 36 -54 50 -69 26z"/>
<path d="M2792 4077 c-18 -18 -32 -36 -32 -40 0 -4 25 -7 56 -7 47 0 55 3 50
16 -3 9 -9 27 -12 40 -8 32 -24 30 -62 -9z"/>
<path d="M2759 3939 c-13 -25 2 -69 24 -69 19 0 37 21 37 45 0 43 -41 60 -61
24z"/>
<path d="M2757 3760 c-10 -23 -12 -39 -6 -47 7 -7 2 -20 -16 -38 -14 -16 -25
-36 -25 -46 0 -18 43 -57 46 -42 18 95 27 123 40 123 20 0 17 34 -5 61 l-20
24 -14 -35z"/>
<path d="M2716 3484 c-12 -11 -16 -36 -16 -91 0 -65 -3 -81 -25 -108 -14 -20
-25 -48 -26 -71 -1 -22 -13 -60 -26 -86 -25 -52 -30 -88 -11 -88 11 0 108 96
108 107 0 2 -6 3 -14 3 -26 0 -27 17 -5 71 13 34 18 64 15 84 -4 22 1 45 18
79 17 35 23 58 19 82 -6 38 -14 42 -37 18z"/>
<path d="M9054 3989 c-10 -17 13 -36 27 -22 12 12 4 33 -11 33 -5 0 -12 -5
-16 -11z"/>
<path d="M2752 2899 c3 -37 21 -46 26 -13 2 11 -4 27 -13 34 -15 12 -16 10
-13 -21z"/>
<path d="M4217 2703 c-15 -14 -5 -33 24 -48 28 -15 33 -15 57 1 l26 17 -23 18
c-23 19 -71 25 -84 12z"/>
<path d="M6553 2489 c-12 -30 -11 -30 19 -27 37 4 45 19 23 42 -23 22 -29 20
-42 -15z"/>
</g>
</svg>
