<?xml version="1.0" standalone="no"?>
<!DOCTYPE svg PUBLIC "-//W3C//DTD SVG 20010904//EN"
 "http://www.w3.org/TR/2001/REC-SVG-20010904/DTD/svg10.dtd">
<svg version="1.0" xmlns="http://www.w3.org/2000/svg"
 width="1024.000000pt" height="1024.000000pt" viewBox="0 0 1024.000000 1024.000000"
 preserveAspectRatio="xMidYMid meet">

<g transform="translate(0.000000,1024.000000) scale(0.100000,-0.100000)"
fill="#000000" stroke="none">
<path d="M3910 7841 c-14 -5 -66 -29 -115 -55 -50 -25 -115 -53 -145 -61 -85
-22 -142 -64 -186 -136 -22 -34 -69 -92 -105 -128 -77 -76 -105 -126 -125
-223 -8 -39 -32 -105 -53 -147 l-39 -76 9 -125 c5 -69 15 -143 23 -165 23 -63
29 -103 21 -150 l-6 -44 -97 -37 c-116 -44 -296 -132 -361 -176 -196 -133
-315 -293 -343 -462 -14 -84 9 -212 51 -289 23 -42 33 -81 50 -207 12 -85 36
-233 52 -328 19 -103 27 -178 22 -183 -13 -13 -100 45 -208 140 -125 110 -130
119 -126 208 3 95 -18 144 -93 208 l-56 49 0 90 c-1 110 -21 167 -102 283
-114 163 -144 252 -135 408 7 122 -9 169 -71 210 -111 73 -274 19 -339 -113
-39 -80 -39 -195 1 -297 33 -83 37 -111 16 -107 -8 2 -94 24 -190 49 -162 43
-185 46 -305 47 -115 1 -135 -1 -170 -21 -72 -39 -115 -99 -115 -162 0 -18
-12 -38 -36 -62 -44 -41 -64 -85 -64 -138 0 -53 12 -82 55 -129 32 -36 35 -44
29 -81 -14 -87 45 -170 163 -229 85 -43 177 -67 358 -93 40 -5 94 -25 160 -59
99 -50 170 -70 248 -70 34 0 45 -6 78 -44 50 -57 110 -86 176 -86 l51 0 89
-102 c193 -223 380 -332 638 -371 l79 -13 39 -124 c119 -387 204 -625 268
-752 147 -291 411 -579 699 -763 41 -27 138 -81 215 -121 161 -83 154 -70 121
-219 -25 -108 -25 -283 -1 -393 l18 -84 -41 -38 c-23 -21 -51 -58 -62 -83 -17
-38 -31 -51 -88 -83 -37 -20 -86 -50 -109 -66 -37 -25 -50 -28 -125 -28 -262
0 -455 -151 -527 -409 -11 -41 -23 -76 -25 -79 -3 -2 -62 -13 -131 -23 -239
-35 -384 -82 -427 -140 -28 -37 -10 -62 77 -105 243 -119 885 -202 1960 -254
397 -20 1124 -24 1509 -9 199 7 375 13 391 13 17 -1 75 -13 130 -28 75 -21
131 -29 228 -33 197 -9 351 25 482 104 54 33 78 39 250 68 298 51 456 102 463
152 7 47 -129 98 -405 153 l-182 36 -40 55 c-22 30 -59 72 -84 92 -31 25 -61
67 -101 139 -73 134 -163 253 -271 358 -49 47 -94 101 -102 120 -38 90 -109
143 -219 163 l-67 13 -75 144 c-79 153 -113 236 -105 256 2 6 36 19 75 29 146
35 367 116 493 180 356 180 612 446 796 829 72 151 113 260 184 499 56 184 64
207 79 207 19 0 205 87 300 141 92 52 193 122 278 193 47 39 48 39 112 32 90
-9 143 7 213 63 58 47 61 48 144 54 97 7 192 38 278 91 44 27 86 41 177 61
144 31 201 49 279 88 80 40 132 83 163 137 22 37 26 55 24 111 -1 56 1 69 19
85 58 52 77 160 39 221 -10 18 -37 44 -59 58 -30 20 -41 35 -46 63 -25 138
-161 184 -387 131 -107 -25 -324 -102 -348 -124 -21 -19 -49 -19 -56 0 -4 9 5
41 18 73 87 200 49 377 -94 436 -47 20 -84 20 -139 1 -93 -33 -133 -101 -144
-240 -12 -163 -51 -267 -137 -371 -67 -81 -101 -164 -106 -262 l-5 -84 -57
-56 c-46 -45 -62 -69 -74 -112 -16 -53 -19 -57 -110 -117 -52 -35 -101 -63
-110 -63 -22 0 -21 24 13 213 16 89 37 221 46 292 14 108 22 141 50 195 70
136 71 258 3 399 -52 108 -161 221 -307 316 -55 37 -101 67 -101 68 0 16 -55
145 -76 178 -15 24 -37 67 -49 94 -28 67 -73 133 -96 140 -16 5 -71 46 -120
88 -22 19 -173 64 -237 71 -29 3 -84 15 -122 27 -63 21 -73 21 -124 9 -31 -7
-56 -17 -56 -22 0 -4 -7 -8 -16 -8 -31 0 -280 -92 -342 -127 -40 -22 -72 -33
-85 -30 -131 31 -233 50 -282 54 -33 2 -70 6 -82 8 -32 7 -46 37 -32 72 6 15
39 105 74 198 35 94 84 226 110 294 53 141 53 165 5 226 -64 81 -211 174 -329
209 -100 29 -191 17 -235 -33 -10 -11 -86 -215 -167 -453 -82 -237 -152 -435
-157 -440 -5 -5 -67 -7 -138 -6 l-129 3 -7 55 c-5 30 -24 85 -42 121 -19 36
-42 94 -51 129 -23 88 -42 132 -98 230 -76 133 -98 160 -153 191 -30 17 -69
53 -96 87 -29 36 -63 66 -94 82 -27 13 -71 37 -99 53 -27 16 -83 37 -125 48
-41 10 -97 28 -125 38 -38 15 -86 21 -200 25 -82 2 -161 1 -175 -3z m386 -102
c22 -15 100 -46 174 -69 132 -41 136 -43 185 -97 28 -31 79 -80 115 -110 80
-68 120 -125 120 -169 0 -25 11 -46 46 -85 49 -56 64 -85 64 -128 0 -16 16
-75 35 -133 l34 -105 -10 -149 c-9 -126 -15 -155 -35 -190 -13 -23 -25 -54
-28 -70 -4 -19 -27 -49 -65 -84 -37 -35 -68 -76 -85 -111 -28 -60 -54 -79
-108 -79 -31 0 -68 -24 -68 -43 0 -6 -7 -19 -17 -29 -13 -14 -31 -18 -90 -18
-79 0 -102 -8 -145 -47 -23 -22 -32 -24 -70 -19 -116 18 -139 18 -188 0 -54
-19 -63 -17 -130 32 -33 24 -40 25 -110 19 -71 -6 -77 -5 -115 21 -28 19 -60
30 -104 36 -72 9 -96 25 -118 81 -13 32 -26 43 -79 68 -62 29 -64 32 -80 85
-12 41 -22 58 -44 69 -36 19 -80 71 -80 96 0 11 5 29 11 40 8 16 6 32 -10 72
-11 29 -30 85 -41 124 -19 62 -20 80 -11 125 6 29 11 85 10 123 -1 74 14 126
84 292 31 74 48 97 158 212 92 98 135 135 170 151 26 11 51 20 55 20 4 0 48
19 98 42 115 53 123 54 292 53 135 0 143 -2 180 -26z m1704 -116 c74 -24 202
-96 242 -135 27 -27 38 -47 38 -68 0 -17 -45 -153 -101 -303 -55 -149 -139
-377 -186 -505 -48 -129 -92 -236 -100 -239 -24 -10 -63 7 -63 26 0 17 70 214
306 868 24 68 44 134 44 147 0 64 -247 174 -290 130 -5 -5 -31 -72 -58 -149
-28 -77 -76 -210 -107 -295 -32 -85 -102 -281 -156 -435 -55 -154 -105 -285
-112 -292 -6 -6 -24 -15 -39 -18 -39 -10 -37 7 18 156 90 243 335 954 356
1028 11 42 25 81 30 88 20 25 94 23 178 -4z m-615 -935 c9 -8 -32 -148 -43
-148 -4 0 -25 7 -47 15 -22 8 -64 14 -93 15 -46 0 -53 2 -48 18 2 9 8 33 11
52 12 59 19 62 121 58 51 -1 95 -6 99 -10z m900 -67 c135 -24 215 -43 215 -50
0 -14 -68 -126 -81 -134 -11 -7 -30 0 -70 26 -30 20 -76 41 -104 47 -46 11
-137 6 -173 -8 -18 -6 -11 28 18 96 23 51 30 51 195 23z m-3027 -213 c17 -22
32 -46 32 -53 0 -29 -87 -90 -161 -114 -224 -71 -390 -186 -446 -307 -47 -104
-20 -206 85 -316 189 -199 608 -341 1377 -467 626 -103 1074 -133 1668 -113
1105 39 1858 204 2120 464 70 69 97 124 97 198 0 68 -23 121 -83 188 l-45 51
-1 77 c0 42 2 81 5 86 9 14 123 -73 193 -148 39 -42 82 -101 102 -141 31 -62
34 -75 34 -158 0 -81 -3 -97 -33 -159 -24 -50 -53 -89 -107 -142 -63 -63 -93
-83 -198 -134 -224 -109 -700 -253 -1034 -314 -79 -14 -235 -36 -348 -48 -113
-13 -205 -26 -205 -30 0 -5 51 -8 113 -8 228 0 553 34 795 83 92 19 112 20
112 9 0 -29 -51 -317 -85 -480 -107 -509 -232 -912 -353 -1142 -48 -91 -139
-236 -179 -285 -98 -120 -245 -244 -385 -325 -43 -25 -78 -48 -78 -52 0 -21
292 73 425 136 402 191 653 465 828 902 122 303 242 731 337 1199 22 110 42
210 45 222 3 15 34 39 91 73 48 28 89 48 91 46 11 -11 -67 -440 -127 -697 -69
-300 -223 -789 -308 -977 -234 -524 -620 -841 -1215 -997 -412 -108 -796 -152
-1242 -142 -396 9 -650 59 -968 191 -495 205 -872 534 -1081 942 -107 209
-288 772 -376 1169 -66 296 -125 622 -115 633 2 2 31 -15 65 -38 191 -130 551
-261 865 -315 176 -30 409 -55 419 -45 12 12 7 14 -129 40 -186 36 -416 96
-602 159 -299 100 -488 198 -615 320 -140 133 -190 249 -169 393 27 194 178
360 446 490 107 51 273 116 300 117 6 0 25 -18 43 -41z m-1517 -37 c16 -19 19
-41 19 -125 0 -196 28 -289 127 -427 93 -130 117 -187 116 -275 -4 -182 -125
-368 -290 -447 -59 -28 -79 -32 -149 -32 -79 0 -84 2 -195 57 -103 51 -124 58
-212 68 -176 20 -357 84 -399 140 -27 37 -39 86 -25 104 11 13 21 13 82 1 39
-7 133 -20 210 -29 125 -14 144 -19 182 -46 l42 -29 11 37 c5 20 10 48 10 62
1 50 30 161 55 212 15 29 46 76 70 104 46 54 47 64 8 64 -46 0 -99 -43 -149
-118 -1 -2 -31 5 -66 16 -34 11 -135 34 -223 52 -88 17 -172 38 -187 46 -35
18 -43 46 -23 84 47 90 220 92 540 5 219 -59 275 -69 292 -53 12 13 8 26 -25
99 -82 179 -96 275 -51 365 35 71 78 97 153 92 46 -4 63 -9 77 -27z m4135 -46
c84 -19 164 -56 240 -111 109 -77 210 -217 202 -281 -3 -24 -11 -31 -55 -47
-53 -18 -53 -18 -102 3 -27 11 -61 21 -76 21 -40 0 -89 -25 -113 -56 -38 -51
-42 -54 -71 -54 -18 0 -38 10 -52 25 -64 69 -175 86 -261 40 -66 -35 -114 -33
-174 8 -67 46 -108 58 -166 51 -48 -7 -49 -6 -99 45 l-51 52 25 37 c99 148
275 256 461 282 76 11 210 4 292 -15z m-744 -7 c27 -27 10 -36 -33 -18 -23 10
-27 15 -18 26 16 19 25 18 51 -8z m2078 -195 c41 -8 113 -29 160 -46 73 -26
92 -39 151 -97 70 -70 120 -159 134 -235 l7 -40 -29 26 c-53 50 -89 62 -163
55 -62 -6 -70 -5 -96 17 -48 40 -90 57 -144 57 -58 0 -102 -16 -146 -53 -38
-32 -65 -34 -90 -6 -31 34 -70 49 -128 49 -30 0 -57 4 -60 9 -6 9 -67 26 -128
36 -23 3 -38 12 -38 20 0 15 98 104 162 147 78 53 218 91 298 81 19 -2 69 -11
110 -20z m-3950 -11 c19 -9 35 -24 35 -32 0 -8 -21 -25 -47 -38 -56 -26 -76
-53 -92 -124 -9 -42 -18 -57 -45 -75 -32 -22 -81 -31 -81 -15 1 4 7 18 15 32
8 14 14 40 15 57 0 24 9 41 35 64 34 32 45 62 25 74 -5 3 -10 16 -10 29 0 44
86 60 150 28z m5769 -136 c70 -37 87 -189 36 -326 -15 -41 -41 -99 -57 -129
-26 -49 -27 -56 -13 -70 14 -14 23 -14 93 5 42 12 125 40 184 63 294 113 507
131 547 45 28 -63 0 -84 -194 -145 -88 -28 -186 -59 -218 -71 l-57 -21 -40 46
c-44 49 -103 78 -123 58 -8 -8 -5 -18 11 -38 69 -87 102 -161 135 -310 13 -56
25 -105 29 -108 3 -3 19 7 35 23 22 23 48 34 109 47 43 9 141 33 218 52 153
40 161 38 152 -26 -7 -48 -30 -77 -89 -115 -78 -50 -168 -82 -312 -111 -106
-22 -150 -36 -240 -81 -82 -41 -125 -56 -171 -60 -145 -15 -309 83 -403 240
-51 85 -64 132 -65 226 -1 103 13 137 108 270 79 110 120 228 135 383 7 82 12
102 32 124 42 44 105 56 158 29z m-4569 -120 c-32 -17 -109 -31 -95 -18 12 12
71 30 100 31 17 0 17 -2 -5 -13z m-1580 -51 c0 -14 -4 -25 -10 -25 -11 0 -14
33 -3 43 11 11 13 8 13 -18z m2350 -11 c112 -27 224 -89 304 -168 107 -106
178 -255 130 -273 -9 -3 -39 -1 -68 6 -43 9 -59 9 -99 -5 -47 -16 -47 -16 -78
10 -38 33 -68 40 -126 32 -91 -12 -147 -66 -148 -142 0 -39 -4 -47 -32 -65
l-31 -20 -45 22 -45 22 -46 -27 c-26 -15 -51 -24 -57 -21 -5 4 -21 24 -34 45
-39 62 -100 64 -163 7 l-22 -21 -76 24 c-77 24 -81 24 -194 -2 -12 -2 -15 10
-15 72 1 65 6 85 38 151 97 202 280 331 522 370 66 10 204 2 285 -17z m1447
-13 c252 -52 478 -267 478 -455 0 -68 -13 -79 -62 -53 -154 83 -172 88 -257
65 -40 -11 -49 -9 -106 16 -54 24 -71 27 -117 22 -96 -11 -166 -62 -198 -143
-21 -54 -44 -56 -89 -8 -36 38 -81 46 -130 24 -39 -18 -91 -3 -136 41 -31 30
-51 40 -88 45 -102 13 -109 27 -62 122 58 116 185 232 316 286 51 21 81 29
189 51 53 10 179 4 262 -13z m-2636 -27 c53 -15 86 -34 61 -34 -7 0 -31 -17
-55 -39 -31 -28 -54 -40 -86 -44 -25 -3 -62 -18 -85 -34 -43 -30 -86 -100 -86
-140 0 -84 -72 -136 -190 -136 -76 -1 -180 27 -180 48 0 45 124 238 195 304
102 94 264 122 426 75z m3839 -13 c0 -17 -4 -32 -9 -35 -12 -8 -23 23 -16 45
10 29 25 22 25 -10z m-7090 -15 c30 -8 111 -26 180 -41 143 -30 250 -63 250
-76 0 -5 -5 -41 -12 -80 l-12 -71 -46 6 c-25 3 -95 11 -155 16 -212 20 -289
45 -332 110 -37 54 -23 118 31 140 29 12 35 12 96 -4z m9114 -310 c73 -30 71
-129 -4 -184 -39 -29 -98 -46 -350 -106 -58 -13 -113 -28 -122 -31 -18 -7 -32
29 -44 118 -6 42 -5 46 22 60 16 8 94 35 174 60 80 25 177 56 215 71 84 30 69
29 109 12z m-7773 -124 c42 -54 11 -176 -68 -263 -59 -65 -123 -93 -215 -94
-71 0 -79 2 -107 29 -17 17 -31 32 -31 36 0 3 24 17 53 32 112 55 216 162 268
278 l22 49 28 -20 c16 -11 38 -32 50 -47z m218 -415 c25 -21 71 -55 101 -76
91 -63 110 -86 110 -126 0 -46 -38 -106 -86 -135 l-36 -23 -67 32 c-36 18 -95
52 -131 76 -85 56 -255 227 -238 239 62 43 111 83 142 115 l39 40 60 -52 c32
-29 80 -69 106 -90z m6197 116 c35 -106 134 -226 242 -294 37 -23 69 -43 71
-45 9 -8 -35 -47 -66 -60 -80 -34 -177 -1 -259 89 -97 106 -113 241 -36 304
33 28 41 28 48 6z m-157 -268 c11 -25 46 -73 77 -105 49 -52 55 -62 42 -73
-110 -89 -238 -174 -320 -212 -54 -25 -59 -25 -87 -10 -17 8 -33 26 -37 39 -5
22 31 212 45 234 7 11 243 171 253 172 4 0 16 -20 27 -45z m-4198 -2400 c32
-24 88 -53 123 -65 l63 -21 6 -122 c3 -67 12 -159 18 -204 15 -97 11 -106 -53
-107 -100 -1 -161 31 -197 103 -30 59 -51 173 -51 280 0 96 18 221 28 193 2
-8 31 -33 63 -57z m396 30 c283 -76 751 -94 1218 -49 l60 6 34 -78 c19 -44 70
-145 113 -226 43 -81 78 -156 78 -167 0 -11 -9 -35 -20 -53 -47 -77 -26 -187
47 -247 31 -26 34 -33 43 -112 5 -46 10 -129 10 -183 l0 -99 -202 6 c-112 4
-424 10 -695 14 l-492 6 -6 66 c-9 98 -32 208 -60 291 -17 49 -25 95 -25 139
0 107 -50 182 -156 234 -40 19 -44 25 -55 75 -17 83 -8 319 14 360 20 37 18
37 94 17z m1835 -310 c54 -104 97 -199 96 -210 -7 -51 -139 -90 -221 -65 -22
6 -53 25 -68 41 -34 36 -219 357 -219 379 0 4 46 10 103 13 56 3 120 12 142
21 22 8 46 14 54 13 8 -1 59 -87 113 -192z m249 -157 c104 -58 99 -191 -10
-263 -106 -71 -313 -106 -418 -71 -92 31 -143 114 -113 186 7 16 14 30 17 30
2 0 20 -15 39 -34 19 -19 55 -39 80 -46 59 -17 190 -8 235 15 102 53 126 103
94 188 -10 25 27 23 76 -5z m-2124 -74 c38 -29 63 -72 63 -109 0 -86 -86 -130
-241 -123 -74 4 -107 10 -151 30 -73 34 -208 125 -208 141 1 16 30 52 55 65
16 8 26 4 58 -24 69 -58 183 -84 281 -64 67 14 96 38 96 80 0 37 4 37 47 4z
m2353 -191 c103 -97 240 -286 240 -332 0 -8 -108 14 -118 24 -2 2 -6 18 -8 37
-7 44 -33 79 -77 103 -21 11 -37 28 -37 38 0 44 -29 87 -74 108 l-44 22 16 34
c9 18 19 33 24 33 4 0 39 -30 78 -67z m-2855 9 c40 -20 127 -104 159 -152 21
-32 21 -86 0 -94 -28 -11 -33 -7 -73 52 -47 70 -103 122 -176 163 -30 17 -55
35 -55 39 0 14 54 27 80 20 14 -4 43 -17 65 -28z m-166 -61 c54 -28 148 -107
182 -154 46 -63 34 -123 -23 -115 -15 2 -32 21 -56 63 -41 73 -69 104 -145
160 -52 38 -56 44 -40 54 26 15 39 14 82 -8z m776 -125 c14 -54 25 -107 25
-117 0 -55 -334 -207 -562 -257 l-88 -19 0 78 c0 42 -3 84 -6 93 -5 12 1 14
30 9 45 -7 80 15 95 59 10 30 15 33 51 33 77 0 110 73 71 160 l-21 47 23 -7
c12 -3 65 -8 117 -11 81 -4 104 -1 160 19 36 12 68 20 73 17 4 -3 18 -50 32
-104z m2151 89 c37 -37 20 -51 -72 -58 -91 -8 -202 -45 -261 -87 -55 -40 -87
-38 -91 6 -4 42 25 64 120 93 40 12 105 33 143 46 94 31 130 31 161 0z m-3150
-9 c125 -33 216 -106 265 -211 28 -59 33 -82 37 -170 l5 -102 -34 -6 c-19 -4
-86 -9 -149 -13 -194 -11 -408 23 -537 87 -82 40 -89 53 -63 126 49 140 165
251 301 287 69 19 111 19 175 2z m2656 -114 c-4 -50 -2 -55 32 -87 28 -26 36
-41 36 -69 0 -25 9 -45 29 -68 l28 -32 -40 -63 c-21 -35 -40 -63 -41 -63 -2 0
-25 35 -53 78 l-51 77 -5 143 -5 143 36 -3 37 -3 -3 -53z m598 -17 c34 -17 40
-49 13 -63 -10 -5 -45 -10 -78 -11 -109 -4 -248 -44 -317 -92 -34 -25 -55 -24
-68 2 -18 32 -3 66 41 99 104 75 322 110 409 65z m143 -164 c203 -52 318 -161
277 -262 -47 -111 -299 -188 -527 -159 -123 15 -177 31 -296 88 -97 46 -99 47
-93 77 15 75 117 180 219 225 120 53 284 65 420 31z m-2354 -78 c1 -52 -12
-63 -162 -137 -210 -102 -427 -160 -707 -187 -215 -20 -438 11 -583 82 -94 45
-110 65 -102 123 4 26 10 45 14 44 49 -26 134 -61 175 -73 146 -44 405 -57
613 -30 275 36 499 111 683 229 54 34 55 35 62 13 3 -12 6 -41 7 -64z m1611
-185 l45 -81 104 -44 c173 -73 257 -94 411 -100 104 -4 153 -2 215 11 96 20
198 66 243 109 28 27 32 28 32 11 0 -77 -53 -150 -140 -194 -201 -101 -524
-97 -755 10 -148 68 -177 115 -209 338 -6 38 8 24 54 -60z"/>
<path d="M3952 7429 c-13 -5 -20 -13 -17 -19 7 -11 39 2 50 20 7 12 -2 12 -33
-1z"/>
<path d="M4035 7365 c-24 -15 -55 -25 -77 -25 -29 0 -47 -8 -76 -34 -21 -19
-51 -38 -66 -42 -19 -4 -33 -17 -42 -41 -8 -18 -25 -38 -39 -43 -33 -13 -48
-46 -42 -96 3 -33 -1 -51 -19 -81 -31 -51 -30 -77 7 -128 31 -43 31 -44 15
-76 -24 -49 -20 -66 24 -94 34 -22 39 -28 30 -45 -20 -37 -12 -56 33 -76 37
-17 43 -23 47 -59 5 -43 20 -54 97 -74 23 -6 54 -25 70 -41 31 -33 69 -48 127
-49 21 0 49 -7 62 -16 30 -19 58 -19 75 1 22 27 66 44 113 44 42 0 48 3 71 40
18 29 35 42 65 50 44 12 63 38 54 74 -8 34 12 65 52 82 38 16 41 31 18 76 -20
38 -11 76 21 88 34 13 31 30 -10 70 -38 37 -42 55 -20 84 23 30 18 44 -25 71
-32 20 -40 31 -40 55 0 16 5 32 10 35 6 3 10 15 10 27 0 18 -4 20 -31 14 -36
-7 -63 5 -85 39 -14 22 -14 26 2 54 10 17 15 33 11 37 -3 4 -26 1 -51 -6 -54
-15 -83 -3 -98 41 -14 40 -48 52 -100 38 -36 -9 -44 -8 -69 10 -37 27 -75 26
-124 -4z m172 -177 c10 -9 38 -22 63 -28 51 -13 149 -99 188 -166 27 -47 72
-171 72 -199 0 -40 -15 -46 -141 -61 -68 -7 -196 -23 -284 -34 -212 -27 -208
-27 -243 16 -27 33 -30 42 -35 147 -5 107 -4 114 21 165 29 59 111 142 139
142 10 1 34 10 53 21 43 24 139 22 167 -3z m263 -544 c0 -18 -55 -104 -69
-108 -33 -10 -244 -36 -291 -36 -43 0 -54 5 -90 38 -22 22 -40 43 -40 49 0 6
73 20 163 31 89 12 173 23 187 25 43 7 140 7 140 1z"/>
<path d="M3520 6886 c0 -31 5 -56 10 -56 6 0 10 22 10 49 0 28 -4 53 -10 56
-6 4 -10 -15 -10 -49z"/>
<path d="M4920 6891 c0 -16 5 -33 10 -36 6 -4 10 6 10 24 0 16 -4 33 -10 36
-6 4 -10 -6 -10 -24z"/>
<path d="M3620 6341 c0 -13 50 -51 66 -51 24 0 15 18 -20 39 -37 23 -46 25
-46 12z"/>
<path d="M4648 6304 c-39 -28 -43 -52 -5 -33 29 15 57 40 57 51 0 14 -14 9
-52 -18z"/>
<path d="M4343 4976 c-56 -18 -105 -49 -141 -91 -31 -35 -48 -72 -38 -82 3 -3
41 10 83 29 155 71 286 77 407 20 38 -18 72 -30 75 -26 3 3 -4 22 -16 42 -24
43 -98 97 -151 112 -51 14 -168 11 -219 -4z"/>
<path d="M5740 4920 c-58 -10 -119 -35 -147 -62 -28 -26 -31 -53 -5 -43 9 4
45 12 80 17 126 22 274 -28 368 -123 26 -27 52 -49 57 -49 15 0 -3 72 -29 117
-59 101 -199 164 -324 143z"/>
<path d="M4436 4719 c-217 -54 -360 -303 -343 -599 5 -81 23 -164 51 -231 6
-14 -4 -19 -61 -29 -84 -15 -130 -36 -157 -73 -15 -21 -17 -30 -8 -39 9 -9 27
-7 79 9 38 12 91 24 118 28 62 8 225 -16 342 -50 48 -14 97 -25 110 -25 21 0
23 -4 23 -52 0 -69 27 -113 83 -138 91 -39 178 -34 234 14 24 21 26 27 18 52
-9 24 -17 30 -47 32 -32 3 -37 0 -40 -20 -2 -18 -10 -24 -38 -26 -60 -6 -109
15 -127 53 -36 76 39 155 149 155 79 0 54 38 -33 49 l-51 6 22 27 c53 69 110
284 110 420 0 243 -140 427 -336 443 -32 2 -76 0 -98 -6z m152 -83 c22 -8 53
-22 67 -32 l27 -18 -45 -11 c-58 -15 -105 -47 -140 -96 -30 -42 -70 -146 -61
-160 3 -5 19 -9 35 -9 66 0 132 -66 110 -108 -18 -34 -42 -45 -109 -51 l-67
-6 -3 -54 c-4 -71 14 -184 38 -239 18 -41 18 -44 2 -37 -9 3 -46 13 -82 21
-36 8 -75 17 -87 19 -28 6 -65 76 -87 162 -33 126 -12 322 45 434 79 156 225
231 357 185z"/>
<path d="M5619 4667 c-141 -40 -252 -165 -316 -357 -26 -79 -28 -96 -28 -240
0 -137 3 -161 23 -211 24 -60 82 -153 129 -206 l29 -32 126 44 c240 83 406 96
538 41 86 -36 93 -38 110 -26 13 8 13 13 -2 37 -29 50 -119 88 -225 95 -18 1
-33 6 -33 10 0 5 12 32 26 60 38 75 74 229 81 344 5 87 3 109 -16 167 -23 69
-82 167 -122 204 -71 65 -221 98 -320 70z m182 -82 c24 -8 58 -26 74 -40 l30
-24 -40 -1 c-92 -3 -154 -50 -210 -163 -43 -86 -44 -97 -5 -97 43 0 104 -33
118 -64 26 -58 -29 -101 -126 -100 -48 0 -53 -2 -59 -24 -10 -42 5 -184 27
-246 11 -33 19 -60 18 -61 -2 -1 -33 -13 -70 -27 -58 -22 -69 -24 -86 -12 -26
18 -78 100 -98 154 -37 104 -37 272 1 401 43 149 148 278 253 309 44 13 125
11 173 -5z"/>
<path d="M4321 3541 c-49 -49 -6 -128 101 -182 67 -34 100 -75 173 -213 99
-187 191 -299 289 -356 121 -68 323 -84 471 -36 179 57 275 160 446 478 39 73
75 137 80 142 12 14 39 -12 56 -56 17 -43 38 -49 47 -15 14 58 -40 144 -111
173 -70 30 -147 10 -114 -30 23 -28 -167 -85 -409 -123 -166 -26 -427 -24
-580 5 -238 44 -400 122 -400 192 0 10 -6 23 -14 29 -12 10 -19 8 -35 -8z
m1269 -417 c22 -9 40 -20 40 -24 0 -19 -86 -133 -128 -171 -105 -93 -271 -142
-411 -121 -84 12 -179 53 -218 94 l-28 30 35 30 c19 17 60 42 90 57 48 22 68
26 150 26 90 0 97 2 133 29 21 16 62 38 90 47 67 24 192 25 247 3z"/>
<path d="M4820 2692 c0 -16 67 -71 119 -97 134 -67 311 -67 446 -1 66 32 133
86 107 86 -6 0 -50 -13 -99 -29 -165 -56 -347 -49 -490 18 -68 32 -83 36 -83
23z"/>
<path d="M5842 6168 c-18 -18 -14 -56 7 -68 26 -14 50 -3 57 26 11 42 -34 72
-64 42z"/>
<path d="M5470 6136 c-6 -8 -10 -25 -8 -38 4 -32 62 -39 78 -9 23 44 -38 85
-70 47z"/>
<path d="M7205 5981 c-8 -15 3 -31 21 -31 9 0 14 7 12 17 -4 20 -24 28 -33 14z"/>
<path d="M6913 5953 c-7 -2 -13 -14 -13 -25 0 -14 6 -19 23 -16 14 2 22 10 22
22 0 21 -12 28 -32 19z"/>
<path d="M5177 5632 c-10 -10 -17 -24 -17 -30 0 -15 29 -42 45 -42 7 0 21 7
29 16 9 8 16 22 16 29 0 17 -27 45 -44 45 -7 0 -20 -8 -29 -18z"/>
<path d="M4808 5609 c-21 -12 -24 -59 -6 -77 7 -7 21 -12 33 -12 28 0 45 19
45 50 0 44 -33 62 -72 39z"/>
<path d="M6674 5596 c-9 -39 2 -58 32 -54 57 7 57 69 1 76 -21 3 -28 -2 -33
-22z"/>
<path d="M6305 5586 c-21 -32 -5 -66 30 -66 34 0 61 41 45 69 -15 29 -56 27
-75 -3z"/>
<path d="M3765 5611 c-3 -5 -1 -12 5 -16 12 -7 30 2 30 16 0 12 -27 12 -35 0z"/>
<path d="M3584 5419 c-8 -14 11 -33 25 -25 16 10 13 36 -3 36 -8 0 -18 -5 -22
-11z"/>
</g>
</svg>
